%TF.GenerationSoftware,KiCad,Pcbnew,(6.0.9)*%
%TF.CreationDate,2022-12-23T18:09:11+01:00*%
%TF.ProjectId,Home Automation Coffee Machine PRO,486f6d65-2041-4757-946f-6d6174696f6e,5.3*%
%TF.SameCoordinates,Original*%
%TF.FileFunction,Drillmap*%
%TF.FilePolarity,Positive*%
%FSLAX45Y45*%
G04 Gerber Fmt 4.5, Leading zero omitted, Abs format (unit mm)*
G04 Created by KiCad (PCBNEW (6.0.9)) date 2022-12-23 18:09:11*
%MOMM*%
%LPD*%
G01*
G04 APERTURE LIST*
%ADD10C,0.100000*%
%ADD11C,0.050000*%
%ADD12C,0.200000*%
%ADD13C,0.040000*%
%ADD14C,0.060000*%
%ADD15C,0.095000*%
%ADD16C,0.101000*%
%ADD17C,0.152000*%
%ADD18C,0.250000*%
G04 APERTURE END LIST*
D10*
X14122000Y-8427000D02*
G75*
G03*
X14081000Y-8470049I-20J-41030D01*
G01*
X14079951Y-8756049D02*
X14081000Y-8470049D01*
X13981257Y-8858324D02*
G75*
G03*
X14024310Y-8899324I41053J4D01*
G01*
D11*
X15578336Y-12365903D02*
G75*
G03*
X15909336Y-12026800I4J331093D01*
G01*
X15909090Y-8062007D02*
G75*
G03*
X15569993Y-7731007I-331090J7D01*
G01*
D10*
X14610000Y-8370049D02*
G75*
G03*
X14566951Y-8329049I-41040J9D01*
G01*
X14122000Y-8427000D02*
X14466000Y-8428049D01*
X14509000Y-8755049D02*
X14509049Y-8469049D01*
X14568000Y-8900097D02*
X14468000Y-8900097D01*
X14468000Y-8798098D02*
G75*
G03*
X14509000Y-8755049I-20J41068D01*
G01*
X14609000Y-8857049D02*
X14610000Y-8370049D01*
X14123000Y-8899049D02*
X14024310Y-8899324D01*
X13980725Y-8369358D02*
X13981261Y-8858324D01*
D11*
X11597268Y-7728253D02*
X15569993Y-7731007D01*
X11270451Y-12033142D02*
G75*
G03*
X11609543Y-12364142I331089J-8D01*
G01*
D10*
X14566951Y-8329049D02*
X14021724Y-8326310D01*
X14123000Y-8899051D02*
G75*
G03*
X14123000Y-8797049I0J51001D01*
G01*
D11*
X11597268Y-7728252D02*
G75*
G03*
X11266268Y-8067349I2J-331098D01*
G01*
D10*
X14079952Y-8756049D02*
G75*
G03*
X14123000Y-8797049I41048J-1D01*
G01*
X14509050Y-8469049D02*
G75*
G03*
X14466000Y-8428049I-41050J-1D01*
G01*
X14468000Y-8798103D02*
G75*
G03*
X14468000Y-8900097I10J-50997D01*
G01*
D11*
X15909090Y-8062007D02*
X15909336Y-12026800D01*
D10*
X14021724Y-8326306D02*
G75*
G03*
X13980725Y-8369358I16J-41064D01*
G01*
D11*
X15578336Y-12365896D02*
X11609543Y-12364142D01*
X11270446Y-12033142D02*
X11266268Y-8067349D01*
D10*
X14568000Y-8900088D02*
G75*
G03*
X14609000Y-8857049I-10J41058D01*
G01*
D12*
D13*
X11512000Y-10771000D02*
X11552000Y-10811000D01*
X11552000Y-10771000D02*
X11512000Y-10811000D01*
X11533000Y-11004000D02*
X11573000Y-11044000D01*
X11573000Y-11004000D02*
X11533000Y-11044000D01*
X11656000Y-9769000D02*
X11696000Y-9809000D01*
X11696000Y-9769000D02*
X11656000Y-9809000D01*
X11709000Y-10128000D02*
X11749000Y-10168000D01*
X11749000Y-10128000D02*
X11709000Y-10168000D01*
X11725000Y-11653000D02*
X11765000Y-11693000D01*
X11765000Y-11653000D02*
X11725000Y-11693000D01*
X11744000Y-9076000D02*
X11784000Y-9116000D01*
X11784000Y-9076000D02*
X11744000Y-9116000D01*
X11781000Y-8770000D02*
X11821000Y-8810000D01*
X11821000Y-8770000D02*
X11781000Y-8810000D01*
X11844000Y-9739000D02*
X11884000Y-9779000D01*
X11884000Y-9739000D02*
X11844000Y-9779000D01*
X11857000Y-10405000D02*
X11897000Y-10445000D01*
X11897000Y-10405000D02*
X11857000Y-10445000D01*
X11907000Y-8660000D02*
X11947000Y-8700000D01*
X11947000Y-8660000D02*
X11907000Y-8700000D01*
X11937000Y-11259000D02*
X11977000Y-11299000D01*
X11977000Y-11259000D02*
X11937000Y-11299000D01*
X11960100Y-11936100D02*
X12000100Y-11976100D01*
X12000100Y-11936100D02*
X11960100Y-11976100D01*
X11996000Y-11608000D02*
X12036000Y-11648000D01*
X12036000Y-11608000D02*
X11996000Y-11648000D01*
X12019000Y-9161000D02*
X12059000Y-9201000D01*
X12059000Y-9161000D02*
X12019000Y-9201000D01*
X12065000Y-11786000D02*
X12105000Y-11826000D01*
X12105000Y-11786000D02*
X12065000Y-11826000D01*
X12121000Y-11031000D02*
X12161000Y-11071000D01*
X12161000Y-11031000D02*
X12121000Y-11071000D01*
X12144000Y-12117350D02*
X12184000Y-12157350D01*
X12184000Y-12117350D02*
X12144000Y-12157350D01*
X12146000Y-11870000D02*
X12186000Y-11910000D01*
X12186000Y-11870000D02*
X12146000Y-11910000D01*
X12153000Y-11224000D02*
X12193000Y-11264000D01*
X12193000Y-11224000D02*
X12153000Y-11264000D01*
X12226000Y-11697000D02*
X12266000Y-11737000D01*
X12266000Y-11697000D02*
X12226000Y-11737000D01*
X12242000Y-10997000D02*
X12282000Y-11037000D01*
X12282000Y-10997000D02*
X12242000Y-11037000D01*
X12259000Y-11309000D02*
X12299000Y-11349000D01*
X12299000Y-11309000D02*
X12259000Y-11349000D01*
X12327000Y-11169000D02*
X12367000Y-11209000D01*
X12367000Y-11169000D02*
X12327000Y-11209000D01*
X12364000Y-10980000D02*
X12404000Y-11020000D01*
X12404000Y-10980000D02*
X12364000Y-11020000D01*
X12365000Y-8688000D02*
X12405000Y-8728000D01*
X12405000Y-8688000D02*
X12365000Y-8728000D01*
X12402000Y-11143000D02*
X12442000Y-11183000D01*
X12442000Y-11143000D02*
X12402000Y-11183000D01*
X12411000Y-11830000D02*
X12451000Y-11870000D01*
X12451000Y-11830000D02*
X12411000Y-11870000D01*
X12449000Y-12079000D02*
X12489000Y-12119000D01*
X12489000Y-12079000D02*
X12449000Y-12119000D01*
X12525000Y-11959000D02*
X12565000Y-11999000D01*
X12565000Y-11959000D02*
X12525000Y-11999000D01*
X12547000Y-10878000D02*
X12587000Y-10918000D01*
X12587000Y-10878000D02*
X12547000Y-10918000D01*
X12550000Y-10960000D02*
X12590000Y-11000000D01*
X12590000Y-10960000D02*
X12550000Y-11000000D01*
X12564822Y-10225822D02*
X12604822Y-10265822D01*
X12604822Y-10225822D02*
X12564822Y-10265822D01*
X12568500Y-10382500D02*
X12608500Y-10422500D01*
X12608500Y-10382500D02*
X12568500Y-10422500D01*
X12629000Y-10309000D02*
X12669000Y-10349000D01*
X12669000Y-10309000D02*
X12629000Y-10349000D01*
X12667000Y-11072000D02*
X12707000Y-11112000D01*
X12707000Y-11072000D02*
X12667000Y-11112000D01*
X12686000Y-10601000D02*
X12726000Y-10641000D01*
X12726000Y-10601000D02*
X12686000Y-10641000D01*
X12745000Y-10763000D02*
X12785000Y-10803000D01*
X12785000Y-10763000D02*
X12745000Y-10803000D01*
X12756000Y-11691000D02*
X12796000Y-11731000D01*
X12796000Y-11691000D02*
X12756000Y-11731000D01*
X12763000Y-10885000D02*
X12803000Y-10925000D01*
X12803000Y-10885000D02*
X12763000Y-10925000D01*
X12792000Y-11065250D02*
X12832000Y-11105250D01*
X12832000Y-11065250D02*
X12792000Y-11105250D01*
X12853000Y-8689000D02*
X12893000Y-8729000D01*
X12893000Y-8689000D02*
X12853000Y-8729000D01*
X12910500Y-11115500D02*
X12950500Y-11155500D01*
X12950500Y-11115500D02*
X12910500Y-11155500D01*
X12934000Y-10697000D02*
X12974000Y-10737000D01*
X12974000Y-10697000D02*
X12934000Y-10737000D01*
X12971000Y-11216000D02*
X13011000Y-11256000D01*
X13011000Y-11216000D02*
X12971000Y-11256000D01*
X13070000Y-10557000D02*
X13110000Y-10597000D01*
X13110000Y-10557000D02*
X13070000Y-10597000D01*
X13074000Y-10822000D02*
X13114000Y-10862000D01*
X13114000Y-10822000D02*
X13074000Y-10862000D01*
X13163000Y-11983000D02*
X13203000Y-12023000D01*
X13203000Y-11983000D02*
X13163000Y-12023000D01*
X13190000Y-10932000D02*
X13230000Y-10972000D01*
X13230000Y-10932000D02*
X13190000Y-10972000D01*
X13201000Y-10680000D02*
X13241000Y-10720000D01*
X13241000Y-10680000D02*
X13201000Y-10720000D01*
X13203000Y-11184000D02*
X13243000Y-11224000D01*
X13243000Y-11184000D02*
X13203000Y-11224000D01*
X13218000Y-10415000D02*
X13258000Y-10455000D01*
X13258000Y-10415000D02*
X13218000Y-10455000D01*
X13322000Y-9824000D02*
X13362000Y-9864000D01*
X13362000Y-9824000D02*
X13322000Y-9864000D01*
X13336000Y-10800000D02*
X13376000Y-10840000D01*
X13376000Y-10800000D02*
X13336000Y-10840000D01*
X13345000Y-10540000D02*
X13385000Y-10580000D01*
X13385000Y-10540000D02*
X13345000Y-10580000D01*
X13350000Y-8706000D02*
X13390000Y-8746000D01*
X13390000Y-8706000D02*
X13350000Y-8746000D01*
X13351000Y-11484000D02*
X13391000Y-11524000D01*
X13391000Y-11484000D02*
X13351000Y-11524000D01*
X13369000Y-9930000D02*
X13409000Y-9970000D01*
X13409000Y-9930000D02*
X13369000Y-9970000D01*
X13445000Y-11697000D02*
X13485000Y-11737000D01*
X13485000Y-11697000D02*
X13445000Y-11737000D01*
X13451000Y-9008000D02*
X13491000Y-9048000D01*
X13491000Y-9008000D02*
X13451000Y-9048000D01*
X13482000Y-10662000D02*
X13522000Y-10702000D01*
X13522000Y-10662000D02*
X13482000Y-10702000D01*
X13495000Y-11105000D02*
X13535000Y-11145000D01*
X13535000Y-11105000D02*
X13495000Y-11145000D01*
X13514350Y-10234000D02*
X13554350Y-10274000D01*
X13554350Y-10234000D02*
X13514350Y-10274000D01*
X13578000Y-8599000D02*
X13618000Y-8639000D01*
X13618000Y-8599000D02*
X13578000Y-8639000D01*
X13578000Y-10146000D02*
X13618000Y-10186000D01*
X13618000Y-10146000D02*
X13578000Y-10186000D01*
X13588267Y-11113292D02*
X13628267Y-11153292D01*
X13628267Y-11113292D02*
X13588267Y-11153292D01*
X13601000Y-9495000D02*
X13641000Y-9535000D01*
X13641000Y-9495000D02*
X13601000Y-9535000D01*
X13615350Y-10368000D02*
X13655350Y-10408000D01*
X13655350Y-10368000D02*
X13615350Y-10408000D01*
X13618000Y-11033000D02*
X13658000Y-11073000D01*
X13658000Y-11033000D02*
X13618000Y-11073000D01*
X13628352Y-11182352D02*
X13668352Y-11222352D01*
X13668352Y-11182352D02*
X13628352Y-11222352D01*
X13696379Y-10993650D02*
X13736379Y-11033650D01*
X13736379Y-10993650D02*
X13696379Y-11033650D01*
X13697000Y-10304350D02*
X13737000Y-10344350D01*
X13737000Y-10304350D02*
X13697000Y-10344350D01*
X13722000Y-9521000D02*
X13762000Y-9561000D01*
X13762000Y-9521000D02*
X13722000Y-9561000D01*
X13725053Y-10551053D02*
X13765053Y-10591053D01*
X13765053Y-10551053D02*
X13725053Y-10591053D01*
X13731000Y-10760000D02*
X13771000Y-10800000D01*
X13771000Y-10760000D02*
X13731000Y-10800000D01*
X13743000Y-8960000D02*
X13783000Y-9000000D01*
X13783000Y-8960000D02*
X13743000Y-9000000D01*
X13748000Y-10469000D02*
X13788000Y-10509000D01*
X13788000Y-10469000D02*
X13748000Y-10509000D01*
X13750000Y-10376000D02*
X13790000Y-10416000D01*
X13790000Y-10376000D02*
X13750000Y-10416000D01*
X13770000Y-11698000D02*
X13810000Y-11738000D01*
X13810000Y-11698000D02*
X13770000Y-11738000D01*
X13776000Y-10953000D02*
X13816000Y-10993000D01*
X13816000Y-10953000D02*
X13776000Y-10993000D01*
X13778000Y-11207000D02*
X13818000Y-11247000D01*
X13818000Y-11207000D02*
X13778000Y-11247000D01*
X13800304Y-10602650D02*
X13840304Y-10642650D01*
X13840304Y-10602650D02*
X13800304Y-10642650D01*
X13820000Y-9517000D02*
X13860000Y-9557000D01*
X13860000Y-9517000D02*
X13820000Y-9557000D01*
X13827669Y-10755084D02*
X13867669Y-10795084D01*
X13867669Y-10755084D02*
X13827669Y-10795084D01*
X13848000Y-8982000D02*
X13888000Y-9022000D01*
X13888000Y-8982000D02*
X13848000Y-9022000D01*
X13857000Y-8598000D02*
X13897000Y-8638000D01*
X13897000Y-8598000D02*
X13857000Y-8638000D01*
X13894000Y-10638000D02*
X13934000Y-10678000D01*
X13934000Y-10638000D02*
X13894000Y-10678000D01*
X13918000Y-10835000D02*
X13958000Y-10875000D01*
X13958000Y-10835000D02*
X13918000Y-10875000D01*
X13926912Y-10744912D02*
X13966912Y-10784912D01*
X13966912Y-10744912D02*
X13926912Y-10784912D01*
X13970000Y-11601000D02*
X14010000Y-11641000D01*
X14010000Y-11601000D02*
X13970000Y-11641000D01*
X13987000Y-10573000D02*
X14027000Y-10613000D01*
X14027000Y-10573000D02*
X13987000Y-10613000D01*
X13999000Y-10161000D02*
X14039000Y-10201000D01*
X14039000Y-10161000D02*
X13999000Y-10201000D01*
X14047000Y-9019000D02*
X14087000Y-9059000D01*
X14087000Y-9019000D02*
X14047000Y-9059000D01*
X14072000Y-10154000D02*
X14112000Y-10194000D01*
X14112000Y-10154000D02*
X14072000Y-10194000D01*
X14157000Y-9206000D02*
X14197000Y-9246000D01*
X14197000Y-9206000D02*
X14157000Y-9246000D01*
X14161000Y-9055000D02*
X14201000Y-9095000D01*
X14201000Y-9055000D02*
X14161000Y-9095000D01*
X14164000Y-11699000D02*
X14204000Y-11739000D01*
X14204000Y-11699000D02*
X14164000Y-11739000D01*
X14174000Y-11207000D02*
X14214000Y-11247000D01*
X14214000Y-11207000D02*
X14174000Y-11247000D01*
X14257000Y-9478000D02*
X14297000Y-9518000D01*
X14297000Y-9478000D02*
X14257000Y-9518000D01*
X14257000Y-9569000D02*
X14297000Y-9609000D01*
X14297000Y-9569000D02*
X14257000Y-9609000D01*
X14296000Y-11582000D02*
X14336000Y-11622000D01*
X14336000Y-11582000D02*
X14296000Y-11622000D01*
X14388000Y-10746000D02*
X14428000Y-10786000D01*
X14428000Y-10746000D02*
X14388000Y-10786000D01*
X14431000Y-10315000D02*
X14471000Y-10355000D01*
X14471000Y-10315000D02*
X14431000Y-10355000D01*
X14437000Y-10435000D02*
X14477000Y-10475000D01*
X14477000Y-10435000D02*
X14437000Y-10475000D01*
X14448000Y-10576000D02*
X14488000Y-10616000D01*
X14488000Y-10576000D02*
X14448000Y-10616000D01*
X14487175Y-10229175D02*
X14527175Y-10269175D01*
X14527175Y-10229175D02*
X14487175Y-10269175D01*
X14541000Y-10505000D02*
X14581000Y-10545000D01*
X14581000Y-10505000D02*
X14541000Y-10545000D01*
X14544000Y-10372000D02*
X14584000Y-10412000D01*
X14584000Y-10372000D02*
X14544000Y-10412000D01*
X14574000Y-8977000D02*
X14614000Y-9017000D01*
X14614000Y-8977000D02*
X14574000Y-9017000D01*
X14683000Y-11372000D02*
X14723000Y-11412000D01*
X14723000Y-11372000D02*
X14683000Y-11412000D01*
X14729000Y-10390000D02*
X14769000Y-10430000D01*
X14769000Y-10390000D02*
X14729000Y-10430000D01*
X14744000Y-10949000D02*
X14784000Y-10989000D01*
X14784000Y-10949000D02*
X14744000Y-10989000D01*
X14803000Y-11022000D02*
X14843000Y-11062000D01*
X14843000Y-11022000D02*
X14803000Y-11062000D01*
X14872000Y-10198000D02*
X14912000Y-10238000D01*
X14912000Y-10198000D02*
X14872000Y-10238000D01*
X14880000Y-11097000D02*
X14920000Y-11137000D01*
X14920000Y-11097000D02*
X14880000Y-11137000D01*
X15330447Y-10197447D02*
X15370447Y-10237447D01*
X15370447Y-10197447D02*
X15330447Y-10237447D01*
X15531000Y-10839000D02*
X15571000Y-10879000D01*
X15571000Y-10839000D02*
X15531000Y-10879000D01*
X15533000Y-9907000D02*
X15573000Y-9947000D01*
X15573000Y-9907000D02*
X15533000Y-9947000D01*
X15541000Y-10016000D02*
X15581000Y-10056000D01*
X15581000Y-10016000D02*
X15541000Y-10056000D01*
X15615000Y-10625000D02*
X15655000Y-10665000D01*
X15655000Y-10625000D02*
X15615000Y-10665000D01*
X15627000Y-11494000D02*
X15667000Y-11534000D01*
X15667000Y-11494000D02*
X15627000Y-11534000D01*
X15666000Y-11108000D02*
X15706000Y-11148000D01*
X15706000Y-11108000D02*
X15666000Y-11148000D01*
D11*
X11403500Y-8028000D02*
G75*
G03*
X11403500Y-8028000I-25000J0D01*
G01*
X11406000Y-10586000D02*
G75*
G03*
X11406000Y-10586000I-25000J0D01*
G01*
D12*
X11346000Y-10611000D02*
X11416000Y-10611000D01*
X11346000Y-10561000D02*
X11416000Y-10561000D01*
X11416000Y-10611000D02*
G75*
G03*
X11416000Y-10561000I0J25000D01*
G01*
X11346000Y-10561000D02*
G75*
G03*
X11346000Y-10611000I0J-25000D01*
G01*
D11*
X11406000Y-11308000D02*
G75*
G03*
X11406000Y-11308000I-25000J0D01*
G01*
D12*
X11346000Y-11333000D02*
X11416000Y-11333000D01*
X11346000Y-11283000D02*
X11416000Y-11283000D01*
X11416000Y-11333000D02*
G75*
G03*
X11416000Y-11283000I0J25000D01*
G01*
X11346000Y-11283000D02*
G75*
G03*
X11346000Y-11333000I0J-25000D01*
G01*
D11*
X11421500Y-12085000D02*
G75*
G03*
X11421500Y-12085000I-25000J0D01*
G01*
X11458417Y-7895417D02*
G75*
G03*
X11458417Y-7895417I-25000J0D01*
G01*
X11458417Y-8160582D02*
G75*
G03*
X11458417Y-8160582I-25000J0D01*
G01*
X11476417Y-11952417D02*
G75*
G03*
X11476417Y-11952417I-25000J0D01*
G01*
X11476417Y-12217582D02*
G75*
G03*
X11476417Y-12217582I-25000J0D01*
G01*
X11591000Y-7840500D02*
G75*
G03*
X11591000Y-7840500I-25000J0D01*
G01*
X11591000Y-8215500D02*
G75*
G03*
X11591000Y-8215500I-25000J0D01*
G01*
X11609000Y-11897500D02*
G75*
G03*
X11609000Y-11897500I-25000J0D01*
G01*
X11609000Y-12272500D02*
G75*
G03*
X11609000Y-12272500I-25000J0D01*
G01*
X11723582Y-7895417D02*
G75*
G03*
X11723582Y-7895417I-25000J0D01*
G01*
X11723582Y-8160582D02*
G75*
G03*
X11723582Y-8160582I-25000J0D01*
G01*
X11741582Y-11952417D02*
G75*
G03*
X11741582Y-11952417I-25000J0D01*
G01*
X11741582Y-12217582D02*
G75*
G03*
X11741582Y-12217582I-25000J0D01*
G01*
X11753000Y-11307000D02*
G75*
G03*
X11753000Y-11307000I-25000J0D01*
G01*
D12*
X11693000Y-11332000D02*
X11763000Y-11332000D01*
X11693000Y-11282000D02*
X11763000Y-11282000D01*
X11763000Y-11332000D02*
G75*
G03*
X11763000Y-11282000I0J25000D01*
G01*
X11693000Y-11282000D02*
G75*
G03*
X11693000Y-11332000I0J-25000D01*
G01*
D11*
X11754000Y-10588000D02*
G75*
G03*
X11754000Y-10588000I-25000J0D01*
G01*
D12*
X11694000Y-10613000D02*
X11764000Y-10613000D01*
X11694000Y-10563000D02*
X11764000Y-10563000D01*
X11764000Y-10613000D02*
G75*
G03*
X11764000Y-10563000I0J25000D01*
G01*
X11694000Y-10563000D02*
G75*
G03*
X11694000Y-10613000I0J-25000D01*
G01*
D11*
X11778500Y-8028000D02*
G75*
G03*
X11778500Y-8028000I-25000J0D01*
G01*
X11796500Y-12085000D02*
G75*
G03*
X11796500Y-12085000I-25000J0D01*
G01*
X15436917Y-8026417D02*
G75*
G03*
X15436917Y-8026417I-25000J0D01*
G01*
X15444500Y-12069000D02*
G75*
G03*
X15444500Y-12069000I-25000J0D01*
G01*
X15491835Y-7893835D02*
G75*
G03*
X15491835Y-7893835I-25000J0D01*
G01*
X15491835Y-8159000D02*
G75*
G03*
X15491835Y-8159000I-25000J0D01*
G01*
X15499417Y-11936417D02*
G75*
G03*
X15499417Y-11936417I-25000J0D01*
G01*
X15499417Y-12201582D02*
G75*
G03*
X15499417Y-12201582I-25000J0D01*
G01*
X15624417Y-7838917D02*
G75*
G03*
X15624417Y-7838917I-25000J0D01*
G01*
X15624417Y-8213917D02*
G75*
G03*
X15624417Y-8213917I-25000J0D01*
G01*
X15632000Y-11881500D02*
G75*
G03*
X15632000Y-11881500I-25000J0D01*
G01*
X15632000Y-12256500D02*
G75*
G03*
X15632000Y-12256500I-25000J0D01*
G01*
X15757000Y-7893835D02*
G75*
G03*
X15757000Y-7893835I-25000J0D01*
G01*
X15757000Y-8159000D02*
G75*
G03*
X15757000Y-8159000I-25000J0D01*
G01*
X15764582Y-11936417D02*
G75*
G03*
X15764582Y-11936417I-25000J0D01*
G01*
X15764582Y-12201582D02*
G75*
G03*
X15764582Y-12201582I-25000J0D01*
G01*
X15811917Y-8026417D02*
G75*
G03*
X15811917Y-8026417I-25000J0D01*
G01*
X15819500Y-12069000D02*
G75*
G03*
X15819500Y-12069000I-25000J0D01*
G01*
D14*
X13617000Y-7837000D02*
X13617000Y-7897000D01*
X13587000Y-7867000D02*
X13647000Y-7867000D01*
X13747000Y-8337000D02*
X13747000Y-8397000D01*
X13717000Y-8367000D02*
X13777000Y-8367000D01*
D15*
X14545588Y-11705588D02*
X14545588Y-11638412D01*
X14478412Y-11638412D01*
X14478412Y-11705588D01*
X14545588Y-11705588D01*
X14582588Y-12205588D02*
X14582588Y-12138412D01*
X14515412Y-12138412D01*
X14515412Y-12205588D01*
X14582588Y-12205588D01*
X14795588Y-11705588D02*
X14795588Y-11638412D01*
X14728412Y-11638412D01*
X14728412Y-11705588D01*
X14795588Y-11705588D01*
X14832588Y-12205588D02*
X14832588Y-12138412D01*
X14765412Y-12138412D01*
X14765412Y-12205588D01*
X14832588Y-12205588D01*
X15045588Y-11705588D02*
X15045588Y-11638412D01*
X14978412Y-11638412D01*
X14978412Y-11705588D01*
X15045588Y-11705588D01*
X15082588Y-12205588D02*
X15082588Y-12138412D01*
X15015412Y-12138412D01*
X15015412Y-12205588D01*
X15082588Y-12205588D01*
X15295588Y-11705588D02*
X15295588Y-11638412D01*
X15228412Y-11638412D01*
X15228412Y-11705588D01*
X15295588Y-11705588D01*
D10*
X11527250Y-8789000D02*
X11577250Y-8739000D01*
X11527250Y-8689000D01*
X11477250Y-8739000D01*
X11527250Y-8789000D01*
X11527250Y-10329000D02*
X11577250Y-10279000D01*
X11527250Y-10229000D01*
X11477250Y-10279000D01*
X11527250Y-10329000D01*
X14135000Y-8172000D02*
X14185000Y-8122000D01*
X14135000Y-8072000D01*
X14085000Y-8122000D01*
X14135000Y-8172000D01*
X14467250Y-9309000D02*
X14517250Y-9259000D01*
X14467250Y-9209000D01*
X14417250Y-9259000D01*
X14467250Y-9309000D01*
X14467250Y-9809000D02*
X14517250Y-9759000D01*
X14467250Y-9709000D01*
X14417250Y-9759000D01*
X14467250Y-9809000D01*
X14984437Y-8769875D02*
X15034437Y-8719875D01*
X14984437Y-8669875D01*
X14934437Y-8719875D01*
X14984437Y-8769875D01*
X14991437Y-9644875D02*
X15041437Y-9594875D01*
X14991437Y-9544875D01*
X14941437Y-9594875D01*
X14991437Y-9644875D01*
X15135000Y-8172000D02*
X15185000Y-8122000D01*
X15135000Y-8072000D01*
X15085000Y-8122000D01*
X15135000Y-8172000D01*
X15691187Y-8777125D02*
X15741187Y-8727125D01*
X15691187Y-8677125D01*
X15641187Y-8727125D01*
X15691187Y-8777125D01*
X15696187Y-9652625D02*
X15746187Y-9602625D01*
X15696187Y-9552625D01*
X15646187Y-9602625D01*
X15696187Y-9652625D01*
D16*
X13064043Y-7812642D02*
X13165043Y-7913642D01*
X13165043Y-7812642D02*
X13064043Y-7913642D01*
X13165043Y-7863142D02*
G75*
G03*
X13165043Y-7863142I-50500J0D01*
G01*
X13184043Y-8322642D02*
X13285043Y-8423642D01*
X13285043Y-8322642D02*
X13184043Y-8423642D01*
X13285043Y-8373142D02*
G75*
G03*
X13285043Y-8373142I-50500J0D01*
G01*
D17*
X12040000Y-7981000D02*
X12192000Y-8133000D01*
X12192000Y-7981000D02*
X12040000Y-8133000D01*
X12116000Y-7981000D02*
X12116000Y-8133000D01*
X12040000Y-8057000D02*
X12192000Y-8057000D01*
X12548000Y-7981000D02*
X12700000Y-8133000D01*
X12700000Y-7981000D02*
X12548000Y-8133000D01*
X12624000Y-7981000D02*
X12624000Y-8133000D01*
X12548000Y-8057000D02*
X12700000Y-8057000D01*
D18*
X11441000Y-7903000D02*
X11691000Y-8153000D01*
X11691000Y-7903000D02*
X11441000Y-8153000D01*
X11654389Y-8116389D02*
X11654389Y-7939611D01*
X11477611Y-7939611D01*
X11477611Y-8116389D01*
X11654389Y-8116389D01*
X11459000Y-11960000D02*
X11709000Y-12210000D01*
X11709000Y-11960000D02*
X11459000Y-12210000D01*
X11672389Y-12173389D02*
X11672389Y-11996611D01*
X11495611Y-11996611D01*
X11495611Y-12173389D01*
X11672389Y-12173389D01*
X15474417Y-7901417D02*
X15724417Y-8151417D01*
X15724417Y-7901417D02*
X15474417Y-8151417D01*
X15687807Y-8114807D02*
X15687807Y-7938028D01*
X15511028Y-7938028D01*
X15511028Y-8114807D01*
X15687807Y-8114807D01*
X15482000Y-11944000D02*
X15732000Y-12194000D01*
X15732000Y-11944000D02*
X15482000Y-12194000D01*
X15695389Y-12157389D02*
X15695389Y-11980611D01*
X15518611Y-11980611D01*
X15518611Y-12157389D01*
X15695389Y-12157389D01*
D12*
X11521291Y-12678872D02*
X11521291Y-12478872D01*
X11568910Y-12478872D01*
X11597481Y-12488396D01*
X11616529Y-12507444D01*
X11626052Y-12526491D01*
X11635576Y-12564587D01*
X11635576Y-12593158D01*
X11626052Y-12631253D01*
X11616529Y-12650301D01*
X11597481Y-12669349D01*
X11568910Y-12678872D01*
X11521291Y-12678872D01*
X11721291Y-12678872D02*
X11721291Y-12545539D01*
X11721291Y-12583634D02*
X11730814Y-12564587D01*
X11740338Y-12555063D01*
X11759386Y-12545539D01*
X11778433Y-12545539D01*
X11845100Y-12678872D02*
X11845100Y-12545539D01*
X11845100Y-12478872D02*
X11835576Y-12488396D01*
X11845100Y-12497920D01*
X11854624Y-12488396D01*
X11845100Y-12478872D01*
X11845100Y-12497920D01*
X11968910Y-12678872D02*
X11949862Y-12669349D01*
X11940338Y-12650301D01*
X11940338Y-12478872D01*
X12073672Y-12678872D02*
X12054624Y-12669349D01*
X12045100Y-12650301D01*
X12045100Y-12478872D01*
X12302243Y-12678872D02*
X12302243Y-12478872D01*
X12368910Y-12621730D01*
X12435576Y-12478872D01*
X12435576Y-12678872D01*
X12616529Y-12678872D02*
X12616529Y-12574110D01*
X12607005Y-12555063D01*
X12587957Y-12545539D01*
X12549862Y-12545539D01*
X12530814Y-12555063D01*
X12616529Y-12669349D02*
X12597481Y-12678872D01*
X12549862Y-12678872D01*
X12530814Y-12669349D01*
X12521291Y-12650301D01*
X12521291Y-12631253D01*
X12530814Y-12612206D01*
X12549862Y-12602682D01*
X12597481Y-12602682D01*
X12616529Y-12593158D01*
X12711767Y-12545539D02*
X12711767Y-12745539D01*
X12711767Y-12555063D02*
X12730814Y-12545539D01*
X12768910Y-12545539D01*
X12787957Y-12555063D01*
X12797481Y-12564587D01*
X12807005Y-12583634D01*
X12807005Y-12640777D01*
X12797481Y-12659825D01*
X12787957Y-12669349D01*
X12768910Y-12678872D01*
X12730814Y-12678872D01*
X12711767Y-12669349D01*
X12892719Y-12659825D02*
X12902243Y-12669349D01*
X12892719Y-12678872D01*
X12883195Y-12669349D01*
X12892719Y-12659825D01*
X12892719Y-12678872D01*
X12892719Y-12555063D02*
X12902243Y-12564587D01*
X12892719Y-12574110D01*
X12883195Y-12564587D01*
X12892719Y-12555063D01*
X12892719Y-12574110D01*
D13*
X11223672Y-12988396D02*
X11263672Y-13028396D01*
X11263672Y-12988396D02*
X11223672Y-13028396D01*
D12*
X11559386Y-12898872D02*
X11578433Y-12898872D01*
X11597481Y-12908396D01*
X11607005Y-12917920D01*
X11616529Y-12936968D01*
X11626052Y-12975063D01*
X11626052Y-13022682D01*
X11616529Y-13060777D01*
X11607005Y-13079825D01*
X11597481Y-13089349D01*
X11578433Y-13098872D01*
X11559386Y-13098872D01*
X11540338Y-13089349D01*
X11530814Y-13079825D01*
X11521291Y-13060777D01*
X11511767Y-13022682D01*
X11511767Y-12975063D01*
X11521291Y-12936968D01*
X11530814Y-12917920D01*
X11540338Y-12908396D01*
X11559386Y-12898872D01*
X11711767Y-13079825D02*
X11721291Y-13089349D01*
X11711767Y-13098872D01*
X11702243Y-13089349D01*
X11711767Y-13079825D01*
X11711767Y-13098872D01*
X11892719Y-12965539D02*
X11892719Y-13098872D01*
X11845100Y-12889349D02*
X11797481Y-13032206D01*
X11921291Y-13032206D01*
X12035576Y-12898872D02*
X12054624Y-12898872D01*
X12073672Y-12908396D01*
X12083195Y-12917920D01*
X12092719Y-12936968D01*
X12102243Y-12975063D01*
X12102243Y-13022682D01*
X12092719Y-13060777D01*
X12083195Y-13079825D01*
X12073672Y-13089349D01*
X12054624Y-13098872D01*
X12035576Y-13098872D01*
X12016529Y-13089349D01*
X12007005Y-13079825D01*
X11997481Y-13060777D01*
X11987957Y-13022682D01*
X11987957Y-12975063D01*
X11997481Y-12936968D01*
X12007005Y-12917920D01*
X12016529Y-12908396D01*
X12035576Y-12898872D01*
X12226052Y-12898872D02*
X12245100Y-12898872D01*
X12264148Y-12908396D01*
X12273672Y-12917920D01*
X12283195Y-12936968D01*
X12292719Y-12975063D01*
X12292719Y-13022682D01*
X12283195Y-13060777D01*
X12273672Y-13079825D01*
X12264148Y-13089349D01*
X12245100Y-13098872D01*
X12226052Y-13098872D01*
X12207005Y-13089349D01*
X12197481Y-13079825D01*
X12187957Y-13060777D01*
X12178433Y-13022682D01*
X12178433Y-12975063D01*
X12187957Y-12936968D01*
X12197481Y-12917920D01*
X12207005Y-12908396D01*
X12226052Y-12898872D01*
X12378433Y-13098872D02*
X12378433Y-12965539D01*
X12378433Y-12984587D02*
X12387957Y-12975063D01*
X12407005Y-12965539D01*
X12435576Y-12965539D01*
X12454624Y-12975063D01*
X12464148Y-12994110D01*
X12464148Y-13098872D01*
X12464148Y-12994110D02*
X12473672Y-12975063D01*
X12492719Y-12965539D01*
X12521291Y-12965539D01*
X12540338Y-12975063D01*
X12549862Y-12994110D01*
X12549862Y-13098872D01*
X12645100Y-13098872D02*
X12645100Y-12965539D01*
X12645100Y-12984587D02*
X12654624Y-12975063D01*
X12673672Y-12965539D01*
X12702243Y-12965539D01*
X12721291Y-12975063D01*
X12730814Y-12994110D01*
X12730814Y-13098872D01*
X12730814Y-12994110D02*
X12740338Y-12975063D01*
X12759386Y-12965539D01*
X12787957Y-12965539D01*
X12807005Y-12975063D01*
X12816529Y-12994110D01*
X12816529Y-13098872D01*
X13207005Y-12889349D02*
X13035576Y-13146491D01*
X13464148Y-12898872D02*
X13483195Y-12898872D01*
X13502243Y-12908396D01*
X13511767Y-12917920D01*
X13521291Y-12936968D01*
X13530814Y-12975063D01*
X13530814Y-13022682D01*
X13521291Y-13060777D01*
X13511767Y-13079825D01*
X13502243Y-13089349D01*
X13483195Y-13098872D01*
X13464148Y-13098872D01*
X13445100Y-13089349D01*
X13435576Y-13079825D01*
X13426052Y-13060777D01*
X13416529Y-13022682D01*
X13416529Y-12975063D01*
X13426052Y-12936968D01*
X13435576Y-12917920D01*
X13445100Y-12908396D01*
X13464148Y-12898872D01*
X13616529Y-13079825D02*
X13626052Y-13089349D01*
X13616529Y-13098872D01*
X13607005Y-13089349D01*
X13616529Y-13079825D01*
X13616529Y-13098872D01*
X13749862Y-12898872D02*
X13768910Y-12898872D01*
X13787957Y-12908396D01*
X13797481Y-12917920D01*
X13807005Y-12936968D01*
X13816529Y-12975063D01*
X13816529Y-13022682D01*
X13807005Y-13060777D01*
X13797481Y-13079825D01*
X13787957Y-13089349D01*
X13768910Y-13098872D01*
X13749862Y-13098872D01*
X13730814Y-13089349D01*
X13721291Y-13079825D01*
X13711767Y-13060777D01*
X13702243Y-13022682D01*
X13702243Y-12975063D01*
X13711767Y-12936968D01*
X13721291Y-12917920D01*
X13730814Y-12908396D01*
X13749862Y-12898872D01*
X14007005Y-13098872D02*
X13892719Y-13098872D01*
X13949862Y-13098872D02*
X13949862Y-12898872D01*
X13930814Y-12927444D01*
X13911767Y-12946491D01*
X13892719Y-12956015D01*
X14187957Y-12898872D02*
X14092719Y-12898872D01*
X14083195Y-12994110D01*
X14092719Y-12984587D01*
X14111767Y-12975063D01*
X14159386Y-12975063D01*
X14178433Y-12984587D01*
X14187957Y-12994110D01*
X14197481Y-13013158D01*
X14197481Y-13060777D01*
X14187957Y-13079825D01*
X14178433Y-13089349D01*
X14159386Y-13098872D01*
X14111767Y-13098872D01*
X14092719Y-13089349D01*
X14083195Y-13079825D01*
X14264148Y-12898872D02*
X14397481Y-12898872D01*
X14311767Y-13098872D01*
X14464148Y-12898872D02*
X14464148Y-12936968D01*
X14540338Y-12898872D02*
X14540338Y-12936968D01*
X14835576Y-13175063D02*
X14826052Y-13165539D01*
X14807005Y-13136968D01*
X14797481Y-13117920D01*
X14787957Y-13089349D01*
X14778433Y-13041730D01*
X14778433Y-13003634D01*
X14787957Y-12956015D01*
X14797481Y-12927444D01*
X14807005Y-12908396D01*
X14826052Y-12879825D01*
X14835576Y-12870301D01*
X15016529Y-13098872D02*
X14902243Y-13098872D01*
X14959386Y-13098872D02*
X14959386Y-12898872D01*
X14940338Y-12927444D01*
X14921291Y-12946491D01*
X14902243Y-12956015D01*
X15092719Y-12917920D02*
X15102243Y-12908396D01*
X15121291Y-12898872D01*
X15168910Y-12898872D01*
X15187957Y-12908396D01*
X15197481Y-12917920D01*
X15207005Y-12936968D01*
X15207005Y-12956015D01*
X15197481Y-12984587D01*
X15083195Y-13098872D01*
X15207005Y-13098872D01*
X15397481Y-13098872D02*
X15283195Y-13098872D01*
X15340338Y-13098872D02*
X15340338Y-12898872D01*
X15321291Y-12927444D01*
X15302243Y-12946491D01*
X15283195Y-12956015D01*
X15635576Y-13098872D02*
X15635576Y-12898872D01*
X15721291Y-13098872D02*
X15721291Y-12994110D01*
X15711767Y-12975063D01*
X15692719Y-12965539D01*
X15664148Y-12965539D01*
X15645100Y-12975063D01*
X15635576Y-12984587D01*
X15845100Y-13098872D02*
X15826052Y-13089349D01*
X15816529Y-13079825D01*
X15807005Y-13060777D01*
X15807005Y-13003634D01*
X15816529Y-12984587D01*
X15826052Y-12975063D01*
X15845100Y-12965539D01*
X15873671Y-12965539D01*
X15892719Y-12975063D01*
X15902243Y-12984587D01*
X15911767Y-13003634D01*
X15911767Y-13060777D01*
X15902243Y-13079825D01*
X15892719Y-13089349D01*
X15873671Y-13098872D01*
X15845100Y-13098872D01*
X16026052Y-13098872D02*
X16007005Y-13089349D01*
X15997481Y-13070301D01*
X15997481Y-12898872D01*
X16178433Y-13089349D02*
X16159386Y-13098872D01*
X16121291Y-13098872D01*
X16102243Y-13089349D01*
X16092719Y-13070301D01*
X16092719Y-12994110D01*
X16102243Y-12975063D01*
X16121291Y-12965539D01*
X16159386Y-12965539D01*
X16178433Y-12975063D01*
X16187957Y-12994110D01*
X16187957Y-13013158D01*
X16092719Y-13032206D01*
X16264148Y-13089349D02*
X16283195Y-13098872D01*
X16321291Y-13098872D01*
X16340338Y-13089349D01*
X16349862Y-13070301D01*
X16349862Y-13060777D01*
X16340338Y-13041730D01*
X16321291Y-13032206D01*
X16292719Y-13032206D01*
X16273671Y-13022682D01*
X16264148Y-13003634D01*
X16264148Y-12994110D01*
X16273671Y-12975063D01*
X16292719Y-12965539D01*
X16321291Y-12965539D01*
X16340338Y-12975063D01*
X16416529Y-13175063D02*
X16426052Y-13165539D01*
X16445100Y-13136968D01*
X16454624Y-13117920D01*
X16464148Y-13089349D01*
X16473671Y-13041730D01*
X16473671Y-13003634D01*
X16464148Y-12956015D01*
X16454624Y-12927444D01*
X16445100Y-12908396D01*
X16426052Y-12879825D01*
X16416529Y-12870301D01*
D11*
X11263672Y-13272396D02*
G75*
G03*
X11263672Y-13272396I-25000J0D01*
G01*
D12*
X11559386Y-13162872D02*
X11578433Y-13162872D01*
X11597481Y-13172396D01*
X11607005Y-13181920D01*
X11616529Y-13200968D01*
X11626052Y-13239063D01*
X11626052Y-13286682D01*
X11616529Y-13324777D01*
X11607005Y-13343825D01*
X11597481Y-13353349D01*
X11578433Y-13362872D01*
X11559386Y-13362872D01*
X11540338Y-13353349D01*
X11530814Y-13343825D01*
X11521291Y-13324777D01*
X11511767Y-13286682D01*
X11511767Y-13239063D01*
X11521291Y-13200968D01*
X11530814Y-13181920D01*
X11540338Y-13172396D01*
X11559386Y-13162872D01*
X11711767Y-13343825D02*
X11721291Y-13353349D01*
X11711767Y-13362872D01*
X11702243Y-13353349D01*
X11711767Y-13343825D01*
X11711767Y-13362872D01*
X11902243Y-13162872D02*
X11807005Y-13162872D01*
X11797481Y-13258110D01*
X11807005Y-13248587D01*
X11826052Y-13239063D01*
X11873672Y-13239063D01*
X11892719Y-13248587D01*
X11902243Y-13258110D01*
X11911767Y-13277158D01*
X11911767Y-13324777D01*
X11902243Y-13343825D01*
X11892719Y-13353349D01*
X11873672Y-13362872D01*
X11826052Y-13362872D01*
X11807005Y-13353349D01*
X11797481Y-13343825D01*
X12035576Y-13162872D02*
X12054624Y-13162872D01*
X12073672Y-13172396D01*
X12083195Y-13181920D01*
X12092719Y-13200968D01*
X12102243Y-13239063D01*
X12102243Y-13286682D01*
X12092719Y-13324777D01*
X12083195Y-13343825D01*
X12073672Y-13353349D01*
X12054624Y-13362872D01*
X12035576Y-13362872D01*
X12016529Y-13353349D01*
X12007005Y-13343825D01*
X11997481Y-13324777D01*
X11987957Y-13286682D01*
X11987957Y-13239063D01*
X11997481Y-13200968D01*
X12007005Y-13181920D01*
X12016529Y-13172396D01*
X12035576Y-13162872D01*
X12226052Y-13162872D02*
X12245100Y-13162872D01*
X12264148Y-13172396D01*
X12273672Y-13181920D01*
X12283195Y-13200968D01*
X12292719Y-13239063D01*
X12292719Y-13286682D01*
X12283195Y-13324777D01*
X12273672Y-13343825D01*
X12264148Y-13353349D01*
X12245100Y-13362872D01*
X12226052Y-13362872D01*
X12207005Y-13353349D01*
X12197481Y-13343825D01*
X12187957Y-13324777D01*
X12178433Y-13286682D01*
X12178433Y-13239063D01*
X12187957Y-13200968D01*
X12197481Y-13181920D01*
X12207005Y-13172396D01*
X12226052Y-13162872D01*
X12378433Y-13362872D02*
X12378433Y-13229539D01*
X12378433Y-13248587D02*
X12387957Y-13239063D01*
X12407005Y-13229539D01*
X12435576Y-13229539D01*
X12454624Y-13239063D01*
X12464148Y-13258110D01*
X12464148Y-13362872D01*
X12464148Y-13258110D02*
X12473672Y-13239063D01*
X12492719Y-13229539D01*
X12521291Y-13229539D01*
X12540338Y-13239063D01*
X12549862Y-13258110D01*
X12549862Y-13362872D01*
X12645100Y-13362872D02*
X12645100Y-13229539D01*
X12645100Y-13248587D02*
X12654624Y-13239063D01*
X12673672Y-13229539D01*
X12702243Y-13229539D01*
X12721291Y-13239063D01*
X12730814Y-13258110D01*
X12730814Y-13362872D01*
X12730814Y-13258110D02*
X12740338Y-13239063D01*
X12759386Y-13229539D01*
X12787957Y-13229539D01*
X12807005Y-13239063D01*
X12816529Y-13258110D01*
X12816529Y-13362872D01*
X13207005Y-13153349D02*
X13035576Y-13410491D01*
X13464148Y-13162872D02*
X13483195Y-13162872D01*
X13502243Y-13172396D01*
X13511767Y-13181920D01*
X13521291Y-13200968D01*
X13530814Y-13239063D01*
X13530814Y-13286682D01*
X13521291Y-13324777D01*
X13511767Y-13343825D01*
X13502243Y-13353349D01*
X13483195Y-13362872D01*
X13464148Y-13362872D01*
X13445100Y-13353349D01*
X13435576Y-13343825D01*
X13426052Y-13324777D01*
X13416529Y-13286682D01*
X13416529Y-13239063D01*
X13426052Y-13200968D01*
X13435576Y-13181920D01*
X13445100Y-13172396D01*
X13464148Y-13162872D01*
X13616529Y-13343825D02*
X13626052Y-13353349D01*
X13616529Y-13362872D01*
X13607005Y-13353349D01*
X13616529Y-13343825D01*
X13616529Y-13362872D01*
X13749862Y-13162872D02*
X13768910Y-13162872D01*
X13787957Y-13172396D01*
X13797481Y-13181920D01*
X13807005Y-13200968D01*
X13816529Y-13239063D01*
X13816529Y-13286682D01*
X13807005Y-13324777D01*
X13797481Y-13343825D01*
X13787957Y-13353349D01*
X13768910Y-13362872D01*
X13749862Y-13362872D01*
X13730814Y-13353349D01*
X13721291Y-13343825D01*
X13711767Y-13324777D01*
X13702243Y-13286682D01*
X13702243Y-13239063D01*
X13711767Y-13200968D01*
X13721291Y-13181920D01*
X13730814Y-13172396D01*
X13749862Y-13162872D01*
X14007005Y-13362872D02*
X13892719Y-13362872D01*
X13949862Y-13362872D02*
X13949862Y-13162872D01*
X13930814Y-13191444D01*
X13911767Y-13210491D01*
X13892719Y-13220015D01*
X14102243Y-13362872D02*
X14140338Y-13362872D01*
X14159386Y-13353349D01*
X14168910Y-13343825D01*
X14187957Y-13315253D01*
X14197481Y-13277158D01*
X14197481Y-13200968D01*
X14187957Y-13181920D01*
X14178433Y-13172396D01*
X14159386Y-13162872D01*
X14121291Y-13162872D01*
X14102243Y-13172396D01*
X14092719Y-13181920D01*
X14083195Y-13200968D01*
X14083195Y-13248587D01*
X14092719Y-13267634D01*
X14102243Y-13277158D01*
X14121291Y-13286682D01*
X14159386Y-13286682D01*
X14178433Y-13277158D01*
X14187957Y-13267634D01*
X14197481Y-13248587D01*
X14264148Y-13162872D02*
X14397481Y-13162872D01*
X14311767Y-13362872D01*
X14464148Y-13162872D02*
X14464148Y-13200968D01*
X14540338Y-13162872D02*
X14540338Y-13200968D01*
X14835576Y-13439063D02*
X14826052Y-13429539D01*
X14807005Y-13400968D01*
X14797481Y-13381920D01*
X14787957Y-13353349D01*
X14778433Y-13305730D01*
X14778433Y-13267634D01*
X14787957Y-13220015D01*
X14797481Y-13191444D01*
X14807005Y-13172396D01*
X14826052Y-13143825D01*
X14835576Y-13134301D01*
X14892719Y-13162872D02*
X15016529Y-13162872D01*
X14949862Y-13239063D01*
X14978433Y-13239063D01*
X14997481Y-13248587D01*
X15007005Y-13258110D01*
X15016529Y-13277158D01*
X15016529Y-13324777D01*
X15007005Y-13343825D01*
X14997481Y-13353349D01*
X14978433Y-13362872D01*
X14921291Y-13362872D01*
X14902243Y-13353349D01*
X14892719Y-13343825D01*
X15092719Y-13181920D02*
X15102243Y-13172396D01*
X15121291Y-13162872D01*
X15168910Y-13162872D01*
X15187957Y-13172396D01*
X15197481Y-13181920D01*
X15207005Y-13200968D01*
X15207005Y-13220015D01*
X15197481Y-13248587D01*
X15083195Y-13362872D01*
X15207005Y-13362872D01*
X15445100Y-13362872D02*
X15445100Y-13162872D01*
X15530814Y-13362872D02*
X15530814Y-13258110D01*
X15521291Y-13239063D01*
X15502243Y-13229539D01*
X15473671Y-13229539D01*
X15454624Y-13239063D01*
X15445100Y-13248587D01*
X15654624Y-13362872D02*
X15635576Y-13353349D01*
X15626052Y-13343825D01*
X15616529Y-13324777D01*
X15616529Y-13267634D01*
X15626052Y-13248587D01*
X15635576Y-13239063D01*
X15654624Y-13229539D01*
X15683195Y-13229539D01*
X15702243Y-13239063D01*
X15711767Y-13248587D01*
X15721291Y-13267634D01*
X15721291Y-13324777D01*
X15711767Y-13343825D01*
X15702243Y-13353349D01*
X15683195Y-13362872D01*
X15654624Y-13362872D01*
X15835576Y-13362872D02*
X15816529Y-13353349D01*
X15807005Y-13334301D01*
X15807005Y-13162872D01*
X15987957Y-13353349D02*
X15968910Y-13362872D01*
X15930814Y-13362872D01*
X15911767Y-13353349D01*
X15902243Y-13334301D01*
X15902243Y-13258110D01*
X15911767Y-13239063D01*
X15930814Y-13229539D01*
X15968910Y-13229539D01*
X15987957Y-13239063D01*
X15997481Y-13258110D01*
X15997481Y-13277158D01*
X15902243Y-13296206D01*
X16073671Y-13353349D02*
X16092719Y-13362872D01*
X16130814Y-13362872D01*
X16149862Y-13353349D01*
X16159386Y-13334301D01*
X16159386Y-13324777D01*
X16149862Y-13305730D01*
X16130814Y-13296206D01*
X16102243Y-13296206D01*
X16083195Y-13286682D01*
X16073671Y-13267634D01*
X16073671Y-13258110D01*
X16083195Y-13239063D01*
X16102243Y-13229539D01*
X16130814Y-13229539D01*
X16149862Y-13239063D01*
X16397481Y-13286682D02*
X16549862Y-13286682D01*
X16473671Y-13362872D02*
X16473671Y-13210491D01*
X16883195Y-13229539D02*
X16883195Y-13362872D01*
X16835576Y-13153349D02*
X16787957Y-13296206D01*
X16911767Y-13296206D01*
X17130814Y-13353349D02*
X17149862Y-13362872D01*
X17187957Y-13362872D01*
X17207005Y-13353349D01*
X17216529Y-13334301D01*
X17216529Y-13324777D01*
X17207005Y-13305730D01*
X17187957Y-13296206D01*
X17159386Y-13296206D01*
X17140338Y-13286682D01*
X17130814Y-13267634D01*
X17130814Y-13258110D01*
X17140338Y-13239063D01*
X17159386Y-13229539D01*
X17187957Y-13229539D01*
X17207005Y-13239063D01*
X17330814Y-13362872D02*
X17311767Y-13353349D01*
X17302243Y-13334301D01*
X17302243Y-13162872D01*
X17435576Y-13362872D02*
X17416529Y-13353349D01*
X17407005Y-13343825D01*
X17397481Y-13324777D01*
X17397481Y-13267634D01*
X17407005Y-13248587D01*
X17416529Y-13239063D01*
X17435576Y-13229539D01*
X17464148Y-13229539D01*
X17483195Y-13239063D01*
X17492719Y-13248587D01*
X17502243Y-13267634D01*
X17502243Y-13324777D01*
X17492719Y-13343825D01*
X17483195Y-13353349D01*
X17464148Y-13362872D01*
X17435576Y-13362872D01*
X17559386Y-13229539D02*
X17635576Y-13229539D01*
X17587957Y-13162872D02*
X17587957Y-13334301D01*
X17597481Y-13353349D01*
X17616529Y-13362872D01*
X17635576Y-13362872D01*
X17692719Y-13353349D02*
X17711767Y-13362872D01*
X17749862Y-13362872D01*
X17768910Y-13353349D01*
X17778434Y-13334301D01*
X17778434Y-13324777D01*
X17768910Y-13305730D01*
X17749862Y-13296206D01*
X17721291Y-13296206D01*
X17702243Y-13286682D01*
X17692719Y-13267634D01*
X17692719Y-13258110D01*
X17702243Y-13239063D01*
X17721291Y-13229539D01*
X17749862Y-13229539D01*
X17768910Y-13239063D01*
X17845100Y-13439063D02*
X17854624Y-13429539D01*
X17873672Y-13400968D01*
X17883195Y-13381920D01*
X17892719Y-13353349D01*
X17902243Y-13305730D01*
X17902243Y-13267634D01*
X17892719Y-13220015D01*
X17883195Y-13191444D01*
X17873672Y-13172396D01*
X17854624Y-13143825D01*
X17845100Y-13134301D01*
D14*
X11233672Y-13506396D02*
X11233672Y-13566396D01*
X11203672Y-13536396D02*
X11263672Y-13536396D01*
D12*
X11559386Y-13426872D02*
X11578433Y-13426872D01*
X11597481Y-13436396D01*
X11607005Y-13445920D01*
X11616529Y-13464968D01*
X11626052Y-13503063D01*
X11626052Y-13550682D01*
X11616529Y-13588777D01*
X11607005Y-13607825D01*
X11597481Y-13617349D01*
X11578433Y-13626872D01*
X11559386Y-13626872D01*
X11540338Y-13617349D01*
X11530814Y-13607825D01*
X11521291Y-13588777D01*
X11511767Y-13550682D01*
X11511767Y-13503063D01*
X11521291Y-13464968D01*
X11530814Y-13445920D01*
X11540338Y-13436396D01*
X11559386Y-13426872D01*
X11711767Y-13607825D02*
X11721291Y-13617349D01*
X11711767Y-13626872D01*
X11702243Y-13617349D01*
X11711767Y-13607825D01*
X11711767Y-13626872D01*
X11892719Y-13426872D02*
X11854624Y-13426872D01*
X11835576Y-13436396D01*
X11826052Y-13445920D01*
X11807005Y-13474491D01*
X11797481Y-13512587D01*
X11797481Y-13588777D01*
X11807005Y-13607825D01*
X11816529Y-13617349D01*
X11835576Y-13626872D01*
X11873672Y-13626872D01*
X11892719Y-13617349D01*
X11902243Y-13607825D01*
X11911767Y-13588777D01*
X11911767Y-13541158D01*
X11902243Y-13522110D01*
X11892719Y-13512587D01*
X11873672Y-13503063D01*
X11835576Y-13503063D01*
X11816529Y-13512587D01*
X11807005Y-13522110D01*
X11797481Y-13541158D01*
X12035576Y-13426872D02*
X12054624Y-13426872D01*
X12073672Y-13436396D01*
X12083195Y-13445920D01*
X12092719Y-13464968D01*
X12102243Y-13503063D01*
X12102243Y-13550682D01*
X12092719Y-13588777D01*
X12083195Y-13607825D01*
X12073672Y-13617349D01*
X12054624Y-13626872D01*
X12035576Y-13626872D01*
X12016529Y-13617349D01*
X12007005Y-13607825D01*
X11997481Y-13588777D01*
X11987957Y-13550682D01*
X11987957Y-13503063D01*
X11997481Y-13464968D01*
X12007005Y-13445920D01*
X12016529Y-13436396D01*
X12035576Y-13426872D01*
X12226052Y-13426872D02*
X12245100Y-13426872D01*
X12264148Y-13436396D01*
X12273672Y-13445920D01*
X12283195Y-13464968D01*
X12292719Y-13503063D01*
X12292719Y-13550682D01*
X12283195Y-13588777D01*
X12273672Y-13607825D01*
X12264148Y-13617349D01*
X12245100Y-13626872D01*
X12226052Y-13626872D01*
X12207005Y-13617349D01*
X12197481Y-13607825D01*
X12187957Y-13588777D01*
X12178433Y-13550682D01*
X12178433Y-13503063D01*
X12187957Y-13464968D01*
X12197481Y-13445920D01*
X12207005Y-13436396D01*
X12226052Y-13426872D01*
X12378433Y-13626872D02*
X12378433Y-13493539D01*
X12378433Y-13512587D02*
X12387957Y-13503063D01*
X12407005Y-13493539D01*
X12435576Y-13493539D01*
X12454624Y-13503063D01*
X12464148Y-13522110D01*
X12464148Y-13626872D01*
X12464148Y-13522110D02*
X12473672Y-13503063D01*
X12492719Y-13493539D01*
X12521291Y-13493539D01*
X12540338Y-13503063D01*
X12549862Y-13522110D01*
X12549862Y-13626872D01*
X12645100Y-13626872D02*
X12645100Y-13493539D01*
X12645100Y-13512587D02*
X12654624Y-13503063D01*
X12673672Y-13493539D01*
X12702243Y-13493539D01*
X12721291Y-13503063D01*
X12730814Y-13522110D01*
X12730814Y-13626872D01*
X12730814Y-13522110D02*
X12740338Y-13503063D01*
X12759386Y-13493539D01*
X12787957Y-13493539D01*
X12807005Y-13503063D01*
X12816529Y-13522110D01*
X12816529Y-13626872D01*
X13207005Y-13417349D02*
X13035576Y-13674491D01*
X13464148Y-13426872D02*
X13483195Y-13426872D01*
X13502243Y-13436396D01*
X13511767Y-13445920D01*
X13521291Y-13464968D01*
X13530814Y-13503063D01*
X13530814Y-13550682D01*
X13521291Y-13588777D01*
X13511767Y-13607825D01*
X13502243Y-13617349D01*
X13483195Y-13626872D01*
X13464148Y-13626872D01*
X13445100Y-13617349D01*
X13435576Y-13607825D01*
X13426052Y-13588777D01*
X13416529Y-13550682D01*
X13416529Y-13503063D01*
X13426052Y-13464968D01*
X13435576Y-13445920D01*
X13445100Y-13436396D01*
X13464148Y-13426872D01*
X13616529Y-13607825D02*
X13626052Y-13617349D01*
X13616529Y-13626872D01*
X13607005Y-13617349D01*
X13616529Y-13607825D01*
X13616529Y-13626872D01*
X13749862Y-13426872D02*
X13768910Y-13426872D01*
X13787957Y-13436396D01*
X13797481Y-13445920D01*
X13807005Y-13464968D01*
X13816529Y-13503063D01*
X13816529Y-13550682D01*
X13807005Y-13588777D01*
X13797481Y-13607825D01*
X13787957Y-13617349D01*
X13768910Y-13626872D01*
X13749862Y-13626872D01*
X13730814Y-13617349D01*
X13721291Y-13607825D01*
X13711767Y-13588777D01*
X13702243Y-13550682D01*
X13702243Y-13503063D01*
X13711767Y-13464968D01*
X13721291Y-13445920D01*
X13730814Y-13436396D01*
X13749862Y-13426872D01*
X13892719Y-13445920D02*
X13902243Y-13436396D01*
X13921291Y-13426872D01*
X13968910Y-13426872D01*
X13987957Y-13436396D01*
X13997481Y-13445920D01*
X14007005Y-13464968D01*
X14007005Y-13484015D01*
X13997481Y-13512587D01*
X13883195Y-13626872D01*
X14007005Y-13626872D01*
X14073672Y-13426872D02*
X14197481Y-13426872D01*
X14130814Y-13503063D01*
X14159386Y-13503063D01*
X14178433Y-13512587D01*
X14187957Y-13522110D01*
X14197481Y-13541158D01*
X14197481Y-13588777D01*
X14187957Y-13607825D01*
X14178433Y-13617349D01*
X14159386Y-13626872D01*
X14102243Y-13626872D01*
X14083195Y-13617349D01*
X14073672Y-13607825D01*
X14368910Y-13426872D02*
X14330814Y-13426872D01*
X14311767Y-13436396D01*
X14302243Y-13445920D01*
X14283195Y-13474491D01*
X14273672Y-13512587D01*
X14273672Y-13588777D01*
X14283195Y-13607825D01*
X14292719Y-13617349D01*
X14311767Y-13626872D01*
X14349862Y-13626872D01*
X14368910Y-13617349D01*
X14378433Y-13607825D01*
X14387957Y-13588777D01*
X14387957Y-13541158D01*
X14378433Y-13522110D01*
X14368910Y-13512587D01*
X14349862Y-13503063D01*
X14311767Y-13503063D01*
X14292719Y-13512587D01*
X14283195Y-13522110D01*
X14273672Y-13541158D01*
X14464148Y-13426872D02*
X14464148Y-13464968D01*
X14540338Y-13426872D02*
X14540338Y-13464968D01*
X14835576Y-13703063D02*
X14826052Y-13693539D01*
X14807005Y-13664968D01*
X14797481Y-13645920D01*
X14787957Y-13617349D01*
X14778433Y-13569730D01*
X14778433Y-13531634D01*
X14787957Y-13484015D01*
X14797481Y-13455444D01*
X14807005Y-13436396D01*
X14826052Y-13407825D01*
X14835576Y-13398301D01*
X14902243Y-13445920D02*
X14911767Y-13436396D01*
X14930814Y-13426872D01*
X14978433Y-13426872D01*
X14997481Y-13436396D01*
X15007005Y-13445920D01*
X15016529Y-13464968D01*
X15016529Y-13484015D01*
X15007005Y-13512587D01*
X14892719Y-13626872D01*
X15016529Y-13626872D01*
X15254624Y-13626872D02*
X15254624Y-13426872D01*
X15340338Y-13626872D02*
X15340338Y-13522110D01*
X15330814Y-13503063D01*
X15311767Y-13493539D01*
X15283195Y-13493539D01*
X15264148Y-13503063D01*
X15254624Y-13512587D01*
X15464148Y-13626872D02*
X15445100Y-13617349D01*
X15435576Y-13607825D01*
X15426052Y-13588777D01*
X15426052Y-13531634D01*
X15435576Y-13512587D01*
X15445100Y-13503063D01*
X15464148Y-13493539D01*
X15492719Y-13493539D01*
X15511767Y-13503063D01*
X15521291Y-13512587D01*
X15530814Y-13531634D01*
X15530814Y-13588777D01*
X15521291Y-13607825D01*
X15511767Y-13617349D01*
X15492719Y-13626872D01*
X15464148Y-13626872D01*
X15645100Y-13626872D02*
X15626052Y-13617349D01*
X15616529Y-13598301D01*
X15616529Y-13426872D01*
X15797481Y-13617349D02*
X15778433Y-13626872D01*
X15740338Y-13626872D01*
X15721291Y-13617349D01*
X15711767Y-13598301D01*
X15711767Y-13522110D01*
X15721291Y-13503063D01*
X15740338Y-13493539D01*
X15778433Y-13493539D01*
X15797481Y-13503063D01*
X15807005Y-13522110D01*
X15807005Y-13541158D01*
X15711767Y-13560206D01*
X15883195Y-13617349D02*
X15902243Y-13626872D01*
X15940338Y-13626872D01*
X15959386Y-13617349D01*
X15968910Y-13598301D01*
X15968910Y-13588777D01*
X15959386Y-13569730D01*
X15940338Y-13560206D01*
X15911767Y-13560206D01*
X15892719Y-13550682D01*
X15883195Y-13531634D01*
X15883195Y-13522110D01*
X15892719Y-13503063D01*
X15911767Y-13493539D01*
X15940338Y-13493539D01*
X15959386Y-13503063D01*
X16035576Y-13703063D02*
X16045100Y-13693539D01*
X16064148Y-13664968D01*
X16073671Y-13645920D01*
X16083195Y-13617349D01*
X16092719Y-13569730D01*
X16092719Y-13531634D01*
X16083195Y-13484015D01*
X16073671Y-13455444D01*
X16064148Y-13436396D01*
X16045100Y-13407825D01*
X16035576Y-13398301D01*
D15*
X11249759Y-13833984D02*
X11249759Y-13766808D01*
X11182584Y-13766808D01*
X11182584Y-13833984D01*
X11249759Y-13833984D01*
D12*
X11559386Y-13690872D02*
X11578433Y-13690872D01*
X11597481Y-13700396D01*
X11607005Y-13709920D01*
X11616529Y-13728968D01*
X11626052Y-13767063D01*
X11626052Y-13814682D01*
X11616529Y-13852777D01*
X11607005Y-13871825D01*
X11597481Y-13881349D01*
X11578433Y-13890872D01*
X11559386Y-13890872D01*
X11540338Y-13881349D01*
X11530814Y-13871825D01*
X11521291Y-13852777D01*
X11511767Y-13814682D01*
X11511767Y-13767063D01*
X11521291Y-13728968D01*
X11530814Y-13709920D01*
X11540338Y-13700396D01*
X11559386Y-13690872D01*
X11711767Y-13871825D02*
X11721291Y-13881349D01*
X11711767Y-13890872D01*
X11702243Y-13881349D01*
X11711767Y-13871825D01*
X11711767Y-13890872D01*
X11816529Y-13890872D02*
X11854624Y-13890872D01*
X11873672Y-13881349D01*
X11883195Y-13871825D01*
X11902243Y-13843253D01*
X11911767Y-13805158D01*
X11911767Y-13728968D01*
X11902243Y-13709920D01*
X11892719Y-13700396D01*
X11873672Y-13690872D01*
X11835576Y-13690872D01*
X11816529Y-13700396D01*
X11807005Y-13709920D01*
X11797481Y-13728968D01*
X11797481Y-13776587D01*
X11807005Y-13795634D01*
X11816529Y-13805158D01*
X11835576Y-13814682D01*
X11873672Y-13814682D01*
X11892719Y-13805158D01*
X11902243Y-13795634D01*
X11911767Y-13776587D01*
X12092719Y-13690872D02*
X11997481Y-13690872D01*
X11987957Y-13786110D01*
X11997481Y-13776587D01*
X12016529Y-13767063D01*
X12064148Y-13767063D01*
X12083195Y-13776587D01*
X12092719Y-13786110D01*
X12102243Y-13805158D01*
X12102243Y-13852777D01*
X12092719Y-13871825D01*
X12083195Y-13881349D01*
X12064148Y-13890872D01*
X12016529Y-13890872D01*
X11997481Y-13881349D01*
X11987957Y-13871825D01*
X12226052Y-13690872D02*
X12245100Y-13690872D01*
X12264148Y-13700396D01*
X12273672Y-13709920D01*
X12283195Y-13728968D01*
X12292719Y-13767063D01*
X12292719Y-13814682D01*
X12283195Y-13852777D01*
X12273672Y-13871825D01*
X12264148Y-13881349D01*
X12245100Y-13890872D01*
X12226052Y-13890872D01*
X12207005Y-13881349D01*
X12197481Y-13871825D01*
X12187957Y-13852777D01*
X12178433Y-13814682D01*
X12178433Y-13767063D01*
X12187957Y-13728968D01*
X12197481Y-13709920D01*
X12207005Y-13700396D01*
X12226052Y-13690872D01*
X12378433Y-13890872D02*
X12378433Y-13757539D01*
X12378433Y-13776587D02*
X12387957Y-13767063D01*
X12407005Y-13757539D01*
X12435576Y-13757539D01*
X12454624Y-13767063D01*
X12464148Y-13786110D01*
X12464148Y-13890872D01*
X12464148Y-13786110D02*
X12473672Y-13767063D01*
X12492719Y-13757539D01*
X12521291Y-13757539D01*
X12540338Y-13767063D01*
X12549862Y-13786110D01*
X12549862Y-13890872D01*
X12645100Y-13890872D02*
X12645100Y-13757539D01*
X12645100Y-13776587D02*
X12654624Y-13767063D01*
X12673672Y-13757539D01*
X12702243Y-13757539D01*
X12721291Y-13767063D01*
X12730814Y-13786110D01*
X12730814Y-13890872D01*
X12730814Y-13786110D02*
X12740338Y-13767063D01*
X12759386Y-13757539D01*
X12787957Y-13757539D01*
X12807005Y-13767063D01*
X12816529Y-13786110D01*
X12816529Y-13890872D01*
X13207005Y-13681349D02*
X13035576Y-13938491D01*
X13464148Y-13690872D02*
X13483195Y-13690872D01*
X13502243Y-13700396D01*
X13511767Y-13709920D01*
X13521291Y-13728968D01*
X13530814Y-13767063D01*
X13530814Y-13814682D01*
X13521291Y-13852777D01*
X13511767Y-13871825D01*
X13502243Y-13881349D01*
X13483195Y-13890872D01*
X13464148Y-13890872D01*
X13445100Y-13881349D01*
X13435576Y-13871825D01*
X13426052Y-13852777D01*
X13416529Y-13814682D01*
X13416529Y-13767063D01*
X13426052Y-13728968D01*
X13435576Y-13709920D01*
X13445100Y-13700396D01*
X13464148Y-13690872D01*
X13616529Y-13871825D02*
X13626052Y-13881349D01*
X13616529Y-13890872D01*
X13607005Y-13881349D01*
X13616529Y-13871825D01*
X13616529Y-13890872D01*
X13749862Y-13690872D02*
X13768910Y-13690872D01*
X13787957Y-13700396D01*
X13797481Y-13709920D01*
X13807005Y-13728968D01*
X13816529Y-13767063D01*
X13816529Y-13814682D01*
X13807005Y-13852777D01*
X13797481Y-13871825D01*
X13787957Y-13881349D01*
X13768910Y-13890872D01*
X13749862Y-13890872D01*
X13730814Y-13881349D01*
X13721291Y-13871825D01*
X13711767Y-13852777D01*
X13702243Y-13814682D01*
X13702243Y-13767063D01*
X13711767Y-13728968D01*
X13721291Y-13709920D01*
X13730814Y-13700396D01*
X13749862Y-13690872D01*
X13883195Y-13690872D02*
X14007005Y-13690872D01*
X13940338Y-13767063D01*
X13968910Y-13767063D01*
X13987957Y-13776587D01*
X13997481Y-13786110D01*
X14007005Y-13805158D01*
X14007005Y-13852777D01*
X13997481Y-13871825D01*
X13987957Y-13881349D01*
X13968910Y-13890872D01*
X13911767Y-13890872D01*
X13892719Y-13881349D01*
X13883195Y-13871825D01*
X14073672Y-13690872D02*
X14207005Y-13690872D01*
X14121291Y-13890872D01*
X14368910Y-13757539D02*
X14368910Y-13890872D01*
X14321291Y-13681349D02*
X14273672Y-13824206D01*
X14397481Y-13824206D01*
X14464148Y-13690872D02*
X14464148Y-13728968D01*
X14540338Y-13690872D02*
X14540338Y-13728968D01*
X14835576Y-13967063D02*
X14826052Y-13957539D01*
X14807005Y-13928968D01*
X14797481Y-13909920D01*
X14787957Y-13881349D01*
X14778433Y-13833730D01*
X14778433Y-13795634D01*
X14787957Y-13748015D01*
X14797481Y-13719444D01*
X14807005Y-13700396D01*
X14826052Y-13671825D01*
X14835576Y-13662301D01*
X14892719Y-13690872D02*
X15026052Y-13690872D01*
X14940338Y-13890872D01*
X15254624Y-13890872D02*
X15254624Y-13690872D01*
X15340338Y-13890872D02*
X15340338Y-13786110D01*
X15330814Y-13767063D01*
X15311767Y-13757539D01*
X15283195Y-13757539D01*
X15264148Y-13767063D01*
X15254624Y-13776587D01*
X15464148Y-13890872D02*
X15445100Y-13881349D01*
X15435576Y-13871825D01*
X15426052Y-13852777D01*
X15426052Y-13795634D01*
X15435576Y-13776587D01*
X15445100Y-13767063D01*
X15464148Y-13757539D01*
X15492719Y-13757539D01*
X15511767Y-13767063D01*
X15521291Y-13776587D01*
X15530814Y-13795634D01*
X15530814Y-13852777D01*
X15521291Y-13871825D01*
X15511767Y-13881349D01*
X15492719Y-13890872D01*
X15464148Y-13890872D01*
X15645100Y-13890872D02*
X15626052Y-13881349D01*
X15616529Y-13862301D01*
X15616529Y-13690872D01*
X15797481Y-13881349D02*
X15778433Y-13890872D01*
X15740338Y-13890872D01*
X15721291Y-13881349D01*
X15711767Y-13862301D01*
X15711767Y-13786110D01*
X15721291Y-13767063D01*
X15740338Y-13757539D01*
X15778433Y-13757539D01*
X15797481Y-13767063D01*
X15807005Y-13786110D01*
X15807005Y-13805158D01*
X15711767Y-13824206D01*
X15883195Y-13881349D02*
X15902243Y-13890872D01*
X15940338Y-13890872D01*
X15959386Y-13881349D01*
X15968910Y-13862301D01*
X15968910Y-13852777D01*
X15959386Y-13833730D01*
X15940338Y-13824206D01*
X15911767Y-13824206D01*
X15892719Y-13814682D01*
X15883195Y-13795634D01*
X15883195Y-13786110D01*
X15892719Y-13767063D01*
X15911767Y-13757539D01*
X15940338Y-13757539D01*
X15959386Y-13767063D01*
X16035576Y-13967063D02*
X16045100Y-13957539D01*
X16064148Y-13928968D01*
X16073671Y-13909920D01*
X16083195Y-13881349D01*
X16092719Y-13833730D01*
X16092719Y-13795634D01*
X16083195Y-13748015D01*
X16073671Y-13719444D01*
X16064148Y-13700396D01*
X16045100Y-13671825D01*
X16035576Y-13662301D01*
D10*
X11213672Y-14114396D02*
X11263672Y-14064396D01*
X11213672Y-14014396D01*
X11163672Y-14064396D01*
X11213672Y-14114396D01*
D12*
X11626052Y-14154872D02*
X11511767Y-14154872D01*
X11568910Y-14154872D02*
X11568910Y-13954872D01*
X11549862Y-13983444D01*
X11530814Y-14002491D01*
X11511767Y-14012015D01*
X11711767Y-14135825D02*
X11721291Y-14145349D01*
X11711767Y-14154872D01*
X11702243Y-14145349D01*
X11711767Y-14135825D01*
X11711767Y-14154872D01*
X11845100Y-13954872D02*
X11864148Y-13954872D01*
X11883195Y-13964396D01*
X11892719Y-13973920D01*
X11902243Y-13992968D01*
X11911767Y-14031063D01*
X11911767Y-14078682D01*
X11902243Y-14116777D01*
X11892719Y-14135825D01*
X11883195Y-14145349D01*
X11864148Y-14154872D01*
X11845100Y-14154872D01*
X11826052Y-14145349D01*
X11816529Y-14135825D01*
X11807005Y-14116777D01*
X11797481Y-14078682D01*
X11797481Y-14031063D01*
X11807005Y-13992968D01*
X11816529Y-13973920D01*
X11826052Y-13964396D01*
X11845100Y-13954872D01*
X12035576Y-13954872D02*
X12054624Y-13954872D01*
X12073672Y-13964396D01*
X12083195Y-13973920D01*
X12092719Y-13992968D01*
X12102243Y-14031063D01*
X12102243Y-14078682D01*
X12092719Y-14116777D01*
X12083195Y-14135825D01*
X12073672Y-14145349D01*
X12054624Y-14154872D01*
X12035576Y-14154872D01*
X12016529Y-14145349D01*
X12007005Y-14135825D01*
X11997481Y-14116777D01*
X11987957Y-14078682D01*
X11987957Y-14031063D01*
X11997481Y-13992968D01*
X12007005Y-13973920D01*
X12016529Y-13964396D01*
X12035576Y-13954872D01*
X12226052Y-13954872D02*
X12245100Y-13954872D01*
X12264148Y-13964396D01*
X12273672Y-13973920D01*
X12283195Y-13992968D01*
X12292719Y-14031063D01*
X12292719Y-14078682D01*
X12283195Y-14116777D01*
X12273672Y-14135825D01*
X12264148Y-14145349D01*
X12245100Y-14154872D01*
X12226052Y-14154872D01*
X12207005Y-14145349D01*
X12197481Y-14135825D01*
X12187957Y-14116777D01*
X12178433Y-14078682D01*
X12178433Y-14031063D01*
X12187957Y-13992968D01*
X12197481Y-13973920D01*
X12207005Y-13964396D01*
X12226052Y-13954872D01*
X12378433Y-14154872D02*
X12378433Y-14021539D01*
X12378433Y-14040587D02*
X12387957Y-14031063D01*
X12407005Y-14021539D01*
X12435576Y-14021539D01*
X12454624Y-14031063D01*
X12464148Y-14050110D01*
X12464148Y-14154872D01*
X12464148Y-14050110D02*
X12473672Y-14031063D01*
X12492719Y-14021539D01*
X12521291Y-14021539D01*
X12540338Y-14031063D01*
X12549862Y-14050110D01*
X12549862Y-14154872D01*
X12645100Y-14154872D02*
X12645100Y-14021539D01*
X12645100Y-14040587D02*
X12654624Y-14031063D01*
X12673672Y-14021539D01*
X12702243Y-14021539D01*
X12721291Y-14031063D01*
X12730814Y-14050110D01*
X12730814Y-14154872D01*
X12730814Y-14050110D02*
X12740338Y-14031063D01*
X12759386Y-14021539D01*
X12787957Y-14021539D01*
X12807005Y-14031063D01*
X12816529Y-14050110D01*
X12816529Y-14154872D01*
X13207005Y-13945349D02*
X13035576Y-14202491D01*
X13464148Y-13954872D02*
X13483195Y-13954872D01*
X13502243Y-13964396D01*
X13511767Y-13973920D01*
X13521291Y-13992968D01*
X13530814Y-14031063D01*
X13530814Y-14078682D01*
X13521291Y-14116777D01*
X13511767Y-14135825D01*
X13502243Y-14145349D01*
X13483195Y-14154872D01*
X13464148Y-14154872D01*
X13445100Y-14145349D01*
X13435576Y-14135825D01*
X13426052Y-14116777D01*
X13416529Y-14078682D01*
X13416529Y-14031063D01*
X13426052Y-13992968D01*
X13435576Y-13973920D01*
X13445100Y-13964396D01*
X13464148Y-13954872D01*
X13616529Y-14135825D02*
X13626052Y-14145349D01*
X13616529Y-14154872D01*
X13607005Y-14145349D01*
X13616529Y-14135825D01*
X13616529Y-14154872D01*
X13749862Y-13954872D02*
X13768910Y-13954872D01*
X13787957Y-13964396D01*
X13797481Y-13973920D01*
X13807005Y-13992968D01*
X13816529Y-14031063D01*
X13816529Y-14078682D01*
X13807005Y-14116777D01*
X13797481Y-14135825D01*
X13787957Y-14145349D01*
X13768910Y-14154872D01*
X13749862Y-14154872D01*
X13730814Y-14145349D01*
X13721291Y-14135825D01*
X13711767Y-14116777D01*
X13702243Y-14078682D01*
X13702243Y-14031063D01*
X13711767Y-13992968D01*
X13721291Y-13973920D01*
X13730814Y-13964396D01*
X13749862Y-13954872D01*
X13883195Y-13954872D02*
X14007005Y-13954872D01*
X13940338Y-14031063D01*
X13968910Y-14031063D01*
X13987957Y-14040587D01*
X13997481Y-14050110D01*
X14007005Y-14069158D01*
X14007005Y-14116777D01*
X13997481Y-14135825D01*
X13987957Y-14145349D01*
X13968910Y-14154872D01*
X13911767Y-14154872D01*
X13892719Y-14145349D01*
X13883195Y-14135825D01*
X14102243Y-14154872D02*
X14140338Y-14154872D01*
X14159386Y-14145349D01*
X14168910Y-14135825D01*
X14187957Y-14107253D01*
X14197481Y-14069158D01*
X14197481Y-13992968D01*
X14187957Y-13973920D01*
X14178433Y-13964396D01*
X14159386Y-13954872D01*
X14121291Y-13954872D01*
X14102243Y-13964396D01*
X14092719Y-13973920D01*
X14083195Y-13992968D01*
X14083195Y-14040587D01*
X14092719Y-14059634D01*
X14102243Y-14069158D01*
X14121291Y-14078682D01*
X14159386Y-14078682D01*
X14178433Y-14069158D01*
X14187957Y-14059634D01*
X14197481Y-14040587D01*
X14368910Y-14021539D02*
X14368910Y-14154872D01*
X14321291Y-13945349D02*
X14273672Y-14088206D01*
X14397481Y-14088206D01*
X14464148Y-13954872D02*
X14464148Y-13992968D01*
X14540338Y-13954872D02*
X14540338Y-13992968D01*
X14835576Y-14231063D02*
X14826052Y-14221539D01*
X14807005Y-14192968D01*
X14797481Y-14173920D01*
X14787957Y-14145349D01*
X14778433Y-14097730D01*
X14778433Y-14059634D01*
X14787957Y-14012015D01*
X14797481Y-13983444D01*
X14807005Y-13964396D01*
X14826052Y-13935825D01*
X14835576Y-13926301D01*
X15016529Y-14154872D02*
X14902243Y-14154872D01*
X14959386Y-14154872D02*
X14959386Y-13954872D01*
X14940338Y-13983444D01*
X14921291Y-14002491D01*
X14902243Y-14012015D01*
X15140338Y-13954872D02*
X15159386Y-13954872D01*
X15178433Y-13964396D01*
X15187957Y-13973920D01*
X15197481Y-13992968D01*
X15207005Y-14031063D01*
X15207005Y-14078682D01*
X15197481Y-14116777D01*
X15187957Y-14135825D01*
X15178433Y-14145349D01*
X15159386Y-14154872D01*
X15140338Y-14154872D01*
X15121291Y-14145349D01*
X15111767Y-14135825D01*
X15102243Y-14116777D01*
X15092719Y-14078682D01*
X15092719Y-14031063D01*
X15102243Y-13992968D01*
X15111767Y-13973920D01*
X15121291Y-13964396D01*
X15140338Y-13954872D01*
X15445100Y-14154872D02*
X15445100Y-13954872D01*
X15530814Y-14154872D02*
X15530814Y-14050110D01*
X15521291Y-14031063D01*
X15502243Y-14021539D01*
X15473671Y-14021539D01*
X15454624Y-14031063D01*
X15445100Y-14040587D01*
X15654624Y-14154872D02*
X15635576Y-14145349D01*
X15626052Y-14135825D01*
X15616529Y-14116777D01*
X15616529Y-14059634D01*
X15626052Y-14040587D01*
X15635576Y-14031063D01*
X15654624Y-14021539D01*
X15683195Y-14021539D01*
X15702243Y-14031063D01*
X15711767Y-14040587D01*
X15721291Y-14059634D01*
X15721291Y-14116777D01*
X15711767Y-14135825D01*
X15702243Y-14145349D01*
X15683195Y-14154872D01*
X15654624Y-14154872D01*
X15835576Y-14154872D02*
X15816529Y-14145349D01*
X15807005Y-14126301D01*
X15807005Y-13954872D01*
X15987957Y-14145349D02*
X15968910Y-14154872D01*
X15930814Y-14154872D01*
X15911767Y-14145349D01*
X15902243Y-14126301D01*
X15902243Y-14050110D01*
X15911767Y-14031063D01*
X15930814Y-14021539D01*
X15968910Y-14021539D01*
X15987957Y-14031063D01*
X15997481Y-14050110D01*
X15997481Y-14069158D01*
X15902243Y-14088206D01*
X16073671Y-14145349D02*
X16092719Y-14154872D01*
X16130814Y-14154872D01*
X16149862Y-14145349D01*
X16159386Y-14126301D01*
X16159386Y-14116777D01*
X16149862Y-14097730D01*
X16130814Y-14088206D01*
X16102243Y-14088206D01*
X16083195Y-14078682D01*
X16073671Y-14059634D01*
X16073671Y-14050110D01*
X16083195Y-14031063D01*
X16102243Y-14021539D01*
X16130814Y-14021539D01*
X16149862Y-14031063D01*
X16226052Y-14231063D02*
X16235576Y-14221539D01*
X16254624Y-14192968D01*
X16264148Y-14173920D01*
X16273671Y-14145349D01*
X16283195Y-14097730D01*
X16283195Y-14059634D01*
X16273671Y-14012015D01*
X16264148Y-13983444D01*
X16254624Y-13964396D01*
X16235576Y-13935825D01*
X16226052Y-13926301D01*
D16*
X11162672Y-14277896D02*
X11263672Y-14378896D01*
X11263672Y-14277896D02*
X11162672Y-14378896D01*
X11263672Y-14328396D02*
G75*
G03*
X11263672Y-14328396I-50500J0D01*
G01*
D12*
X11626052Y-14418872D02*
X11511767Y-14418872D01*
X11568910Y-14418872D02*
X11568910Y-14218872D01*
X11549862Y-14247444D01*
X11530814Y-14266491D01*
X11511767Y-14276015D01*
X11711767Y-14399825D02*
X11721291Y-14409349D01*
X11711767Y-14418872D01*
X11702243Y-14409349D01*
X11711767Y-14399825D01*
X11711767Y-14418872D01*
X11845100Y-14218872D02*
X11864148Y-14218872D01*
X11883195Y-14228396D01*
X11892719Y-14237920D01*
X11902243Y-14256968D01*
X11911767Y-14295063D01*
X11911767Y-14342682D01*
X11902243Y-14380777D01*
X11892719Y-14399825D01*
X11883195Y-14409349D01*
X11864148Y-14418872D01*
X11845100Y-14418872D01*
X11826052Y-14409349D01*
X11816529Y-14399825D01*
X11807005Y-14380777D01*
X11797481Y-14342682D01*
X11797481Y-14295063D01*
X11807005Y-14256968D01*
X11816529Y-14237920D01*
X11826052Y-14228396D01*
X11845100Y-14218872D01*
X12102243Y-14418872D02*
X11987957Y-14418872D01*
X12045100Y-14418872D02*
X12045100Y-14218872D01*
X12026052Y-14247444D01*
X12007005Y-14266491D01*
X11987957Y-14276015D01*
X12226052Y-14218872D02*
X12245100Y-14218872D01*
X12264148Y-14228396D01*
X12273672Y-14237920D01*
X12283195Y-14256968D01*
X12292719Y-14295063D01*
X12292719Y-14342682D01*
X12283195Y-14380777D01*
X12273672Y-14399825D01*
X12264148Y-14409349D01*
X12245100Y-14418872D01*
X12226052Y-14418872D01*
X12207005Y-14409349D01*
X12197481Y-14399825D01*
X12187957Y-14380777D01*
X12178433Y-14342682D01*
X12178433Y-14295063D01*
X12187957Y-14256968D01*
X12197481Y-14237920D01*
X12207005Y-14228396D01*
X12226052Y-14218872D01*
X12378433Y-14418872D02*
X12378433Y-14285539D01*
X12378433Y-14304587D02*
X12387957Y-14295063D01*
X12407005Y-14285539D01*
X12435576Y-14285539D01*
X12454624Y-14295063D01*
X12464148Y-14314110D01*
X12464148Y-14418872D01*
X12464148Y-14314110D02*
X12473672Y-14295063D01*
X12492719Y-14285539D01*
X12521291Y-14285539D01*
X12540338Y-14295063D01*
X12549862Y-14314110D01*
X12549862Y-14418872D01*
X12645100Y-14418872D02*
X12645100Y-14285539D01*
X12645100Y-14304587D02*
X12654624Y-14295063D01*
X12673672Y-14285539D01*
X12702243Y-14285539D01*
X12721291Y-14295063D01*
X12730814Y-14314110D01*
X12730814Y-14418872D01*
X12730814Y-14314110D02*
X12740338Y-14295063D01*
X12759386Y-14285539D01*
X12787957Y-14285539D01*
X12807005Y-14295063D01*
X12816529Y-14314110D01*
X12816529Y-14418872D01*
X13207005Y-14209349D02*
X13035576Y-14466491D01*
X13464148Y-14218872D02*
X13483195Y-14218872D01*
X13502243Y-14228396D01*
X13511767Y-14237920D01*
X13521291Y-14256968D01*
X13530814Y-14295063D01*
X13530814Y-14342682D01*
X13521291Y-14380777D01*
X13511767Y-14399825D01*
X13502243Y-14409349D01*
X13483195Y-14418872D01*
X13464148Y-14418872D01*
X13445100Y-14409349D01*
X13435576Y-14399825D01*
X13426052Y-14380777D01*
X13416529Y-14342682D01*
X13416529Y-14295063D01*
X13426052Y-14256968D01*
X13435576Y-14237920D01*
X13445100Y-14228396D01*
X13464148Y-14218872D01*
X13616529Y-14399825D02*
X13626052Y-14409349D01*
X13616529Y-14418872D01*
X13607005Y-14409349D01*
X13616529Y-14399825D01*
X13616529Y-14418872D01*
X13749862Y-14218872D02*
X13768910Y-14218872D01*
X13787957Y-14228396D01*
X13797481Y-14237920D01*
X13807005Y-14256968D01*
X13816529Y-14295063D01*
X13816529Y-14342682D01*
X13807005Y-14380777D01*
X13797481Y-14399825D01*
X13787957Y-14409349D01*
X13768910Y-14418872D01*
X13749862Y-14418872D01*
X13730814Y-14409349D01*
X13721291Y-14399825D01*
X13711767Y-14380777D01*
X13702243Y-14342682D01*
X13702243Y-14295063D01*
X13711767Y-14256968D01*
X13721291Y-14237920D01*
X13730814Y-14228396D01*
X13749862Y-14218872D01*
X13883195Y-14218872D02*
X14007005Y-14218872D01*
X13940338Y-14295063D01*
X13968910Y-14295063D01*
X13987957Y-14304587D01*
X13997481Y-14314110D01*
X14007005Y-14333158D01*
X14007005Y-14380777D01*
X13997481Y-14399825D01*
X13987957Y-14409349D01*
X13968910Y-14418872D01*
X13911767Y-14418872D01*
X13892719Y-14409349D01*
X13883195Y-14399825D01*
X14102243Y-14418872D02*
X14140338Y-14418872D01*
X14159386Y-14409349D01*
X14168910Y-14399825D01*
X14187957Y-14371253D01*
X14197481Y-14333158D01*
X14197481Y-14256968D01*
X14187957Y-14237920D01*
X14178433Y-14228396D01*
X14159386Y-14218872D01*
X14121291Y-14218872D01*
X14102243Y-14228396D01*
X14092719Y-14237920D01*
X14083195Y-14256968D01*
X14083195Y-14304587D01*
X14092719Y-14323634D01*
X14102243Y-14333158D01*
X14121291Y-14342682D01*
X14159386Y-14342682D01*
X14178433Y-14333158D01*
X14187957Y-14323634D01*
X14197481Y-14304587D01*
X14311767Y-14304587D02*
X14292719Y-14295063D01*
X14283195Y-14285539D01*
X14273672Y-14266491D01*
X14273672Y-14256968D01*
X14283195Y-14237920D01*
X14292719Y-14228396D01*
X14311767Y-14218872D01*
X14349862Y-14218872D01*
X14368910Y-14228396D01*
X14378433Y-14237920D01*
X14387957Y-14256968D01*
X14387957Y-14266491D01*
X14378433Y-14285539D01*
X14368910Y-14295063D01*
X14349862Y-14304587D01*
X14311767Y-14304587D01*
X14292719Y-14314110D01*
X14283195Y-14323634D01*
X14273672Y-14342682D01*
X14273672Y-14380777D01*
X14283195Y-14399825D01*
X14292719Y-14409349D01*
X14311767Y-14418872D01*
X14349862Y-14418872D01*
X14368910Y-14409349D01*
X14378433Y-14399825D01*
X14387957Y-14380777D01*
X14387957Y-14342682D01*
X14378433Y-14323634D01*
X14368910Y-14314110D01*
X14349862Y-14304587D01*
X14464148Y-14218872D02*
X14464148Y-14256968D01*
X14540338Y-14218872D02*
X14540338Y-14256968D01*
X14835576Y-14495063D02*
X14826052Y-14485539D01*
X14807005Y-14456968D01*
X14797481Y-14437920D01*
X14787957Y-14409349D01*
X14778433Y-14361730D01*
X14778433Y-14323634D01*
X14787957Y-14276015D01*
X14797481Y-14247444D01*
X14807005Y-14228396D01*
X14826052Y-14199825D01*
X14835576Y-14190301D01*
X14902243Y-14237920D02*
X14911767Y-14228396D01*
X14930814Y-14218872D01*
X14978433Y-14218872D01*
X14997481Y-14228396D01*
X15007005Y-14237920D01*
X15016529Y-14256968D01*
X15016529Y-14276015D01*
X15007005Y-14304587D01*
X14892719Y-14418872D01*
X15016529Y-14418872D01*
X15254624Y-14418872D02*
X15254624Y-14218872D01*
X15340338Y-14418872D02*
X15340338Y-14314110D01*
X15330814Y-14295063D01*
X15311767Y-14285539D01*
X15283195Y-14285539D01*
X15264148Y-14295063D01*
X15254624Y-14304587D01*
X15464148Y-14418872D02*
X15445100Y-14409349D01*
X15435576Y-14399825D01*
X15426052Y-14380777D01*
X15426052Y-14323634D01*
X15435576Y-14304587D01*
X15445100Y-14295063D01*
X15464148Y-14285539D01*
X15492719Y-14285539D01*
X15511767Y-14295063D01*
X15521291Y-14304587D01*
X15530814Y-14323634D01*
X15530814Y-14380777D01*
X15521291Y-14399825D01*
X15511767Y-14409349D01*
X15492719Y-14418872D01*
X15464148Y-14418872D01*
X15645100Y-14418872D02*
X15626052Y-14409349D01*
X15616529Y-14390301D01*
X15616529Y-14218872D01*
X15797481Y-14409349D02*
X15778433Y-14418872D01*
X15740338Y-14418872D01*
X15721291Y-14409349D01*
X15711767Y-14390301D01*
X15711767Y-14314110D01*
X15721291Y-14295063D01*
X15740338Y-14285539D01*
X15778433Y-14285539D01*
X15797481Y-14295063D01*
X15807005Y-14314110D01*
X15807005Y-14333158D01*
X15711767Y-14352206D01*
X15883195Y-14409349D02*
X15902243Y-14418872D01*
X15940338Y-14418872D01*
X15959386Y-14409349D01*
X15968910Y-14390301D01*
X15968910Y-14380777D01*
X15959386Y-14361730D01*
X15940338Y-14352206D01*
X15911767Y-14352206D01*
X15892719Y-14342682D01*
X15883195Y-14323634D01*
X15883195Y-14314110D01*
X15892719Y-14295063D01*
X15911767Y-14285539D01*
X15940338Y-14285539D01*
X15959386Y-14295063D01*
X16035576Y-14495063D02*
X16045100Y-14485539D01*
X16064148Y-14456968D01*
X16073671Y-14437920D01*
X16083195Y-14409349D01*
X16092719Y-14361730D01*
X16092719Y-14323634D01*
X16083195Y-14276015D01*
X16073671Y-14247444D01*
X16064148Y-14228396D01*
X16045100Y-14199825D01*
X16035576Y-14190301D01*
D17*
X11111672Y-14516396D02*
X11263672Y-14668396D01*
X11263672Y-14516396D02*
X11111672Y-14668396D01*
X11187672Y-14516396D02*
X11187672Y-14668396D01*
X11111672Y-14592396D02*
X11263672Y-14592396D01*
D12*
X11626052Y-14682872D02*
X11511767Y-14682872D01*
X11568910Y-14682872D02*
X11568910Y-14482872D01*
X11549862Y-14511444D01*
X11530814Y-14530491D01*
X11511767Y-14540015D01*
X11711767Y-14663825D02*
X11721291Y-14673349D01*
X11711767Y-14682872D01*
X11702243Y-14673349D01*
X11711767Y-14663825D01*
X11711767Y-14682872D01*
X11902243Y-14482872D02*
X11807005Y-14482872D01*
X11797481Y-14578110D01*
X11807005Y-14568587D01*
X11826052Y-14559063D01*
X11873672Y-14559063D01*
X11892719Y-14568587D01*
X11902243Y-14578110D01*
X11911767Y-14597158D01*
X11911767Y-14644777D01*
X11902243Y-14663825D01*
X11892719Y-14673349D01*
X11873672Y-14682872D01*
X11826052Y-14682872D01*
X11807005Y-14673349D01*
X11797481Y-14663825D01*
X11987957Y-14501920D02*
X11997481Y-14492396D01*
X12016529Y-14482872D01*
X12064148Y-14482872D01*
X12083195Y-14492396D01*
X12092719Y-14501920D01*
X12102243Y-14520968D01*
X12102243Y-14540015D01*
X12092719Y-14568587D01*
X11978433Y-14682872D01*
X12102243Y-14682872D01*
X12226052Y-14482872D02*
X12245100Y-14482872D01*
X12264148Y-14492396D01*
X12273672Y-14501920D01*
X12283195Y-14520968D01*
X12292719Y-14559063D01*
X12292719Y-14606682D01*
X12283195Y-14644777D01*
X12273672Y-14663825D01*
X12264148Y-14673349D01*
X12245100Y-14682872D01*
X12226052Y-14682872D01*
X12207005Y-14673349D01*
X12197481Y-14663825D01*
X12187957Y-14644777D01*
X12178433Y-14606682D01*
X12178433Y-14559063D01*
X12187957Y-14520968D01*
X12197481Y-14501920D01*
X12207005Y-14492396D01*
X12226052Y-14482872D01*
X12378433Y-14682872D02*
X12378433Y-14549539D01*
X12378433Y-14568587D02*
X12387957Y-14559063D01*
X12407005Y-14549539D01*
X12435576Y-14549539D01*
X12454624Y-14559063D01*
X12464148Y-14578110D01*
X12464148Y-14682872D01*
X12464148Y-14578110D02*
X12473672Y-14559063D01*
X12492719Y-14549539D01*
X12521291Y-14549539D01*
X12540338Y-14559063D01*
X12549862Y-14578110D01*
X12549862Y-14682872D01*
X12645100Y-14682872D02*
X12645100Y-14549539D01*
X12645100Y-14568587D02*
X12654624Y-14559063D01*
X12673672Y-14549539D01*
X12702243Y-14549539D01*
X12721291Y-14559063D01*
X12730814Y-14578110D01*
X12730814Y-14682872D01*
X12730814Y-14578110D02*
X12740338Y-14559063D01*
X12759386Y-14549539D01*
X12787957Y-14549539D01*
X12807005Y-14559063D01*
X12816529Y-14578110D01*
X12816529Y-14682872D01*
X13207005Y-14473349D02*
X13035576Y-14730491D01*
X13464148Y-14482872D02*
X13483195Y-14482872D01*
X13502243Y-14492396D01*
X13511767Y-14501920D01*
X13521291Y-14520968D01*
X13530814Y-14559063D01*
X13530814Y-14606682D01*
X13521291Y-14644777D01*
X13511767Y-14663825D01*
X13502243Y-14673349D01*
X13483195Y-14682872D01*
X13464148Y-14682872D01*
X13445100Y-14673349D01*
X13435576Y-14663825D01*
X13426052Y-14644777D01*
X13416529Y-14606682D01*
X13416529Y-14559063D01*
X13426052Y-14520968D01*
X13435576Y-14501920D01*
X13445100Y-14492396D01*
X13464148Y-14482872D01*
X13616529Y-14663825D02*
X13626052Y-14673349D01*
X13616529Y-14682872D01*
X13607005Y-14673349D01*
X13616529Y-14663825D01*
X13616529Y-14682872D01*
X13749862Y-14482872D02*
X13768910Y-14482872D01*
X13787957Y-14492396D01*
X13797481Y-14501920D01*
X13807005Y-14520968D01*
X13816529Y-14559063D01*
X13816529Y-14606682D01*
X13807005Y-14644777D01*
X13797481Y-14663825D01*
X13787957Y-14673349D01*
X13768910Y-14682872D01*
X13749862Y-14682872D01*
X13730814Y-14673349D01*
X13721291Y-14663825D01*
X13711767Y-14644777D01*
X13702243Y-14606682D01*
X13702243Y-14559063D01*
X13711767Y-14520968D01*
X13721291Y-14501920D01*
X13730814Y-14492396D01*
X13749862Y-14482872D01*
X13997481Y-14482872D02*
X13902243Y-14482872D01*
X13892719Y-14578110D01*
X13902243Y-14568587D01*
X13921291Y-14559063D01*
X13968910Y-14559063D01*
X13987957Y-14568587D01*
X13997481Y-14578110D01*
X14007005Y-14597158D01*
X14007005Y-14644777D01*
X13997481Y-14663825D01*
X13987957Y-14673349D01*
X13968910Y-14682872D01*
X13921291Y-14682872D01*
X13902243Y-14673349D01*
X13892719Y-14663825D01*
X14102243Y-14682872D02*
X14140338Y-14682872D01*
X14159386Y-14673349D01*
X14168910Y-14663825D01*
X14187957Y-14635253D01*
X14197481Y-14597158D01*
X14197481Y-14520968D01*
X14187957Y-14501920D01*
X14178433Y-14492396D01*
X14159386Y-14482872D01*
X14121291Y-14482872D01*
X14102243Y-14492396D01*
X14092719Y-14501920D01*
X14083195Y-14520968D01*
X14083195Y-14568587D01*
X14092719Y-14587634D01*
X14102243Y-14597158D01*
X14121291Y-14606682D01*
X14159386Y-14606682D01*
X14178433Y-14597158D01*
X14187957Y-14587634D01*
X14197481Y-14568587D01*
X14311767Y-14568587D02*
X14292719Y-14559063D01*
X14283195Y-14549539D01*
X14273672Y-14530491D01*
X14273672Y-14520968D01*
X14283195Y-14501920D01*
X14292719Y-14492396D01*
X14311767Y-14482872D01*
X14349862Y-14482872D01*
X14368910Y-14492396D01*
X14378433Y-14501920D01*
X14387957Y-14520968D01*
X14387957Y-14530491D01*
X14378433Y-14549539D01*
X14368910Y-14559063D01*
X14349862Y-14568587D01*
X14311767Y-14568587D01*
X14292719Y-14578110D01*
X14283195Y-14587634D01*
X14273672Y-14606682D01*
X14273672Y-14644777D01*
X14283195Y-14663825D01*
X14292719Y-14673349D01*
X14311767Y-14682872D01*
X14349862Y-14682872D01*
X14368910Y-14673349D01*
X14378433Y-14663825D01*
X14387957Y-14644777D01*
X14387957Y-14606682D01*
X14378433Y-14587634D01*
X14368910Y-14578110D01*
X14349862Y-14568587D01*
X14464148Y-14482872D02*
X14464148Y-14520968D01*
X14540338Y-14482872D02*
X14540338Y-14520968D01*
X14835576Y-14759063D02*
X14826052Y-14749539D01*
X14807005Y-14720968D01*
X14797481Y-14701920D01*
X14787957Y-14673349D01*
X14778433Y-14625730D01*
X14778433Y-14587634D01*
X14787957Y-14540015D01*
X14797481Y-14511444D01*
X14807005Y-14492396D01*
X14826052Y-14463825D01*
X14835576Y-14454301D01*
X14902243Y-14501920D02*
X14911767Y-14492396D01*
X14930814Y-14482872D01*
X14978433Y-14482872D01*
X14997481Y-14492396D01*
X15007005Y-14501920D01*
X15016529Y-14520968D01*
X15016529Y-14540015D01*
X15007005Y-14568587D01*
X14892719Y-14682872D01*
X15016529Y-14682872D01*
X15254624Y-14682872D02*
X15254624Y-14482872D01*
X15340338Y-14682872D02*
X15340338Y-14578110D01*
X15330814Y-14559063D01*
X15311767Y-14549539D01*
X15283195Y-14549539D01*
X15264148Y-14559063D01*
X15254624Y-14568587D01*
X15464148Y-14682872D02*
X15445100Y-14673349D01*
X15435576Y-14663825D01*
X15426052Y-14644777D01*
X15426052Y-14587634D01*
X15435576Y-14568587D01*
X15445100Y-14559063D01*
X15464148Y-14549539D01*
X15492719Y-14549539D01*
X15511767Y-14559063D01*
X15521291Y-14568587D01*
X15530814Y-14587634D01*
X15530814Y-14644777D01*
X15521291Y-14663825D01*
X15511767Y-14673349D01*
X15492719Y-14682872D01*
X15464148Y-14682872D01*
X15645100Y-14682872D02*
X15626052Y-14673349D01*
X15616529Y-14654301D01*
X15616529Y-14482872D01*
X15797481Y-14673349D02*
X15778433Y-14682872D01*
X15740338Y-14682872D01*
X15721291Y-14673349D01*
X15711767Y-14654301D01*
X15711767Y-14578110D01*
X15721291Y-14559063D01*
X15740338Y-14549539D01*
X15778433Y-14549539D01*
X15797481Y-14559063D01*
X15807005Y-14578110D01*
X15807005Y-14597158D01*
X15711767Y-14616206D01*
X15883195Y-14673349D02*
X15902243Y-14682872D01*
X15940338Y-14682872D01*
X15959386Y-14673349D01*
X15968910Y-14654301D01*
X15968910Y-14644777D01*
X15959386Y-14625730D01*
X15940338Y-14616206D01*
X15911767Y-14616206D01*
X15892719Y-14606682D01*
X15883195Y-14587634D01*
X15883195Y-14578110D01*
X15892719Y-14559063D01*
X15911767Y-14549539D01*
X15940338Y-14549539D01*
X15959386Y-14559063D01*
X16035576Y-14759063D02*
X16045100Y-14749539D01*
X16064148Y-14720968D01*
X16073671Y-14701920D01*
X16083195Y-14673349D01*
X16092719Y-14625730D01*
X16092719Y-14587634D01*
X16083195Y-14540015D01*
X16073671Y-14511444D01*
X16064148Y-14492396D01*
X16045100Y-14463825D01*
X16035576Y-14454301D01*
X11063672Y-14764396D02*
X11263672Y-14964396D01*
X11263672Y-14764396D02*
X11063672Y-14964396D01*
X11234383Y-14935108D02*
X11234383Y-14793685D01*
X11092960Y-14793685D01*
X11092960Y-14935108D01*
X11234383Y-14935108D01*
X11511767Y-14773920D02*
X11521291Y-14764396D01*
X11540338Y-14754872D01*
X11587957Y-14754872D01*
X11607005Y-14764396D01*
X11616529Y-14773920D01*
X11626052Y-14792968D01*
X11626052Y-14812015D01*
X11616529Y-14840587D01*
X11502243Y-14954872D01*
X11626052Y-14954872D01*
X11711767Y-14935825D02*
X11721291Y-14945349D01*
X11711767Y-14954872D01*
X11702243Y-14945349D01*
X11711767Y-14935825D01*
X11711767Y-14954872D01*
X11902243Y-14754872D02*
X11807005Y-14754872D01*
X11797481Y-14850110D01*
X11807005Y-14840587D01*
X11826052Y-14831063D01*
X11873672Y-14831063D01*
X11892719Y-14840587D01*
X11902243Y-14850110D01*
X11911767Y-14869158D01*
X11911767Y-14916777D01*
X11902243Y-14935825D01*
X11892719Y-14945349D01*
X11873672Y-14954872D01*
X11826052Y-14954872D01*
X11807005Y-14945349D01*
X11797481Y-14935825D01*
X12035576Y-14754872D02*
X12054624Y-14754872D01*
X12073672Y-14764396D01*
X12083195Y-14773920D01*
X12092719Y-14792968D01*
X12102243Y-14831063D01*
X12102243Y-14878682D01*
X12092719Y-14916777D01*
X12083195Y-14935825D01*
X12073672Y-14945349D01*
X12054624Y-14954872D01*
X12035576Y-14954872D01*
X12016529Y-14945349D01*
X12007005Y-14935825D01*
X11997481Y-14916777D01*
X11987957Y-14878682D01*
X11987957Y-14831063D01*
X11997481Y-14792968D01*
X12007005Y-14773920D01*
X12016529Y-14764396D01*
X12035576Y-14754872D01*
X12226052Y-14754872D02*
X12245100Y-14754872D01*
X12264148Y-14764396D01*
X12273672Y-14773920D01*
X12283195Y-14792968D01*
X12292719Y-14831063D01*
X12292719Y-14878682D01*
X12283195Y-14916777D01*
X12273672Y-14935825D01*
X12264148Y-14945349D01*
X12245100Y-14954872D01*
X12226052Y-14954872D01*
X12207005Y-14945349D01*
X12197481Y-14935825D01*
X12187957Y-14916777D01*
X12178433Y-14878682D01*
X12178433Y-14831063D01*
X12187957Y-14792968D01*
X12197481Y-14773920D01*
X12207005Y-14764396D01*
X12226052Y-14754872D01*
X12378433Y-14954872D02*
X12378433Y-14821539D01*
X12378433Y-14840587D02*
X12387957Y-14831063D01*
X12407005Y-14821539D01*
X12435576Y-14821539D01*
X12454624Y-14831063D01*
X12464148Y-14850110D01*
X12464148Y-14954872D01*
X12464148Y-14850110D02*
X12473672Y-14831063D01*
X12492719Y-14821539D01*
X12521291Y-14821539D01*
X12540338Y-14831063D01*
X12549862Y-14850110D01*
X12549862Y-14954872D01*
X12645100Y-14954872D02*
X12645100Y-14821539D01*
X12645100Y-14840587D02*
X12654624Y-14831063D01*
X12673672Y-14821539D01*
X12702243Y-14821539D01*
X12721291Y-14831063D01*
X12730814Y-14850110D01*
X12730814Y-14954872D01*
X12730814Y-14850110D02*
X12740338Y-14831063D01*
X12759386Y-14821539D01*
X12787957Y-14821539D01*
X12807005Y-14831063D01*
X12816529Y-14850110D01*
X12816529Y-14954872D01*
X13207005Y-14745349D02*
X13035576Y-15002491D01*
X13464148Y-14754872D02*
X13483195Y-14754872D01*
X13502243Y-14764396D01*
X13511767Y-14773920D01*
X13521291Y-14792968D01*
X13530814Y-14831063D01*
X13530814Y-14878682D01*
X13521291Y-14916777D01*
X13511767Y-14935825D01*
X13502243Y-14945349D01*
X13483195Y-14954872D01*
X13464148Y-14954872D01*
X13445100Y-14945349D01*
X13435576Y-14935825D01*
X13426052Y-14916777D01*
X13416529Y-14878682D01*
X13416529Y-14831063D01*
X13426052Y-14792968D01*
X13435576Y-14773920D01*
X13445100Y-14764396D01*
X13464148Y-14754872D01*
X13616529Y-14935825D02*
X13626052Y-14945349D01*
X13616529Y-14954872D01*
X13607005Y-14945349D01*
X13616529Y-14935825D01*
X13616529Y-14954872D01*
X13749862Y-14754872D02*
X13768910Y-14754872D01*
X13787957Y-14764396D01*
X13797481Y-14773920D01*
X13807005Y-14792968D01*
X13816529Y-14831063D01*
X13816529Y-14878682D01*
X13807005Y-14916777D01*
X13797481Y-14935825D01*
X13787957Y-14945349D01*
X13768910Y-14954872D01*
X13749862Y-14954872D01*
X13730814Y-14945349D01*
X13721291Y-14935825D01*
X13711767Y-14916777D01*
X13702243Y-14878682D01*
X13702243Y-14831063D01*
X13711767Y-14792968D01*
X13721291Y-14773920D01*
X13730814Y-14764396D01*
X13749862Y-14754872D01*
X13911767Y-14954872D02*
X13949862Y-14954872D01*
X13968910Y-14945349D01*
X13978433Y-14935825D01*
X13997481Y-14907253D01*
X14007005Y-14869158D01*
X14007005Y-14792968D01*
X13997481Y-14773920D01*
X13987957Y-14764396D01*
X13968910Y-14754872D01*
X13930814Y-14754872D01*
X13911767Y-14764396D01*
X13902243Y-14773920D01*
X13892719Y-14792968D01*
X13892719Y-14840587D01*
X13902243Y-14859634D01*
X13911767Y-14869158D01*
X13930814Y-14878682D01*
X13968910Y-14878682D01*
X13987957Y-14869158D01*
X13997481Y-14859634D01*
X14007005Y-14840587D01*
X14121291Y-14840587D02*
X14102243Y-14831063D01*
X14092719Y-14821539D01*
X14083195Y-14802491D01*
X14083195Y-14792968D01*
X14092719Y-14773920D01*
X14102243Y-14764396D01*
X14121291Y-14754872D01*
X14159386Y-14754872D01*
X14178433Y-14764396D01*
X14187957Y-14773920D01*
X14197481Y-14792968D01*
X14197481Y-14802491D01*
X14187957Y-14821539D01*
X14178433Y-14831063D01*
X14159386Y-14840587D01*
X14121291Y-14840587D01*
X14102243Y-14850110D01*
X14092719Y-14859634D01*
X14083195Y-14878682D01*
X14083195Y-14916777D01*
X14092719Y-14935825D01*
X14102243Y-14945349D01*
X14121291Y-14954872D01*
X14159386Y-14954872D01*
X14178433Y-14945349D01*
X14187957Y-14935825D01*
X14197481Y-14916777D01*
X14197481Y-14878682D01*
X14187957Y-14859634D01*
X14178433Y-14850110D01*
X14159386Y-14840587D01*
X14368910Y-14821539D02*
X14368910Y-14954872D01*
X14321291Y-14745349D02*
X14273672Y-14888206D01*
X14397481Y-14888206D01*
X14464148Y-14754872D02*
X14464148Y-14792968D01*
X14540338Y-14754872D02*
X14540338Y-14792968D01*
X14835576Y-15031063D02*
X14826052Y-15021539D01*
X14807005Y-14992968D01*
X14797481Y-14973920D01*
X14787957Y-14945349D01*
X14778433Y-14897730D01*
X14778433Y-14859634D01*
X14787957Y-14812015D01*
X14797481Y-14783444D01*
X14807005Y-14764396D01*
X14826052Y-14735825D01*
X14835576Y-14726301D01*
X14997481Y-14821539D02*
X14997481Y-14954872D01*
X14949862Y-14745349D02*
X14902243Y-14888206D01*
X15026052Y-14888206D01*
X15254624Y-14954872D02*
X15254624Y-14754872D01*
X15340338Y-14954872D02*
X15340338Y-14850110D01*
X15330814Y-14831063D01*
X15311767Y-14821539D01*
X15283195Y-14821539D01*
X15264148Y-14831063D01*
X15254624Y-14840587D01*
X15464148Y-14954872D02*
X15445100Y-14945349D01*
X15435576Y-14935825D01*
X15426052Y-14916777D01*
X15426052Y-14859634D01*
X15435576Y-14840587D01*
X15445100Y-14831063D01*
X15464148Y-14821539D01*
X15492719Y-14821539D01*
X15511767Y-14831063D01*
X15521291Y-14840587D01*
X15530814Y-14859634D01*
X15530814Y-14916777D01*
X15521291Y-14935825D01*
X15511767Y-14945349D01*
X15492719Y-14954872D01*
X15464148Y-14954872D01*
X15645100Y-14954872D02*
X15626052Y-14945349D01*
X15616529Y-14926301D01*
X15616529Y-14754872D01*
X15797481Y-14945349D02*
X15778433Y-14954872D01*
X15740338Y-14954872D01*
X15721291Y-14945349D01*
X15711767Y-14926301D01*
X15711767Y-14850110D01*
X15721291Y-14831063D01*
X15740338Y-14821539D01*
X15778433Y-14821539D01*
X15797481Y-14831063D01*
X15807005Y-14850110D01*
X15807005Y-14869158D01*
X15711767Y-14888206D01*
X15883195Y-14945349D02*
X15902243Y-14954872D01*
X15940338Y-14954872D01*
X15959386Y-14945349D01*
X15968910Y-14926301D01*
X15968910Y-14916777D01*
X15959386Y-14897730D01*
X15940338Y-14888206D01*
X15911767Y-14888206D01*
X15892719Y-14878682D01*
X15883195Y-14859634D01*
X15883195Y-14850110D01*
X15892719Y-14831063D01*
X15911767Y-14821539D01*
X15940338Y-14821539D01*
X15959386Y-14831063D01*
X16035576Y-15031063D02*
X16045100Y-15021539D01*
X16064148Y-14992968D01*
X16073671Y-14973920D01*
X16083195Y-14945349D01*
X16092719Y-14897730D01*
X16092719Y-14859634D01*
X16083195Y-14812015D01*
X16073671Y-14783444D01*
X16064148Y-14764396D01*
X16045100Y-14735825D01*
X16035576Y-14726301D01*
M02*
