%TF.GenerationSoftware,KiCad,Pcbnew,(6.0.9)*%
%TF.CreationDate,2022-12-23T18:09:19+01:00*%
%TF.ProjectId,Home Automation Coffee Machine PRO,486f6d65-2041-4757-946f-6d6174696f6e,5.3*%
%TF.SameCoordinates,Original*%
%TF.FileFunction,Legend,Bot*%
%TF.FilePolarity,Positive*%
%FSLAX46Y46*%
G04 Gerber Fmt 4.6, Leading zero omitted, Abs format (unit mm)*
G04 Created by KiCad (PCBNEW (6.0.9)) date 2022-12-23 18:09:19*
%MOMM*%
%LPD*%
G01*
G04 APERTURE LIST*
%ADD10C,0.150000*%
%ADD11C,0.200000*%
%ADD12C,0.280000*%
%ADD13C,0.250000*%
%ADD14C,0.500000*%
%ADD15C,0.350000*%
%ADD16C,0.254000*%
%ADD17C,0.120000*%
%ADD18C,0.127000*%
%ADD19C,0.381000*%
%ADD20C,1.270000*%
%ADD21C,0.508000*%
%ADD22C,0.300000*%
G04 APERTURE END LIST*
D10*
X147514285Y-100227619D02*
X147514285Y-101227619D01*
X147514285Y-100751428D02*
X148085714Y-100751428D01*
X148085714Y-100227619D02*
X148085714Y-101227619D01*
X148514285Y-101132380D02*
X148561904Y-101180000D01*
X148657142Y-101227619D01*
X148895238Y-101227619D01*
X148990476Y-101180000D01*
X149038095Y-101132380D01*
X149085714Y-101037142D01*
X149085714Y-100941904D01*
X149038095Y-100799047D01*
X148466666Y-100227619D01*
X149085714Y-100227619D01*
X149704761Y-101227619D02*
X149895238Y-101227619D01*
X149990476Y-101180000D01*
X150085714Y-101084761D01*
X150133333Y-100894285D01*
X150133333Y-100560952D01*
X150085714Y-100370476D01*
X149990476Y-100275238D01*
X149895238Y-100227619D01*
X149704761Y-100227619D01*
X149609523Y-100275238D01*
X149514285Y-100370476D01*
X149466666Y-100560952D01*
X149466666Y-100894285D01*
X149514285Y-101084761D01*
X149609523Y-101180000D01*
X149704761Y-101227619D01*
X153456666Y-107837619D02*
X153456666Y-108837619D01*
X153837619Y-108837619D01*
X153932857Y-108790000D01*
X153980476Y-108742380D01*
X154028095Y-108647142D01*
X154028095Y-108504285D01*
X153980476Y-108409047D01*
X153932857Y-108361428D01*
X153837619Y-108313809D01*
X153456666Y-108313809D01*
X154361428Y-108837619D02*
X154599523Y-107837619D01*
X154790000Y-108551904D01*
X154980476Y-107837619D01*
X155218571Y-108837619D01*
X156170952Y-107837619D02*
X155837619Y-108313809D01*
X155599523Y-107837619D02*
X155599523Y-108837619D01*
X155980476Y-108837619D01*
X156075714Y-108790000D01*
X156123333Y-108742380D01*
X156170952Y-108647142D01*
X156170952Y-108504285D01*
X156123333Y-108409047D01*
X156075714Y-108361428D01*
X155980476Y-108313809D01*
X155599523Y-108313809D01*
X155280476Y-100327619D02*
X155851904Y-100327619D01*
X155566190Y-99327619D02*
X155566190Y-100327619D01*
X156185238Y-99851428D02*
X156518571Y-99851428D01*
X156661428Y-99327619D02*
X156185238Y-99327619D01*
X156185238Y-100327619D01*
X156661428Y-100327619D01*
X157090000Y-99327619D02*
X157090000Y-100327619D01*
X157423333Y-99613333D01*
X157756666Y-100327619D01*
X157756666Y-99327619D01*
X158232857Y-99327619D02*
X158232857Y-100327619D01*
X158613809Y-100327619D01*
X158709047Y-100280000D01*
X158756666Y-100232380D01*
X158804285Y-100137142D01*
X158804285Y-99994285D01*
X158756666Y-99899047D01*
X158709047Y-99851428D01*
X158613809Y-99803809D01*
X158232857Y-99803809D01*
D11*
X155070952Y-101571428D02*
X154309047Y-101571428D01*
X154990952Y-105381428D02*
X154229047Y-105381428D01*
X154610000Y-105762380D02*
X154610000Y-105000476D01*
D12*
X118771050Y-111030000D02*
G75*
G03*
X118771050Y-111030000I-191050J0D01*
G01*
D13*
X120805714Y-113750238D02*
X120948571Y-113702619D01*
X121186666Y-113702619D01*
X121281904Y-113750238D01*
X121329523Y-113797857D01*
X121377142Y-113893095D01*
X121377142Y-113988333D01*
X121329523Y-114083571D01*
X121281904Y-114131190D01*
X121186666Y-114178809D01*
X120996190Y-114226428D01*
X120900952Y-114274047D01*
X120853333Y-114321666D01*
X120805714Y-114416904D01*
X120805714Y-114512142D01*
X120853333Y-114607380D01*
X120900952Y-114655000D01*
X120996190Y-114702619D01*
X121234285Y-114702619D01*
X121377142Y-114655000D01*
X121805714Y-113702619D02*
X121805714Y-114702619D01*
X122139047Y-113988333D01*
X122472380Y-114702619D01*
X122472380Y-113702619D01*
X122900952Y-113988333D02*
X123377142Y-113988333D01*
X122805714Y-113702619D02*
X123139047Y-114702619D01*
X123472380Y-113702619D01*
X124377142Y-113702619D02*
X124043809Y-114178809D01*
X123805714Y-113702619D02*
X123805714Y-114702619D01*
X124186666Y-114702619D01*
X124281904Y-114655000D01*
X124329523Y-114607380D01*
X124377142Y-114512142D01*
X124377142Y-114369285D01*
X124329523Y-114274047D01*
X124281904Y-114226428D01*
X124186666Y-114178809D01*
X123805714Y-114178809D01*
X124662857Y-114702619D02*
X125234285Y-114702619D01*
X124948571Y-113702619D02*
X124948571Y-114702619D01*
X126900952Y-113797857D02*
X126853333Y-113750238D01*
X126710476Y-113702619D01*
X126615238Y-113702619D01*
X126472380Y-113750238D01*
X126377142Y-113845476D01*
X126329523Y-113940714D01*
X126281904Y-114131190D01*
X126281904Y-114274047D01*
X126329523Y-114464523D01*
X126377142Y-114559761D01*
X126472380Y-114655000D01*
X126615238Y-114702619D01*
X126710476Y-114702619D01*
X126853333Y-114655000D01*
X126900952Y-114607380D01*
X127520000Y-114702619D02*
X127710476Y-114702619D01*
X127805714Y-114655000D01*
X127900952Y-114559761D01*
X127948571Y-114369285D01*
X127948571Y-114035952D01*
X127900952Y-113845476D01*
X127805714Y-113750238D01*
X127710476Y-113702619D01*
X127520000Y-113702619D01*
X127424761Y-113750238D01*
X127329523Y-113845476D01*
X127281904Y-114035952D01*
X127281904Y-114369285D01*
X127329523Y-114559761D01*
X127424761Y-114655000D01*
X127520000Y-114702619D01*
X128710476Y-114226428D02*
X128377142Y-114226428D01*
X128377142Y-113702619D02*
X128377142Y-114702619D01*
X128853333Y-114702619D01*
X129567619Y-114226428D02*
X129234285Y-114226428D01*
X129234285Y-113702619D02*
X129234285Y-114702619D01*
X129710476Y-114702619D01*
X130091428Y-114226428D02*
X130424761Y-114226428D01*
X130567619Y-113702619D02*
X130091428Y-113702619D01*
X130091428Y-114702619D01*
X130567619Y-114702619D01*
X130996190Y-114226428D02*
X131329523Y-114226428D01*
X131472380Y-113702619D02*
X130996190Y-113702619D01*
X130996190Y-114702619D01*
X131472380Y-114702619D01*
X121615238Y-112092619D02*
X121615238Y-113092619D01*
X121948571Y-112378333D01*
X122281904Y-113092619D01*
X122281904Y-112092619D01*
X122710476Y-112378333D02*
X123186666Y-112378333D01*
X122615238Y-112092619D02*
X122948571Y-113092619D01*
X123281904Y-112092619D01*
X124186666Y-112187857D02*
X124139047Y-112140238D01*
X123996190Y-112092619D01*
X123900952Y-112092619D01*
X123758095Y-112140238D01*
X123662857Y-112235476D01*
X123615238Y-112330714D01*
X123567619Y-112521190D01*
X123567619Y-112664047D01*
X123615238Y-112854523D01*
X123662857Y-112949761D01*
X123758095Y-113045000D01*
X123900952Y-113092619D01*
X123996190Y-113092619D01*
X124139047Y-113045000D01*
X124186666Y-112997380D01*
X124615238Y-112092619D02*
X124615238Y-113092619D01*
X124615238Y-112616428D02*
X125186666Y-112616428D01*
X125186666Y-112092619D02*
X125186666Y-113092619D01*
X125662857Y-112092619D02*
X125662857Y-113092619D01*
X126139047Y-112092619D02*
X126139047Y-113092619D01*
X126710476Y-112092619D01*
X126710476Y-113092619D01*
X127186666Y-112616428D02*
X127520000Y-112616428D01*
X127662857Y-112092619D02*
X127186666Y-112092619D01*
X127186666Y-113092619D01*
X127662857Y-113092619D01*
X128853333Y-112092619D02*
X128853333Y-113092619D01*
X129234285Y-113092619D01*
X129329523Y-113045000D01*
X129377142Y-112997380D01*
X129424761Y-112902142D01*
X129424761Y-112759285D01*
X129377142Y-112664047D01*
X129329523Y-112616428D01*
X129234285Y-112568809D01*
X128853333Y-112568809D01*
X130424761Y-112092619D02*
X130091428Y-112568809D01*
X129853333Y-112092619D02*
X129853333Y-113092619D01*
X130234285Y-113092619D01*
X130329523Y-113045000D01*
X130377142Y-112997380D01*
X130424761Y-112902142D01*
X130424761Y-112759285D01*
X130377142Y-112664047D01*
X130329523Y-112616428D01*
X130234285Y-112568809D01*
X129853333Y-112568809D01*
X131043809Y-113092619D02*
X131234285Y-113092619D01*
X131329523Y-113045000D01*
X131424761Y-112949761D01*
X131472380Y-112759285D01*
X131472380Y-112425952D01*
X131424761Y-112235476D01*
X131329523Y-112140238D01*
X131234285Y-112092619D01*
X131043809Y-112092619D01*
X130948571Y-112140238D01*
X130853333Y-112235476D01*
X130805714Y-112425952D01*
X130805714Y-112759285D01*
X130853333Y-112949761D01*
X130948571Y-113045000D01*
X131043809Y-113092619D01*
D10*
X119970000Y-118561904D02*
X120017619Y-118657142D01*
X120017619Y-118800000D01*
X119970000Y-118942857D01*
X119874761Y-119038095D01*
X119779523Y-119085714D01*
X119589047Y-119133333D01*
X119446190Y-119133333D01*
X119255714Y-119085714D01*
X119160476Y-119038095D01*
X119065238Y-118942857D01*
X119017619Y-118800000D01*
X119017619Y-118704761D01*
X119065238Y-118561904D01*
X119112857Y-118514285D01*
X119446190Y-118514285D01*
X119446190Y-118704761D01*
X119017619Y-118085714D02*
X120017619Y-118085714D01*
X119017619Y-117514285D01*
X120017619Y-117514285D01*
X119017619Y-117038095D02*
X120017619Y-117038095D01*
X120017619Y-116800000D01*
X119970000Y-116657142D01*
X119874761Y-116561904D01*
X119779523Y-116514285D01*
X119589047Y-116466666D01*
X119446190Y-116466666D01*
X119255714Y-116514285D01*
X119160476Y-116561904D01*
X119065238Y-116657142D01*
X119017619Y-116800000D01*
X119017619Y-117038095D01*
X123905238Y-119104285D02*
X123857619Y-118961428D01*
X123857619Y-118723333D01*
X123905238Y-118628095D01*
X123952857Y-118580476D01*
X124048095Y-118532857D01*
X124143333Y-118532857D01*
X124238571Y-118580476D01*
X124286190Y-118628095D01*
X124333809Y-118723333D01*
X124381428Y-118913809D01*
X124429047Y-119009047D01*
X124476666Y-119056666D01*
X124571904Y-119104285D01*
X124667142Y-119104285D01*
X124762380Y-119056666D01*
X124810000Y-119009047D01*
X124857619Y-118913809D01*
X124857619Y-118675714D01*
X124810000Y-118532857D01*
X123857619Y-118104285D02*
X124857619Y-118104285D01*
X124857619Y-117866190D01*
X124810000Y-117723333D01*
X124714761Y-117628095D01*
X124619523Y-117580476D01*
X124429047Y-117532857D01*
X124286190Y-117532857D01*
X124095714Y-117580476D01*
X124000476Y-117628095D01*
X123905238Y-117723333D01*
X123857619Y-117866190D01*
X123857619Y-118104285D01*
X124143333Y-117151904D02*
X124143333Y-116675714D01*
X123857619Y-117247142D02*
X124857619Y-116913809D01*
X123857619Y-116580476D01*
X151821904Y-112067619D02*
X152440952Y-112067619D01*
X152107619Y-111686666D01*
X152250476Y-111686666D01*
X152345714Y-111639047D01*
X152393333Y-111591428D01*
X152440952Y-111496190D01*
X152440952Y-111258095D01*
X152393333Y-111162857D01*
X152345714Y-111115238D01*
X152250476Y-111067619D01*
X151964761Y-111067619D01*
X151869523Y-111115238D01*
X151821904Y-111162857D01*
X152726666Y-112067619D02*
X153060000Y-111067619D01*
X153393333Y-112067619D01*
X153631428Y-112067619D02*
X154250476Y-112067619D01*
X153917142Y-111686666D01*
X154060000Y-111686666D01*
X154155238Y-111639047D01*
X154202857Y-111591428D01*
X154250476Y-111496190D01*
X154250476Y-111258095D01*
X154202857Y-111162857D01*
X154155238Y-111115238D01*
X154060000Y-111067619D01*
X153774285Y-111067619D01*
X153679047Y-111115238D01*
X153631428Y-111162857D01*
X141551904Y-105847619D02*
X141551904Y-106847619D01*
X141551904Y-106371428D02*
X142123333Y-106371428D01*
X142123333Y-105847619D02*
X142123333Y-106847619D01*
X142551904Y-106752380D02*
X142599523Y-106800000D01*
X142694761Y-106847619D01*
X142932857Y-106847619D01*
X143028095Y-106800000D01*
X143075714Y-106752380D01*
X143123333Y-106657142D01*
X143123333Y-106561904D01*
X143075714Y-106419047D01*
X142504285Y-105847619D01*
X143123333Y-105847619D01*
X143742380Y-106847619D02*
X143837619Y-106847619D01*
X143932857Y-106800000D01*
X143980476Y-106752380D01*
X144028095Y-106657142D01*
X144075714Y-106466666D01*
X144075714Y-106228571D01*
X144028095Y-106038095D01*
X143980476Y-105942857D01*
X143932857Y-105895238D01*
X143837619Y-105847619D01*
X143742380Y-105847619D01*
X143647142Y-105895238D01*
X143599523Y-105942857D01*
X143551904Y-106038095D01*
X143504285Y-106228571D01*
X143504285Y-106466666D01*
X143551904Y-106657142D01*
X143599523Y-106752380D01*
X143647142Y-106800000D01*
X143742380Y-106847619D01*
X148879047Y-113147619D02*
X148879047Y-114147619D01*
X149450476Y-113147619D01*
X149450476Y-114147619D01*
X149926666Y-113671428D02*
X150260000Y-113671428D01*
X150402857Y-113147619D02*
X149926666Y-113147619D01*
X149926666Y-114147619D01*
X150402857Y-114147619D01*
X150736190Y-114147619D02*
X151402857Y-113147619D01*
X151402857Y-114147619D02*
X150736190Y-113147619D01*
X151640952Y-114147619D02*
X152212380Y-114147619D01*
X151926666Y-113147619D02*
X151926666Y-114147619D01*
X152545714Y-113147619D02*
X152545714Y-114147619D01*
X153212380Y-114147619D02*
X153402857Y-114147619D01*
X153498095Y-114100000D01*
X153593333Y-114004761D01*
X153640952Y-113814285D01*
X153640952Y-113480952D01*
X153593333Y-113290476D01*
X153498095Y-113195238D01*
X153402857Y-113147619D01*
X153212380Y-113147619D01*
X153117142Y-113195238D01*
X153021904Y-113290476D01*
X152974285Y-113480952D01*
X152974285Y-113814285D01*
X153021904Y-114004761D01*
X153117142Y-114100000D01*
X153212380Y-114147619D01*
X154069523Y-113147619D02*
X154069523Y-114147619D01*
X154640952Y-113147619D01*
X154640952Y-114147619D01*
X134071428Y-82139523D02*
X134071428Y-82472857D01*
X133547619Y-82472857D02*
X134547619Y-82472857D01*
X134547619Y-81996666D01*
X134547619Y-81615714D02*
X133738095Y-81615714D01*
X133642857Y-81568095D01*
X133595238Y-81520476D01*
X133547619Y-81425238D01*
X133547619Y-81234761D01*
X133595238Y-81139523D01*
X133642857Y-81091904D01*
X133738095Y-81044285D01*
X134547619Y-81044285D01*
X133595238Y-80615714D02*
X133547619Y-80472857D01*
X133547619Y-80234761D01*
X133595238Y-80139523D01*
X133642857Y-80091904D01*
X133738095Y-80044285D01*
X133833333Y-80044285D01*
X133928571Y-80091904D01*
X133976190Y-80139523D01*
X134023809Y-80234761D01*
X134071428Y-80425238D01*
X134119047Y-80520476D01*
X134166666Y-80568095D01*
X134261904Y-80615714D01*
X134357142Y-80615714D01*
X134452380Y-80568095D01*
X134500000Y-80520476D01*
X134547619Y-80425238D01*
X134547619Y-80187142D01*
X134500000Y-80044285D01*
X134071428Y-79615714D02*
X134071428Y-79282380D01*
X133547619Y-79139523D02*
X133547619Y-79615714D01*
X134547619Y-79615714D01*
X134547619Y-79139523D01*
X149561904Y-107797619D02*
X150180952Y-107797619D01*
X149847619Y-107416666D01*
X149990476Y-107416666D01*
X150085714Y-107369047D01*
X150133333Y-107321428D01*
X150180952Y-107226190D01*
X150180952Y-106988095D01*
X150133333Y-106892857D01*
X150085714Y-106845238D01*
X149990476Y-106797619D01*
X149704761Y-106797619D01*
X149609523Y-106845238D01*
X149561904Y-106892857D01*
X150466666Y-107797619D02*
X150800000Y-106797619D01*
X151133333Y-107797619D01*
X151371428Y-107797619D02*
X151990476Y-107797619D01*
X151657142Y-107416666D01*
X151800000Y-107416666D01*
X151895238Y-107369047D01*
X151942857Y-107321428D01*
X151990476Y-107226190D01*
X151990476Y-106988095D01*
X151942857Y-106892857D01*
X151895238Y-106845238D01*
X151800000Y-106797619D01*
X151514285Y-106797619D01*
X151419047Y-106845238D01*
X151371428Y-106892857D01*
X121987619Y-118878095D02*
X121987619Y-118259047D01*
X121606666Y-118592380D01*
X121606666Y-118449523D01*
X121559047Y-118354285D01*
X121511428Y-118306666D01*
X121416190Y-118259047D01*
X121178095Y-118259047D01*
X121082857Y-118306666D01*
X121035238Y-118354285D01*
X120987619Y-118449523D01*
X120987619Y-118735238D01*
X121035238Y-118830476D01*
X121082857Y-118878095D01*
X121987619Y-117973333D02*
X120987619Y-117640000D01*
X121987619Y-117306666D01*
X121987619Y-117068571D02*
X121987619Y-116449523D01*
X121606666Y-116782857D01*
X121606666Y-116640000D01*
X121559047Y-116544761D01*
X121511428Y-116497142D01*
X121416190Y-116449523D01*
X121178095Y-116449523D01*
X121082857Y-116497142D01*
X121035238Y-116544761D01*
X120987619Y-116640000D01*
X120987619Y-116925714D01*
X121035238Y-117020952D01*
X121082857Y-117068571D01*
X141242380Y-117370476D02*
X141242380Y-117941904D01*
X142242380Y-117656190D02*
X141242380Y-117656190D01*
X141718571Y-118275238D02*
X141718571Y-118608571D01*
X142242380Y-118751428D02*
X142242380Y-118275238D01*
X141242380Y-118275238D01*
X141242380Y-118751428D01*
X142242380Y-119180000D02*
X141242380Y-119180000D01*
X141956666Y-119513333D01*
X141242380Y-119846666D01*
X142242380Y-119846666D01*
X142242380Y-120322857D02*
X141242380Y-120322857D01*
X141242380Y-120703809D01*
X141290000Y-120799047D01*
X141337619Y-120846666D01*
X141432857Y-120894285D01*
X141575714Y-120894285D01*
X141670952Y-120846666D01*
X141718571Y-120799047D01*
X141766190Y-120703809D01*
X141766190Y-120322857D01*
X141987142Y-107512857D02*
X141939523Y-107465238D01*
X141796666Y-107417619D01*
X141701428Y-107417619D01*
X141558571Y-107465238D01*
X141463333Y-107560476D01*
X141415714Y-107655714D01*
X141368095Y-107846190D01*
X141368095Y-107989047D01*
X141415714Y-108179523D01*
X141463333Y-108274761D01*
X141558571Y-108370000D01*
X141701428Y-108417619D01*
X141796666Y-108417619D01*
X141939523Y-108370000D01*
X141987142Y-108322380D01*
X142606190Y-108417619D02*
X142796666Y-108417619D01*
X142891904Y-108370000D01*
X142987142Y-108274761D01*
X143034761Y-108084285D01*
X143034761Y-107750952D01*
X142987142Y-107560476D01*
X142891904Y-107465238D01*
X142796666Y-107417619D01*
X142606190Y-107417619D01*
X142510952Y-107465238D01*
X142415714Y-107560476D01*
X142368095Y-107750952D01*
X142368095Y-108084285D01*
X142415714Y-108274761D01*
X142510952Y-108370000D01*
X142606190Y-108417619D01*
X143796666Y-107941428D02*
X143463333Y-107941428D01*
X143463333Y-107417619D02*
X143463333Y-108417619D01*
X143939523Y-108417619D01*
X148621428Y-99017619D02*
X148145238Y-99017619D01*
X148145238Y-100017619D01*
X148954761Y-99541428D02*
X149288095Y-99541428D01*
X149430952Y-99017619D02*
X148954761Y-99017619D01*
X148954761Y-100017619D01*
X149430952Y-100017619D01*
X149716666Y-100017619D02*
X150050000Y-99017619D01*
X150383333Y-100017619D01*
X150716666Y-99541428D02*
X151050000Y-99541428D01*
X151192857Y-99017619D02*
X150716666Y-99017619D01*
X150716666Y-100017619D01*
X151192857Y-100017619D01*
X152097619Y-99017619D02*
X151621428Y-99017619D01*
X151621428Y-100017619D01*
D11*
X119032380Y-85723333D02*
X119508571Y-85723333D01*
X118937142Y-85437619D02*
X119270476Y-86437619D01*
X119603809Y-85437619D01*
X120508571Y-85532857D02*
X120460952Y-85485238D01*
X120318095Y-85437619D01*
X120222857Y-85437619D01*
X120080000Y-85485238D01*
X119984761Y-85580476D01*
X119937142Y-85675714D01*
X119889523Y-85866190D01*
X119889523Y-86009047D01*
X119937142Y-86199523D01*
X119984761Y-86294761D01*
X120080000Y-86390000D01*
X120222857Y-86437619D01*
X120318095Y-86437619D01*
X120460952Y-86390000D01*
X120508571Y-86342380D01*
X121841904Y-86009047D02*
X121746666Y-86056666D01*
X121699047Y-86104285D01*
X121651428Y-86199523D01*
X121651428Y-86247142D01*
X121699047Y-86342380D01*
X121746666Y-86390000D01*
X121841904Y-86437619D01*
X122032380Y-86437619D01*
X122127619Y-86390000D01*
X122175238Y-86342380D01*
X122222857Y-86247142D01*
X122222857Y-86199523D01*
X122175238Y-86104285D01*
X122127619Y-86056666D01*
X122032380Y-86009047D01*
X121841904Y-86009047D01*
X121746666Y-85961428D01*
X121699047Y-85913809D01*
X121651428Y-85818571D01*
X121651428Y-85628095D01*
X121699047Y-85532857D01*
X121746666Y-85485238D01*
X121841904Y-85437619D01*
X122032380Y-85437619D01*
X122127619Y-85485238D01*
X122175238Y-85532857D01*
X122222857Y-85628095D01*
X122222857Y-85818571D01*
X122175238Y-85913809D01*
X122127619Y-85961428D01*
X122032380Y-86009047D01*
X123127619Y-86437619D02*
X122651428Y-86437619D01*
X122603809Y-85961428D01*
X122651428Y-86009047D01*
X122746666Y-86056666D01*
X122984761Y-86056666D01*
X123080000Y-86009047D01*
X123127619Y-85961428D01*
X123175238Y-85866190D01*
X123175238Y-85628095D01*
X123127619Y-85532857D01*
X123080000Y-85485238D01*
X122984761Y-85437619D01*
X122746666Y-85437619D01*
X122651428Y-85485238D01*
X122603809Y-85532857D01*
X123603809Y-85818571D02*
X124365714Y-85818571D01*
X124794285Y-86342380D02*
X124841904Y-86390000D01*
X124937142Y-86437619D01*
X125175238Y-86437619D01*
X125270476Y-86390000D01*
X125318095Y-86342380D01*
X125365714Y-86247142D01*
X125365714Y-86151904D01*
X125318095Y-86009047D01*
X124746666Y-85437619D01*
X125365714Y-85437619D01*
X125984761Y-86437619D02*
X126080000Y-86437619D01*
X126175238Y-86390000D01*
X126222857Y-86342380D01*
X126270476Y-86247142D01*
X126318095Y-86056666D01*
X126318095Y-85818571D01*
X126270476Y-85628095D01*
X126222857Y-85532857D01*
X126175238Y-85485238D01*
X126080000Y-85437619D01*
X125984761Y-85437619D01*
X125889523Y-85485238D01*
X125841904Y-85532857D01*
X125794285Y-85628095D01*
X125746666Y-85818571D01*
X125746666Y-86056666D01*
X125794285Y-86247142D01*
X125841904Y-86342380D01*
X125889523Y-86390000D01*
X125984761Y-86437619D01*
X126937142Y-86437619D02*
X127032380Y-86437619D01*
X127127619Y-86390000D01*
X127175238Y-86342380D01*
X127222857Y-86247142D01*
X127270476Y-86056666D01*
X127270476Y-85818571D01*
X127222857Y-85628095D01*
X127175238Y-85532857D01*
X127127619Y-85485238D01*
X127032380Y-85437619D01*
X126937142Y-85437619D01*
X126841904Y-85485238D01*
X126794285Y-85532857D01*
X126746666Y-85628095D01*
X126699047Y-85818571D01*
X126699047Y-86056666D01*
X126746666Y-86247142D01*
X126794285Y-86342380D01*
X126841904Y-86390000D01*
X126937142Y-86437619D01*
X127556190Y-86437619D02*
X127889523Y-85437619D01*
X128222857Y-86437619D01*
D10*
X152288095Y-110680000D02*
X152192857Y-110727619D01*
X152050000Y-110727619D01*
X151907142Y-110680000D01*
X151811904Y-110584761D01*
X151764285Y-110489523D01*
X151716666Y-110299047D01*
X151716666Y-110156190D01*
X151764285Y-109965714D01*
X151811904Y-109870476D01*
X151907142Y-109775238D01*
X152050000Y-109727619D01*
X152145238Y-109727619D01*
X152288095Y-109775238D01*
X152335714Y-109822857D01*
X152335714Y-110156190D01*
X152145238Y-110156190D01*
X152764285Y-109727619D02*
X152764285Y-110727619D01*
X153335714Y-109727619D01*
X153335714Y-110727619D01*
X153811904Y-109727619D02*
X153811904Y-110727619D01*
X154050000Y-110727619D01*
X154192857Y-110680000D01*
X154288095Y-110584761D01*
X154335714Y-110489523D01*
X154383333Y-110299047D01*
X154383333Y-110156190D01*
X154335714Y-109965714D01*
X154288095Y-109870476D01*
X154192857Y-109775238D01*
X154050000Y-109727619D01*
X153811904Y-109727619D01*
X142250000Y-113600000D02*
X142154761Y-113647619D01*
X142011904Y-113647619D01*
X141869047Y-113600000D01*
X141773809Y-113504761D01*
X141726190Y-113409523D01*
X141678571Y-113219047D01*
X141678571Y-113076190D01*
X141726190Y-112885714D01*
X141773809Y-112790476D01*
X141869047Y-112695238D01*
X142011904Y-112647619D01*
X142107142Y-112647619D01*
X142250000Y-112695238D01*
X142297619Y-112742857D01*
X142297619Y-113076190D01*
X142107142Y-113076190D01*
X143297619Y-112647619D02*
X142964285Y-113123809D01*
X142726190Y-112647619D02*
X142726190Y-113647619D01*
X143107142Y-113647619D01*
X143202380Y-113600000D01*
X143250000Y-113552380D01*
X143297619Y-113457142D01*
X143297619Y-113314285D01*
X143250000Y-113219047D01*
X143202380Y-113171428D01*
X143107142Y-113123809D01*
X142726190Y-113123809D01*
X143726190Y-112647619D02*
X143726190Y-113647619D01*
X144202380Y-112647619D02*
X144202380Y-113647619D01*
X144773809Y-112647619D01*
X144773809Y-113647619D01*
X122485238Y-118970476D02*
X122437619Y-118827619D01*
X122437619Y-118589523D01*
X122485238Y-118494285D01*
X122532857Y-118446666D01*
X122628095Y-118399047D01*
X122723333Y-118399047D01*
X122818571Y-118446666D01*
X122866190Y-118494285D01*
X122913809Y-118589523D01*
X122961428Y-118780000D01*
X123009047Y-118875238D01*
X123056666Y-118922857D01*
X123151904Y-118970476D01*
X123247142Y-118970476D01*
X123342380Y-118922857D01*
X123390000Y-118875238D01*
X123437619Y-118780000D01*
X123437619Y-118541904D01*
X123390000Y-118399047D01*
X122532857Y-117399047D02*
X122485238Y-117446666D01*
X122437619Y-117589523D01*
X122437619Y-117684761D01*
X122485238Y-117827619D01*
X122580476Y-117922857D01*
X122675714Y-117970476D01*
X122866190Y-118018095D01*
X123009047Y-118018095D01*
X123199523Y-117970476D01*
X123294761Y-117922857D01*
X123390000Y-117827619D01*
X123437619Y-117684761D01*
X123437619Y-117589523D01*
X123390000Y-117446666D01*
X123342380Y-117399047D01*
X122437619Y-116494285D02*
X122437619Y-116970476D01*
X123437619Y-116970476D01*
X134650000Y-122183333D02*
X134983333Y-122183333D01*
X134583333Y-121983333D02*
X134816666Y-122683333D01*
X135050000Y-121983333D01*
X135283333Y-121983333D02*
X135283333Y-122683333D01*
X135683333Y-121983333D01*
X135683333Y-122683333D01*
X135916666Y-122683333D02*
X136316666Y-122683333D01*
X136116666Y-121983333D02*
X136116666Y-122683333D01*
X136550000Y-122350000D02*
X136783333Y-122350000D01*
X136883333Y-121983333D02*
X136550000Y-121983333D01*
X136550000Y-122683333D01*
X136883333Y-122683333D01*
X137183333Y-121983333D02*
X137183333Y-122683333D01*
X137583333Y-121983333D01*
X137583333Y-122683333D01*
X137916666Y-121983333D02*
X137916666Y-122683333D01*
X138316666Y-121983333D01*
X138316666Y-122683333D01*
X138616666Y-122183333D02*
X138950000Y-122183333D01*
X138550000Y-121983333D02*
X138783333Y-122683333D01*
X139016666Y-121983333D01*
D14*
%TO.C,Sign-RoHS*%
X127098785Y-109318738D02*
X126432119Y-110271119D01*
X125955928Y-109318738D02*
X125955928Y-111318738D01*
X126717833Y-111318738D01*
X126908309Y-111223500D01*
X127003547Y-111128261D01*
X127098785Y-110937785D01*
X127098785Y-110652071D01*
X127003547Y-110461595D01*
X126908309Y-110366357D01*
X126717833Y-110271119D01*
X125955928Y-110271119D01*
X128241642Y-109318738D02*
X128051166Y-109413976D01*
X127955928Y-109509214D01*
X127860690Y-109699690D01*
X127860690Y-110271119D01*
X127955928Y-110461595D01*
X128051166Y-110556833D01*
X128241642Y-110652071D01*
X128527357Y-110652071D01*
X128717833Y-110556833D01*
X128813071Y-110461595D01*
X128908309Y-110271119D01*
X128908309Y-109699690D01*
X128813071Y-109509214D01*
X128717833Y-109413976D01*
X128527357Y-109318738D01*
X128241642Y-109318738D01*
X129765452Y-109318738D02*
X129765452Y-111318738D01*
X129765452Y-110366357D02*
X130908309Y-110366357D01*
X130908309Y-109318738D02*
X130908309Y-111318738D01*
X131765452Y-109413976D02*
X132051166Y-109318738D01*
X132527357Y-109318738D01*
X132717833Y-109413976D01*
X132813071Y-109509214D01*
X132908309Y-109699690D01*
X132908309Y-109890166D01*
X132813071Y-110080642D01*
X132717833Y-110175880D01*
X132527357Y-110271119D01*
X132146404Y-110366357D01*
X131955928Y-110461595D01*
X131860690Y-110556833D01*
X131765452Y-110747309D01*
X131765452Y-110937785D01*
X131860690Y-111128261D01*
X131955928Y-111223500D01*
X132146404Y-111318738D01*
X132622595Y-111318738D01*
X132908309Y-111223500D01*
D15*
X127145166Y-106418500D02*
X127060500Y-106333833D01*
X126806500Y-106249166D01*
X126637166Y-106249166D01*
X126383166Y-106333833D01*
X126213833Y-106503166D01*
X126129166Y-106672500D01*
X126044500Y-107011166D01*
X126044500Y-107265166D01*
X126129166Y-107603833D01*
X126213833Y-107773166D01*
X126383166Y-107942500D01*
X126637166Y-108027166D01*
X126806500Y-108027166D01*
X127060500Y-107942500D01*
X127145166Y-107857833D01*
X128161166Y-106249166D02*
X127991833Y-106333833D01*
X127907166Y-106418500D01*
X127822500Y-106587833D01*
X127822500Y-107095833D01*
X127907166Y-107265166D01*
X127991833Y-107349833D01*
X128161166Y-107434500D01*
X128415166Y-107434500D01*
X128584500Y-107349833D01*
X128669166Y-107265166D01*
X128753833Y-107095833D01*
X128753833Y-106587833D01*
X128669166Y-106418500D01*
X128584500Y-106333833D01*
X128415166Y-106249166D01*
X128161166Y-106249166D01*
X129515833Y-106249166D02*
X129515833Y-107434500D01*
X129515833Y-107265166D02*
X129600500Y-107349833D01*
X129769833Y-107434500D01*
X130023833Y-107434500D01*
X130193166Y-107349833D01*
X130277833Y-107180500D01*
X130277833Y-106249166D01*
X130277833Y-107180500D02*
X130362500Y-107349833D01*
X130531833Y-107434500D01*
X130785833Y-107434500D01*
X130955166Y-107349833D01*
X131039833Y-107180500D01*
X131039833Y-106249166D01*
X131886500Y-107434500D02*
X131886500Y-105656500D01*
X131886500Y-107349833D02*
X132055833Y-107434500D01*
X132394500Y-107434500D01*
X132563833Y-107349833D01*
X132648500Y-107265166D01*
X132733166Y-107095833D01*
X132733166Y-106587833D01*
X132648500Y-106418500D01*
X132563833Y-106333833D01*
X132394500Y-106249166D01*
X132055833Y-106249166D01*
X131886500Y-106333833D01*
X133749166Y-106249166D02*
X133579833Y-106333833D01*
X133495166Y-106503166D01*
X133495166Y-108027166D01*
X134426500Y-106249166D02*
X134426500Y-107434500D01*
X134426500Y-108027166D02*
X134341833Y-107942500D01*
X134426500Y-107857833D01*
X134511166Y-107942500D01*
X134426500Y-108027166D01*
X134426500Y-107857833D01*
X136035166Y-106249166D02*
X136035166Y-107180500D01*
X135950500Y-107349833D01*
X135781166Y-107434500D01*
X135442500Y-107434500D01*
X135273166Y-107349833D01*
X136035166Y-106333833D02*
X135865833Y-106249166D01*
X135442500Y-106249166D01*
X135273166Y-106333833D01*
X135188500Y-106503166D01*
X135188500Y-106672500D01*
X135273166Y-106841833D01*
X135442500Y-106926500D01*
X135865833Y-106926500D01*
X136035166Y-107011166D01*
X136881833Y-107434500D02*
X136881833Y-106249166D01*
X136881833Y-107265166D02*
X136966500Y-107349833D01*
X137135833Y-107434500D01*
X137389833Y-107434500D01*
X137559166Y-107349833D01*
X137643833Y-107180500D01*
X137643833Y-106249166D01*
X138236500Y-107434500D02*
X138913833Y-107434500D01*
X138490500Y-108027166D02*
X138490500Y-106503166D01*
X138575166Y-106333833D01*
X138744500Y-106249166D01*
X138913833Y-106249166D01*
D16*
%TO.C,Sign-PbFree*%
X147255068Y-79946232D02*
X147255068Y-81646232D01*
X146683640Y-81646232D01*
X146540782Y-81565280D01*
X146469354Y-81484327D01*
X146397925Y-81322422D01*
X146397925Y-81079565D01*
X146469354Y-80917660D01*
X146540782Y-80836708D01*
X146683640Y-80755756D01*
X147255068Y-80755756D01*
X145755068Y-79946232D02*
X145755068Y-81646232D01*
X145755068Y-80998613D02*
X145612211Y-81079565D01*
X145326497Y-81079565D01*
X145183640Y-80998613D01*
X145112211Y-80917660D01*
X145040782Y-80755756D01*
X145040782Y-80270041D01*
X145112211Y-80108137D01*
X145183640Y-80027184D01*
X145326497Y-79946232D01*
X145612211Y-79946232D01*
X145755068Y-80027184D01*
%TO.C,G\u002A\u002A\u002A*%
G36*
X138811848Y-115344984D02*
G01*
X138888586Y-115357640D01*
X138942177Y-115381522D01*
X138966031Y-115406889D01*
X138978576Y-115454045D01*
X138954294Y-115495005D01*
X138896227Y-115520563D01*
X138851548Y-115527474D01*
X138768211Y-115533009D01*
X138690596Y-115530796D01*
X138636647Y-115520819D01*
X138613386Y-115497792D01*
X138603547Y-115451152D01*
X138612630Y-115401072D01*
X138640208Y-115366029D01*
X138660576Y-115357023D01*
X138729874Y-115344472D01*
X138811848Y-115344984D01*
G37*
G36*
X135515981Y-116934993D02*
G01*
X135582293Y-116943605D01*
X135663035Y-116973391D01*
X135709568Y-117024293D01*
X135724500Y-117098354D01*
X135719410Y-117142121D01*
X135684443Y-117201427D01*
X135615586Y-117236580D01*
X135512008Y-117248167D01*
X135385833Y-117248167D01*
X135385833Y-116925579D01*
X135515981Y-116934993D01*
G37*
G36*
X135550456Y-117420374D02*
G01*
X135625822Y-117441954D01*
X135668628Y-117486731D01*
X135682166Y-117557164D01*
X135679543Y-117587446D01*
X135649636Y-117646283D01*
X135585715Y-117681166D01*
X135486956Y-117692667D01*
X135385833Y-117692667D01*
X135385833Y-117417500D01*
X135495291Y-117417500D01*
X135550456Y-117420374D01*
G37*
G36*
X140360000Y-115131500D02*
G01*
X140360000Y-119047333D01*
X125119417Y-119047333D01*
X125120328Y-117089417D01*
X125120695Y-116302316D01*
X125314256Y-116302316D01*
X125314454Y-116547108D01*
X125314905Y-116806995D01*
X125315617Y-117078833D01*
X125321083Y-118867417D01*
X127379659Y-118872813D01*
X129438236Y-118878210D01*
X129438188Y-118861947D01*
X129938577Y-118861947D01*
X129942034Y-118865033D01*
X129976214Y-118874279D01*
X130031512Y-118878000D01*
X130084979Y-118874565D01*
X130114039Y-118858042D01*
X130129301Y-118819792D01*
X130133057Y-118804817D01*
X130147767Y-118745123D01*
X130167842Y-118662832D01*
X130190071Y-118571083D01*
X130202545Y-118522270D01*
X130222397Y-118456267D01*
X130238432Y-118417223D01*
X130248022Y-118412333D01*
X130253493Y-118430221D01*
X130267931Y-118484918D01*
X130287432Y-118563574D01*
X130309364Y-118655750D01*
X130358750Y-118867417D01*
X130437411Y-118873944D01*
X130482881Y-118875297D01*
X130513689Y-118863826D01*
X130528327Y-118831610D01*
X130533338Y-118810961D01*
X130547563Y-118750543D01*
X130566850Y-118667435D01*
X130588502Y-118573223D01*
X130636422Y-118363695D01*
X130686072Y-118552056D01*
X130704637Y-118622756D01*
X130731721Y-118725428D01*
X130751755Y-118796321D01*
X130767607Y-118841261D01*
X130782147Y-118866073D01*
X130798243Y-118876583D01*
X130818763Y-118878617D01*
X130846578Y-118878000D01*
X130848461Y-118877994D01*
X130900405Y-118870580D01*
X130909045Y-118861947D01*
X130975743Y-118861947D01*
X130979200Y-118865033D01*
X131013381Y-118874279D01*
X131068679Y-118878000D01*
X131122146Y-118874565D01*
X131151206Y-118858042D01*
X131166468Y-118819792D01*
X131170224Y-118804817D01*
X131184934Y-118745123D01*
X131205009Y-118662832D01*
X131227238Y-118571083D01*
X131239712Y-118522270D01*
X131259564Y-118456267D01*
X131275598Y-118417223D01*
X131285189Y-118412333D01*
X131290660Y-118430221D01*
X131305098Y-118484918D01*
X131324598Y-118563574D01*
X131346531Y-118655750D01*
X131395916Y-118867417D01*
X131474578Y-118873944D01*
X131520048Y-118875297D01*
X131550856Y-118863826D01*
X131565494Y-118831610D01*
X131570504Y-118810961D01*
X131584730Y-118750543D01*
X131604017Y-118667435D01*
X131625668Y-118573223D01*
X131673589Y-118363695D01*
X131723238Y-118552056D01*
X131741803Y-118622756D01*
X131768887Y-118725428D01*
X131788921Y-118796321D01*
X131804774Y-118841261D01*
X131819313Y-118866073D01*
X131835409Y-118876583D01*
X131855930Y-118878617D01*
X131883744Y-118878000D01*
X131885628Y-118877994D01*
X131937571Y-118870580D01*
X131946212Y-118861947D01*
X132012910Y-118861947D01*
X132016367Y-118865033D01*
X132050547Y-118874279D01*
X132105845Y-118878000D01*
X132159313Y-118874565D01*
X132188372Y-118858042D01*
X132203635Y-118819792D01*
X132207391Y-118804817D01*
X132222101Y-118745123D01*
X132242175Y-118662832D01*
X132264405Y-118571083D01*
X132276878Y-118522270D01*
X132296730Y-118456267D01*
X132312765Y-118417223D01*
X132322356Y-118412333D01*
X132327827Y-118430221D01*
X132342265Y-118484918D01*
X132361765Y-118563574D01*
X132383697Y-118655750D01*
X132433083Y-118867417D01*
X132511745Y-118873944D01*
X132557214Y-118875297D01*
X132588022Y-118863826D01*
X132602660Y-118831610D01*
X132607671Y-118810961D01*
X132621897Y-118750543D01*
X132641184Y-118667435D01*
X132662835Y-118573223D01*
X132710755Y-118363695D01*
X132760405Y-118552056D01*
X132778970Y-118622756D01*
X132806054Y-118725428D01*
X132826088Y-118796321D01*
X132841940Y-118841261D01*
X132856480Y-118866073D01*
X132872576Y-118876583D01*
X132893097Y-118878617D01*
X132920911Y-118878000D01*
X132922794Y-118877994D01*
X132974738Y-118870580D01*
X132994000Y-118851335D01*
X132993838Y-118849071D01*
X132986657Y-118813649D01*
X132970157Y-118745662D01*
X132946184Y-118652115D01*
X132916584Y-118540012D01*
X132883202Y-118416356D01*
X132847884Y-118288152D01*
X132847713Y-118287546D01*
X133099833Y-118287546D01*
X133322083Y-118274750D01*
X133322083Y-118063083D01*
X133226045Y-118056816D01*
X133198081Y-118055658D01*
X133143500Y-118057823D01*
X133114920Y-118065635D01*
X133109974Y-118076324D01*
X133102695Y-118120849D01*
X133099833Y-118184134D01*
X133099833Y-118287546D01*
X132847713Y-118287546D01*
X132812474Y-118162404D01*
X132811372Y-118158540D01*
X132792139Y-118096175D01*
X132774065Y-118064681D01*
X132747305Y-118054624D01*
X132702011Y-118056571D01*
X132623583Y-118063083D01*
X132499153Y-118571083D01*
X132459121Y-118391167D01*
X132453862Y-118367626D01*
X132432579Y-118274003D01*
X132413005Y-118190157D01*
X132398812Y-118131875D01*
X132397404Y-118126417D01*
X132380180Y-118077217D01*
X132354074Y-118056646D01*
X132304603Y-118052500D01*
X132248390Y-118060217D01*
X132216815Y-118088607D01*
X132205738Y-118120880D01*
X132184853Y-118189478D01*
X132159037Y-118279701D01*
X132130346Y-118383753D01*
X132100834Y-118493839D01*
X132072558Y-118602165D01*
X132047572Y-118700934D01*
X132027931Y-118782351D01*
X132015692Y-118838620D01*
X132012910Y-118861947D01*
X131946212Y-118861947D01*
X131956833Y-118851335D01*
X131956671Y-118849071D01*
X131949490Y-118813649D01*
X131932990Y-118745662D01*
X131909018Y-118652115D01*
X131879418Y-118540012D01*
X131846036Y-118416356D01*
X131810717Y-118288152D01*
X131775308Y-118162404D01*
X131774206Y-118158540D01*
X131754972Y-118096175D01*
X131736899Y-118064681D01*
X131710138Y-118054624D01*
X131664845Y-118056571D01*
X131586416Y-118063083D01*
X131461986Y-118571083D01*
X131421954Y-118391167D01*
X131416695Y-118367626D01*
X131395412Y-118274003D01*
X131375838Y-118190157D01*
X131361645Y-118131875D01*
X131360237Y-118126417D01*
X131343014Y-118077217D01*
X131316908Y-118056646D01*
X131267436Y-118052500D01*
X131211223Y-118060217D01*
X131179649Y-118088607D01*
X131168571Y-118120880D01*
X131147686Y-118189478D01*
X131121871Y-118279701D01*
X131093179Y-118383753D01*
X131063668Y-118493839D01*
X131035391Y-118602165D01*
X131010405Y-118700934D01*
X130990765Y-118782351D01*
X130978526Y-118838620D01*
X130975743Y-118861947D01*
X130909045Y-118861947D01*
X130919666Y-118851335D01*
X130919505Y-118849071D01*
X130912323Y-118813649D01*
X130895824Y-118745662D01*
X130871851Y-118652115D01*
X130842251Y-118540012D01*
X130808869Y-118416356D01*
X130773550Y-118288152D01*
X130738141Y-118162404D01*
X130737039Y-118158540D01*
X130717806Y-118096175D01*
X130699732Y-118064681D01*
X130672972Y-118054624D01*
X130627678Y-118056571D01*
X130549250Y-118063083D01*
X130487034Y-118317083D01*
X130424819Y-118571083D01*
X130384787Y-118391167D01*
X130379528Y-118367626D01*
X130358246Y-118274003D01*
X130338672Y-118190157D01*
X130324478Y-118131875D01*
X130323071Y-118126417D01*
X130305847Y-118077217D01*
X130279741Y-118056646D01*
X130230269Y-118052500D01*
X130174056Y-118060217D01*
X130142482Y-118088607D01*
X130131404Y-118120880D01*
X130110520Y-118189478D01*
X130084704Y-118279701D01*
X130056013Y-118383753D01*
X130026501Y-118493839D01*
X129998224Y-118602165D01*
X129973238Y-118700934D01*
X129953598Y-118782351D01*
X129941359Y-118838620D01*
X129938577Y-118861947D01*
X129438188Y-118861947D01*
X129435227Y-117868539D01*
X135174166Y-117868539D01*
X135454258Y-117855142D01*
X135483522Y-117853692D01*
X135608206Y-117845325D01*
X135699501Y-117833040D01*
X135764875Y-117813855D01*
X135811796Y-117784790D01*
X135847728Y-117742861D01*
X135867260Y-117708048D01*
X136996528Y-117708048D01*
X136998300Y-117780610D01*
X137001528Y-117808561D01*
X137012742Y-117838088D01*
X137041556Y-117849514D01*
X137100333Y-117851417D01*
X137195583Y-117851417D01*
X137195583Y-117660917D01*
X137105431Y-117654399D01*
X137054850Y-117653703D01*
X137013171Y-117668344D01*
X136996528Y-117708048D01*
X135867260Y-117708048D01*
X135880141Y-117685089D01*
X135885382Y-117673955D01*
X135908066Y-117575516D01*
X135890261Y-117480265D01*
X135833226Y-117395970D01*
X135775732Y-117338477D01*
X135842825Y-117281198D01*
X136150156Y-117281198D01*
X136151624Y-117396333D01*
X136158416Y-117576250D01*
X136348916Y-117576250D01*
X136354075Y-117290500D01*
X136356927Y-117156296D01*
X136360830Y-117056981D01*
X136367078Y-116988588D01*
X136376992Y-116945381D01*
X136391898Y-116921622D01*
X136413119Y-116911575D01*
X136441978Y-116909500D01*
X136458380Y-116909931D01*
X136496596Y-116917538D01*
X136524386Y-116939045D01*
X136543743Y-116980140D01*
X136556663Y-117046507D01*
X136565139Y-117143834D01*
X136571166Y-117277805D01*
X136581750Y-117576250D01*
X136772250Y-117576250D01*
X136772250Y-117071900D01*
X136997999Y-117071900D01*
X136999284Y-117195962D01*
X137005083Y-117576250D01*
X137195583Y-117576250D01*
X137195583Y-117056588D01*
X137442539Y-117056588D01*
X137442752Y-117188237D01*
X137443904Y-117333233D01*
X137449583Y-117851417D01*
X137640083Y-117851417D01*
X137640083Y-117177182D01*
X137857294Y-117177182D01*
X137868399Y-117295707D01*
X137901359Y-117404369D01*
X137925236Y-117449531D01*
X137994456Y-117528168D01*
X138079828Y-117574312D01*
X138173828Y-117584847D01*
X138268931Y-117556654D01*
X138326280Y-117526736D01*
X138332431Y-117689076D01*
X138338583Y-117851417D01*
X138529083Y-117851417D01*
X138529083Y-116771917D01*
X138448086Y-116765251D01*
X138404833Y-116763704D01*
X138370992Y-116773509D01*
X138355747Y-116801956D01*
X138354676Y-116806042D01*
X138345054Y-116831787D01*
X138328166Y-116830791D01*
X138291014Y-116803330D01*
X138259347Y-116784563D01*
X138178473Y-116764312D01*
X138088478Y-116767088D01*
X138007299Y-116793511D01*
X137997625Y-116799250D01*
X137938208Y-116859829D01*
X137893887Y-116949504D01*
X137866353Y-117058535D01*
X137857294Y-117177182D01*
X137640083Y-117177182D01*
X137640083Y-116771917D01*
X137549931Y-116765399D01*
X137546697Y-116765174D01*
X137478650Y-116767697D01*
X137449002Y-116786965D01*
X137446952Y-116803190D01*
X137444696Y-116857917D01*
X137443206Y-116944432D01*
X137442539Y-117056588D01*
X137195583Y-117056588D01*
X137195583Y-116771917D01*
X137105431Y-116765399D01*
X137099683Y-116765012D01*
X137033287Y-116767870D01*
X137004382Y-116787277D01*
X137001501Y-116811466D01*
X136999200Y-116872288D01*
X136998002Y-116961554D01*
X136997999Y-117071900D01*
X136772250Y-117071900D01*
X136772250Y-116771917D01*
X136682291Y-116765408D01*
X136671067Y-116764637D01*
X136619779Y-116764404D01*
X136597308Y-116775902D01*
X136592333Y-116803986D01*
X136592333Y-116849073D01*
X136536562Y-116805203D01*
X136532055Y-116801788D01*
X136458042Y-116768474D01*
X136371123Y-116759129D01*
X136287435Y-116773449D01*
X136223114Y-116811128D01*
X136198798Y-116841041D01*
X136180689Y-116882964D01*
X136168483Y-116945164D01*
X136159076Y-117038670D01*
X136152843Y-117152552D01*
X136150156Y-117281198D01*
X135842825Y-117281198D01*
X135847219Y-117277447D01*
X135910071Y-117200633D01*
X135939776Y-117103140D01*
X135930257Y-116994167D01*
X135910042Y-116936611D01*
X135855762Y-116862234D01*
X135769387Y-116809901D01*
X135733785Y-116799517D01*
X135656118Y-116786287D01*
X135553528Y-116775113D01*
X135436012Y-116767272D01*
X135174166Y-116754900D01*
X135174166Y-117868539D01*
X129435227Y-117868539D01*
X129432826Y-117063063D01*
X129432750Y-117037609D01*
X130559557Y-117037609D01*
X130563377Y-117068267D01*
X130567455Y-117070533D01*
X130602076Y-117080092D01*
X130657710Y-117090600D01*
X130679218Y-117093887D01*
X130725045Y-117095803D01*
X130750530Y-117079078D01*
X130771687Y-117036049D01*
X130772736Y-117033573D01*
X130816015Y-116974421D01*
X130878916Y-116936387D01*
X130951862Y-116919109D01*
X131025272Y-116922228D01*
X131089568Y-116945383D01*
X131135170Y-116988216D01*
X131152500Y-117050364D01*
X131152481Y-117052595D01*
X131139624Y-117102598D01*
X131099626Y-117147548D01*
X131027602Y-117191364D01*
X130918665Y-117237966D01*
X130915011Y-117239373D01*
X130827661Y-117278563D01*
X130746308Y-117324071D01*
X130688128Y-117366335D01*
X130650027Y-117403668D01*
X130625145Y-117441392D01*
X130614806Y-117488857D01*
X130612750Y-117562335D01*
X130612978Y-117589162D01*
X130618401Y-117657934D01*
X130634458Y-117704953D01*
X130665666Y-117745889D01*
X130744791Y-117812989D01*
X130841850Y-117853710D01*
X130962478Y-117866233D01*
X131021296Y-117863227D01*
X131143379Y-117831849D01*
X131240788Y-117766167D01*
X131313941Y-117665943D01*
X131331347Y-117628049D01*
X131327925Y-117605282D01*
X131296055Y-117589395D01*
X131281692Y-117584044D01*
X131214091Y-117560683D01*
X131174619Y-117553285D01*
X131153854Y-117561604D01*
X131142372Y-117585397D01*
X131136590Y-117599642D01*
X131092820Y-117654496D01*
X131029275Y-117696853D01*
X130963855Y-117713833D01*
X130955431Y-117713643D01*
X130883389Y-117694535D01*
X130832878Y-117649956D01*
X130813833Y-117588225D01*
X130814379Y-117569017D01*
X130821230Y-117537312D01*
X130841229Y-117510498D01*
X130880943Y-117483490D01*
X130946936Y-117451202D01*
X131045776Y-117408546D01*
X131071004Y-117397693D01*
X131198999Y-117332843D01*
X131288247Y-117266034D01*
X131341757Y-117193422D01*
X131362538Y-117111164D01*
X131358873Y-117071900D01*
X131536999Y-117071900D01*
X131538284Y-117195962D01*
X131544083Y-117576250D01*
X131634041Y-117582759D01*
X131643627Y-117583423D01*
X131695788Y-117583820D01*
X131718824Y-117572613D01*
X131724000Y-117545084D01*
X131724000Y-117500899D01*
X131785527Y-117546389D01*
X131831014Y-117572239D01*
X131919542Y-117591817D01*
X132007785Y-117579681D01*
X132081330Y-117536323D01*
X132136750Y-117483235D01*
X132184269Y-117532617D01*
X132187957Y-117536332D01*
X132260786Y-117580639D01*
X132348895Y-117595388D01*
X132438007Y-117580448D01*
X132513843Y-117535684D01*
X132517215Y-117532510D01*
X132543174Y-117501494D01*
X132560215Y-117461342D01*
X132571603Y-117400991D01*
X132580599Y-117309379D01*
X132586828Y-117195533D01*
X132589511Y-117066941D01*
X132588041Y-116951833D01*
X132587639Y-116941175D01*
X132780626Y-116941175D01*
X132781086Y-117042874D01*
X132817226Y-117132704D01*
X132883757Y-117204500D01*
X132975391Y-117252098D01*
X133086838Y-117269333D01*
X133104971Y-117269542D01*
X133176859Y-117278178D01*
X133215386Y-117301935D01*
X133226833Y-117344170D01*
X133214892Y-117393961D01*
X133175009Y-117441037D01*
X133119488Y-117459833D01*
X133117396Y-117459786D01*
X133069232Y-117441852D01*
X133020916Y-117401672D01*
X132990484Y-117354038D01*
X132986254Y-117346727D01*
X132955420Y-117336711D01*
X132891795Y-117342804D01*
X132879158Y-117344995D01*
X132829988Y-117357107D01*
X132811980Y-117374156D01*
X132815793Y-117403620D01*
X132844477Y-117464117D01*
X132913914Y-117532025D01*
X133012155Y-117574912D01*
X133134203Y-117589857D01*
X133173855Y-117588478D01*
X133283466Y-117565428D01*
X133363102Y-117514791D01*
X133410846Y-117437622D01*
X133411129Y-117436789D01*
X133421273Y-117384392D01*
X133429425Y-117298615D01*
X133434973Y-117188162D01*
X133437118Y-117071900D01*
X133653666Y-117071900D01*
X133654951Y-117195962D01*
X133660750Y-117576250D01*
X133745416Y-117576250D01*
X133753152Y-117576228D01*
X133804412Y-117572258D01*
X133827937Y-117555646D01*
X133836776Y-117518084D01*
X133843470Y-117459918D01*
X133894753Y-117520864D01*
X133902385Y-117529479D01*
X133960869Y-117574984D01*
X134022483Y-117595757D01*
X134073596Y-117586774D01*
X134077691Y-117582948D01*
X134089559Y-117546399D01*
X134090553Y-117502167D01*
X134158166Y-117502167D01*
X134158177Y-117507760D01*
X134161698Y-117559589D01*
X134176493Y-117581997D01*
X134209786Y-117586833D01*
X134214357Y-117586881D01*
X134245707Y-117594077D01*
X134263408Y-117621287D01*
X134275324Y-117679645D01*
X134279321Y-117704684D01*
X134292381Y-117751161D01*
X134317059Y-117773419D01*
X134364593Y-117784684D01*
X134415941Y-117790764D01*
X134454982Y-117782518D01*
X134471960Y-117748614D01*
X134475666Y-117680834D01*
X134476083Y-117640422D01*
X134482508Y-117602920D01*
X134504017Y-117588922D01*
X134549750Y-117586833D01*
X134571610Y-117586644D01*
X134607742Y-117580467D01*
X134621590Y-117556376D01*
X134623833Y-117502167D01*
X134623664Y-117476836D01*
X134618208Y-117435733D01*
X134596939Y-117420024D01*
X134549078Y-117417500D01*
X134474323Y-117417500D01*
X134480286Y-117168792D01*
X134486250Y-116920083D01*
X134577454Y-116913514D01*
X134610207Y-116910860D01*
X134649920Y-116902371D01*
X134663604Y-116881800D01*
X134662120Y-116839674D01*
X134655138Y-116800584D01*
X134632495Y-116773871D01*
X134581500Y-116760592D01*
X134486737Y-116757061D01*
X134391444Y-116778435D01*
X134319655Y-116823210D01*
X134309249Y-116834455D01*
X134293528Y-116859276D01*
X134282800Y-116894560D01*
X134275770Y-116948274D01*
X134271138Y-117028385D01*
X134267609Y-117142861D01*
X134266841Y-117172995D01*
X134263827Y-117275963D01*
X134260106Y-117345002D01*
X134254240Y-117386893D01*
X134244793Y-117408418D01*
X134230325Y-117416360D01*
X134209401Y-117417500D01*
X134206352Y-117417515D01*
X134174809Y-117423268D01*
X134161133Y-117447541D01*
X134158166Y-117502167D01*
X134090553Y-117502167D01*
X134090839Y-117489429D01*
X134090267Y-117482658D01*
X134081810Y-117431931D01*
X134061213Y-117408964D01*
X134017508Y-117400449D01*
X133966058Y-117390966D01*
X133926361Y-117369093D01*
X133898695Y-117329063D01*
X133880455Y-117264840D01*
X133869036Y-117170389D01*
X133861833Y-117039671D01*
X133851250Y-116771917D01*
X133761098Y-116765399D01*
X133755350Y-116765012D01*
X133688953Y-116767870D01*
X133660049Y-116787277D01*
X133657168Y-116811466D01*
X133654866Y-116872288D01*
X133653669Y-116961554D01*
X133653666Y-117071900D01*
X133437118Y-117071900D01*
X133437305Y-117061741D01*
X133438500Y-116758899D01*
X133348541Y-116765408D01*
X133292635Y-116772656D01*
X133262814Y-116789135D01*
X133251550Y-116821596D01*
X133244517Y-116871274D01*
X133196731Y-116826382D01*
X133151204Y-116792129D01*
X133064550Y-116759782D01*
X132974927Y-116758412D01*
X132892080Y-116785840D01*
X132825754Y-116839883D01*
X132785695Y-116918362D01*
X132780626Y-116941175D01*
X132587639Y-116941175D01*
X132581250Y-116771917D01*
X132390750Y-116771917D01*
X132384853Y-117077393D01*
X132384042Y-117116226D01*
X132379932Y-117238606D01*
X132373000Y-117325896D01*
X132361675Y-117383821D01*
X132344383Y-117418108D01*
X132319550Y-117434481D01*
X132285605Y-117438667D01*
X132279644Y-117438597D01*
X132239329Y-117431938D01*
X132209828Y-117410535D01*
X132189335Y-117368877D01*
X132176043Y-117301455D01*
X132168144Y-117202757D01*
X132163833Y-117067275D01*
X132157916Y-116771917D01*
X131967416Y-116771917D01*
X131962257Y-117057667D01*
X131959406Y-117191871D01*
X131955502Y-117291186D01*
X131949255Y-117359579D01*
X131939340Y-117402786D01*
X131924434Y-117426545D01*
X131903214Y-117436592D01*
X131874355Y-117438667D01*
X131857916Y-117438235D01*
X131819709Y-117430626D01*
X131791927Y-117409121D01*
X131772577Y-117368032D01*
X131759664Y-117301671D01*
X131751191Y-117204354D01*
X131745166Y-117070392D01*
X131734583Y-116771917D01*
X131644431Y-116765399D01*
X131638683Y-116765012D01*
X131572287Y-116767870D01*
X131543382Y-116787277D01*
X131540501Y-116811466D01*
X131538200Y-116872288D01*
X131537002Y-116961554D01*
X131536999Y-117071900D01*
X131358873Y-117071900D01*
X131353601Y-117015416D01*
X131336803Y-116968284D01*
X131286121Y-116890741D01*
X131218128Y-116824980D01*
X131146150Y-116785755D01*
X131141954Y-116784496D01*
X130990874Y-116755532D01*
X130855672Y-116762104D01*
X130739588Y-116803606D01*
X130645863Y-116879431D01*
X130610322Y-116926372D01*
X130576985Y-116986236D01*
X130559557Y-117037609D01*
X129432750Y-117037609D01*
X129429381Y-115907182D01*
X135528960Y-115907182D01*
X135540066Y-116025707D01*
X135573025Y-116134369D01*
X135596902Y-116179531D01*
X135666123Y-116258168D01*
X135751495Y-116304312D01*
X135845494Y-116314847D01*
X135940598Y-116286654D01*
X135997947Y-116256736D01*
X136004098Y-116419076D01*
X136010250Y-116581417D01*
X136200750Y-116581417D01*
X136200750Y-116438048D01*
X138012528Y-116438048D01*
X138014300Y-116510610D01*
X138017528Y-116538561D01*
X138028742Y-116568088D01*
X138057556Y-116579514D01*
X138116333Y-116581417D01*
X138211583Y-116581417D01*
X138211583Y-116390917D01*
X138121431Y-116384399D01*
X138070850Y-116383703D01*
X138029171Y-116398344D01*
X138012528Y-116438048D01*
X136200750Y-116438048D01*
X136200750Y-115893143D01*
X136419264Y-115893143D01*
X136419293Y-115900376D01*
X136434784Y-116046655D01*
X136477868Y-116163265D01*
X136547347Y-116248705D01*
X136642019Y-116301474D01*
X136760683Y-116320070D01*
X136820457Y-116316542D01*
X136926092Y-116283746D01*
X137006920Y-116216733D01*
X137062747Y-116115704D01*
X137093376Y-115980858D01*
X137106229Y-115872333D01*
X136859864Y-115872333D01*
X136830024Y-115872342D01*
X136730493Y-115871673D01*
X136665804Y-115867291D01*
X136629924Y-115855745D01*
X136616818Y-115833584D01*
X136620453Y-115797357D01*
X136634793Y-115743614D01*
X136636815Y-115736821D01*
X136674392Y-115670105D01*
X136730995Y-115628982D01*
X136795642Y-115621773D01*
X136801189Y-115623353D01*
X136839693Y-115650435D01*
X136877800Y-115697128D01*
X136916856Y-115741077D01*
X136984283Y-115767428D01*
X137065184Y-115754292D01*
X137083759Y-115729610D01*
X137080389Y-115706219D01*
X137211307Y-115706219D01*
X137229247Y-115725798D01*
X137275111Y-115743140D01*
X137343903Y-115732496D01*
X137414576Y-115681833D01*
X137426397Y-115670758D01*
X137481086Y-115633242D01*
X137529341Y-115618333D01*
X137539167Y-115619002D01*
X137590114Y-115638752D01*
X137632779Y-115675988D01*
X137650666Y-115717261D01*
X137649916Y-115724141D01*
X137622483Y-115762611D01*
X137559572Y-115802161D01*
X137466655Y-115839167D01*
X137413719Y-115858111D01*
X137321445Y-115905749D01*
X137263847Y-115963364D01*
X137235713Y-116035385D01*
X137231987Y-116074054D01*
X137249955Y-116162686D01*
X137300382Y-116238288D01*
X137376302Y-116292515D01*
X137470750Y-116317021D01*
X137532734Y-116319758D01*
X137608669Y-116314296D01*
X137666778Y-116293371D01*
X137721553Y-116253301D01*
X137760909Y-116214971D01*
X137799347Y-116160259D01*
X137804708Y-116118911D01*
X137775492Y-116095320D01*
X137752041Y-116088715D01*
X137696536Y-116073113D01*
X137664062Y-116075792D01*
X137633755Y-116114862D01*
X137626731Y-116127765D01*
X137584818Y-116165865D01*
X137530487Y-116182053D01*
X137476224Y-116176907D01*
X137434511Y-116151001D01*
X137417833Y-116104910D01*
X137423174Y-116080057D01*
X137456292Y-116042396D01*
X137523259Y-116005597D01*
X137628196Y-115966956D01*
X137674063Y-115949801D01*
X137744080Y-115915184D01*
X137792237Y-115880853D01*
X137793416Y-115879661D01*
X137832697Y-115812127D01*
X137833700Y-115801900D01*
X138013999Y-115801900D01*
X138015284Y-115925962D01*
X138021083Y-116306250D01*
X138211583Y-116306250D01*
X138211583Y-115501917D01*
X138121431Y-115495399D01*
X138115683Y-115495012D01*
X138049287Y-115497870D01*
X138020382Y-115517277D01*
X138017501Y-115541466D01*
X138015200Y-115602288D01*
X138014002Y-115691554D01*
X138013999Y-115801900D01*
X137833700Y-115801900D01*
X137840602Y-115731501D01*
X137819976Y-115649289D01*
X137773665Y-115576996D01*
X137704513Y-115526126D01*
X137688443Y-115519142D01*
X137573288Y-115487572D01*
X137461340Y-115485819D01*
X137360845Y-115511918D01*
X137280051Y-115563905D01*
X137227202Y-115639815D01*
X137214436Y-115673811D01*
X137211307Y-115706219D01*
X137080389Y-115706219D01*
X137077166Y-115683848D01*
X137047658Y-115627253D01*
X136998755Y-115569614D01*
X136955890Y-115537186D01*
X136860049Y-115499062D01*
X136752097Y-115487636D01*
X136645912Y-115503597D01*
X136555373Y-115547633D01*
X136539972Y-115559886D01*
X136472100Y-115642416D01*
X136432270Y-115752470D01*
X136419264Y-115893143D01*
X136200750Y-115893143D01*
X136200750Y-115501917D01*
X136119752Y-115495251D01*
X136076500Y-115493704D01*
X136042659Y-115503509D01*
X136027413Y-115531956D01*
X136026342Y-115536042D01*
X136016720Y-115561787D01*
X135999832Y-115560791D01*
X135962681Y-115533330D01*
X135931014Y-115514563D01*
X135850139Y-115494312D01*
X135760144Y-115497088D01*
X135678966Y-115523511D01*
X135669292Y-115529250D01*
X135609874Y-115589829D01*
X135565554Y-115679504D01*
X135538019Y-115788535D01*
X135528960Y-115907182D01*
X129429381Y-115907182D01*
X129428836Y-115724167D01*
X135110666Y-115724167D01*
X135324545Y-115724167D01*
X135318147Y-115613042D01*
X135311750Y-115501917D01*
X135211208Y-115495465D01*
X135110666Y-115489014D01*
X135110666Y-115724167D01*
X129428836Y-115724167D01*
X129428135Y-115489014D01*
X129427870Y-115400263D01*
X138413671Y-115400263D01*
X138417544Y-115469720D01*
X138457302Y-115531269D01*
X138482315Y-115556955D01*
X138489385Y-115583953D01*
X138467885Y-115621470D01*
X138464896Y-115625807D01*
X138437609Y-115685349D01*
X138444872Y-115741614D01*
X138487967Y-115806420D01*
X138542101Y-115870755D01*
X138495580Y-115933678D01*
X138478293Y-115959450D01*
X138458593Y-116014533D01*
X138460915Y-116084995D01*
X138480151Y-116155430D01*
X138535574Y-116236542D01*
X138618554Y-116292657D01*
X138722993Y-116320097D01*
X138842791Y-116315186D01*
X138843358Y-116315086D01*
X138897251Y-116308829D01*
X138925439Y-116319160D01*
X138942953Y-116351531D01*
X138973223Y-116393382D01*
X139035631Y-116429880D01*
X139112544Y-116443833D01*
X139129903Y-116441636D01*
X139148606Y-116421044D01*
X139153500Y-116369750D01*
X139152439Y-116340374D01*
X139141404Y-116305083D01*
X139113758Y-116295667D01*
X139104102Y-116295323D01*
X139055971Y-116276430D01*
X139039315Y-116233036D01*
X139056920Y-116171238D01*
X139075162Y-116128840D01*
X139087555Y-116032022D01*
X139057891Y-115935141D01*
X139052194Y-115924833D01*
X138987795Y-115856743D01*
X138890690Y-115814581D01*
X138787048Y-115801900D01*
X139283999Y-115801900D01*
X139285284Y-115925962D01*
X139291083Y-116306250D01*
X139381041Y-116312759D01*
X139390627Y-116313423D01*
X139442788Y-116313820D01*
X139465824Y-116302613D01*
X139471000Y-116275084D01*
X139471000Y-116230899D01*
X139532527Y-116276389D01*
X139565330Y-116295545D01*
X139651464Y-116318411D01*
X139743083Y-116315598D01*
X139821145Y-116286443D01*
X139838631Y-116272781D01*
X139870008Y-116230031D01*
X139891978Y-116165895D01*
X139905478Y-116075231D01*
X139911443Y-115952896D01*
X139910810Y-115793751D01*
X139904916Y-115501917D01*
X139714416Y-115501917D01*
X139693250Y-116158083D01*
X139627947Y-116164456D01*
X139606433Y-116165852D01*
X139567688Y-116161095D01*
X139539519Y-116141103D01*
X139519903Y-116100455D01*
X139506819Y-116033733D01*
X139498248Y-115935519D01*
X139492166Y-115800392D01*
X139481583Y-115501917D01*
X139391431Y-115495399D01*
X139385683Y-115495012D01*
X139319287Y-115497870D01*
X139290382Y-115517277D01*
X139287501Y-115541466D01*
X139285200Y-115602288D01*
X139284002Y-115691554D01*
X139283999Y-115801900D01*
X138787048Y-115801900D01*
X138761916Y-115798825D01*
X138709472Y-115797240D01*
X138660741Y-115791182D01*
X138637171Y-115777546D01*
X138628538Y-115752805D01*
X138628996Y-115728779D01*
X138649673Y-115708582D01*
X138702622Y-115695596D01*
X138716871Y-115693444D01*
X138796998Y-115685418D01*
X138878333Y-115682034D01*
X138923196Y-115679741D01*
X139025152Y-115654782D01*
X139101358Y-115605179D01*
X139145439Y-115534456D01*
X139147568Y-115527609D01*
X139158135Y-115430554D01*
X139129971Y-115347403D01*
X139065363Y-115281949D01*
X138966597Y-115237979D01*
X138899649Y-115225791D01*
X138806926Y-115219084D01*
X138709133Y-115219258D01*
X138621898Y-115226238D01*
X138560844Y-115239947D01*
X138501271Y-115272235D01*
X138442605Y-115331550D01*
X138413671Y-115400263D01*
X129427870Y-115400263D01*
X129427416Y-115247917D01*
X127378917Y-115242520D01*
X127354038Y-115242455D01*
X127003921Y-115241647D01*
X126693871Y-115241165D01*
X126421763Y-115241033D01*
X126185474Y-115241271D01*
X125982880Y-115241901D01*
X125811857Y-115242945D01*
X125670281Y-115244426D01*
X125556029Y-115246364D01*
X125466977Y-115248782D01*
X125401000Y-115251701D01*
X125355975Y-115255144D01*
X125329778Y-115259132D01*
X125320285Y-115263686D01*
X125319286Y-115275563D01*
X125317937Y-115326650D01*
X125316785Y-115414840D01*
X125315837Y-115536991D01*
X125315102Y-115689958D01*
X125314589Y-115870598D01*
X125314304Y-116075765D01*
X125314256Y-116302316D01*
X125120695Y-116302316D01*
X125121240Y-115131500D01*
X140360000Y-115131500D01*
G37*
G36*
X133136391Y-116907289D02*
G01*
X133181946Y-116953070D01*
X133214438Y-117019051D01*
X133226833Y-117098949D01*
X133226432Y-117114895D01*
X133215828Y-117153079D01*
X133185877Y-117163500D01*
X133165314Y-117162057D01*
X133103520Y-117146952D01*
X133045596Y-117121516D01*
X133010629Y-117093384D01*
X133001625Y-117071975D01*
X132994757Y-117014593D01*
X133001036Y-116954598D01*
X133019400Y-116913733D01*
X133034241Y-116901457D01*
X133084811Y-116887991D01*
X133136391Y-116907289D01*
G37*
G36*
X138779391Y-115914816D02*
G01*
X138835367Y-115933374D01*
X138867843Y-115984531D01*
X138878333Y-116070513D01*
X138875261Y-116105867D01*
X138850044Y-116167824D01*
X138806593Y-116203955D01*
X138753642Y-116209010D01*
X138699928Y-116177738D01*
X138683855Y-116152782D01*
X138668899Y-116090031D01*
X138670148Y-116017943D01*
X138688578Y-115955609D01*
X138713064Y-115929692D01*
X138772500Y-115914667D01*
X138779391Y-115914816D01*
G37*
G36*
X128543989Y-117179375D02*
G01*
X128538416Y-117893750D01*
X128284416Y-117893750D01*
X128273270Y-116465000D01*
X128549563Y-116465000D01*
X128543989Y-117179375D01*
G37*
G36*
X138289291Y-116944531D02*
G01*
X138308428Y-116968944D01*
X138320449Y-117007193D01*
X138326399Y-117068343D01*
X138328000Y-117162071D01*
X138326291Y-117240149D01*
X138315405Y-117334612D01*
X138292448Y-117395803D01*
X138255089Y-117428797D01*
X138201000Y-117438667D01*
X138175218Y-117436815D01*
X138127469Y-117416138D01*
X138096223Y-117368667D01*
X138079170Y-117289587D01*
X138074000Y-117174083D01*
X138076613Y-117082146D01*
X138087235Y-117004418D01*
X138106950Y-116956543D01*
X138112764Y-116949010D01*
X138165349Y-116915426D01*
X138229377Y-116913591D01*
X138289291Y-116944531D01*
G37*
G36*
X135960958Y-115674531D02*
G01*
X135980095Y-115698944D01*
X135992115Y-115737193D01*
X135998065Y-115798343D01*
X135999666Y-115892071D01*
X135997957Y-115970149D01*
X135987072Y-116064612D01*
X135964115Y-116125803D01*
X135926756Y-116158797D01*
X135872666Y-116168667D01*
X135846885Y-116166815D01*
X135799136Y-116146138D01*
X135767890Y-116098667D01*
X135750837Y-116019587D01*
X135745666Y-115904083D01*
X135748279Y-115812146D01*
X135758902Y-115734418D01*
X135778616Y-115686543D01*
X135784431Y-115679010D01*
X135837016Y-115645426D01*
X135901043Y-115643591D01*
X135960958Y-115674531D01*
G37*
G36*
X126208395Y-116783803D02*
G01*
X126164930Y-116667757D01*
X126131022Y-116577208D01*
X126108437Y-116516870D01*
X126098941Y-116491458D01*
X126098349Y-116489517D01*
X126108070Y-116475165D01*
X126149258Y-116467358D01*
X126227234Y-116465000D01*
X126365332Y-116465000D01*
X126398889Y-116554958D01*
X126404243Y-116569406D01*
X126434085Y-116652141D01*
X126460978Y-116729583D01*
X126489510Y-116814250D01*
X127035583Y-116814250D01*
X127156795Y-116465000D01*
X127291981Y-116465000D01*
X127357470Y-116467001D01*
X127407836Y-116472728D01*
X127427082Y-116480875D01*
X127421523Y-116499026D01*
X127402715Y-116552946D01*
X127372231Y-116637857D01*
X127331746Y-116749151D01*
X127282939Y-116882220D01*
X127227486Y-117032456D01*
X127167065Y-117195250D01*
X126907133Y-117893750D01*
X126768019Y-117899940D01*
X126628905Y-117906129D01*
X126368825Y-117212023D01*
X126316933Y-117073525D01*
X126312974Y-117062958D01*
X126566394Y-117062958D01*
X126567126Y-117064851D01*
X126579332Y-117099021D01*
X126601769Y-117163600D01*
X126631504Y-117250101D01*
X126665604Y-117350040D01*
X126672434Y-117370047D01*
X126705114Y-117463542D01*
X126732562Y-117538500D01*
X126752071Y-117587708D01*
X126760934Y-117603955D01*
X126762527Y-117600916D01*
X126775381Y-117567818D01*
X126798291Y-117504507D01*
X126828606Y-117418390D01*
X126863677Y-117316874D01*
X126959712Y-117036500D01*
X126757759Y-117036500D01*
X126668551Y-117037601D01*
X126604119Y-117041878D01*
X126571844Y-117050085D01*
X126566394Y-117062958D01*
X126312974Y-117062958D01*
X126259651Y-116920631D01*
X126208395Y-116783803D01*
G37*
G36*
X136780774Y-115999345D02*
G01*
X136842944Y-116000898D01*
X136874997Y-116008534D01*
X136886912Y-116027148D01*
X136888666Y-116061633D01*
X136888666Y-116061944D01*
X136869557Y-116124539D01*
X136821310Y-116171396D01*
X136756956Y-116189833D01*
X136741342Y-116187904D01*
X136690994Y-116159675D01*
X136650977Y-116109441D01*
X136634666Y-116052250D01*
X136634669Y-116050395D01*
X136637723Y-116021843D01*
X136653280Y-116006576D01*
X136691281Y-116000454D01*
X136761666Y-115999333D01*
X136780774Y-115999345D01*
G37*
D17*
%TO.C,mx_CONN1*%
X156880000Y-101270000D02*
X155730000Y-101270000D01*
X156880000Y-105490000D02*
X155730000Y-105490000D01*
X155730000Y-105490000D02*
X155730000Y-104440000D01*
X158850000Y-104320000D02*
X158850000Y-102440000D01*
X155730000Y-104440000D02*
X154740000Y-104440000D01*
X155730000Y-101270000D02*
X155730000Y-102320000D01*
D18*
%TO.C,J1*%
X126700000Y-122690000D02*
X126700000Y-120090000D01*
%TO.C,ANT1*%
X140900500Y-121150000D02*
X132900500Y-121150000D01*
X132900500Y-123250000D02*
X140900500Y-123250000D01*
D19*
X130741000Y-122200000D02*
G75*
G03*
X130741000Y-122200000I-190500J0D01*
G01*
D17*
%TO.C,HiLink1*%
X147072500Y-105190000D02*
X112872500Y-105190000D01*
X147462500Y-91590000D02*
X147462500Y-93600000D01*
X112872500Y-105190000D02*
X112872500Y-84990000D01*
X147072500Y-84990000D02*
X147072500Y-105190000D01*
X112872500Y-84990000D02*
X147072500Y-84990000D01*
%TO.C,ExtPW1*%
X155750000Y-112300000D02*
X154760000Y-112300000D01*
X156900000Y-113350000D02*
X155750000Y-113350000D01*
X155750000Y-113350000D02*
X155750000Y-112300000D01*
X158870000Y-112180000D02*
X158870000Y-110300000D01*
X155750000Y-109130000D02*
X155750000Y-110180000D01*
X156900000Y-109130000D02*
X155750000Y-109130000D01*
%TO.C,RST1*%
X118000000Y-114365000D02*
X117700000Y-114365000D01*
X116020000Y-114350000D02*
X115720000Y-114350000D01*
X118000000Y-117715000D02*
X118000000Y-114365000D01*
X115720000Y-114350000D02*
X115720000Y-117700000D01*
X117700000Y-117715000D02*
X118000000Y-117715000D01*
X115720000Y-117700000D02*
X116020000Y-117700000D01*
%TO.C,VL53L0X1*%
X125280000Y-120400000D02*
X124230000Y-120400000D01*
X125280000Y-121550000D02*
X125280000Y-120400000D01*
X120230000Y-123520000D02*
X124110000Y-123520000D01*
X120110000Y-120400000D02*
X120110000Y-119410000D01*
X119060000Y-121550000D02*
X119060000Y-120400000D01*
X119060000Y-120400000D02*
X120110000Y-120400000D01*
D20*
%TO.C,REF\u002A\u002A*%
X122070000Y-91650000D02*
X130960000Y-103080000D01*
D19*
X129690000Y-94571000D02*
X129563000Y-93555000D01*
X129563000Y-96349000D02*
X130960000Y-96349000D01*
D20*
X139850000Y-91650000D02*
X122070000Y-91650000D01*
D19*
X130325000Y-96730000D02*
X132103000Y-98762000D01*
X131595000Y-96730000D02*
X130325000Y-96730000D01*
X129817000Y-93936000D02*
X131595000Y-96730000D01*
X131087000Y-98635000D02*
X129563000Y-96349000D01*
X129563000Y-93555000D02*
X130325000Y-94190000D01*
D20*
X130960000Y-103080000D02*
X139850000Y-91650000D01*
D19*
X130325000Y-94190000D02*
X129817000Y-93936000D01*
X131341000Y-98381000D02*
X129944000Y-96476000D01*
X131341000Y-98254000D02*
X131214000Y-98762000D01*
X129817000Y-94063000D02*
X129690000Y-94571000D01*
X129944000Y-96476000D02*
X131214000Y-96476000D01*
X132103000Y-98774000D02*
X131341000Y-98266000D01*
X130960000Y-96349000D02*
X129817000Y-94063000D01*
D17*
%TO.C,NEXTIONLCD1*%
X155230000Y-114410000D02*
X155230000Y-118430000D01*
X142510000Y-115910000D02*
X143510000Y-115910000D01*
X143010000Y-116720000D02*
X143010000Y-117930000D01*
X142210000Y-116610000D02*
X142210000Y-114110000D01*
X154230000Y-115910000D02*
X154230000Y-114410000D01*
X143510000Y-115910000D02*
X143510000Y-114410000D01*
X143010000Y-117930000D02*
X154730000Y-117930000D01*
X142210000Y-114110000D02*
X144710000Y-114110000D01*
X155230000Y-118430000D02*
X142510000Y-118430000D01*
X142510000Y-114410000D02*
X155230000Y-114410000D01*
X154730000Y-116720000D02*
X155230000Y-116720000D01*
X142510000Y-118430000D02*
X142510000Y-114410000D01*
X154730000Y-117930000D02*
X154730000Y-116720000D01*
X142510000Y-116720000D02*
X143010000Y-116720000D01*
X155230000Y-115910000D02*
X154230000Y-115910000D01*
D10*
%TO.C,HLV1*%
X138520000Y-77670000D02*
X138520000Y-84670000D01*
X135120000Y-77670000D02*
X135120000Y-84670000D01*
X135120000Y-77670000D02*
X138520000Y-77670000D01*
X135120000Y-84670000D02*
X138520000Y-84670000D01*
D17*
%TO.C,HLC1*%
X139730000Y-78100000D02*
X139730000Y-84340000D01*
X152970000Y-84340000D02*
X139730000Y-84340000D01*
X152970000Y-78100000D02*
X152970000Y-84340000D01*
X152970000Y-78100000D02*
X139730000Y-78100000D01*
%TO.C,USB-M1*%
X114720000Y-113080000D02*
X116360000Y-113080000D01*
X112920000Y-105860000D02*
X111660000Y-105860000D01*
X114720000Y-105860000D02*
X116380000Y-105860000D01*
X111660000Y-113080000D02*
X112920000Y-113080000D01*
X111660000Y-105860000D02*
X111660000Y-113080000D01*
D16*
%TO.C,Sign-RecycleBin*%
X152707000Y-94795000D02*
X152834000Y-94795000D01*
X153215000Y-90604000D02*
X153215000Y-90858000D01*
X154866000Y-94033000D02*
X154993000Y-94033000D01*
X154739000Y-94160000D02*
X154739000Y-93652000D01*
X154866000Y-94033000D02*
X154866000Y-93906000D01*
X153596000Y-93525000D02*
X154231000Y-93525000D01*
X152707000Y-94287000D02*
X152707000Y-94795000D01*
X154866000Y-93652000D02*
X154866000Y-94033000D01*
X154358000Y-93652000D02*
X154358000Y-93271000D01*
X152834000Y-94795000D02*
X152834000Y-94287000D01*
D10*
X155879200Y-89434800D02*
X151459600Y-89434800D01*
D16*
X152707000Y-90604000D02*
X153215000Y-90604000D01*
D10*
X155930000Y-89892000D02*
X155930000Y-89130000D01*
D16*
X154358000Y-93271000D02*
X153469000Y-93271000D01*
D10*
X155879200Y-89587200D02*
X151459600Y-89587200D01*
D16*
X153850000Y-94922000D02*
X153850000Y-95049000D01*
X153469000Y-93652000D02*
X154358000Y-93652000D01*
D10*
X151358000Y-89892000D02*
X155930000Y-89892000D01*
X151408800Y-89688800D02*
X155828400Y-89688800D01*
D16*
X152707000Y-90985000D02*
X152453000Y-94033000D01*
X154739000Y-93652000D02*
X155120000Y-93652000D01*
X154866000Y-94160000D02*
X154993000Y-93779000D01*
X153850000Y-95049000D02*
X153469000Y-95049000D01*
D10*
X151408800Y-89739600D02*
X155879200Y-89739600D01*
D16*
X154866000Y-94033000D02*
X154866000Y-93906000D01*
D10*
X151408800Y-89231600D02*
X155828400Y-89231600D01*
X151358000Y-89130000D02*
X151358000Y-89892000D01*
D16*
X152707000Y-90985000D02*
X152707000Y-90604000D01*
X152707000Y-90985000D02*
X154104000Y-90985000D01*
D10*
X155930000Y-89130000D02*
X151358000Y-89130000D01*
D16*
X151564000Y-94668000D02*
X155755000Y-90477000D01*
D10*
X151408800Y-89536400D02*
X155879200Y-89536400D01*
X155879200Y-89841200D02*
X151459600Y-89841200D01*
X155828400Y-89333200D02*
X151459600Y-89333200D01*
D16*
X153469000Y-93271000D02*
X153469000Y-93652000D01*
X154993000Y-94033000D02*
X154993000Y-93652000D01*
X153469000Y-94922000D02*
X153850000Y-94922000D01*
X154612000Y-91493000D02*
X154739000Y-93525000D01*
X152199000Y-94160000D02*
X155120000Y-94160000D01*
X153469000Y-95049000D02*
X153469000Y-94922000D01*
X151691000Y-90604000D02*
X155755000Y-94541000D01*
X155120000Y-93652000D02*
X155120000Y-94160000D01*
X152453000Y-94287000D02*
G75*
G03*
X154739000Y-94287000I1143000J1143000D01*
G01*
D18*
X154739000Y-90985000D02*
G75*
G03*
X154739000Y-90985000I-127000J0D01*
G01*
D16*
X155013609Y-90985000D02*
G75*
G03*
X155013609Y-90985000I-401609J0D01*
G01*
D17*
%TO.C,TEMPDS1*%
X142880000Y-119410000D02*
X153100000Y-119410000D01*
X142880000Y-120910000D02*
X143880000Y-120910000D01*
X152600000Y-122930000D02*
X152600000Y-121720000D01*
X143880000Y-120910000D02*
X143880000Y-119410000D01*
X142880000Y-121720000D02*
X143380000Y-121720000D01*
X152600000Y-121720000D02*
X153100000Y-121720000D01*
X153100000Y-120910000D02*
X152100000Y-120910000D01*
X153100000Y-119410000D02*
X153100000Y-123430000D01*
X143380000Y-122930000D02*
X152600000Y-122930000D01*
X142880000Y-123430000D02*
X142880000Y-119410000D01*
X142580000Y-121610000D02*
X142580000Y-119110000D01*
X152100000Y-120910000D02*
X152100000Y-119410000D01*
X153100000Y-123430000D02*
X142880000Y-123430000D01*
X142580000Y-119110000D02*
X145080000Y-119110000D01*
X143380000Y-121720000D02*
X143380000Y-122930000D01*
%TO.C,LR1*%
X121647258Y-108517500D02*
X121172742Y-108517500D01*
X121647258Y-109562500D02*
X121172742Y-109562500D01*
%TO.C,PWR220*%
X128780000Y-84380000D02*
X118620000Y-84380000D01*
X118620000Y-84380000D02*
X118620000Y-76760000D01*
X128780000Y-76760000D02*
X128780000Y-84380000D01*
X118620000Y-76760000D02*
X128780000Y-76760000D01*
X128780000Y-78030000D02*
X118620000Y-78030000D01*
D21*
%TO.C,Sign-RoHS*%
X137510000Y-111310000D02*
X138526000Y-111056000D01*
D16*
X138399000Y-108643000D02*
X126588000Y-108643000D01*
X141066000Y-109786000D02*
X141701000Y-109786000D01*
D21*
X137891000Y-110040000D02*
X137510000Y-110167000D01*
X138145000Y-110802000D02*
X138653000Y-110548000D01*
X137891000Y-110802000D02*
X138145000Y-110802000D01*
X139288000Y-110421000D02*
X139161000Y-110167000D01*
D16*
X142463000Y-110548000D02*
X142971000Y-110548000D01*
X142285200Y-110088260D02*
X142259800Y-109697100D01*
D21*
X134840460Y-113466460D02*
X135986000Y-113466460D01*
D16*
X142082000Y-110802000D02*
X141320000Y-110802000D01*
D21*
X137002000Y-113596000D02*
X138653000Y-113596000D01*
X136722600Y-111691000D02*
X135986000Y-111945000D01*
D16*
X140326860Y-109450720D02*
X140304000Y-109405000D01*
X141066000Y-109278000D02*
X141574000Y-109278000D01*
X138094200Y-112257420D02*
X137576040Y-112331080D01*
X141066000Y-109405000D02*
X141701000Y-109405000D01*
X140222720Y-112333620D02*
X140370040Y-111734180D01*
X137149320Y-111861180D02*
X137459200Y-111800220D01*
D21*
X138780000Y-109659000D02*
X139542000Y-110167000D01*
D16*
X142209000Y-111310000D02*
X142971000Y-111310000D01*
D21*
X135351000Y-111564000D02*
X135605000Y-111183000D01*
D16*
X143225000Y-111818000D02*
X143090380Y-111279520D01*
D21*
X138907000Y-112199000D02*
X138272000Y-112580000D01*
X139161000Y-110548000D02*
X139288000Y-110421000D01*
D16*
X141955000Y-109024000D02*
X142463000Y-109024000D01*
D21*
X138907000Y-110167000D02*
X138526000Y-110040000D01*
D16*
X139542000Y-108135000D02*
X140032220Y-108625220D01*
X141193000Y-109913000D02*
X141574000Y-109913000D01*
X126588000Y-105595000D02*
X138399000Y-105595000D01*
X136295880Y-110108580D02*
X136331440Y-110073020D01*
D21*
X135605000Y-111183000D02*
X136494000Y-110294000D01*
D16*
X142590000Y-111564000D02*
X143098000Y-111564000D01*
X141574000Y-109913000D02*
X141574000Y-109405000D01*
D21*
X137510000Y-110167000D02*
X137002000Y-110294000D01*
X139415000Y-110802000D02*
X138729200Y-111208400D01*
X137891000Y-109659000D02*
X138780000Y-109659000D01*
X139542000Y-110167000D02*
X139923000Y-110040000D01*
D16*
X142209000Y-111056000D02*
X141701000Y-111056000D01*
D21*
X138145000Y-110421000D02*
X136875000Y-110675000D01*
D16*
X142107400Y-108897000D02*
X141751800Y-108897000D01*
D21*
X139034000Y-112199000D02*
X139288000Y-112707000D01*
X140177000Y-109786000D02*
X139923000Y-110294000D01*
D16*
X142463000Y-110675000D02*
X142971000Y-110675000D01*
X142336000Y-110040000D02*
X143098000Y-110040000D01*
D21*
X139288000Y-112707000D02*
X139669000Y-112199000D01*
X139669000Y-111818000D02*
X139034000Y-112199000D01*
D16*
X142910040Y-109217040D02*
X142887180Y-109194180D01*
X142209000Y-109278000D02*
X142844000Y-109278000D01*
X140939000Y-109636140D02*
X140939000Y-109659000D01*
X140939000Y-109659000D02*
X141701000Y-109659000D01*
D21*
X138729200Y-111208400D02*
X137332200Y-111691000D01*
D16*
X140027140Y-109679320D02*
X140304000Y-109405000D01*
D21*
X139288000Y-113215000D02*
X139796000Y-112707000D01*
X136367000Y-111056000D02*
X136875000Y-111056000D01*
X136367000Y-111437000D02*
X137510000Y-111310000D01*
D16*
X142463000Y-111437000D02*
X143098000Y-111437000D01*
X142336000Y-109659000D02*
X143098000Y-109659000D01*
X141012660Y-110517520D02*
X141066000Y-110611500D01*
X142336000Y-109913000D02*
X143098000Y-109913000D01*
X141066000Y-109786000D02*
X141066000Y-109405000D01*
X141495260Y-109021460D02*
X141467320Y-108993520D01*
X141828000Y-110294000D02*
X141066000Y-110294000D01*
X141066000Y-109913000D02*
X141193000Y-109913000D01*
X139254980Y-109625980D02*
X139308320Y-109679320D01*
X142336000Y-110167000D02*
X143098000Y-110167000D01*
D21*
X138526000Y-110040000D02*
X137891000Y-110040000D01*
X133827000Y-114104000D02*
X134335000Y-113215000D01*
D16*
X141955000Y-110548000D02*
X141066000Y-110548000D01*
X142336000Y-110294000D02*
X143098000Y-110294000D01*
D21*
X135351000Y-111945000D02*
X136113000Y-111310000D01*
D16*
X142209000Y-111437000D02*
X143225000Y-111818000D01*
X141828000Y-110167000D02*
X140939000Y-110167000D01*
D21*
X134335000Y-113215000D02*
X134462000Y-112707000D01*
X135986000Y-113466460D02*
X137002000Y-113596000D01*
D16*
X141828000Y-110421000D02*
X141066000Y-110421000D01*
D21*
X136494000Y-110294000D02*
X137002000Y-109913000D01*
D16*
X142844000Y-111183000D02*
X142717000Y-111183000D01*
D21*
X139288000Y-112707000D02*
X139288000Y-112961000D01*
D16*
X138200880Y-109405000D02*
X138716500Y-109405000D01*
D21*
X138526000Y-111056000D02*
X139161000Y-110548000D01*
X139161000Y-110167000D02*
X138907000Y-110167000D01*
X139923000Y-110294000D02*
X139415000Y-110802000D01*
X134840460Y-112199000D02*
X134840460Y-112580000D01*
D16*
X142844000Y-111183000D02*
X142844000Y-110675000D01*
X134840460Y-112961000D02*
X135122400Y-112613020D01*
X142209000Y-109405000D02*
X142971000Y-109405000D01*
X140939000Y-109532000D02*
X141701000Y-109532000D01*
X133446000Y-114612000D02*
X134312140Y-112496180D01*
D21*
X136240000Y-110929000D02*
X136367000Y-111056000D01*
X138653000Y-110421000D02*
X138526000Y-110294000D01*
D16*
X142971000Y-111183000D02*
X142844000Y-111183000D01*
X141066000Y-109913000D02*
X141066000Y-109786000D01*
D21*
X136240000Y-111437000D02*
X136367000Y-111437000D01*
D16*
X142336000Y-109786000D02*
X143098000Y-109786000D01*
X141828000Y-110040000D02*
X140939000Y-110040000D01*
D21*
X138526000Y-110294000D02*
X138145000Y-110421000D01*
X140177000Y-111183000D02*
X139669000Y-111818000D01*
D16*
X141828000Y-109913000D02*
X141320000Y-109024000D01*
X141066000Y-109278000D02*
X141066000Y-109151000D01*
D21*
X137637000Y-112580000D02*
X136494000Y-112707000D01*
X138272000Y-112580000D02*
X137764000Y-112580000D01*
D16*
X133446000Y-114612000D02*
X134307060Y-113992240D01*
X141787360Y-111256660D02*
X142209000Y-111437000D01*
X141878800Y-110090800D02*
X141878800Y-110098420D01*
X142717000Y-111183000D02*
X142717000Y-110675000D01*
D21*
X134462000Y-112707000D02*
X134840460Y-112199000D01*
X137332200Y-111691000D02*
X136722600Y-111691000D01*
D16*
X140014440Y-110530220D02*
X140184620Y-110342260D01*
X136227300Y-112546980D02*
X134840460Y-112961000D01*
D21*
X136494000Y-112707000D02*
X135224000Y-113088000D01*
D16*
X142717000Y-111183000D02*
X141828000Y-111183000D01*
X140304000Y-108897000D02*
X140408140Y-108790320D01*
D21*
X135224000Y-113088000D02*
X134716000Y-113215000D01*
X140050000Y-112199000D02*
X140177000Y-111183000D01*
D16*
X140939000Y-109913000D02*
X141066000Y-109913000D01*
D21*
X134840460Y-112580000D02*
X134462000Y-113466460D01*
D16*
X142082000Y-109151000D02*
X142717000Y-109151000D01*
X139369280Y-111749420D02*
X139361660Y-111754500D01*
X141193000Y-109913000D02*
X141193000Y-109278000D01*
D21*
X139288000Y-112961000D02*
X134335000Y-113037200D01*
D16*
X141193000Y-108897000D02*
X140895820Y-109316100D01*
X140428460Y-111056000D02*
X140428460Y-110675000D01*
X140939000Y-109659000D02*
X140939000Y-109913000D01*
D21*
X139923000Y-110040000D02*
X140177000Y-109786000D01*
X137764000Y-112580000D02*
X137637000Y-112580000D01*
D16*
X141205700Y-108897000D02*
X141193000Y-108897000D01*
X142259800Y-109532000D02*
X143098000Y-109532000D01*
X133827000Y-114104000D02*
X134840460Y-113466460D01*
D21*
X136367000Y-110802000D02*
X136240000Y-110929000D01*
D16*
X140304000Y-109232280D02*
X140304000Y-109278000D01*
X139669000Y-108135000D02*
X139854420Y-108320420D01*
D21*
X139796000Y-112707000D02*
X140050000Y-112199000D01*
D16*
X139669000Y-108008000D02*
X140177000Y-108770000D01*
D21*
X136113000Y-111310000D02*
X136240000Y-111437000D01*
X134716000Y-113215000D02*
X139288000Y-113215000D01*
X135986000Y-111945000D02*
X135224000Y-112326000D01*
X137002000Y-109913000D02*
X137891000Y-109659000D01*
X139288000Y-113215000D02*
X139288000Y-112961000D01*
X139415000Y-112580000D02*
X137764000Y-112580000D01*
D16*
X140428460Y-110675000D02*
X140425920Y-110677540D01*
X141058380Y-108762380D02*
X141193000Y-108897000D01*
X142336000Y-110421000D02*
X142971000Y-110421000D01*
X136024100Y-113654420D02*
X138172940Y-113850000D01*
X142082000Y-110929000D02*
X141447000Y-110929000D01*
D21*
X136875000Y-111056000D02*
X137891000Y-110802000D01*
X138653000Y-113596000D02*
X139288000Y-113215000D01*
X137002000Y-110294000D02*
X136367000Y-110802000D01*
X134970000Y-112072000D02*
X135351000Y-111564000D01*
D16*
X141066000Y-109405000D02*
X141066000Y-109278000D01*
X141574000Y-109913000D02*
X141828000Y-109913000D01*
X141955000Y-110675000D02*
X141193000Y-110675000D01*
D21*
X138653000Y-110548000D02*
X138653000Y-110421000D01*
D16*
X141495284Y-109021436D02*
G75*
G03*
X141191212Y-108895208I-305084J-305564D01*
G01*
X136295880Y-110108579D02*
G75*
G03*
X134314536Y-112490553I6362680J-7307561D01*
G01*
X141878800Y-110098420D02*
G75*
G03*
X142385980Y-111129820I1498600J96520D01*
G01*
X140303992Y-109405000D02*
G75*
G03*
X139856451Y-108319441I-1533792J2700D01*
G01*
X141065996Y-110611502D02*
G75*
G03*
X141788000Y-111255489I1323404J757002D01*
G01*
X139923000Y-107119000D02*
G75*
G03*
X138399000Y-105595000I-1524000J0D01*
G01*
X141878796Y-110090800D02*
G75*
G03*
X141468660Y-108993954I-1529196J53300D01*
G01*
X138200880Y-109405000D02*
G75*
G03*
X136335067Y-110070987I-126940J-2590970D01*
G01*
X142887179Y-109194181D02*
G75*
G03*
X142307503Y-108920547I-785079J-912319D01*
G01*
X140370041Y-111734180D02*
G75*
G03*
X140430240Y-111056757I-2991041J607180D01*
G01*
X139308320Y-109679320D02*
G75*
G03*
X140027140Y-109681860I360680J358120D01*
G01*
X138094200Y-112257420D02*
G75*
G03*
X139357870Y-111757066I-871300J4046420D01*
G01*
X143153880Y-110342260D02*
G75*
G03*
X143089851Y-111276864I1414760J-566420D01*
G01*
X137576040Y-112331073D02*
G75*
G03*
X136233621Y-112546813I470260J-7210527D01*
G01*
X136024100Y-113654418D02*
G75*
G03*
X134309048Y-113994478I-447040J-2240272D01*
G01*
X142259805Y-109697099D02*
G75*
G03*
X141757660Y-108901387I-1211605J-208301D01*
G01*
X143153884Y-110342262D02*
G75*
G03*
X143224717Y-109973513I-921884J368262D01*
G01*
X140184620Y-110342260D02*
G75*
G03*
X140304846Y-109404931I-642620J558800D01*
G01*
X140766280Y-108642998D02*
G75*
G03*
X140408866Y-108791046I20J-505502D01*
G01*
X137459200Y-111800220D02*
G75*
G03*
X140013527Y-110530844I-1099740J5417660D01*
G01*
X140895820Y-109316100D02*
G75*
G03*
X140810126Y-109760099I1109980J-444500D01*
G01*
X137149320Y-111861181D02*
G75*
G03*
X135122459Y-112611222I604430J-4747019D01*
G01*
X138399000Y-108643000D02*
G75*
G03*
X139923000Y-107119000I0J1524000D01*
G01*
X125064000Y-107119000D02*
G75*
G03*
X126588000Y-108643000I1524000J0D01*
G01*
X139369272Y-111749409D02*
G75*
G03*
X140424359Y-110679235I-2777272J3793309D01*
G01*
X138172940Y-113850000D02*
G75*
G03*
X140223264Y-112337415I-93980J2273300D01*
G01*
X140303983Y-109232280D02*
G75*
G03*
X139798022Y-108007720I-1734183J280D01*
G01*
X126588000Y-105595000D02*
G75*
G03*
X125064000Y-107119000I-1J-1523999D01*
G01*
X139254956Y-109626004D02*
G75*
G03*
X138716500Y-109402934I-538356J-538096D01*
G01*
X141192993Y-109023993D02*
G75*
G03*
X140939445Y-109634629I612807J-612407D01*
G01*
X142305519Y-108919865D02*
G75*
G03*
X142106073Y-108895697I-198119J-799935D01*
G01*
X140303993Y-109278000D02*
G75*
G03*
X140035743Y-108625289I-921893J2600D01*
G01*
X142285199Y-110045080D02*
G75*
G03*
X142639205Y-111035934I1763201J71280D01*
G01*
X140812000Y-109760600D02*
G75*
G03*
X141012206Y-110515679I1524000J0D01*
G01*
X143225023Y-109973960D02*
G75*
G03*
X142911054Y-109216026I-1071923J-40D01*
G01*
X141058365Y-108762395D02*
G75*
G03*
X140766280Y-108641388I-292165J-292205D01*
G01*
D17*
%TO.C,LED1*%
X124425000Y-108185000D02*
X120340000Y-108185000D01*
X124425000Y-106015000D02*
X124425000Y-108185000D01*
X120340000Y-106015000D02*
X124425000Y-106015000D01*
D22*
X120476496Y-105493504D02*
G75*
G03*
X120476496Y-105493504I-161496J0D01*
G01*
D11*
%TO.C,Sign-PbFree*%
X144906020Y-81858280D02*
X147339340Y-79437660D01*
D16*
X147869037Y-80694960D02*
G75*
G03*
X147869037Y-80694960I-1802237J0D01*
G01*
D17*
%TO.C,HLL1*%
X150119375Y-84873750D02*
G75*
G03*
X147999375Y-86993750I1J-2120001D01*
G01*
X158705625Y-86985000D02*
G75*
G03*
X156585625Y-84865000I-2120001J-1D01*
G01*
X147991875Y-96511250D02*
G75*
G03*
X150111875Y-98631250I2120000J0D01*
G01*
X156578125Y-98627500D02*
G75*
G03*
X158698125Y-96507500I0J2120000D01*
G01*
X147999375Y-86993750D02*
X147991875Y-96511250D01*
X158698125Y-96507500D02*
X158705625Y-86985000D01*
X156585625Y-84865000D02*
X150119375Y-84873750D01*
X150111875Y-98631250D02*
X156578125Y-98627500D01*
X147619375Y-84493750D02*
X150619375Y-84493750D01*
X147619375Y-84493750D02*
X147619375Y-87493750D01*
%TO.C,PF1*%
X131595431Y-84831423D02*
X130145431Y-84831423D01*
X133345431Y-77531423D02*
X131894431Y-77531423D01*
X130145431Y-84831423D02*
X130145431Y-79509423D01*
X133345431Y-84831423D02*
X133345431Y-84610423D01*
X133345431Y-84831423D02*
X133095431Y-84831423D01*
X130395431Y-77531423D02*
X130145431Y-77531423D01*
X130145431Y-77752423D02*
X130145431Y-77531423D01*
X133345431Y-82852423D02*
X133345431Y-77531423D01*
%TO.C,ExtSW1*%
X145080000Y-111420000D02*
X144090000Y-111420000D01*
X145080000Y-112470000D02*
X145080000Y-111420000D01*
X146230000Y-107250000D02*
X145080000Y-107250000D01*
X148200000Y-111300000D02*
X148200000Y-108420000D01*
X145080000Y-107250000D02*
X145080000Y-108300000D01*
X146230000Y-112470000D02*
X145080000Y-112470000D01*
%TO.C,WaterLevel1*%
X150300000Y-105640000D02*
X149150000Y-105640000D01*
X150300000Y-101420000D02*
X149150000Y-101420000D01*
X152270000Y-104470000D02*
X152270000Y-102590000D01*
X149150000Y-104590000D02*
X148160000Y-104590000D01*
X149150000Y-105640000D02*
X149150000Y-104590000D01*
X149150000Y-101420000D02*
X149150000Y-102470000D01*
%TO.C,Fuse1*%
X114830000Y-116812064D02*
X114830000Y-115607936D01*
X113010000Y-116812064D02*
X113010000Y-115607936D01*
%TD*%
M02*
