%TF.GenerationSoftware,KiCad,Pcbnew,(6.0.9)*%
%TF.CreationDate,2022-12-23T18:09:19+01:00*%
%TF.ProjectId,Home Automation Coffee Machine PRO,486f6d65-2041-4757-946f-6d6174696f6e,5.3*%
%TF.SameCoordinates,Original*%
%TF.FileFunction,Copper,L1,Top*%
%TF.FilePolarity,Positive*%
%FSLAX46Y46*%
G04 Gerber Fmt 4.6, Leading zero omitted, Abs format (unit mm)*
G04 Created by KiCad (PCBNEW (6.0.9)) date 2022-12-23 18:09:19*
%MOMM*%
%LPD*%
G01*
G04 APERTURE LIST*
G04 Aperture macros list*
%AMRoundRect*
0 Rectangle with rounded corners*
0 $1 Rounding radius*
0 $2 $3 $4 $5 $6 $7 $8 $9 X,Y pos of 4 corners*
0 Add a 4 corners polygon primitive as box body*
4,1,4,$2,$3,$4,$5,$6,$7,$8,$9,$2,$3,0*
0 Add four circle primitives for the rounded corners*
1,1,$1+$1,$2,$3*
1,1,$1+$1,$4,$5*
1,1,$1+$1,$6,$7*
1,1,$1+$1,$8,$9*
0 Add four rect primitives between the rounded corners*
20,1,$1+$1,$2,$3,$4,$5,0*
20,1,$1+$1,$4,$5,$6,$7,0*
20,1,$1+$1,$6,$7,$8,$9,0*
20,1,$1+$1,$8,$9,$2,$3,0*%
%AMRotRect*
0 Rectangle, with rotation*
0 The origin of the aperture is its center*
0 $1 length*
0 $2 width*
0 $3 Rotation angle, in degrees counterclockwise*
0 Add horizontal line*
21,1,$1,$2,0,0,$3*%
%AMFreePoly0*
4,1,6,0.500000,-0.850000,-0.500000,-0.850000,-0.500000,0.550000,-0.200000,0.850000,0.500000,0.850000,0.500000,-0.850000,0.500000,-0.850000,$1*%
G04 Aperture macros list end*
%TA.AperFunction,SMDPad,CuDef*%
%ADD10RoundRect,0.200000X0.200000X0.275000X-0.200000X0.275000X-0.200000X-0.275000X0.200000X-0.275000X0*%
%TD*%
%TA.AperFunction,SMDPad,CuDef*%
%ADD11RoundRect,0.200000X-0.200000X-0.275000X0.200000X-0.275000X0.200000X0.275000X-0.200000X0.275000X0*%
%TD*%
%TA.AperFunction,SMDPad,CuDef*%
%ADD12RoundRect,0.200000X0.275000X-0.200000X0.275000X0.200000X-0.275000X0.200000X-0.275000X-0.200000X0*%
%TD*%
%TA.AperFunction,SMDPad,CuDef*%
%ADD13RoundRect,0.250001X-0.462499X-0.624999X0.462499X-0.624999X0.462499X0.624999X-0.462499X0.624999X0*%
%TD*%
%TA.AperFunction,SMDPad,CuDef*%
%ADD14RoundRect,0.250000X0.475000X-0.250000X0.475000X0.250000X-0.475000X0.250000X-0.475000X-0.250000X0*%
%TD*%
%TA.AperFunction,SMDPad,CuDef*%
%ADD15RoundRect,0.250001X0.462499X0.624999X-0.462499X0.624999X-0.462499X-0.624999X0.462499X-0.624999X0*%
%TD*%
%TA.AperFunction,SMDPad,CuDef*%
%ADD16RoundRect,0.225000X0.250000X-0.225000X0.250000X0.225000X-0.250000X0.225000X-0.250000X-0.225000X0*%
%TD*%
%TA.AperFunction,SMDPad,CuDef*%
%ADD17RoundRect,0.250000X-0.262500X-0.450000X0.262500X-0.450000X0.262500X0.450000X-0.262500X0.450000X0*%
%TD*%
%TA.AperFunction,SMDPad,CuDef*%
%ADD18RoundRect,0.200000X-0.275000X0.200000X-0.275000X-0.200000X0.275000X-0.200000X0.275000X0.200000X0*%
%TD*%
%TA.AperFunction,SMDPad,CuDef*%
%ADD19R,1.000000X1.000000*%
%TD*%
%TA.AperFunction,SMDPad,CuDef*%
%ADD20RoundRect,0.225000X-0.250000X0.225000X-0.250000X-0.225000X0.250000X-0.225000X0.250000X0.225000X0*%
%TD*%
%TA.AperFunction,SMDPad,CuDef*%
%ADD21R,0.580000X0.350000*%
%TD*%
%TA.AperFunction,SMDPad,CuDef*%
%ADD22R,0.350000X0.580000*%
%TD*%
%TA.AperFunction,SMDPad,CuDef*%
%ADD23RoundRect,0.250000X-0.450000X0.262500X-0.450000X-0.262500X0.450000X-0.262500X0.450000X0.262500X0*%
%TD*%
%TA.AperFunction,SMDPad,CuDef*%
%ADD24RoundRect,0.243750X0.243750X0.456250X-0.243750X0.456250X-0.243750X-0.456250X0.243750X-0.456250X0*%
%TD*%
%TA.AperFunction,SMDPad,CuDef*%
%ADD25RoundRect,0.250000X0.250000X0.475000X-0.250000X0.475000X-0.250000X-0.475000X0.250000X-0.475000X0*%
%TD*%
%TA.AperFunction,SMDPad,CuDef*%
%ADD26RoundRect,0.150000X0.587500X0.150000X-0.587500X0.150000X-0.587500X-0.150000X0.587500X-0.150000X0*%
%TD*%
%TA.AperFunction,SMDPad,CuDef*%
%ADD27RoundRect,0.250000X-0.250000X-0.475000X0.250000X-0.475000X0.250000X0.475000X-0.250000X0.475000X0*%
%TD*%
%TA.AperFunction,SMDPad,CuDef*%
%ADD28R,1.200000X1.400000*%
%TD*%
%TA.AperFunction,SMDPad,CuDef*%
%ADD29R,0.550000X0.250000*%
%TD*%
%TA.AperFunction,SMDPad,CuDef*%
%ADD30FreePoly0,180.000000*%
%TD*%
%TA.AperFunction,ComponentPad*%
%ADD31C,0.800000*%
%TD*%
%TA.AperFunction,ComponentPad*%
%ADD32C,5.000000*%
%TD*%
%TA.AperFunction,SMDPad,CuDef*%
%ADD33R,1.100000X0.510000*%
%TD*%
%TA.AperFunction,SMDPad,CuDef*%
%ADD34RoundRect,0.218750X0.218750X0.381250X-0.218750X0.381250X-0.218750X-0.381250X0.218750X-0.381250X0*%
%TD*%
%TA.AperFunction,SMDPad,CuDef*%
%ADD35RoundRect,0.100000X0.550000X-0.100000X0.550000X0.100000X-0.550000X0.100000X-0.550000X-0.100000X0*%
%TD*%
%TA.AperFunction,SMDPad,CuDef*%
%ADD36RoundRect,0.262500X-0.262500X0.737500X-0.262500X-0.737500X0.262500X-0.737500X0.262500X0.737500X0*%
%TD*%
%TA.AperFunction,SMDPad,CuDef*%
%ADD37RoundRect,0.100000X-0.550000X0.100000X-0.550000X-0.100000X0.550000X-0.100000X0.550000X0.100000X0*%
%TD*%
%TA.AperFunction,SMDPad,CuDef*%
%ADD38RoundRect,0.150000X-0.150000X0.587500X-0.150000X-0.587500X0.150000X-0.587500X0.150000X0.587500X0*%
%TD*%
%TA.AperFunction,SMDPad,CuDef*%
%ADD39R,5.000000X0.400000*%
%TD*%
%TA.AperFunction,SMDPad,CuDef*%
%ADD40RoundRect,0.225000X-0.225000X-0.250000X0.225000X-0.250000X0.225000X0.250000X-0.225000X0.250000X0*%
%TD*%
%TA.AperFunction,SMDPad,CuDef*%
%ADD41R,1.700000X0.650000*%
%TD*%
%TA.AperFunction,SMDPad,CuDef*%
%ADD42R,0.001000X0.001000*%
%TD*%
%TA.AperFunction,SMDPad,CuDef*%
%ADD43R,13.000000X0.400000*%
%TD*%
%TA.AperFunction,SMDPad,CuDef*%
%ADD44RoundRect,0.225000X0.225000X0.250000X-0.225000X0.250000X-0.225000X-0.250000X0.225000X-0.250000X0*%
%TD*%
%TA.AperFunction,SMDPad,CuDef*%
%ADD45RoundRect,0.250000X-0.375000X-1.075000X0.375000X-1.075000X0.375000X1.075000X-0.375000X1.075000X0*%
%TD*%
%TA.AperFunction,SMDPad,CuDef*%
%ADD46R,1.400000X1.200000*%
%TD*%
%TA.AperFunction,SMDPad,CuDef*%
%ADD47C,1.000000*%
%TD*%
%TA.AperFunction,SMDPad,CuDef*%
%ADD48R,0.400000X25.500000*%
%TD*%
%TA.AperFunction,SMDPad,CuDef*%
%ADD49R,20.400000X0.400000*%
%TD*%
%TA.AperFunction,SMDPad,CuDef*%
%ADD50RoundRect,0.218750X-0.218750X-0.381250X0.218750X-0.381250X0.218750X0.381250X-0.218750X0.381250X0*%
%TD*%
%TA.AperFunction,SMDPad,CuDef*%
%ADD51RoundRect,0.050000X0.309359X-0.238649X-0.238649X0.309359X-0.309359X0.238649X0.238649X-0.309359X0*%
%TD*%
%TA.AperFunction,SMDPad,CuDef*%
%ADD52RoundRect,0.050000X0.309359X0.238649X0.238649X0.309359X-0.309359X-0.238649X-0.238649X-0.309359X0*%
%TD*%
%TA.AperFunction,SMDPad,CuDef*%
%ADD53RotRect,5.600000X5.600000X135.000000*%
%TD*%
%TA.AperFunction,SMDPad,CuDef*%
%ADD54RoundRect,0.041300X-0.253700X0.948700X-0.253700X-0.948700X0.253700X-0.948700X0.253700X0.948700X0*%
%TD*%
%TA.AperFunction,SMDPad,CuDef*%
%ADD55RoundRect,0.250000X0.262500X0.450000X-0.262500X0.450000X-0.262500X-0.450000X0.262500X-0.450000X0*%
%TD*%
%TA.AperFunction,SMDPad,CuDef*%
%ADD56RoundRect,0.150000X-0.587500X-0.150000X0.587500X-0.150000X0.587500X0.150000X-0.587500X0.150000X0*%
%TD*%
%TA.AperFunction,SMDPad,CuDef*%
%ADD57R,1.800000X2.195000*%
%TD*%
%TA.AperFunction,SMDPad,CuDef*%
%ADD58R,2.195000X2.195000*%
%TD*%
%TA.AperFunction,SMDPad,CuDef*%
%ADD59R,2.000000X2.195000*%
%TD*%
%TA.AperFunction,SMDPad,CuDef*%
%ADD60R,0.400000X25.400000*%
%TD*%
%TA.AperFunction,ComponentPad*%
%ADD61C,2.300000*%
%TD*%
%TA.AperFunction,ComponentPad*%
%ADD62R,2.300000X2.000000*%
%TD*%
%TA.AperFunction,ComponentPad*%
%ADD63RoundRect,0.250000X-0.600000X-0.725000X0.600000X-0.725000X0.600000X0.725000X-0.600000X0.725000X0*%
%TD*%
%TA.AperFunction,ComponentPad*%
%ADD64O,1.700000X1.950000*%
%TD*%
%TA.AperFunction,ComponentPad*%
%ADD65C,1.600000*%
%TD*%
%TA.AperFunction,ComponentPad*%
%ADD66C,2.000000*%
%TD*%
%TA.AperFunction,ComponentPad*%
%ADD67O,1.700000X1.100000*%
%TD*%
%TA.AperFunction,ComponentPad*%
%ADD68R,3.000000X3.000000*%
%TD*%
%TA.AperFunction,ComponentPad*%
%ADD69C,3.000000*%
%TD*%
%TA.AperFunction,ComponentPad*%
%ADD70R,2.000000X2.000000*%
%TD*%
%TA.AperFunction,ComponentPad*%
%ADD71C,2.010000*%
%TD*%
%TA.AperFunction,ViaPad*%
%ADD72C,0.600000*%
%TD*%
%TA.AperFunction,ViaPad*%
%ADD73C,0.800000*%
%TD*%
%TA.AperFunction,ViaPad*%
%ADD74C,0.700000*%
%TD*%
%TA.AperFunction,ViaPad*%
%ADD75C,0.500000*%
%TD*%
%TA.AperFunction,Conductor*%
%ADD76C,0.150000*%
%TD*%
%TA.AperFunction,Conductor*%
%ADD77C,1.000000*%
%TD*%
%TA.AperFunction,Conductor*%
%ADD78C,0.250000*%
%TD*%
%TA.AperFunction,Conductor*%
%ADD79C,0.300000*%
%TD*%
%TA.AperFunction,Conductor*%
%ADD80C,0.320000*%
%TD*%
%TA.AperFunction,Conductor*%
%ADD81C,0.200000*%
%TD*%
%TA.AperFunction,Conductor*%
%ADD82C,0.510000*%
%TD*%
%TA.AperFunction,Conductor*%
%ADD83C,0.400000*%
%TD*%
%TA.AperFunction,Conductor*%
%ADD84C,0.350000*%
%TD*%
%TA.AperFunction,Conductor*%
%ADD85C,1.200000*%
%TD*%
G04 APERTURE END LIST*
D10*
%TO.P,WLR2,1*%
%TO.N,3V3*%
X157475000Y-102480000D03*
%TO.P,WLR2,2*%
%TO.N,IO14_H2O_LEVEL*%
X155825000Y-102480000D03*
%TD*%
D11*
%TO.P,WLR1,1*%
%TO.N,IO14_H2O_LEVEL*%
X156765000Y-100830000D03*
%TO.P,WLR1,2*%
%TO.N,GND*%
X158415000Y-100830000D03*
%TD*%
D12*
%TO.P,MXR2,1*%
%TO.N,3V3*%
X154290000Y-101485000D03*
%TO.P,MXR2,2*%
%TO.N,Net-(MAX66751-Pad3)*%
X154290000Y-99835000D03*
%TD*%
D11*
%TO.P,MXR1,1*%
%TO.N,Net-(MAX66751-Pad3)*%
X156785000Y-99270000D03*
%TO.P,MXR1,2*%
%TO.N,GND*%
X158435000Y-99270000D03*
%TD*%
D13*
%TO.P,WLD1,1,K*%
%TO.N,Net-(WaterLevel1-Pad1)*%
X154125000Y-104750000D03*
%TO.P,WLD1,2,A*%
%TO.N,3V3*%
X157100000Y-104750000D03*
%TD*%
D14*
%TO.P,AC2,1*%
%TO.N,5V0*%
X132375000Y-89160000D03*
%TO.P,AC2,2*%
%TO.N,GND*%
X132375000Y-87260000D03*
%TD*%
D15*
%TO.P,HLD6,1,K*%
%TO.N,5V0*%
X117677500Y-92600000D03*
%TO.P,HLD6,2,A*%
%TO.N,PROBE_5V0*%
X114702500Y-92600000D03*
%TD*%
D16*
%TO.P,EC37,1*%
%TO.N,Net-(ANT1-Pad1)*%
X132920000Y-119725000D03*
%TO.P,EC37,2*%
%TO.N,GND*%
X132920000Y-118175000D03*
%TD*%
D17*
%TO.P,DS1,1*%
%TO.N,3V3*%
X145537500Y-119270000D03*
%TO.P,DS1,2*%
%TO.N,IO01_DS18*%
X147362500Y-119270000D03*
%TD*%
D18*
%TO.P,IMR2,1*%
%TO.N,3V3*%
X135050000Y-87045000D03*
%TO.P,IMR2,2*%
%TO.N,GPIO9_I2C_SCL*%
X135050000Y-88695000D03*
%TD*%
D19*
%TO.P,Coffee1,1,1*%
%TO.N,IO06_COFFEE*%
X154275000Y-112850000D03*
%TO.P,Coffee1,2,2*%
%TO.N,Net-(Coffee1-Pad2)*%
X153155000Y-112850000D03*
%TD*%
D20*
%TO.P,SHC1,1*%
%TO.N,GND*%
X138800000Y-87365000D03*
%TO.P,SHC1,2*%
%TO.N,3V3*%
X138800000Y-88915000D03*
%TD*%
D21*
%TO.P,IMU1,1,SDO/SA0*%
%TO.N,unconnected-(IMU1-Pad1)*%
X122685000Y-111005000D03*
%TO.P,IMU1,2,SDX*%
%TO.N,unconnected-(IMU1-Pad2)*%
X122685000Y-111505000D03*
%TO.P,IMU1,3,SCX*%
%TO.N,unconnected-(IMU1-Pad3)*%
X122685000Y-112005000D03*
%TO.P,IMU1,4,INT1*%
%TO.N,unconnected-(IMU1-Pad4)*%
X122685000Y-112505000D03*
D22*
%TO.P,IMU1,5,VDDIO*%
%TO.N,3V3*%
X123360000Y-112680000D03*
%TO.P,IMU1,6,GND*%
%TO.N,GND*%
X123860000Y-112680000D03*
%TO.P,IMU1,7,GND*%
X124360000Y-112680000D03*
D21*
%TO.P,IMU1,8,VDD*%
%TO.N,3V3*%
X125035000Y-112505000D03*
%TO.P,IMU1,9,INT2*%
%TO.N,unconnected-(IMU1-Pad9)*%
X125035000Y-112005000D03*
%TO.P,IMU1,10,NC*%
%TO.N,unconnected-(IMU1-Pad10)*%
X125035000Y-111505000D03*
%TO.P,IMU1,11,NC*%
%TO.N,unconnected-(IMU1-Pad11)*%
X125035000Y-111005000D03*
D22*
%TO.P,IMU1,12,CS*%
%TO.N,IO38_IMU_CS*%
X124360000Y-110830000D03*
%TO.P,IMU1,13,SCL*%
%TO.N,GPIO9_I2C_SCL*%
X123860000Y-110830000D03*
%TO.P,IMU1,14,SDA*%
%TO.N,GPIO8_I2C_SDA*%
X123360000Y-110830000D03*
%TD*%
D23*
%TO.P,QR2,1*%
%TO.N,IO05_GRINDER*%
X152810000Y-109687500D03*
%TO.P,QR2,2*%
%TO.N,Net-(Q2-Pad1)*%
X152810000Y-111512500D03*
%TD*%
D11*
%TO.P,ER2,1*%
%TO.N,TXD0*%
X122615000Y-119680000D03*
%TO.P,ER2,2*%
%TO.N,Net-(ER2-Pad2)*%
X124265000Y-119680000D03*
%TD*%
D24*
%TO.P,HLD1,1,K*%
%TO.N,GND*%
X115737500Y-98170000D03*
%TO.P,HLD1,2,A*%
%TO.N,Net-(HLD1-Pad2)*%
X113862500Y-98170000D03*
%TD*%
D25*
%TO.P,EC18,1*%
%TO.N,3V3*%
X140640000Y-104670000D03*
%TO.P,EC18,2*%
%TO.N,GND*%
X138740000Y-104670000D03*
%TD*%
D26*
%TO.P,Q1,3,D*%
%TO.N,Net-(ExtSW1-Pad3)*%
X145152500Y-113830000D03*
%TO.P,Q1,2,S*%
%TO.N,GND*%
X147027500Y-112880000D03*
%TO.P,Q1,1,G*%
%TO.N,Net-(Q1-Pad1)*%
X147027500Y-114780000D03*
%TD*%
D25*
%TO.P,EC15,1*%
%TO.N,GND*%
X134050000Y-115920000D03*
%TO.P,EC15,2*%
%TO.N,3V3*%
X132150000Y-115920000D03*
%TD*%
%TO.P,EC17,1*%
%TO.N,3V3*%
X140620000Y-102760000D03*
%TO.P,EC17,2*%
%TO.N,GND*%
X138720000Y-102760000D03*
%TD*%
D10*
%TO.P,ER1,1*%
%TO.N,3V3*%
X140615000Y-109580000D03*
%TO.P,ER1,2*%
%TO.N,CHIP_EN*%
X138965000Y-109580000D03*
%TD*%
D27*
%TO.P,HLC3,1*%
%TO.N,PROBE_5V0*%
X114370000Y-90160000D03*
%TO.P,HLC3,2*%
%TO.N,GND3*%
X116270000Y-90160000D03*
%TD*%
D28*
%TO.P,ECY1,1,1*%
%TO.N,Net-(EC12-Pad1)*%
X128530000Y-114670000D03*
%TO.P,ECY1,2,2*%
%TO.N,GND*%
X128530000Y-112470000D03*
%TO.P,ECY1,3,3*%
%TO.N,Net-(EC13-Pad1)*%
X126830000Y-112470000D03*
%TO.P,ECY1,4,4*%
%TO.N,GND*%
X126830000Y-114670000D03*
%TD*%
D29*
%TO.P,SH1,1,SDA*%
%TO.N,GPIO8_I2C_SDA*%
X144105036Y-86800510D03*
%TO.P,SH1,2,ADDR*%
%TO.N,GND*%
X144105036Y-86300510D03*
%TO.P,SH1,3,ALERT*%
%TO.N,unconnected-(SH1-Pad3)*%
X144105036Y-85800510D03*
%TO.P,SH1,4,SCL*%
%TO.N,GPIO9_I2C_SCL*%
X144105036Y-85300510D03*
%TO.P,SH1,5,VDD*%
%TO.N,3V3*%
X141755036Y-85300510D03*
%TO.P,SH1,6,~{RESET}*%
%TO.N,unconnected-(SH1-Pad6)*%
X141755036Y-85800510D03*
%TO.P,SH1,7,R*%
%TO.N,GND*%
X141755036Y-86300510D03*
%TO.P,SH1,8,VSS*%
X141755036Y-86800510D03*
D30*
%TO.P,SH1,9,VSS*%
X142930036Y-86050510D03*
%TD*%
D31*
%TO.P,REF\u002A\u002A,1*%
%TO.N,N/C*%
X155994175Y-82139175D03*
X157869175Y-80264175D03*
X154119175Y-80264175D03*
X155994175Y-78389175D03*
X157320000Y-81590000D03*
X154668350Y-78938350D03*
X154668350Y-81590000D03*
D32*
X155994175Y-80264175D03*
D31*
X157320000Y-78938350D03*
%TD*%
D33*
%TO.P,CH340K1,1,UD+*%
%TO.N,Net-(CH340K1-Pad1)*%
X114280000Y-107600000D03*
%TO.P,CH340K1,2,UD-*%
%TO.N,Net-(CH340K1-Pad2)*%
X114280000Y-108600000D03*
%TO.P,CH340K1,3,GND*%
%TO.N,GND*%
X114280000Y-109600000D03*
%TO.P,CH340K1,4,~{DTR}*%
%TO.N,Net-(CH340K1-Pad4)*%
X114280000Y-110600000D03*
%TO.P,CH340K1,5,~{CTS}*%
%TO.N,unconnected-(CH340K1-Pad5)*%
X114280000Y-111600000D03*
%TO.P,CH340K1,6,RTS*%
%TO.N,Net-(CH340K1-Pad6)*%
X119380000Y-111600000D03*
%TO.P,CH340K1,7,VCC*%
%TO.N,3V3*%
X119380000Y-110600000D03*
%TO.P,CH340K1,8,TXD*%
%TO.N,RXD0*%
X119380000Y-109600000D03*
%TO.P,CH340K1,9,RXD*%
%TO.N,TXD0*%
X119380000Y-108600000D03*
%TO.P,CH340K1,10,V3*%
%TO.N,Net-(CH340K1-Pad10)*%
X119380000Y-107600000D03*
%TD*%
D34*
%TO.P,L2,1,1*%
%TO.N,3V3*%
X138822500Y-113170000D03*
%TO.P,L2,2,2*%
%TO.N,Net-(EC20-Pad1)*%
X136697500Y-113170000D03*
%TD*%
D35*
%TO.P,AU1,1,FB*%
%TO.N,Net-(AR1-Pad2)*%
X127252500Y-87850006D03*
%TO.P,AU1,2,GND*%
%TO.N,GND*%
X127257500Y-88790006D03*
D36*
X128972500Y-88815006D03*
D35*
%TO.P,AU1,3,SW*%
%TO.N,Net-(AL1-Pad2)*%
X127257500Y-89775006D03*
D37*
%TO.P,AU1,4,VIN_SW*%
%TO.N,5V0*%
X130647500Y-89745006D03*
%TO.P,AU1,5,VIN_A*%
X130642500Y-88830006D03*
%TO.P,AU1,6,EN*%
X130642500Y-87870006D03*
%TD*%
D38*
%TO.P,KQ2,1,G*%
%TO.N,Net-(CH340K1-Pad4)*%
X119350000Y-115152500D03*
%TO.P,KQ2,2,S*%
%TO.N,Net-(CH340K1-Pad6)*%
X117450000Y-115152500D03*
%TO.P,KQ2,3,D*%
%TO.N,CHIP_EN*%
X118400000Y-117027500D03*
%TD*%
D19*
%TO.P,Grinder1,1,1*%
%TO.N,IO05_GRINDER*%
X150520000Y-110110000D03*
%TO.P,Grinder1,2,2*%
%TO.N,Net-(ExtSW1-Pad1)*%
X150520000Y-111230000D03*
%TD*%
D39*
%TO.P,,1*%
%TO.N,N/C*%
X139530000Y-117220000D03*
%TD*%
D17*
%TO.P,HLR1,1*%
%TO.N,Net-(HLD1-Pad2)*%
X114597500Y-100320000D03*
%TO.P,HLR1,2*%
%TO.N,Net-(HLL2-Pad2)*%
X116422500Y-100320000D03*
%TD*%
D19*
%TO.P,h20,1,1*%
%TO.N,IO04_H2O*%
X146190000Y-109945000D03*
%TO.P,h20,2,2*%
%TO.N,Net-(ExtSW1-Pad3)*%
X146190000Y-111065000D03*
%TD*%
D40*
%TO.P,AUC1,1*%
%TO.N,GND*%
X138785000Y-100820000D03*
%TO.P,AUC1,2*%
%TO.N,3V3*%
X140335000Y-100820000D03*
%TD*%
D41*
%TO.P,MAX66751,1,GND*%
%TO.N,GND*%
X155720000Y-93780000D03*
%TO.P,MAX66751,2,T-*%
%TO.N,Net-(MAX66751-Pad2)*%
X155720000Y-92510000D03*
%TO.P,MAX66751,3,T+*%
%TO.N,Net-(MAX66751-Pad3)*%
X155720000Y-91240000D03*
%TO.P,MAX66751,4,VCC*%
%TO.N,3V3*%
X155720000Y-89970000D03*
%TO.P,MAX66751,5,SCK*%
%TO.N,IO11_MXSK*%
X148420000Y-89970000D03*
%TO.P,MAX66751,6,/CS*%
%TO.N,IO10_MXCS*%
X148420000Y-91240000D03*
%TO.P,MAX66751,7,DO*%
%TO.N,IO07_MXD*%
X148420000Y-92510000D03*
D42*
%TO.P,MAX66751,8*%
%TO.N,N/C*%
X148420000Y-93780000D03*
%TD*%
D25*
%TO.P,EC14,1*%
%TO.N,GND*%
X134070000Y-114060000D03*
%TO.P,EC14,2*%
%TO.N,3V3*%
X132170000Y-114060000D03*
%TD*%
D20*
%TO.P,EC13,1*%
%TO.N,Net-(EC13-Pad1)*%
X124850000Y-114395000D03*
%TO.P,EC13,2*%
%TO.N,GND*%
X124850000Y-115945000D03*
%TD*%
D43*
%TO.P,,1*%
%TO.N,N/C*%
X128060000Y-117220000D03*
%TD*%
D16*
%TO.P,EC26,1*%
%TO.N,3V3*%
X137150000Y-102295000D03*
%TO.P,EC26,2*%
%TO.N,GND*%
X137150000Y-100745000D03*
%TD*%
%TO.P,IMUC1,1*%
%TO.N,GND*%
X122970000Y-115945000D03*
%TO.P,IMUC1,2*%
%TO.N,3V3*%
X122970000Y-114395000D03*
%TD*%
D44*
%TO.P,EC51,1*%
%TO.N,Net-(EC51-Pad1)*%
X124705000Y-109090000D03*
%TO.P,EC51,2*%
%TO.N,GND*%
X123155000Y-109090000D03*
%TD*%
D31*
%TO.P,REF\u002A\u002A,1*%
%TO.N,N/C*%
X116985825Y-81605825D03*
X113785000Y-80280000D03*
X114334175Y-78954175D03*
X115660000Y-82155000D03*
X117535000Y-80280000D03*
D32*
X115660000Y-80280000D03*
D31*
X116985825Y-78954175D03*
X115660000Y-78405000D03*
X114334175Y-81605825D03*
%TD*%
D44*
%TO.P,EC40,1*%
%TO.N,GND*%
X138865000Y-111400000D03*
%TO.P,EC40,2*%
%TO.N,CHIP_EN*%
X137315000Y-111400000D03*
%TD*%
D16*
%TO.P,CHC2,1*%
%TO.N,Net-(CH340K1-Pad10)*%
X120310000Y-106265000D03*
%TO.P,CHC2,2*%
%TO.N,GND*%
X120310000Y-104715000D03*
%TD*%
D45*
%TO.P,AL1,1,1*%
%TO.N,3V3*%
X122320000Y-89010000D03*
%TO.P,AL1,2,2*%
%TO.N,Net-(AL1-Pad2)*%
X125120000Y-89010000D03*
%TD*%
D40*
%TO.P,EC20,1*%
%TO.N,Net-(EC20-Pad1)*%
X138245000Y-115080000D03*
%TO.P,EC20,2*%
%TO.N,GND*%
X139795000Y-115080000D03*
%TD*%
D46*
%TO.P,ECY2,1,1*%
%TO.N,Net-(EC50-Pad1)*%
X125130000Y-105650000D03*
%TO.P,ECY2,2,2*%
%TO.N,GND*%
X122930000Y-105650000D03*
%TO.P,ECY2,3,3*%
%TO.N,Net-(EC51-Pad1)*%
X122930000Y-107350000D03*
%TO.P,ECY2,4,4*%
%TO.N,GND*%
X125130000Y-107350000D03*
%TD*%
D47*
%TO.P,TP2,1,1*%
%TO.N,3V3*%
X120070000Y-93560000D03*
%TD*%
D38*
%TO.P,KQ1,1,G*%
%TO.N,Net-(CH340K1-Pad6)*%
X115730000Y-115152500D03*
%TO.P,KQ1,2,S*%
%TO.N,Net-(CH340K1-Pad4)*%
X113830000Y-115152500D03*
%TO.P,KQ1,3,D*%
%TO.N,ESP_GPIO0_BOOT-DTR*%
X114780000Y-117027500D03*
%TD*%
D16*
%TO.P,EC16,1*%
%TO.N,3V3*%
X126750000Y-108765000D03*
%TO.P,EC16,2*%
%TO.N,GND*%
X126750000Y-107215000D03*
%TD*%
D48*
%TO.P,,1*%
%TO.N,N/C*%
X141820000Y-104700000D03*
%TD*%
D49*
%TO.P,,1*%
%TO.N,N/C*%
X131730000Y-92120000D03*
%TD*%
D14*
%TO.P,MXC1,1*%
%TO.N,GND*%
X158000000Y-92060000D03*
%TO.P,MXC1,2*%
%TO.N,3V3*%
X158000000Y-90160000D03*
%TD*%
D19*
%TO.P,MXS1,1,1*%
%TO.N,GND*%
X153430000Y-96975000D03*
%TO.P,MXS1,2,2*%
%TO.N,Net-(MAX66751-Pad2)*%
X153430000Y-95855000D03*
%TD*%
D20*
%TO.P,EC24,1*%
%TO.N,VDD_SPI*%
X135130000Y-93455000D03*
%TO.P,EC24,2*%
%TO.N,GND*%
X135130000Y-95005000D03*
%TD*%
D26*
%TO.P,Q3,1,G*%
%TO.N,Net-(Q3-Pad1)*%
X150737500Y-114740000D03*
%TO.P,Q3,2,S*%
%TO.N,GND*%
X150737500Y-112840000D03*
%TO.P,Q3,3,D*%
%TO.N,Net-(Coffee1-Pad2)*%
X148862500Y-113790000D03*
%TD*%
D20*
%TO.P,EC12,1*%
%TO.N,Net-(EC12-Pad1)*%
X130520000Y-114125000D03*
%TO.P,EC12,2*%
%TO.N,GND*%
X130520000Y-115675000D03*
%TD*%
D50*
%TO.P,EL4,1,1*%
%TO.N,Net-(ANT1-Pad1)*%
X134417500Y-119500000D03*
%TO.P,EL4,2,2*%
%TO.N,Net-(EC38-Pad1)*%
X136542500Y-119500000D03*
%TD*%
D45*
%TO.P,HLL2,1,1*%
%TO.N,PROBE_5V0*%
X114760000Y-95460000D03*
%TO.P,HLL2,2,2*%
%TO.N,Net-(HLL2-Pad2)*%
X117560000Y-95460000D03*
%TD*%
D16*
%TO.P,CHC1,1*%
%TO.N,3V3*%
X117670000Y-104205000D03*
%TO.P,CHC1,2*%
%TO.N,GND*%
X117670000Y-102655000D03*
%TD*%
D51*
%TO.P,ESP32S3,1,LNA_IN/RF*%
%TO.N,Net-(EC38-Pad1)*%
X133212202Y-111449106D03*
%TO.P,ESP32S3,2,VDD3P3*%
%TO.N,Net-(EC20-Pad1)*%
X133495045Y-111166263D03*
%TO.P,ESP32S3,3,VDD3P3*%
X133777887Y-110883421D03*
%TO.P,ESP32S3,4,CHIP_PU/RESET*%
%TO.N,CHIP_EN*%
X134060730Y-110600578D03*
%TO.P,ESP32S3,5,GPIO0/BOOT*%
%TO.N,ESP_GPIO0_BOOT-DTR*%
X134343573Y-110317735D03*
%TO.P,ESP32S3,6,GPIO1/ADC1_CH0*%
%TO.N,IO01_DS18*%
X134626415Y-110034893D03*
%TO.P,ESP32S3,7,GPIO2/ADC1_CH1*%
%TO.N,IO02_BUZZER*%
X134909258Y-109752050D03*
%TO.P,ESP32S3,8,GPIO3/ADC1_CH2*%
%TO.N,GND*%
X135192101Y-109469207D03*
%TO.P,ESP32S3,9,GPIO4/ADC1_CH3*%
%TO.N,IO04_H2O*%
X135474944Y-109186364D03*
%TO.P,ESP32S3,10,GPIO5/ADC1_CH4*%
%TO.N,IO05_GRINDER*%
X135757786Y-108903522D03*
%TO.P,ESP32S3,11,GPIO6/ADC1_CH5*%
%TO.N,IO06_COFFEE*%
X136040629Y-108620679D03*
%TO.P,ESP32S3,12,GPIO7/ADC1_CH6*%
%TO.N,IO07_MXD*%
X136323472Y-108337836D03*
%TO.P,ESP32S3,13,GPIO8/ADC1_CH7*%
%TO.N,GPIO8_I2C_SDA*%
X136606314Y-108054994D03*
%TO.P,ESP32S3,14,GPIO9/ADC1_CH8*%
%TO.N,GPIO9_I2C_SCL*%
X136889157Y-107772151D03*
D52*
%TO.P,ESP32S3,15,GPIO10/ADC1_CH9*%
%TO.N,IO10_MXCS*%
X136889157Y-106587747D03*
%TO.P,ESP32S3,16,GPIO11/ADC2_CH0*%
%TO.N,IO11_MXSK*%
X136606314Y-106304904D03*
%TO.P,ESP32S3,17,GPIO12/ADC2_CH1*%
%TO.N,IO12_NEXTX*%
X136323472Y-106022062D03*
%TO.P,ESP32S3,18,GPIO13/ADC2_CH2*%
%TO.N,IO13_NEXRX*%
X136040629Y-105739219D03*
%TO.P,ESP32S3,19,GPIO14/ADC2_CH3*%
%TO.N,IO14_H2O_LEVEL*%
X135757786Y-105456376D03*
%TO.P,ESP32S3,20,VDD3P3_RTC*%
%TO.N,3V3*%
X135474944Y-105173534D03*
%TO.P,ESP32S3,21,GPIO15/ADC2_CH4/XTAL_32K_P*%
%TO.N,Net-(EC51-Pad1)*%
X135192101Y-104890691D03*
%TO.P,ESP32S3,22,GPIO16/ADC2_CH5/XTAL_32K_N*%
%TO.N,Net-(EC50-Pad1)*%
X134909258Y-104607848D03*
%TO.P,ESP32S3,23,GPIO17/ADC2_CH6/DAC_2*%
%TO.N,unconnected-(ESP32S3-Pad23)*%
X134626415Y-104325005D03*
%TO.P,ESP32S3,24,GPIO18/ADC2_CH7/DAC_1*%
%TO.N,unconnected-(ESP32S3-Pad24)*%
X134343573Y-104042163D03*
%TO.P,ESP32S3,25,GPIO19/USB_D-/ADC2_CH8*%
%TO.N,USB_D-*%
X134060730Y-103759320D03*
%TO.P,ESP32S3,26,GPIO20/USB_D+/ADC2_CH9*%
%TO.N,USB_D+*%
X133777887Y-103476477D03*
%TO.P,ESP32S3,27,GPIO21*%
%TO.N,unconnected-(ESP32S3-Pad27)*%
X133495045Y-103193635D03*
%TO.P,ESP32S3,28,SPI_CS1/GPIO26*%
%TO.N,SPICS1*%
X133212202Y-102910792D03*
D51*
%TO.P,ESP32S3,29,VDD_SPI*%
%TO.N,VDD_SPI*%
X132027798Y-102910792D03*
%TO.P,ESP32S3,30,SPIHD/GPIO27*%
%TO.N,SPIHD*%
X131744955Y-103193635D03*
%TO.P,ESP32S3,31,SPIWP/GPIO28*%
%TO.N,SPIWP*%
X131462113Y-103476477D03*
%TO.P,ESP32S3,32,SPICS0/GPIO29*%
%TO.N,SPICS0*%
X131179270Y-103759320D03*
%TO.P,ESP32S3,33,SPICLK/GPIO30*%
%TO.N,SPICLK*%
X130896427Y-104042163D03*
%TO.P,ESP32S3,34,SPIQ/GPIO31*%
%TO.N,SPIQ*%
X130613585Y-104325005D03*
%TO.P,ESP32S3,35,SPID/GPIO32*%
%TO.N,SPID*%
X130330742Y-104607848D03*
%TO.P,ESP32S3,36,SPICLK_N/GPIO48*%
%TO.N,unconnected-(ESP32S3-Pad36)*%
X130047899Y-104890691D03*
%TO.P,ESP32S3,37,SPICLK_P/GPIO47*%
%TO.N,unconnected-(ESP32S3-Pad37)*%
X129765056Y-105173534D03*
%TO.P,ESP32S3,38,GPIO33*%
%TO.N,unconnected-(ESP32S3-Pad38)*%
X129482214Y-105456376D03*
%TO.P,ESP32S3,39,GPIO34*%
%TO.N,IO34_LEDB*%
X129199371Y-105739219D03*
%TO.P,ESP32S3,40,GPIO35*%
%TO.N,IO35_LEDG*%
X128916528Y-106022062D03*
%TO.P,ESP32S3,41,GPIO36*%
%TO.N,IO36_LEDR*%
X128633686Y-106304904D03*
%TO.P,ESP32S3,42,GPIO37*%
%TO.N,unconnected-(ESP32S3-Pad42)*%
X128350843Y-106587747D03*
D52*
%TO.P,ESP32S3,43,GPIO38*%
%TO.N,IO38_IMU_CS*%
X128350843Y-107772151D03*
%TO.P,ESP32S3,44,MTCK/JTAG/GPIO39*%
%TO.N,unconnected-(ESP32S3-Pad44)*%
X128633686Y-108054994D03*
%TO.P,ESP32S3,45,MTDO/JTAG/GPIO40*%
%TO.N,unconnected-(ESP32S3-Pad45)*%
X128916528Y-108337836D03*
%TO.P,ESP32S3,46,VDD3P3_CPU*%
%TO.N,3V3*%
X129199371Y-108620679D03*
%TO.P,ESP32S3,47,MTDI/JTAG/GPIO41*%
%TO.N,unconnected-(ESP32S3-Pad47)*%
X129482214Y-108903522D03*
%TO.P,ESP32S3,48,MTMS/JTAG/GPIO42*%
%TO.N,unconnected-(ESP32S3-Pad48)*%
X129765056Y-109186364D03*
%TO.P,ESP32S3,49,U0TXD/PROG/GPIO43*%
%TO.N,Net-(ER2-Pad2)*%
X130047899Y-109469207D03*
%TO.P,ESP32S3,50,U0RXD/PROG/GPIO44*%
%TO.N,RXD0*%
X130330742Y-109752050D03*
%TO.P,ESP32S3,51,GPIO45*%
%TO.N,GND*%
X130613585Y-110034893D03*
%TO.P,ESP32S3,52,GPIO46*%
%TO.N,ESP_GPIO0_BOOT-DTR*%
X130896427Y-110317735D03*
%TO.P,ESP32S3,53,XTAL_N*%
%TO.N,Net-(EC13-Pad1)*%
X131179270Y-110600578D03*
%TO.P,ESP32S3,54,XTAL_P*%
%TO.N,Net-(EC12-Pad1)*%
X131462113Y-110883421D03*
%TO.P,ESP32S3,55,VDDA*%
%TO.N,3V3*%
X131744955Y-111166263D03*
%TO.P,ESP32S3,56,VDDA*%
X132027798Y-111449106D03*
D53*
%TO.P,ESP32S3,57,GND*%
%TO.N,GND*%
X132620000Y-107179949D03*
%TD*%
D54*
%TO.P,U2,1*%
%TO.N,N/C*%
X140735000Y-93760000D03*
%TO.P,U2,2*%
X139465000Y-93760000D03*
%TO.P,U2,3*%
X138195000Y-93760000D03*
%TO.P,U2,4,GND*%
%TO.N,GND*%
X136925000Y-93760000D03*
%TO.P,U2,5,SDA*%
%TO.N,GPIO8_I2C_SDA*%
X136925000Y-98700000D03*
%TO.P,U2,6,SCL*%
%TO.N,GPIO9_I2C_SCL*%
X138195000Y-98700000D03*
%TO.P,U2,7*%
%TO.N,N/C*%
X139465000Y-98700000D03*
%TO.P,U2,8,VCC*%
%TO.N,3V3*%
X140735000Y-98700000D03*
%TD*%
D47*
%TO.P,TP1,1,1*%
%TO.N,5V0*%
X120020000Y-96940000D03*
%TD*%
D55*
%TO.P,QR3,1*%
%TO.N,IO06_COFFEE*%
X154612500Y-114630000D03*
%TO.P,QR3,2*%
%TO.N,Net-(Q3-Pad1)*%
X152787500Y-114630000D03*
%TD*%
D20*
%TO.P,EC19,1*%
%TO.N,3V3*%
X140370000Y-111715000D03*
%TO.P,EC19,2*%
%TO.N,GND*%
X140370000Y-113265000D03*
%TD*%
D47*
%TO.P,TP3,1,1*%
%TO.N,GND*%
X117630000Y-86570000D03*
%TD*%
D18*
%TO.P,IMR1,1*%
%TO.N,3V3*%
X136900000Y-87025000D03*
%TO.P,IMR1,2*%
%TO.N,GPIO8_I2C_SDA*%
X136900000Y-88675000D03*
%TD*%
D40*
%TO.P,EC38,1*%
%TO.N,Net-(EC38-Pad1)*%
X138505000Y-119480000D03*
%TO.P,EC38,2*%
%TO.N,GND*%
X140055000Y-119480000D03*
%TD*%
D31*
%TO.P,REF\u002A\u002A,1*%
%TO.N,N/C*%
X154744175Y-119364175D03*
X157945000Y-120690000D03*
X154744175Y-122015825D03*
X156070000Y-122565000D03*
X156070000Y-118815000D03*
X157395825Y-122015825D03*
X157395825Y-119364175D03*
D32*
X156070000Y-120690000D03*
D31*
X154195000Y-120690000D03*
%TD*%
D17*
%TO.P,AR2,1*%
%TO.N,Net-(AR1-Pad2)*%
X127607500Y-85670000D03*
%TO.P,AR2,2*%
%TO.N,GND*%
X129432500Y-85670000D03*
%TD*%
D56*
%TO.P,Q2,1,G*%
%TO.N,Net-(Q2-Pad1)*%
X154752500Y-109420000D03*
%TO.P,Q2,2,S*%
%TO.N,GND*%
X154752500Y-111320000D03*
%TO.P,Q2,3,D*%
%TO.N,Net-(ExtSW1-Pad1)*%
X156627500Y-110370000D03*
%TD*%
D11*
%TO.P,ER5,1*%
%TO.N,3V3*%
X123275000Y-122260000D03*
%TO.P,ER5,2*%
%TO.N,ESP_GPIO0_BOOT-DTR*%
X124925000Y-122260000D03*
%TD*%
D17*
%TO.P,AR1,1*%
%TO.N,3V3*%
X123117500Y-85770000D03*
%TO.P,AR1,2*%
%TO.N,Net-(AR1-Pad2)*%
X124942500Y-85770000D03*
%TD*%
D25*
%TO.P,AC1,1*%
%TO.N,3V3*%
X120110000Y-89320000D03*
%TO.P,AC1,2*%
%TO.N,GND*%
X118210000Y-89320000D03*
%TD*%
D14*
%TO.P,EC25,1*%
%TO.N,VDD_SPI*%
X135160000Y-98490000D03*
%TO.P,EC25,2*%
%TO.N,GND*%
X135160000Y-96590000D03*
%TD*%
D31*
%TO.P,REF\u002A\u002A,1*%
%TO.N,N/C*%
X114514175Y-122175825D03*
X117165825Y-119524175D03*
X114514175Y-119524175D03*
X117165825Y-122175825D03*
D32*
X115840000Y-120850000D03*
D31*
X117715000Y-120850000D03*
X115840000Y-118975000D03*
X115840000Y-122725000D03*
X113965000Y-120850000D03*
%TD*%
D57*
%TO.P,BZ1,1,-*%
%TO.N,IO02_BUZZER*%
X144490000Y-107660000D03*
D58*
%TO.P,BZ1,2,+*%
%TO.N,GND*%
X151890000Y-107660000D03*
D59*
%TO.P,BZ1,3*%
%TO.N,N/C*%
X151890000Y-100260000D03*
%TD*%
D60*
%TO.P,,1*%
%TO.N,N/C*%
X121760000Y-104740000D03*
%TD*%
D23*
%TO.P,QR1,1*%
%TO.N,IO04_H2O*%
X144410000Y-110027500D03*
%TO.P,QR1,2*%
%TO.N,Net-(Q1-Pad1)*%
X144410000Y-111852500D03*
%TD*%
D44*
%TO.P,EC50,1*%
%TO.N,Net-(EC50-Pad1)*%
X124735000Y-103910000D03*
%TO.P,EC50,2*%
%TO.N,GND*%
X123185000Y-103910000D03*
%TD*%
D61*
%TO.P,HiLink1,4,DC+*%
%TO.N,Net-(HLL2-Pad2)*%
X115272500Y-102790000D03*
%TO.P,HiLink1,3,DC-*%
%TO.N,GND3*%
X115272500Y-87390000D03*
%TO.P,HiLink1,2,AC_L*%
%TO.N,Net-(HLL1-Pad1)*%
X144672500Y-97590000D03*
D62*
%TO.P,HiLink1,1,AC_N*%
%TO.N,Net-(HLL1-Pad3)*%
X144672500Y-92590000D03*
%TD*%
D63*
%TO.P,NEXTIONLCD1,1,Pin_1*%
%TO.N,5V0*%
X145120000Y-116720000D03*
D64*
%TO.P,NEXTIONLCD1,2,Pin_2*%
%TO.N,IO13_NEXRX*%
X147620000Y-116720000D03*
%TO.P,NEXTIONLCD1,3,Pin_3*%
%TO.N,IO12_NEXTX*%
X150120000Y-116720000D03*
%TO.P,NEXTIONLCD1,4,Pin_4*%
%TO.N,GND*%
X152620000Y-116720000D03*
%TD*%
D65*
%TO.P,HLV1,1*%
%TO.N,Net-(HLC1-Pad1)*%
X136170000Y-78670000D03*
%TO.P,HLV1,2*%
%TO.N,/GND_220*%
X137470000Y-83670000D03*
%TD*%
D66*
%TO.P,HLC1,1*%
%TO.N,Net-(HLC1-Pad1)*%
X151350000Y-81220000D03*
%TO.P,HLC1,2*%
%TO.N,/GND_220*%
X141350000Y-81220000D03*
%TD*%
D67*
%TO.P,USB-M1,6,Shield*%
%TO.N,GND*%
X113810000Y-105860000D03*
X113810000Y-113080000D03*
X117290000Y-105880000D03*
X117280000Y-113070000D03*
%TD*%
D63*
%TO.P,TEMPDS1,1,Pin_1*%
%TO.N,3V3*%
X145490000Y-121720000D03*
D64*
%TO.P,TEMPDS1,2,Pin_2*%
%TO.N,IO01_DS18*%
X147990000Y-121720000D03*
%TO.P,TEMPDS1,3,Pin_3*%
%TO.N,GND*%
X150490000Y-121720000D03*
%TD*%
D68*
%TO.P,PWR220,1,Pin_1*%
%TO.N,/AC_220_IN*%
X121160000Y-80570000D03*
D69*
%TO.P,PWR220,2,Pin_2*%
%TO.N,/GND_220*%
X126240000Y-80570000D03*
%TD*%
D66*
%TO.P,HLL1,4,4*%
%TO.N,/GND_220*%
X156961875Y-96026250D03*
%TO.P,HLL1,3,3*%
%TO.N,Net-(HLL1-Pad3)*%
X149914375Y-95948750D03*
%TO.P,HLL1,2,2*%
%TO.N,Net-(HLC1-Pad1)*%
X156911875Y-87271250D03*
D70*
%TO.P,HLL1,1,1*%
%TO.N,Net-(HLL1-Pad1)*%
X149844375Y-87198750D03*
%TD*%
D71*
%TO.P,PF1,1*%
%TO.N,/AC_220_IN*%
X132345431Y-83731423D03*
%TO.P,PF1,2*%
%TO.N,Net-(HLC1-Pad1)*%
X131145431Y-78631423D03*
%TD*%
D72*
%TO.N,GND*%
X155510000Y-108590000D03*
D73*
%TO.N,Net-(ANT1-Pad1)*%
X131830000Y-120030000D03*
%TO.N,GND*%
X156470000Y-115140000D03*
D72*
X156860000Y-111280000D03*
%TO.N,Net-(WaterLevel1-Pad1)*%
X147490000Y-104100000D03*
%TO.N,IO14_H2O_LEVEL*%
X148920000Y-102180000D03*
%TO.N,3V3*%
X153504474Y-102174474D03*
X156350000Y-106450000D03*
%TO.N,Net-(MAX66751-Pad3)*%
X155610000Y-100360000D03*
%TO.N,Net-(MAX66751-Pad2)*%
X155530000Y-99270000D03*
%TO.N,3V3*%
X119801000Y-119561000D03*
X137630000Y-89800000D03*
X121660000Y-118900000D03*
X135980000Y-86190000D03*
X140190000Y-101810000D03*
X127830000Y-109050000D03*
X140920000Y-101740000D03*
D74*
X140070000Y-105930000D03*
D72*
X136353500Y-103880000D03*
X120160000Y-116280000D03*
X142770000Y-95890000D03*
X142770000Y-94980000D03*
X121640000Y-121373500D03*
X120390000Y-91810000D03*
X118770000Y-104250000D03*
X119570000Y-112790000D03*
D75*
X122790000Y-113290000D03*
D72*
X132230000Y-112040000D03*
X145940000Y-89970000D03*
X143160000Y-116020000D03*
D74*
X139140000Y-106580000D03*
D72*
%TO.N,Net-(ExtSW1-Pad1)*%
X149000000Y-111170000D03*
%TO.N,Net-(ExtSW1-Pad3)*%
X147640000Y-109690000D03*
%TO.N,GND*%
X122460000Y-117170000D03*
D73*
X133650000Y-105600000D03*
D72*
X136210000Y-95150000D03*
X134650000Y-117170000D03*
D73*
X123850000Y-87080000D03*
D72*
X141940000Y-112270000D03*
D73*
X118010000Y-87900000D03*
X132380000Y-104350000D03*
X130940000Y-108420000D03*
X130900000Y-105770000D03*
D72*
X138680000Y-90020000D03*
X137900000Y-117180000D03*
X139900000Y-116210000D03*
D73*
X133560000Y-108200000D03*
X141840000Y-117190000D03*
D72*
X117290000Y-101480000D03*
D73*
X119270000Y-86800000D03*
X135020000Y-106820000D03*
D72*
X121410000Y-110510000D03*
X138770000Y-86180000D03*
D73*
X133700000Y-87260000D03*
D72*
X127760000Y-117110000D03*
X121730000Y-112440000D03*
D73*
X132100000Y-109520000D03*
D72*
X123470000Y-111890000D03*
X129305000Y-111355000D03*
D75*
X141770000Y-92260000D03*
D73*
X129540000Y-107170000D03*
D74*
X116760000Y-97890000D03*
D73*
X132210000Y-107000000D03*
D72*
X133710000Y-115040000D03*
D73*
X128730000Y-87090000D03*
D72*
X137980000Y-112270000D03*
X147030000Y-113920000D03*
D73*
%TO.N,5V0*%
X117640000Y-90960000D03*
D72*
X118640000Y-97590000D03*
D73*
X134710000Y-90280000D03*
D72*
%TO.N,Net-(Coffee1-Pad2)*%
X148230000Y-110420000D03*
%TO.N,CHIP_EN*%
X124690000Y-120990000D03*
X136483522Y-112023522D03*
D75*
X117450000Y-116730000D03*
D72*
%TO.N,ESP_GPIO0_BOOT-DTR*%
X125450000Y-119790000D03*
X135150000Y-111250000D03*
X129910000Y-112360000D03*
%TO.N,RXD0*%
X128120000Y-110852500D03*
X120850000Y-118060000D03*
%TO.N,GPIO8_I2C_SDA*%
X140670000Y-90390000D03*
X137420000Y-95410000D03*
X138476689Y-107750838D03*
X122620000Y-110170000D03*
%TO.N,GPIO9_I2C_SCL*%
X137510000Y-107800000D03*
X124220000Y-111630000D03*
X138400000Y-95370000D03*
X123840000Y-110000000D03*
X141810000Y-90750000D03*
%TO.N,Net-(ER2-Pad2)*%
X126870000Y-110920000D03*
X124310000Y-118500000D03*
%TO.N,SPICS1*%
X133890000Y-99500000D03*
X133420000Y-98440000D03*
%TO.N,IO06_COFFEE*%
X144570000Y-104550000D03*
X139380000Y-108550000D03*
%TO.N,IO07_MXD*%
X145640000Y-103920000D03*
X139469120Y-107649120D03*
%TO.N,IO10_MXCS*%
X138203042Y-106226500D03*
X144510000Y-103350000D03*
%TO.N,IO11_MXSK*%
X137450526Y-105710526D03*
X145071750Y-102491750D03*
%TO.N,IO34_LEDB*%
X125848220Y-102458220D03*
%TO.N,IO35_LEDG*%
X126490000Y-103290000D03*
%TO.N,IO36_LEDR*%
X125885000Y-104025000D03*
%TO.N,IO38_IMU_CS*%
X127650000Y-107830000D03*
X125700000Y-109800000D03*
%TO.N,IO12_NEXTX*%
X137680000Y-104890000D03*
%TO.N,IO13_NEXRX*%
X137700000Y-103960000D03*
%TO.N,IO14_H2O_LEVEL*%
X137170000Y-103243500D03*
%TO.N,Net-(CH340K1-Pad1)*%
X115320000Y-107910000D03*
%TO.N,Net-(CH340K1-Pad2)*%
X115530000Y-110240000D03*
D75*
%TO.N,IO02_BUZZER*%
X144080000Y-107660000D03*
D72*
X136380000Y-110530000D03*
%TO.N,IO01_DS18*%
X136082675Y-111332923D03*
%TO.N,IO04_H2O*%
X144680000Y-105960000D03*
X137163794Y-110136500D03*
%TO.N,IO05_GRINDER*%
X137960000Y-109730000D03*
X145610000Y-105250000D03*
%TO.N,Net-(EC50-Pad1)*%
X135343500Y-102540000D03*
X127060000Y-106210000D03*
%TO.N,Net-(EC51-Pad1)*%
X135980000Y-101660000D03*
X125670000Y-108980000D03*
%TD*%
D76*
%TO.N,GND*%
X154870000Y-107680000D02*
X154190000Y-107680000D01*
X155510000Y-108320000D02*
X154870000Y-107680000D01*
X155510000Y-108590000D02*
X155510000Y-108320000D01*
%TO.N,5V0*%
X119290000Y-96940000D02*
X118640000Y-97590000D01*
X120080000Y-96880000D02*
X120020000Y-96940000D01*
X120020000Y-96940000D02*
X119290000Y-96940000D01*
D77*
%TO.N,GND*%
X149500000Y-107680000D02*
X154190000Y-107680000D01*
%TO.N,IO02_BUZZER*%
X144080000Y-107660000D02*
X146950000Y-107660000D01*
D76*
%TO.N,IO05_GRINDER*%
X148350000Y-106780000D02*
X148350000Y-108450000D01*
X146820000Y-105250000D02*
X148350000Y-106780000D01*
X148350000Y-108450000D02*
X150010000Y-110110000D01*
X150010000Y-110110000D02*
X150520000Y-110110000D01*
X145610000Y-105250000D02*
X146820000Y-105250000D01*
%TO.N,IO04_H2O*%
X148001000Y-108139000D02*
X146480000Y-109660000D01*
X148001000Y-106924560D02*
X148001000Y-108139000D01*
X147036440Y-105960000D02*
X148001000Y-106924560D01*
X146480000Y-109660000D02*
X146480000Y-109947500D01*
X144680000Y-105960000D02*
X147036440Y-105960000D01*
%TO.N,Net-(ExtSW1-Pad3)*%
X147150000Y-110180000D02*
X147640000Y-109690000D01*
X146935000Y-111065000D02*
X147150000Y-110850000D01*
X146190000Y-111065000D02*
X146935000Y-111065000D01*
X147150000Y-110850000D02*
X147150000Y-110180000D01*
%TO.N,Net-(Coffee1-Pad2)*%
X151570000Y-112160000D02*
X152260000Y-112850000D01*
X148230000Y-110420000D02*
X148230000Y-111870000D01*
X148230000Y-111870000D02*
X148520000Y-112160000D01*
X148520000Y-112160000D02*
X151570000Y-112160000D01*
%TO.N,Net-(ExtSW1-Pad1)*%
X149000000Y-111170000D02*
X150270000Y-111170000D01*
%TO.N,IO06_COFFEE*%
X146690000Y-104550000D02*
X144570000Y-104550000D01*
X147264000Y-105124000D02*
X146690000Y-104550000D01*
X151734000Y-105124000D02*
X147264000Y-105124000D01*
X154470000Y-106220000D02*
X152830000Y-106220000D01*
X152830000Y-106220000D02*
X151734000Y-105124000D01*
X157334560Y-109071000D02*
X157321000Y-109071000D01*
X158080000Y-109816440D02*
X157334560Y-109071000D01*
X157321000Y-109071000D02*
X154470000Y-106220000D01*
X158080000Y-111440000D02*
X158080000Y-109816440D01*
X157020000Y-112500000D02*
X158080000Y-111440000D01*
X154197500Y-112500000D02*
X157020000Y-112500000D01*
D77*
%TO.N,*%
X152045000Y-100170000D02*
X148575000Y-100170000D01*
D78*
%TO.N,GND*%
X157960000Y-98400000D02*
X158500000Y-98940000D01*
X158500000Y-98940000D02*
X158500000Y-113110000D01*
X155350000Y-98400000D02*
X157960000Y-98400000D01*
X154520000Y-97570000D02*
X155350000Y-98400000D01*
X158500000Y-113110000D02*
X156470000Y-115140000D01*
X154520000Y-96945000D02*
X154520000Y-97570000D01*
D76*
%TO.N,Net-(MAX66751-Pad2)*%
X152784560Y-98401000D02*
X152349000Y-97965440D01*
X155530000Y-99270000D02*
X154661000Y-98401000D01*
X154661000Y-98401000D02*
X152784560Y-98401000D01*
X152349000Y-97965440D02*
X152349000Y-95799000D01*
%TO.N,Net-(MAX66751-Pad3)*%
X152640000Y-98750000D02*
X153590000Y-98750000D01*
X154290000Y-99450000D02*
X154290000Y-99835000D01*
X152000000Y-98110000D02*
X152640000Y-98750000D01*
X153590000Y-98750000D02*
X154290000Y-99450000D01*
X152000000Y-94566440D02*
X152000000Y-98110000D01*
X155695000Y-100360000D02*
X156785000Y-99270000D01*
X155085000Y-99835000D02*
X155610000Y-100360000D01*
X155610000Y-100360000D02*
X155695000Y-100360000D01*
X154290000Y-99835000D02*
X155085000Y-99835000D01*
%TO.N,3V3*%
X154193948Y-101485000D02*
X153504474Y-102174474D01*
X154290000Y-101485000D02*
X154193948Y-101485000D01*
%TO.N,IO14_H2O_LEVEL*%
X149450000Y-102820000D02*
X148820000Y-102190000D01*
X155485000Y-102820000D02*
X149450000Y-102820000D01*
X155825000Y-102480000D02*
X155485000Y-102820000D01*
%TO.N,3V3*%
X146680000Y-89230000D02*
X145940000Y-89970000D01*
X157370000Y-89230000D02*
X146680000Y-89230000D01*
X157760000Y-89620000D02*
X157370000Y-89230000D01*
X157760000Y-89970000D02*
X157760000Y-89620000D01*
D79*
%TO.N,GND*%
X157960000Y-92610000D02*
X156805000Y-93765000D01*
X157960000Y-91870000D02*
X157960000Y-92610000D01*
X156805000Y-93765000D02*
X155940000Y-93765000D01*
D76*
%TO.N,Net-(MAX66751-Pad3)*%
X154200000Y-91580000D02*
X154200000Y-92366440D01*
X154555000Y-91225000D02*
X154200000Y-91580000D01*
X155940000Y-91225000D02*
X154555000Y-91225000D01*
X154200000Y-92366440D02*
X152000000Y-94566440D01*
X152000000Y-94566440D02*
X152000000Y-94830000D01*
%TO.N,Net-(MAX66751-Pad2)*%
X154550000Y-92510000D02*
X152349000Y-94711000D01*
X152349000Y-94711000D02*
X152349000Y-95799000D01*
X155720000Y-92510000D02*
X154550000Y-92510000D01*
X153430000Y-95855000D02*
X152405000Y-95855000D01*
X152405000Y-95855000D02*
X152349000Y-95799000D01*
%TO.N,GND*%
X154490000Y-96975000D02*
X153430000Y-96975000D01*
X154520000Y-96945000D02*
X154490000Y-96975000D01*
D78*
X154520000Y-94080000D02*
X154520000Y-96945000D01*
X154820000Y-93780000D02*
X154520000Y-94080000D01*
X155720000Y-93780000D02*
X154820000Y-93780000D01*
D76*
%TO.N,IO14_H2O_LEVEL*%
X155850000Y-101745000D02*
X155850000Y-102397500D01*
X156765000Y-100830000D02*
X155850000Y-101745000D01*
D79*
%TO.N,3V3*%
X157100000Y-103460000D02*
X157100000Y-104750000D01*
X157475000Y-103085000D02*
X157100000Y-103460000D01*
X157475000Y-102480000D02*
X157475000Y-103085000D01*
D76*
%TO.N,IO11_MXSK*%
X147505000Y-89955000D02*
X148640000Y-89955000D01*
X146791000Y-90669000D02*
X147505000Y-89955000D01*
X146791000Y-100772500D02*
X146791000Y-90669000D01*
X145071750Y-102491750D02*
X146791000Y-100772500D01*
%TO.N,IO10_MXCS*%
X147575000Y-91225000D02*
X148640000Y-91225000D01*
X147140000Y-91660000D02*
X147575000Y-91225000D01*
X147140000Y-101630000D02*
X147140000Y-91660000D01*
X145420000Y-103350000D02*
X147140000Y-101630000D01*
X144510000Y-103350000D02*
X145420000Y-103350000D01*
%TO.N,IO07_MXD*%
X147489000Y-92966000D02*
X147750000Y-92705000D01*
X145640000Y-103920000D02*
X147489000Y-102071000D01*
X147489000Y-102071000D02*
X147489000Y-92966000D01*
D80*
%TO.N,Net-(ANT1-Pad1)*%
X134647500Y-119720000D02*
X132140000Y-119720000D01*
X132140000Y-119720000D02*
X131830000Y-120030000D01*
D78*
%TO.N,GND*%
X156470000Y-115140000D02*
X154890000Y-116720000D01*
D81*
X154752500Y-111320000D02*
X156740000Y-111320000D01*
X156740000Y-111320000D02*
X156790000Y-111270000D01*
%TO.N,Net-(WaterLevel1-Pad1)*%
X147980000Y-104750000D02*
X147370000Y-104140000D01*
X154125000Y-104750000D02*
X147980000Y-104750000D01*
D78*
%TO.N,GND*%
X154890000Y-116720000D02*
X152620000Y-116720000D01*
D81*
%TO.N,3V3*%
X157100000Y-105700000D02*
X156350000Y-106450000D01*
X157100000Y-104750000D02*
X157100000Y-105700000D01*
D77*
X120235000Y-89610000D02*
X121885000Y-89610000D01*
D81*
X123340000Y-113337500D02*
X123340000Y-112630000D01*
D76*
X120070000Y-92130000D02*
X120390000Y-91810000D01*
X138800000Y-89090000D02*
X138470000Y-89090000D01*
D79*
X120160000Y-116280000D02*
X120160000Y-113850000D01*
D82*
X140620000Y-102090000D02*
X140260000Y-101730000D01*
D77*
X120060000Y-91480000D02*
X120390000Y-91810000D01*
D82*
X138822500Y-113087500D02*
X138822500Y-113170000D01*
D76*
X131744955Y-111166263D02*
X131733737Y-111166263D01*
D82*
X140720000Y-104750000D02*
X140640000Y-104670000D01*
D76*
X120070000Y-93560000D02*
X120070000Y-92130000D01*
X141780000Y-87540000D02*
X142370000Y-88130000D01*
D78*
X117970000Y-104380000D02*
X118830000Y-105240000D01*
D82*
X140370000Y-111715000D02*
X140370000Y-110990000D01*
D79*
X142741000Y-110341000D02*
X142741000Y-115601000D01*
D78*
X117670000Y-104380000D02*
X117970000Y-104380000D01*
D76*
X145490000Y-121620000D02*
X145490000Y-119317500D01*
D78*
X118170000Y-110150000D02*
X118620000Y-110600000D01*
D79*
X143190000Y-116170000D02*
X143190000Y-117390000D01*
D82*
X132130000Y-115965000D02*
X132130000Y-114255000D01*
X140370000Y-110990000D02*
X140615000Y-110745000D01*
D76*
X141400000Y-87540000D02*
X141780000Y-87540000D01*
D79*
X136645000Y-102295000D02*
X136341500Y-102598500D01*
D76*
X141279490Y-85300510D02*
X141120000Y-85460000D01*
D78*
X118830000Y-105240000D02*
X118830000Y-106450000D01*
D76*
X135476466Y-105173534D02*
X136330000Y-104320000D01*
D79*
X131550000Y-112110000D02*
X132090000Y-112110000D01*
X145070000Y-119270000D02*
X145537500Y-119270000D01*
D76*
X135987500Y-86957500D02*
X135987500Y-86162500D01*
X136880000Y-86957500D02*
X136900000Y-86937500D01*
X141120000Y-87260000D02*
X141400000Y-87540000D01*
D79*
X117970000Y-104230000D02*
X118750000Y-104230000D01*
D81*
X124820000Y-113337500D02*
X125050000Y-113107500D01*
D82*
X139140000Y-106580000D02*
X139460000Y-106260000D01*
D79*
X120160000Y-113850000D02*
X119660000Y-113350000D01*
X119660000Y-113350000D02*
X119660000Y-112750000D01*
D76*
X138470000Y-89090000D02*
X137610000Y-89950000D01*
D82*
X140720000Y-109475000D02*
X140615000Y-109580000D01*
X140720000Y-106260000D02*
X140720000Y-104750000D01*
D76*
X142020000Y-89340000D02*
X139000000Y-89340000D01*
D78*
X140380000Y-100760000D02*
X140400000Y-100780000D01*
D82*
X140620000Y-102760000D02*
X140620000Y-102090000D01*
D76*
X135474944Y-105173534D02*
X135476466Y-105173534D01*
D79*
X143190000Y-117390000D02*
X145070000Y-119270000D01*
D76*
X119801000Y-119561000D02*
X119801000Y-120071000D01*
D79*
X136341500Y-103868500D02*
X136330000Y-103880000D01*
D82*
X140620000Y-104650000D02*
X140640000Y-104670000D01*
D79*
X136341500Y-102598500D02*
X136341500Y-103868500D01*
D83*
X120110000Y-89320000D02*
X120110000Y-87410000D01*
D81*
X122760000Y-113270000D02*
X122760000Y-114350000D01*
D76*
X135987500Y-86957500D02*
X136880000Y-86957500D01*
D79*
X142390000Y-109990000D02*
X142741000Y-110341000D01*
D82*
X140615000Y-110745000D02*
X140615000Y-109580000D01*
D76*
X139000000Y-89340000D02*
X138750000Y-89090000D01*
X141755036Y-85300510D02*
X141279490Y-85300510D01*
X135050000Y-86957500D02*
X135987500Y-86957500D01*
X119801000Y-120071000D02*
X121103500Y-121373500D01*
D79*
X142770000Y-94980000D02*
X142770000Y-96480000D01*
D81*
X129199371Y-108620679D02*
X129189321Y-108620679D01*
D77*
X120060000Y-89620000D02*
X120060000Y-91480000D01*
D82*
X132070000Y-112165000D02*
X132070000Y-113975000D01*
D81*
X123340000Y-113337500D02*
X124820000Y-113337500D01*
D79*
X142770000Y-96480000D02*
X142390000Y-96860000D01*
D76*
X157760000Y-89970000D02*
X157760000Y-89580000D01*
D82*
X140720000Y-106260000D02*
X140720000Y-109475000D01*
D83*
X121750000Y-85770000D02*
X123117500Y-85770000D01*
D79*
X132080000Y-111510654D02*
X132080000Y-112149346D01*
D82*
X140260000Y-101730000D02*
X140260000Y-100770000D01*
D81*
X122840000Y-113337500D02*
X123340000Y-113337500D01*
D76*
X142370000Y-88130000D02*
X142370000Y-88990000D01*
D82*
X140370000Y-111626250D02*
X138822500Y-113173750D01*
D76*
X121103500Y-121373500D02*
X122388500Y-121373500D01*
D79*
X137150000Y-102295000D02*
X136645000Y-102295000D01*
D78*
X140710000Y-98615000D02*
X140725000Y-98600000D01*
D82*
X139790000Y-105930000D02*
X139140000Y-106580000D01*
D83*
X120110000Y-87410000D02*
X121750000Y-85770000D01*
D78*
X118620000Y-110600000D02*
X119380000Y-110600000D01*
D76*
X142370000Y-88990000D02*
X142020000Y-89340000D01*
X131733737Y-111166263D02*
X131380000Y-111520000D01*
X131380000Y-111980000D02*
X131500000Y-112100000D01*
D78*
X126720000Y-108830000D02*
X126900000Y-109010000D01*
D76*
X141120000Y-85460000D02*
X141120000Y-87260000D01*
X126640000Y-108830000D02*
X126720000Y-108830000D01*
D82*
X140420000Y-101760000D02*
X140890000Y-101760000D01*
D79*
X142390000Y-96860000D02*
X142390000Y-109990000D01*
D81*
X125050000Y-113107500D02*
X125050000Y-112475000D01*
D76*
X136330000Y-104320000D02*
X136330000Y-103880000D01*
D78*
X140600000Y-100812500D02*
X140600000Y-98667500D01*
D76*
X131380000Y-111520000D02*
X131380000Y-111980000D01*
D79*
X155940000Y-89955000D02*
X157945000Y-89955000D01*
D78*
X118170000Y-107110000D02*
X118170000Y-110150000D01*
D83*
X126610000Y-108990000D02*
X127870000Y-108990000D01*
D76*
X127861178Y-108982982D02*
X128827018Y-108982982D01*
X145490000Y-119317500D02*
X145537500Y-119270000D01*
X135987500Y-86162500D02*
X136030000Y-86120000D01*
D79*
X142741000Y-115601000D02*
X143160000Y-116020000D01*
D78*
X118830000Y-106450000D02*
X118170000Y-107110000D01*
D79*
X157945000Y-89955000D02*
X157960000Y-89970000D01*
D76*
X128827018Y-108982982D02*
X129189321Y-108620679D01*
D82*
X140070000Y-105930000D02*
X139790000Y-105930000D01*
X132430000Y-113760000D02*
X132360000Y-113830000D01*
D76*
X122388500Y-121373500D02*
X123275000Y-122260000D01*
D82*
X140620000Y-102760000D02*
X140620000Y-104650000D01*
X139460000Y-106260000D02*
X140720000Y-106260000D01*
D76*
%TO.N,Net-(ExtSW1-Pad1)*%
X150520000Y-111230000D02*
X151390000Y-111230000D01*
X154030000Y-110370000D02*
X156627500Y-110370000D01*
X151390000Y-111230000D02*
X152030000Y-110590000D01*
X153810000Y-110590000D02*
X154030000Y-110370000D01*
X152030000Y-110590000D02*
X153810000Y-110590000D01*
%TO.N,Net-(ExtSW1-Pad3)*%
X145770000Y-111165000D02*
X145770000Y-111990000D01*
X145770000Y-113830000D02*
X145770000Y-111940000D01*
D79*
%TO.N,GND*%
X134070000Y-115040000D02*
X134110000Y-115000000D01*
D83*
X134060000Y-115970000D02*
X134320000Y-115970000D01*
D81*
X130613585Y-110046415D02*
X128530000Y-112130000D01*
D79*
X130380000Y-117170000D02*
X121850000Y-117170000D01*
X147027500Y-112880000D02*
X147027500Y-113917500D01*
D81*
X141870000Y-110100000D02*
X141820000Y-110150000D01*
X136210000Y-99805000D02*
X136210000Y-95170000D01*
D79*
X121700000Y-113540000D02*
X121700000Y-115650000D01*
D76*
X123870000Y-112498750D02*
X123870000Y-112290000D01*
D79*
X120310000Y-104540000D02*
X121710000Y-104540000D01*
D78*
X138720000Y-102760000D02*
X138720000Y-102510000D01*
D81*
X121710000Y-95320000D02*
X121690000Y-95300000D01*
D76*
X138680000Y-87260000D02*
X138750000Y-87190000D01*
D81*
X121740000Y-114530000D02*
X121740000Y-114620000D01*
D79*
X133710000Y-115040000D02*
X134070000Y-115040000D01*
D76*
X138800000Y-87190000D02*
X138800000Y-86260000D01*
D79*
X138575000Y-100745000D02*
X138600000Y-100770000D01*
X143390000Y-118740000D02*
X143390000Y-122530000D01*
D81*
X135160000Y-96590000D02*
X135160000Y-95210000D01*
X134650000Y-117170000D02*
X121850000Y-117170000D01*
D76*
X138770000Y-86230000D02*
X138770000Y-86180000D01*
D79*
X134050000Y-116010000D02*
X134060000Y-116020000D01*
D76*
X123784000Y-112204000D02*
X123470000Y-111890000D01*
D79*
X136935000Y-92235000D02*
X136940000Y-92230000D01*
D76*
X138150000Y-85560000D02*
X134690000Y-85560000D01*
D83*
X130040000Y-85670000D02*
X129432500Y-85670000D01*
D81*
X121710000Y-105350000D02*
X121710000Y-104540000D01*
X121740000Y-117060000D02*
X121830000Y-117150000D01*
X132630000Y-109479949D02*
X132630000Y-108629949D01*
D80*
X134070000Y-115900000D02*
X134050000Y-115920000D01*
D77*
X115272500Y-87390000D02*
X115272500Y-87982500D01*
D79*
X141820000Y-113870000D02*
X141820000Y-116650000D01*
X117670000Y-102480000D02*
X117310000Y-102120000D01*
D83*
X132375000Y-87260000D02*
X133700000Y-87260000D01*
D79*
X128630000Y-92170000D02*
X131710000Y-92170000D01*
D76*
X122830000Y-105650000D02*
X121710000Y-105650000D01*
D81*
X136210000Y-95170000D02*
X136260000Y-95120000D01*
D79*
X121700000Y-109760000D02*
X121700000Y-110950000D01*
D81*
X121780000Y-113460000D02*
X121700000Y-113540000D01*
X121670000Y-110410000D02*
X121670000Y-108810000D01*
D79*
X121710000Y-92170000D02*
X123540000Y-92170000D01*
D78*
X140200000Y-92160000D02*
X140190000Y-92170000D01*
D79*
X141150000Y-92170000D02*
X141770000Y-92170000D01*
D81*
X121670000Y-112200000D02*
X121700000Y-112230000D01*
X121670000Y-104830000D02*
X121760000Y-104740000D01*
X130490000Y-116020000D02*
X130490000Y-117060000D01*
D76*
X125030000Y-107450000D02*
X124630000Y-107450000D01*
D79*
X131710000Y-92170000D02*
X136540000Y-92170000D01*
D76*
X138770000Y-86180000D02*
X138150000Y-85560000D01*
X125100000Y-107250000D02*
X126380000Y-107250000D01*
D79*
X113240000Y-108360000D02*
X113240000Y-112300000D01*
D81*
X121740000Y-115130000D02*
X121740000Y-117060000D01*
D78*
X138720000Y-104650000D02*
X138740000Y-104670000D01*
D79*
X121700000Y-110950000D02*
X121700000Y-112230000D01*
X140110000Y-117190000D02*
X137620000Y-117190000D01*
X138720000Y-102760000D02*
X138720000Y-104650000D01*
D76*
X142093560Y-89760000D02*
X139150000Y-89760000D01*
D77*
X116931310Y-89531310D02*
X116380000Y-88980000D01*
D76*
X133700000Y-86550000D02*
X133700000Y-87260000D01*
D79*
X139970000Y-115080000D02*
X139970000Y-116230000D01*
D81*
X130780000Y-116060000D02*
X130270000Y-116060000D01*
X121880000Y-117190000D02*
X134630000Y-117190000D01*
D76*
X123870000Y-112290000D02*
X123470000Y-111890000D01*
X122930000Y-105550000D02*
X122830000Y-105650000D01*
D79*
X127520000Y-92170000D02*
X128630000Y-92170000D01*
D76*
X121760000Y-108790000D02*
X121760000Y-112150000D01*
D79*
X141820000Y-112050000D02*
X141820000Y-112960000D01*
X120050000Y-103800000D02*
X120050000Y-104540000D01*
D76*
X141885546Y-86790000D02*
X142500000Y-86790000D01*
D83*
X132397500Y-86980000D02*
X131362500Y-86980000D01*
D79*
X141800000Y-92140000D02*
X141750000Y-92190000D01*
X141820000Y-112050000D02*
X141820000Y-102470000D01*
X113240000Y-109300000D02*
X113240000Y-108360000D01*
D81*
X121740000Y-114620000D02*
X121760000Y-114640000D01*
D78*
X136915000Y-94465000D02*
X136260000Y-95120000D01*
D79*
X141780000Y-109300000D02*
X141820000Y-109340000D01*
X126808000Y-116264000D02*
X126808000Y-116526500D01*
X138600000Y-102640000D02*
X138720000Y-102760000D01*
D81*
X120050000Y-104540000D02*
X120310000Y-104540000D01*
X130490000Y-117060000D02*
X130380000Y-117170000D01*
D76*
X122230000Y-109080000D02*
X121760000Y-109550000D01*
D79*
X117480000Y-105860000D02*
X114020000Y-105860000D01*
X134020000Y-117170000D02*
X130380000Y-117170000D01*
D76*
X134690000Y-85560000D02*
X133700000Y-86550000D01*
D79*
X150737500Y-112840000D02*
X147067500Y-112840000D01*
X141820000Y-112960000D02*
X141820000Y-113870000D01*
X126808000Y-117057500D02*
X126808000Y-115570000D01*
X114020000Y-105860000D02*
X114000000Y-105840000D01*
D78*
X135130000Y-95180000D02*
X136200000Y-95180000D01*
X136200000Y-95180000D02*
X136260000Y-95120000D01*
D79*
X126808000Y-114994000D02*
X126808000Y-116264000D01*
D81*
X137150000Y-100745000D02*
X136210000Y-99805000D01*
D79*
X141850000Y-92175000D02*
X141850000Y-92825000D01*
X140190000Y-92170000D02*
X141150000Y-92170000D01*
D81*
X130320000Y-117230000D02*
X130380000Y-117170000D01*
D79*
X144020000Y-123160000D02*
X149540000Y-123160000D01*
D78*
X136915000Y-93660000D02*
X136915000Y-94465000D01*
D76*
X139150000Y-89760000D02*
X138740000Y-90170000D01*
D79*
X121700000Y-115650000D02*
X121700000Y-115850000D01*
D83*
X139970000Y-113840000D02*
X140370000Y-113440000D01*
D81*
X121660000Y-115050000D02*
X121740000Y-115130000D01*
X121710000Y-105650000D02*
X121710000Y-105350000D01*
D76*
X124360000Y-112230000D02*
X124334000Y-112204000D01*
D79*
X134200000Y-117170000D02*
X134020000Y-117170000D01*
D76*
X122930000Y-104030000D02*
X122930000Y-105550000D01*
D81*
X137150000Y-100800000D02*
X137150000Y-100745000D01*
X132920000Y-108629949D02*
X132630000Y-108629949D01*
D79*
X127592498Y-88790000D02*
X128707501Y-88790000D01*
D83*
X118020000Y-89180000D02*
X118020000Y-87960000D01*
D77*
X115551250Y-88161250D02*
X116928750Y-89538750D01*
D81*
X135200000Y-95180000D02*
X135200000Y-95200000D01*
D76*
X140230000Y-117310000D02*
X140110000Y-117190000D01*
D79*
X141840000Y-117190000D02*
X143390000Y-118740000D01*
D81*
X121710000Y-110480000D02*
X121710000Y-105650000D01*
D76*
X121760000Y-112150000D02*
X121780000Y-112170000D01*
D79*
X121700000Y-117020000D02*
X121830000Y-117150000D01*
D77*
X117870000Y-89540000D02*
X116950000Y-89540000D01*
D80*
X140230000Y-119480000D02*
X140230000Y-117310000D01*
D81*
X121710000Y-104540000D02*
X121710000Y-95320000D01*
D76*
X124840000Y-107330000D02*
X123040000Y-105530000D01*
X124334000Y-112204000D02*
X123784000Y-112204000D01*
D80*
X134110000Y-115000000D02*
X134110000Y-115890000D01*
D83*
X131082500Y-86700000D02*
X131070000Y-86700000D01*
D79*
X117670000Y-102655000D02*
X118905000Y-102655000D01*
X141840000Y-117190000D02*
X140110000Y-117190000D01*
X123540000Y-92170000D02*
X127010000Y-92170000D01*
D81*
X128410000Y-117230000D02*
X130320000Y-117230000D01*
D79*
X139970000Y-116230000D02*
X139930000Y-116270000D01*
D76*
X138800000Y-86260000D02*
X138770000Y-86230000D01*
X142720000Y-86260546D02*
X142720000Y-89133560D01*
X142930036Y-86050510D02*
X142720000Y-86260546D01*
D83*
X115220000Y-87440000D02*
X115560000Y-87440000D01*
D81*
X121670000Y-108810000D02*
X121670000Y-104830000D01*
D83*
X131362500Y-86980000D02*
X131082500Y-86700000D01*
D81*
X158100000Y-91870000D02*
X157760000Y-91870000D01*
X128530000Y-112130000D02*
X128530000Y-112470000D01*
D79*
X136540000Y-92170000D02*
X140190000Y-92170000D01*
D76*
X142680036Y-86300510D02*
X142930036Y-86050510D01*
D79*
X137900000Y-117230000D02*
X136480000Y-117230000D01*
X150490000Y-122210000D02*
X150490000Y-121620000D01*
D81*
X121735000Y-116170000D02*
X126714000Y-116170000D01*
D76*
X143292773Y-86320000D02*
X143907227Y-86320000D01*
X117810000Y-87825000D02*
X117810000Y-86875000D01*
D83*
X118150000Y-87890000D02*
X119630000Y-86410000D01*
D79*
X141820000Y-102470000D02*
X141820000Y-101910000D01*
D76*
X142720000Y-89133560D02*
X142093560Y-89760000D01*
D81*
X134630000Y-117190000D02*
X134650000Y-117170000D01*
X121680000Y-110930000D02*
X121700000Y-110950000D01*
D83*
X139970000Y-115080000D02*
X139970000Y-113840000D01*
D79*
X134650000Y-117170000D02*
X134200000Y-117170000D01*
X141820000Y-116650000D02*
X141820000Y-117170000D01*
X118905000Y-102655000D02*
X120050000Y-103800000D01*
X121700000Y-115850000D02*
X121700000Y-117020000D01*
D78*
X141820000Y-102820000D02*
X141820000Y-104700000D01*
D79*
X147027500Y-113917500D02*
X147030000Y-113920000D01*
X113240000Y-112300000D02*
X114000000Y-113060000D01*
X126250000Y-117190000D02*
X122120000Y-117190000D01*
X149540000Y-123160000D02*
X150490000Y-122210000D01*
X141790000Y-112930000D02*
X141820000Y-112960000D01*
X113240000Y-106630000D02*
X113940000Y-105930000D01*
D81*
X126714000Y-116170000D02*
X126808000Y-116264000D01*
D79*
X113240000Y-108360000D02*
X113240000Y-106630000D01*
D81*
X130613585Y-110034893D02*
X130613585Y-110046415D01*
D79*
X121760000Y-92210000D02*
X121760000Y-95970000D01*
D76*
X123680000Y-112100000D02*
X123470000Y-111890000D01*
D81*
X135360000Y-109640000D02*
X133077899Y-107357899D01*
D80*
X134110000Y-114050000D02*
X134110000Y-115000000D01*
D79*
X132920000Y-118126573D02*
X132920000Y-117213427D01*
D78*
X139835431Y-92061423D02*
X139825431Y-92071423D01*
D79*
X136935000Y-92615000D02*
X136935000Y-93707500D01*
D76*
X115737500Y-98170000D02*
X116017500Y-97890000D01*
D83*
X131070000Y-86700000D02*
X130040000Y-85670000D01*
D76*
X141755036Y-86300510D02*
X142680036Y-86300510D01*
D79*
X147067500Y-112840000D02*
X147027500Y-112880000D01*
D81*
X128790000Y-111870000D02*
X128637500Y-111870000D01*
X121850000Y-117170000D02*
X121830000Y-117150000D01*
D79*
X128210000Y-117190000D02*
X126250000Y-117190000D01*
X128210000Y-117190000D02*
X122020000Y-117190000D01*
X141770000Y-92170000D02*
X141800000Y-92140000D01*
X138600000Y-100770000D02*
X138600000Y-102640000D01*
X138670000Y-111580000D02*
X137980000Y-112270000D01*
X141820000Y-109340000D02*
X141820000Y-110150000D01*
X141820000Y-117170000D02*
X141840000Y-117190000D01*
X143390000Y-122530000D02*
X144020000Y-123160000D01*
X121700000Y-112230000D02*
X121700000Y-113540000D01*
D81*
X135160000Y-95210000D02*
X135130000Y-95180000D01*
D76*
X116017500Y-97890000D02*
X116760000Y-97890000D01*
D79*
X137150000Y-100745000D02*
X138575000Y-100745000D01*
X136935000Y-93707500D02*
X136935000Y-92235000D01*
X117280000Y-102110000D02*
X117280000Y-101530000D01*
D81*
X136790000Y-101040000D02*
X137250000Y-101040000D01*
X130450000Y-110190000D02*
X132454944Y-108185056D01*
X121740000Y-114530000D02*
X121740000Y-115130000D01*
X117670000Y-102480000D02*
X117670000Y-102655000D01*
D79*
X127010000Y-92170000D02*
X127520000Y-92170000D01*
D76*
X122900000Y-109080000D02*
X122230000Y-109080000D01*
X124360000Y-112610000D02*
X124360000Y-112230000D01*
D79*
X113240000Y-109600000D02*
X113980000Y-109600000D01*
%TO.N,5V0*%
X143500000Y-96460000D02*
X143500000Y-94470000D01*
D83*
X117557500Y-91092500D02*
X117760000Y-90890000D01*
D79*
X145120000Y-116720000D02*
X145120000Y-116690000D01*
X135829000Y-91399000D02*
X134710000Y-90280000D01*
X143500000Y-94470000D02*
X142710000Y-93680000D01*
X142710000Y-92030175D02*
X142078825Y-91399000D01*
X131515000Y-89075000D02*
X131515000Y-89668753D01*
X145120000Y-116690000D02*
X143240000Y-114810000D01*
X131600000Y-89160000D02*
X131515000Y-89075000D01*
D83*
X130240000Y-87870000D02*
X130905000Y-87870000D01*
D79*
X142930000Y-97030000D02*
X143500000Y-96460000D01*
D83*
X117557500Y-92740000D02*
X117557500Y-91092500D01*
X132375000Y-89280000D02*
X133710000Y-89280000D01*
D79*
X131270006Y-87870006D02*
X130642500Y-87870006D01*
X142930000Y-109770000D02*
X142930000Y-97030000D01*
X142078825Y-91399000D02*
X135829000Y-91399000D01*
X142710000Y-93680000D02*
X142710000Y-92030175D01*
X143240000Y-114810000D02*
X143240000Y-110080000D01*
D83*
X134280000Y-89850000D02*
X134710000Y-90280000D01*
D79*
X143240000Y-110080000D02*
X142930000Y-109770000D01*
X131515000Y-88115000D02*
X131270006Y-87870006D01*
D84*
X130540000Y-88830000D02*
X131911246Y-88830000D01*
D79*
X131515000Y-89075000D02*
X131515000Y-88115000D01*
X132375000Y-89160000D02*
X131600000Y-89160000D01*
X131515000Y-89668753D02*
X131438747Y-89745006D01*
D83*
X133710000Y-89280000D02*
X134280000Y-89850000D01*
D79*
X131438747Y-89745006D02*
X130647500Y-89745006D01*
D76*
%TO.N,Net-(Coffee1-Pad2)*%
X152080000Y-113270000D02*
X152145000Y-113205000D01*
X152145000Y-113205000D02*
X152260000Y-113090000D01*
X148862500Y-113790000D02*
X151560000Y-113790000D01*
X152260000Y-112850000D02*
X152500000Y-112850000D01*
X152145000Y-113205000D02*
X152420000Y-112930000D01*
X151560000Y-113790000D02*
X152080000Y-113270000D01*
X152420000Y-112930000D02*
X152500000Y-112850000D01*
X152500000Y-112850000D02*
X153155000Y-112850000D01*
X152260000Y-113090000D02*
X152260000Y-112850000D01*
X152580000Y-112850000D02*
X153155000Y-112850000D01*
X153155000Y-112850000D02*
X153155000Y-112625000D01*
D83*
%TO.N,Net-(AR1-Pad2)*%
X127365000Y-87860000D02*
X127365000Y-87639138D01*
D84*
X127275000Y-85860000D02*
X126370000Y-85860000D01*
D83*
X127365000Y-87639138D02*
X126370000Y-86644138D01*
D84*
X126370000Y-85860000D02*
X125125000Y-85860000D01*
D83*
X126370000Y-86644138D02*
X126370000Y-85900000D01*
D81*
%TO.N,Net-(EC12-Pad1)*%
X131000000Y-112794272D02*
X130618000Y-113176272D01*
X131000000Y-111820000D02*
X131000000Y-112794272D01*
X131000000Y-111345534D02*
X131462113Y-110883421D01*
X130618000Y-113902000D02*
X130570000Y-113950000D01*
X128870000Y-114330000D02*
X128530000Y-114670000D01*
X130618000Y-113176272D02*
X130618000Y-113902000D01*
X131000000Y-112030000D02*
X131000000Y-111820000D01*
X130300000Y-114330000D02*
X128870000Y-114330000D01*
X131000000Y-111820000D02*
X131000000Y-111345534D01*
D79*
X130320000Y-114140000D02*
X130320000Y-114120000D01*
D81*
X130310000Y-114340000D02*
X130300000Y-114330000D01*
D76*
%TO.N,Net-(EC20-Pad1)*%
X133495045Y-111166263D02*
X133496263Y-111166263D01*
D79*
X135217107Y-112530000D02*
X135660393Y-112530000D01*
X136013947Y-112676447D02*
X136497500Y-113160000D01*
D76*
X134200000Y-111300000D02*
X134200000Y-111720000D01*
X133496263Y-111166263D02*
X134050000Y-111720000D01*
X133783421Y-110883421D02*
X134200000Y-111300000D01*
D79*
X136623750Y-113207500D02*
X138076250Y-114660000D01*
D76*
X134050000Y-111720000D02*
X134200000Y-111720000D01*
X133777887Y-110883421D02*
X133783421Y-110883421D01*
D79*
X136697500Y-113170000D02*
X136697500Y-113207500D01*
D76*
X134200000Y-111720000D02*
X134525000Y-112045000D01*
D79*
X134685000Y-112205000D02*
X134863554Y-112383554D01*
X134525000Y-112045000D02*
X134685000Y-112205000D01*
X135660393Y-112530005D02*
G75*
G02*
X136013947Y-112676447I7J-499995D01*
G01*
X135217107Y-112529995D02*
G75*
G02*
X134863554Y-112383554I-7J499995D01*
G01*
D81*
%TO.N,VDD_SPI*%
X134136000Y-94104000D02*
X134136000Y-98446000D01*
X132027798Y-102910792D02*
X132199208Y-102910792D01*
X134905000Y-93680000D02*
X134560000Y-93680000D01*
X134560000Y-93680000D02*
X134136000Y-94104000D01*
X133250000Y-99420000D02*
X134180000Y-98490000D01*
X132199208Y-102910792D02*
X133250000Y-101860000D01*
X134360000Y-98490000D02*
X135160000Y-98490000D01*
X134136000Y-98446000D02*
X134180000Y-98490000D01*
X135140000Y-93340000D02*
X135200000Y-93280000D01*
X133250000Y-101860000D02*
X133250000Y-99420000D01*
X134180000Y-98490000D02*
X134360000Y-98490000D01*
%TO.N,Net-(EC38-Pad1)*%
X133825000Y-112065000D02*
X133915000Y-112155000D01*
X133212202Y-111452202D02*
X133825000Y-112065000D01*
X133915000Y-112155000D02*
X134090000Y-112330000D01*
D80*
X136156054Y-118506054D02*
X135776447Y-118126447D01*
X135170000Y-113617107D02*
X135170000Y-114212893D01*
X138330000Y-119480000D02*
X136332500Y-119480000D01*
D81*
X133212202Y-111449106D02*
X133212202Y-111452202D01*
D80*
X134345000Y-112585000D02*
X133915000Y-112155000D01*
X134345000Y-112585000D02*
X134090000Y-112330000D01*
X134345000Y-112585000D02*
X135023554Y-113263554D01*
X135316447Y-114566447D02*
X135483554Y-114733554D01*
X136302500Y-119510000D02*
X136302500Y-118859607D01*
X135630000Y-117772893D02*
X135630000Y-115087107D01*
D76*
X134345000Y-112585000D02*
X133825000Y-112065000D01*
D80*
X136156057Y-118506051D02*
G75*
G02*
X136302500Y-118859607I-353557J-353549D01*
G01*
X135170005Y-114212893D02*
G75*
G03*
X135316447Y-114566447I499995J-7D01*
G01*
X135629995Y-115087107D02*
G75*
G03*
X135483554Y-114733554I-499995J7D01*
G01*
X135169995Y-113617107D02*
G75*
G03*
X135023554Y-113263554I-499995J7D01*
G01*
X135630005Y-117772893D02*
G75*
G03*
X135776447Y-118126447I499995J-7D01*
G01*
D76*
%TO.N,CHIP_EN*%
X124127663Y-120990000D02*
X123817663Y-120680000D01*
X118560000Y-117030000D02*
X118620000Y-117030000D01*
X123817663Y-120680000D02*
X122060000Y-120680000D01*
X118510000Y-116740000D02*
X117460000Y-116740000D01*
D79*
X136691478Y-112023522D02*
X137315000Y-111400000D01*
D81*
X137580000Y-111100000D02*
X138190000Y-110490000D01*
D76*
X124690000Y-120990000D02*
X124127663Y-120990000D01*
X122060000Y-120680000D02*
X118407500Y-117027500D01*
D81*
X137050000Y-111100000D02*
X137580000Y-111100000D01*
D79*
X136483522Y-112023522D02*
X136691478Y-112023522D01*
D81*
X134060730Y-110600578D02*
X134060730Y-110600730D01*
D76*
X136423305Y-112083739D02*
X135170686Y-112083739D01*
X117460000Y-116740000D02*
X117450000Y-116730000D01*
X136483522Y-112023522D02*
X136423305Y-112083739D01*
X134550000Y-111090000D02*
X134060730Y-110600730D01*
X118407500Y-117027500D02*
X118400000Y-117027500D01*
D81*
X138965000Y-110155000D02*
X138965000Y-109580000D01*
D78*
X138980000Y-109410000D02*
X138980000Y-109490000D01*
D76*
X135033058Y-111951252D02*
X134550000Y-111468194D01*
D81*
X138630000Y-110490000D02*
X138965000Y-110155000D01*
D76*
X135170686Y-112083739D02*
X135033058Y-111951252D01*
D81*
X138190000Y-110490000D02*
X138630000Y-110490000D01*
D76*
X134060730Y-110600578D02*
X134070578Y-110600578D01*
X134550000Y-111468194D02*
X134550000Y-111090000D01*
%TO.N,ESP_GPIO0_BOOT-DTR*%
X125890000Y-120280000D02*
X125890000Y-121830000D01*
X124925000Y-122260000D02*
X124925000Y-122715000D01*
X124550000Y-123090000D02*
X121930000Y-123090000D01*
D81*
X130896427Y-110317735D02*
X130892265Y-110317735D01*
D76*
X130892265Y-110317735D02*
X129960000Y-111250000D01*
X124925000Y-122715000D02*
X124550000Y-123090000D01*
X119080000Y-119680000D02*
X116427500Y-117027500D01*
D81*
X134343573Y-110317735D02*
X134343573Y-110323573D01*
D76*
X119080000Y-120240000D02*
X119080000Y-119680000D01*
D81*
X129960000Y-112440000D02*
X129940000Y-112460000D01*
D76*
X125520000Y-119910000D02*
X125890000Y-120280000D01*
X135150000Y-111130000D02*
X135150000Y-111250000D01*
X116427500Y-117027500D02*
X114780000Y-117027500D01*
X129960000Y-111250000D02*
X129960000Y-112440000D01*
X125890000Y-121830000D02*
X125350000Y-122370000D01*
X134343573Y-110323573D02*
X135150000Y-111130000D01*
X121930000Y-123090000D02*
X119080000Y-120240000D01*
D83*
%TO.N,Net-(HLL2-Pad2)*%
X115268577Y-102831423D02*
X115215431Y-102831423D01*
X116190000Y-100320000D02*
X116190000Y-101624354D01*
X116190000Y-101624354D02*
X114982931Y-102831423D01*
X117730000Y-99020000D02*
X117730000Y-95990000D01*
X116430000Y-100320000D02*
X117730000Y-99020000D01*
X117730000Y-95990000D02*
X117410000Y-95670000D01*
X116422500Y-100320000D02*
X116422500Y-99912500D01*
X116422500Y-100320000D02*
X116430000Y-100320000D01*
D85*
%TO.N,Net-(HLC1-Pad1)*%
X148770000Y-78640000D02*
X151350000Y-81220000D01*
X145200000Y-78640000D02*
X148770000Y-78640000D01*
X156718750Y-86588750D02*
X156718750Y-87133750D01*
X148780000Y-78640000D02*
X145200000Y-78640000D01*
X145200000Y-78640000D02*
X136100000Y-78640000D01*
X136282996Y-78650000D02*
X131297004Y-78650000D01*
X136131423Y-78631423D02*
X136170000Y-78670000D01*
X151350000Y-81220000D02*
X156718750Y-86588750D01*
D83*
%TO.N,PROBE_5V0*%
X113910000Y-90130000D02*
X114410000Y-90130000D01*
X114410000Y-92567500D02*
X114582500Y-92740000D01*
X114090000Y-95120000D02*
X113310000Y-94340000D01*
X114410000Y-90130000D02*
X114410000Y-92567500D01*
X113310000Y-90730000D02*
X113910000Y-90130000D01*
X113310000Y-94340000D02*
X113310000Y-90730000D01*
D76*
%TO.N,Net-(HLD1-Pad2)*%
X113862500Y-99453750D02*
X114340000Y-99931250D01*
X113862500Y-98170000D02*
X113862500Y-99453750D01*
%TO.N,unconnected-(ESP32S3-Pad23)*%
X135060000Y-103880000D02*
X135060000Y-103310000D01*
X134626415Y-104325005D02*
X134626415Y-104303585D01*
X134626415Y-104313585D02*
X135060000Y-103880000D01*
X134626415Y-104325005D02*
X134626415Y-104313585D01*
%TO.N,SPIHD*%
X131744955Y-103184955D02*
X131140000Y-102580000D01*
X131744955Y-103193635D02*
X131744955Y-103184955D01*
%TO.N,SPIWP*%
X131462113Y-103472113D02*
X130850000Y-102860000D01*
X131462113Y-103476477D02*
X131462113Y-103472113D01*
%TO.N,SPICS0*%
X131179270Y-103759320D02*
X131149320Y-103759320D01*
X131149320Y-103759320D02*
X130470000Y-103080000D01*
D81*
X131179270Y-103759320D02*
X131179270Y-103739270D01*
%TO.N,SPICLK*%
X130896427Y-104042163D02*
X130896427Y-104036427D01*
D76*
X130896427Y-104026427D02*
X130160000Y-103290000D01*
X130896427Y-104042163D02*
X130896427Y-104026427D01*
%TO.N,SPIQ*%
X130605005Y-104325005D02*
X129960000Y-103680000D01*
X130613585Y-104325005D02*
X130605005Y-104325005D01*
D81*
%TO.N,SPID*%
X130330742Y-104607848D02*
X130327848Y-104607848D01*
D76*
X130327848Y-104607848D02*
X129660000Y-103940000D01*
%TO.N,unconnected-(ESP32S3-Pad44)*%
X128633686Y-108056314D02*
X128130000Y-108560000D01*
X128633686Y-108054994D02*
X128633686Y-108056314D01*
%TO.N,unconnected-(ESP32S3-Pad47)*%
X129476478Y-108903522D02*
X129160000Y-109220000D01*
D81*
X129482214Y-108903522D02*
X129476478Y-108903522D01*
D76*
X129160000Y-109220000D02*
X129040000Y-109340000D01*
X129160000Y-109220000D02*
X129050000Y-109330000D01*
X129040000Y-109340000D02*
X128310000Y-109340000D01*
%TO.N,unconnected-(ESP32S3-Pad48)*%
X129250000Y-109690000D02*
X127800000Y-109690000D01*
X129765056Y-109204944D02*
X129765056Y-109186364D01*
X129765056Y-109186364D02*
X129753636Y-109186364D01*
X129753636Y-109186364D02*
X129250000Y-109690000D01*
%TO.N,TXD0*%
X121200000Y-113410000D02*
X120690000Y-112900000D01*
X120690000Y-109350000D02*
X119960000Y-108620000D01*
X122615000Y-118905000D02*
X122615000Y-119680000D01*
X119960000Y-108620000D02*
X119870000Y-108620000D01*
X121847500Y-118137500D02*
X121465000Y-117755000D01*
X120690000Y-112900000D02*
X120690000Y-109350000D01*
X121465000Y-117755000D02*
X122615000Y-118905000D01*
X121200000Y-117490000D02*
X121200000Y-113410000D01*
X121465000Y-117755000D02*
X121200000Y-117490000D01*
%TO.N,RXD0*%
X120910000Y-118020000D02*
X120780000Y-117890000D01*
D81*
X128660000Y-110470000D02*
X129620000Y-110470000D01*
D76*
X120310000Y-109920000D02*
X120010000Y-109620000D01*
X120780000Y-117890000D02*
X120780000Y-113550000D01*
D81*
X128090000Y-111040000D02*
X128660000Y-110470000D01*
X129620000Y-110470000D02*
X130330742Y-109759258D01*
X130330742Y-109759258D02*
X130330742Y-109752050D01*
D76*
X120010000Y-109620000D02*
X119870000Y-109620000D01*
X120780000Y-113550000D02*
X120310000Y-113080000D01*
X120310000Y-113080000D02*
X120310000Y-109920000D01*
%TO.N,GPIO8_I2C_SDA*%
X138320000Y-107690000D02*
X138320000Y-107630000D01*
X123347500Y-110427500D02*
X123160000Y-110240000D01*
X136900000Y-90220000D02*
X137290000Y-90610000D01*
X138449302Y-107963241D02*
X138476689Y-107963241D01*
X137120000Y-95710000D02*
X137420000Y-95410000D01*
X140200000Y-90610000D02*
X140490000Y-90610000D01*
X137981543Y-108431000D02*
X138449302Y-107963241D01*
X123347500Y-110637500D02*
X123347500Y-110427500D01*
X136900000Y-89850000D02*
X136900000Y-90220000D01*
X137120000Y-98717500D02*
X137120000Y-95710000D01*
D81*
X123347500Y-110747500D02*
X123347500Y-110637500D01*
D76*
X136606314Y-108054994D02*
X136614994Y-108054994D01*
X136614994Y-108054994D02*
X136991000Y-108431000D01*
X141060000Y-90120000D02*
X140640000Y-90540000D01*
X140200000Y-90610000D02*
X140460000Y-90610000D01*
X136900000Y-88762500D02*
X136900000Y-89850000D01*
X144105036Y-87084964D02*
X143069000Y-88121000D01*
X138320000Y-107650000D02*
X138320000Y-107630000D01*
X137290000Y-90610000D02*
X140200000Y-90610000D01*
X140460000Y-90610000D02*
X140660000Y-90410000D01*
X143069000Y-88121000D02*
X143069000Y-89278120D01*
X140490000Y-90610000D02*
X140660000Y-90440000D01*
X143069000Y-89278120D02*
X142227120Y-90120000D01*
X142227120Y-90120000D02*
X141060000Y-90120000D01*
X138476689Y-107963241D02*
X138476689Y-107750838D01*
X136991000Y-108431000D02*
X137981543Y-108431000D01*
D81*
X136606314Y-108054994D02*
X136606314Y-108066314D01*
D76*
X144105036Y-86800510D02*
X144105036Y-87084964D01*
X123160000Y-110240000D02*
X122640000Y-110240000D01*
%TO.N,USB_D-*%
X134770000Y-103030000D02*
X134770000Y-101730000D01*
D81*
X134060730Y-103759320D02*
X134060730Y-103749270D01*
D76*
X134060730Y-103759320D02*
X134060730Y-103739270D01*
X134060730Y-103739270D02*
X134770000Y-103030000D01*
D81*
%TO.N,USB_D+*%
X133777887Y-103476477D02*
X133777887Y-103472113D01*
D76*
X134420000Y-102820000D02*
X134420000Y-101700000D01*
X133777887Y-103476477D02*
X133777887Y-103462113D01*
X133777887Y-103462113D02*
X134420000Y-102820000D01*
D81*
X133777887Y-103476477D02*
X133783523Y-103476477D01*
D76*
%TO.N,unconnected-(ESP32S3-Pad37)*%
X129763534Y-105173534D02*
X128980000Y-104390000D01*
X129765056Y-105173534D02*
X129763534Y-105173534D01*
X129765056Y-105173534D02*
X129753534Y-105173534D01*
%TO.N,unconnected-(ESP32S3-Pad42)*%
X128350843Y-106580843D02*
X127170000Y-105400000D01*
X128350843Y-106587747D02*
X128350843Y-106580843D01*
%TO.N,GPIO9_I2C_SCL*%
X136917006Y-107800000D02*
X137400000Y-107800000D01*
X137400000Y-107800000D02*
X137560000Y-107640000D01*
X144780000Y-87300000D02*
X144780000Y-85550000D01*
X141615000Y-90965000D02*
X141810000Y-90770000D01*
X138365000Y-95405000D02*
X138400000Y-95370000D01*
X138365000Y-97385000D02*
X138365000Y-95405000D01*
X141930000Y-90770000D02*
X141810000Y-90770000D01*
X144510000Y-87570000D02*
X144780000Y-87300000D01*
X137151440Y-90965000D02*
X141615000Y-90965000D01*
X143418000Y-88265560D02*
X144113560Y-87570000D01*
X144113560Y-87570000D02*
X144510000Y-87570000D01*
X123860000Y-110785000D02*
X123860000Y-110007500D01*
X124167500Y-111547500D02*
X124220000Y-111547500D01*
X123860000Y-111240000D02*
X124167500Y-111547500D01*
X136889157Y-107772151D02*
X136917006Y-107800000D01*
X138365000Y-98630000D02*
X138365000Y-97385000D01*
X138365000Y-97385000D02*
X138365000Y-97195000D01*
X143418000Y-89422680D02*
X143418000Y-88265560D01*
X144530510Y-85300510D02*
X144105036Y-85300510D01*
X142060680Y-90780000D02*
X143418000Y-89422680D01*
X123860000Y-110785000D02*
X123860000Y-111240000D01*
X135050000Y-88863560D02*
X137151440Y-90965000D01*
D81*
X136889157Y-107772151D02*
X136892151Y-107772151D01*
D76*
X141830000Y-90780000D02*
X142060680Y-90780000D01*
X135050000Y-88782500D02*
X135050000Y-88863560D01*
X144780000Y-85550000D02*
X144530510Y-85300510D01*
D81*
X136889157Y-107772151D02*
X136902151Y-107772151D01*
%TO.N,Net-(ER2-Pad2)*%
X127489000Y-110071000D02*
X129446106Y-110071000D01*
X126870000Y-110690000D02*
X127489000Y-110071000D01*
X129446106Y-110071000D02*
X130047899Y-109469207D01*
X124322500Y-119622500D02*
X124265000Y-119680000D01*
X126870000Y-110920000D02*
X126870000Y-110690000D01*
X124322500Y-118602500D02*
X124322500Y-119622500D01*
D76*
%TO.N,unconnected-(ESP32S3-Pad36)*%
X130047899Y-104887899D02*
X129310000Y-104150000D01*
X130047899Y-104890691D02*
X130010691Y-104890691D01*
X130047899Y-104890691D02*
X130047899Y-104887899D01*
%TO.N,SPICS1*%
X133700000Y-102422994D02*
X133212202Y-102910792D01*
X133344629Y-102785371D02*
X133535000Y-102595000D01*
X133700000Y-101950000D02*
X133700000Y-101410000D01*
X133700000Y-101410000D02*
X133700000Y-99840000D01*
X133685000Y-101965000D02*
X133700000Y-101950000D01*
X133700000Y-101410000D02*
X133700000Y-102422994D01*
X133700000Y-99840000D02*
X133890000Y-99650000D01*
%TO.N,unconnected-(ESP32S3-Pad24)*%
X134343573Y-104042163D02*
X134343573Y-104006427D01*
D83*
%TO.N,Net-(AL1-Pad2)*%
X125870000Y-88920000D02*
X125830000Y-88880000D01*
X125810000Y-88720000D02*
X125410000Y-88720000D01*
X125679999Y-89780000D02*
X126530000Y-89780000D01*
X126530000Y-89780000D02*
X127360000Y-89780000D01*
X126520000Y-89430000D02*
X126010000Y-88920000D01*
X126470000Y-89780000D02*
X126100000Y-89780000D01*
X125410000Y-88720000D02*
X125120000Y-89010000D01*
X126010000Y-88920000D02*
X125870000Y-88920000D01*
X126100000Y-89780000D02*
X125780000Y-89460000D01*
X126530000Y-89780000D02*
X126470000Y-89780000D01*
X125830000Y-89140000D02*
X125830000Y-88880000D01*
X126865000Y-89775000D02*
X126520000Y-89430000D01*
X127365000Y-89775000D02*
X126865000Y-89775000D01*
X126520000Y-89430000D02*
X125810000Y-88720000D01*
X126470000Y-89780000D02*
X125830000Y-89140000D01*
D76*
%TO.N,Net-(Q1-Pad1)*%
X144020000Y-114240000D02*
X144020000Y-112242500D01*
X144560000Y-114780000D02*
X144020000Y-114240000D01*
X144020000Y-112242500D02*
X144410000Y-111852500D01*
X147027500Y-114780000D02*
X144560000Y-114780000D01*
%TO.N,Net-(Q2-Pad1)*%
X157690000Y-111320000D02*
X157690000Y-109920000D01*
X153240000Y-111950000D02*
X156770000Y-111950000D01*
X157060000Y-111950000D02*
X157690000Y-111320000D01*
X157190000Y-109420000D02*
X154752500Y-109420000D01*
X156770000Y-111950000D02*
X157060000Y-111950000D01*
X157690000Y-109920000D02*
X157190000Y-109420000D01*
%TO.N,Net-(Q3-Pad1)*%
X150737500Y-114740000D02*
X152677500Y-114740000D01*
X152677500Y-114740000D02*
X152787500Y-114630000D01*
%TO.N,IO06_COFFEE*%
X136040629Y-108620679D02*
X136050679Y-108620679D01*
X139380000Y-108600000D02*
X139380000Y-108550000D01*
D81*
X136040629Y-108620679D02*
X136040679Y-108620679D01*
D76*
X154410000Y-114441250D02*
X154410000Y-112998750D01*
X139150000Y-108830000D02*
X139380000Y-108600000D01*
X136560000Y-109130000D02*
X138269663Y-109130000D01*
X154612500Y-113187500D02*
X154275000Y-112850000D01*
X136050679Y-108620679D02*
X136560000Y-109130000D01*
X138569663Y-108830000D02*
X139150000Y-108830000D01*
X138269663Y-109130000D02*
X138569663Y-108830000D01*
%TO.N,IO07_MXD*%
X138637241Y-108481000D02*
X138425103Y-108481000D01*
X138126103Y-108780000D02*
X136780000Y-108780000D01*
X139469120Y-107649120D02*
X139469120Y-107640880D01*
X139469120Y-107649120D02*
X138637241Y-108481000D01*
X138425103Y-108481000D02*
X138126103Y-108780000D01*
X136337836Y-108337836D02*
X136323472Y-108337836D01*
X136780000Y-108780000D02*
X136337836Y-108337836D01*
%TO.N,IO10_MXCS*%
X136986904Y-106490000D02*
X136889157Y-106587747D01*
D81*
X136889157Y-106587747D02*
X136892253Y-106587747D01*
D76*
X138203042Y-106226500D02*
X137939542Y-106490000D01*
X136889157Y-106587747D02*
X136902253Y-106587747D01*
X137939542Y-106490000D02*
X136986904Y-106490000D01*
%TO.N,IO11_MXSK*%
X136453233Y-106466767D02*
X137170000Y-105750000D01*
X137170000Y-105750000D02*
X137520000Y-105750000D01*
%TO.N,unconnected-(ESP32S3-Pad38)*%
X129482214Y-105456376D02*
X129482214Y-105452214D01*
X129482214Y-105456376D02*
X129476376Y-105456376D01*
X129476376Y-105456376D02*
X128520000Y-104500000D01*
%TO.N,IO34_LEDB*%
X127220000Y-103040000D02*
X127220000Y-103760000D01*
X126638220Y-102458220D02*
X127220000Y-103040000D01*
X127220000Y-103760000D02*
X129390421Y-105930421D01*
X125848220Y-102458220D02*
X126638220Y-102458220D01*
%TO.N,IO35_LEDG*%
X126670000Y-103470000D02*
X126490000Y-103290000D01*
X128912062Y-106022062D02*
X126670000Y-103780000D01*
D81*
X128916528Y-106022062D02*
X128912062Y-106022062D01*
D76*
X126670000Y-103780000D02*
X126670000Y-103470000D01*
%TO.N,IO36_LEDR*%
X125885000Y-104025000D02*
X126355000Y-104025000D01*
X126355000Y-104025000D02*
X128633686Y-106303686D01*
D81*
X128633686Y-106304904D02*
X128633686Y-106303686D01*
D76*
%TO.N,IO38_IMU_CS*%
X124347500Y-110747500D02*
X124347500Y-110372500D01*
D81*
X124360000Y-110785000D02*
X124360000Y-110637500D01*
D76*
X125520000Y-110130000D02*
X125820000Y-109830000D01*
X124590000Y-110130000D02*
X125520000Y-110130000D01*
X124347500Y-110372500D02*
X124590000Y-110130000D01*
X128350843Y-107772151D02*
X128142994Y-107980000D01*
X128350843Y-107772151D02*
X128262994Y-107860000D01*
X128256497Y-107890000D02*
X127683503Y-107890000D01*
%TO.N,IO12_NEXTX*%
X137005000Y-105345000D02*
X137630000Y-104720000D01*
X136153233Y-106196767D02*
X137005000Y-105345000D01*
D81*
X136323472Y-106022062D02*
X136327938Y-106022062D01*
D76*
X137630000Y-104720000D02*
X137760000Y-104720000D01*
X137005000Y-105345000D02*
X137200000Y-105150000D01*
%TO.N,IO13_NEXRX*%
X136391145Y-105342415D02*
X136391145Y-105388855D01*
X137349000Y-104384560D02*
X136391145Y-105342415D01*
X137349000Y-104311000D02*
X137349000Y-104384560D01*
X136391145Y-105388855D02*
X135876466Y-105903534D01*
X137700000Y-103960000D02*
X137349000Y-104311000D01*
%TO.N,IO14_H2O_LEVEL*%
X136665000Y-104575000D02*
X136870000Y-104370000D01*
X137170000Y-103243500D02*
X137000000Y-103413500D01*
X135783624Y-105456376D02*
X136665000Y-104575000D01*
X135757786Y-105456376D02*
X135783624Y-105456376D01*
X137000000Y-103413500D02*
X137000000Y-104240000D01*
X137000000Y-104240000D02*
X136665000Y-104575000D01*
%TO.N,unconnected-(ESP32S3-Pad27)*%
X133495045Y-103193635D02*
X133495045Y-103184955D01*
X133495045Y-103184955D02*
X134060000Y-102620000D01*
X134060000Y-102620000D02*
X134060000Y-101630000D01*
%TO.N,Net-(CH340K1-Pad4)*%
X114785000Y-114265000D02*
X115505000Y-113545000D01*
X114950000Y-110620000D02*
X114770000Y-110620000D01*
X113830000Y-115152500D02*
X114782500Y-115152500D01*
X115505000Y-113545000D02*
X115505000Y-111175000D01*
X117790000Y-116200000D02*
X115350000Y-116200000D01*
X119510000Y-115155000D02*
X118835000Y-115155000D01*
X115350000Y-116200000D02*
X114785000Y-115635000D01*
X115505000Y-111175000D02*
X114950000Y-110620000D01*
X114782500Y-115152500D02*
X114785000Y-115155000D01*
X118835000Y-115155000D02*
X117790000Y-116200000D01*
X113830000Y-115170000D02*
X113830000Y-115152500D01*
X114785000Y-115155000D02*
X114785000Y-114265000D01*
X114785000Y-115635000D02*
X114785000Y-115155000D01*
%TO.N,Net-(CH340K1-Pad6)*%
X118970000Y-113440000D02*
X118970000Y-112010000D01*
X118510000Y-113900000D02*
X117610000Y-114800000D01*
X118970000Y-111630000D02*
X118970000Y-112020000D01*
X118510000Y-113900000D02*
X118970000Y-113440000D01*
X117610000Y-114800000D02*
X117610000Y-115155000D01*
X117607500Y-115152500D02*
X117610000Y-115155000D01*
X115730000Y-115152500D02*
X117607500Y-115152500D01*
D78*
%TO.N,Net-(CH340K1-Pad10)*%
X119760000Y-107530000D02*
X119760000Y-106930000D01*
X119760000Y-106815000D02*
X120310000Y-106265000D01*
X119760000Y-106930000D02*
X119760000Y-106815000D01*
D76*
%TO.N,Net-(CH340K1-Pad1)*%
X115020000Y-107760000D02*
X114650000Y-107760000D01*
X115270000Y-108010000D02*
X115020000Y-107760000D01*
%TO.N,Net-(CH340K1-Pad2)*%
X114280000Y-108600000D02*
X115010000Y-108600000D01*
X115450000Y-110100000D02*
X115620000Y-110270000D01*
X115010000Y-108600000D02*
X115450000Y-109040000D01*
X115450000Y-109040000D02*
X115450000Y-110100000D01*
D81*
%TO.N,IO02_BUZZER*%
X134909258Y-109752050D02*
X134922050Y-109752050D01*
D76*
X135089258Y-109919258D02*
X135380000Y-110210000D01*
X135380000Y-110210000D02*
X135986439Y-110210000D01*
X136306439Y-110530000D02*
X136380000Y-110530000D01*
X134909258Y-109752050D02*
X134909258Y-109759258D01*
X135986439Y-110210000D02*
X136306439Y-110530000D01*
%TO.N,IO01_DS18*%
X147540000Y-121191250D02*
X147540000Y-119468750D01*
X135400000Y-110580000D02*
X136082675Y-111262675D01*
X134626415Y-110036415D02*
X135170000Y-110580000D01*
D81*
X134626415Y-110034893D02*
X134626415Y-110036415D01*
D76*
X136082675Y-111262675D02*
X136082675Y-111332923D01*
X135170000Y-110580000D02*
X135400000Y-110580000D01*
%TO.N,IO04_H2O*%
X146107500Y-110027500D02*
X146190000Y-109945000D01*
X144410000Y-110027500D02*
X146107500Y-110027500D01*
X136937294Y-109910000D02*
X137163794Y-110136500D01*
X135474944Y-109204944D02*
X136180000Y-109910000D01*
X136180000Y-109910000D02*
X136937294Y-109910000D01*
D81*
X135474944Y-109186364D02*
X135476364Y-109186364D01*
D76*
X135474944Y-109186364D02*
X135474944Y-109204944D01*
%TO.N,IO05_GRINDER*%
X137770000Y-109540000D02*
X137960000Y-109730000D01*
D81*
X135757786Y-108903522D02*
X135757786Y-108907786D01*
D76*
X136390000Y-109540000D02*
X137770000Y-109540000D01*
X150535000Y-109790000D02*
X151325000Y-109790000D01*
X135757786Y-108907786D02*
X136390000Y-109540000D01*
X151311250Y-109790000D02*
X152388750Y-109790000D01*
D81*
%TO.N,Net-(EC13-Pad1)*%
X130600000Y-111179848D02*
X130600000Y-112630000D01*
X130600000Y-112630000D02*
X129680000Y-113550000D01*
X126760000Y-112540000D02*
X126830000Y-112470000D01*
X126760000Y-113470000D02*
X126760000Y-112540000D01*
X127210000Y-113550000D02*
X125840000Y-113550000D01*
X131179270Y-110600578D02*
X130600000Y-111179848D01*
X129680000Y-113550000D02*
X127210000Y-113550000D01*
X124995000Y-114395000D02*
X124850000Y-114395000D01*
X127210000Y-113550000D02*
X126940000Y-113550000D01*
X125840000Y-113550000D02*
X124995000Y-114395000D01*
D76*
%TO.N,Net-(EC50-Pad1)*%
X134909258Y-104607848D02*
X134909258Y-104580742D01*
X125030000Y-105650000D02*
X124830000Y-105450000D01*
X134912152Y-104607848D02*
X135430000Y-104090000D01*
D78*
X125030000Y-105650000D02*
X124890000Y-105650000D01*
D76*
X124830000Y-105450000D02*
X124830000Y-104030000D01*
X134909258Y-104607848D02*
X134912152Y-104607848D01*
D81*
X134909258Y-104607848D02*
X134909258Y-104600742D01*
D76*
X127060000Y-106210000D02*
X127000000Y-106150000D01*
X127000000Y-106150000D02*
X125455000Y-106150000D01*
X135430000Y-102690000D02*
X135360000Y-102620000D01*
D78*
X125030000Y-105650000D02*
X125270000Y-105410000D01*
D76*
X135430000Y-104090000D02*
X135430000Y-102690000D01*
D78*
%TO.N,Net-(EC51-Pad1)*%
X123170000Y-107450000D02*
X122830000Y-107450000D01*
D76*
X135192101Y-104887899D02*
X135780000Y-104300000D01*
D78*
X125560000Y-109090000D02*
X125670000Y-108980000D01*
X124800000Y-109080000D02*
X123885000Y-108165000D01*
X124705000Y-109090000D02*
X125560000Y-109090000D01*
X123885000Y-108165000D02*
X123170000Y-107450000D01*
D76*
X135780000Y-103450000D02*
X135917500Y-103312500D01*
X135192101Y-104890691D02*
X135192101Y-104887899D01*
X135192101Y-104890691D02*
X135199309Y-104890691D01*
X135917500Y-103312500D02*
X135917500Y-101812500D01*
X135917500Y-101812500D02*
X135990000Y-101740000D01*
X135780000Y-104300000D02*
X135780000Y-103450000D01*
%TD*%
%TA.AperFunction,Conductor*%
%TO.N,GND*%
G36*
X133451423Y-112122272D02*
G01*
X133474430Y-112139402D01*
X133536573Y-112201545D01*
X133561638Y-112243928D01*
X133563065Y-112248839D01*
X133564027Y-112256967D01*
X133615978Y-112365156D01*
X133619386Y-112369210D01*
X134743069Y-113492893D01*
X134753158Y-113504707D01*
X134765461Y-113521641D01*
X134771761Y-113526219D01*
X134775407Y-113529865D01*
X134796863Y-113561977D01*
X134798689Y-113566385D01*
X134806226Y-113604276D01*
X134806226Y-113609403D01*
X134805006Y-113617102D01*
X134806225Y-113624799D01*
X134806225Y-113624801D01*
X134808281Y-113637782D01*
X134809500Y-113653267D01*
X134809500Y-114176724D01*
X134808281Y-114192212D01*
X134805006Y-114212888D01*
X134806224Y-114220579D01*
X134806224Y-114220583D01*
X134808051Y-114232120D01*
X134808964Y-114239836D01*
X134810835Y-114263608D01*
X134817469Y-114347916D01*
X134849087Y-114479620D01*
X134900918Y-114604756D01*
X134971687Y-114720244D01*
X135002178Y-114755946D01*
X135009513Y-114764534D01*
X135015471Y-114772534D01*
X135017425Y-114776603D01*
X135020833Y-114780657D01*
X135034880Y-114794704D01*
X135040159Y-114800416D01*
X135042136Y-114802731D01*
X135046945Y-114808831D01*
X135058355Y-114824535D01*
X135064659Y-114829115D01*
X135064663Y-114829119D01*
X135075294Y-114836843D01*
X135087107Y-114846931D01*
X135203069Y-114962893D01*
X135213158Y-114974707D01*
X135225461Y-114991641D01*
X135231761Y-114996219D01*
X135235407Y-114999865D01*
X135256863Y-115031977D01*
X135258689Y-115036385D01*
X135266226Y-115074276D01*
X135266226Y-115079403D01*
X135265006Y-115087102D01*
X135266225Y-115094799D01*
X135266225Y-115094801D01*
X135268281Y-115107782D01*
X135269500Y-115123267D01*
X135269500Y-117736724D01*
X135268281Y-117752212D01*
X135265006Y-117772888D01*
X135266224Y-117780579D01*
X135266224Y-117780583D01*
X135268051Y-117792120D01*
X135268964Y-117799836D01*
X135270835Y-117823608D01*
X135277469Y-117907916D01*
X135309087Y-118039620D01*
X135360918Y-118164756D01*
X135431687Y-118280244D01*
X135455341Y-118307940D01*
X135469513Y-118324534D01*
X135475471Y-118332534D01*
X135477425Y-118336603D01*
X135480833Y-118340657D01*
X135494880Y-118354704D01*
X135500159Y-118360416D01*
X135502136Y-118362731D01*
X135506945Y-118368831D01*
X135518355Y-118384535D01*
X135524659Y-118389115D01*
X135524663Y-118389119D01*
X135535294Y-118396843D01*
X135547107Y-118406931D01*
X135875569Y-118735393D01*
X135885658Y-118747207D01*
X135897961Y-118764141D01*
X135904264Y-118768720D01*
X135907914Y-118772371D01*
X135929372Y-118804486D01*
X135931188Y-118808870D01*
X135938725Y-118846757D01*
X135938725Y-118851906D01*
X135937506Y-118859602D01*
X135938725Y-118867299D01*
X135940781Y-118880282D01*
X135942000Y-118895767D01*
X135942000Y-118920730D01*
X135931210Y-118965675D01*
X135923585Y-118980639D01*
X135923585Y-118980640D01*
X135920049Y-118987580D01*
X135918830Y-118995273D01*
X135918830Y-118995275D01*
X135907680Y-119065673D01*
X135904500Y-119085754D01*
X135904500Y-119914246D01*
X135920049Y-120012420D01*
X135923585Y-120019359D01*
X135923585Y-120019360D01*
X135960236Y-120091290D01*
X135980342Y-120130751D01*
X136074249Y-120224658D01*
X136081186Y-120228193D01*
X136081188Y-120228194D01*
X136152570Y-120264565D01*
X136192580Y-120284951D01*
X136200273Y-120286170D01*
X136200275Y-120286170D01*
X136286908Y-120299891D01*
X136286910Y-120299891D01*
X136290754Y-120300500D01*
X136794246Y-120300500D01*
X136798090Y-120299891D01*
X136798092Y-120299891D01*
X136884725Y-120286170D01*
X136884727Y-120286170D01*
X136892420Y-120284951D01*
X136932430Y-120264565D01*
X137003812Y-120228194D01*
X137003814Y-120228193D01*
X137010751Y-120224658D01*
X137104658Y-120130751D01*
X137124765Y-120091290D01*
X137161415Y-120019360D01*
X137161415Y-120019359D01*
X137164951Y-120012420D01*
X137178953Y-119924013D01*
X137206730Y-119869497D01*
X137261247Y-119841719D01*
X137276734Y-119840500D01*
X137798085Y-119840500D01*
X137856276Y-119859407D01*
X137886295Y-119894555D01*
X137901305Y-119924013D01*
X137931472Y-119983220D01*
X138026780Y-120078528D01*
X138033717Y-120082063D01*
X138033719Y-120082064D01*
X138129273Y-120130751D01*
X138146874Y-120139719D01*
X138154568Y-120140938D01*
X138154569Y-120140938D01*
X138242666Y-120154891D01*
X138242668Y-120154891D01*
X138246512Y-120155500D01*
X138763488Y-120155500D01*
X138767332Y-120154891D01*
X138767334Y-120154891D01*
X138855431Y-120140938D01*
X138855432Y-120140938D01*
X138863126Y-120139719D01*
X138880727Y-120130751D01*
X138976281Y-120082064D01*
X138976283Y-120082063D01*
X138983220Y-120078528D01*
X139078528Y-119983220D01*
X139108696Y-119924013D01*
X139136183Y-119870066D01*
X139136183Y-119870065D01*
X139139719Y-119863126D01*
X139155500Y-119763488D01*
X139155500Y-119196512D01*
X139151437Y-119170861D01*
X139140938Y-119104569D01*
X139140938Y-119104568D01*
X139139719Y-119096874D01*
X139134053Y-119085754D01*
X139082064Y-118983719D01*
X139082063Y-118983717D01*
X139078528Y-118976780D01*
X138983220Y-118881472D01*
X138976283Y-118877937D01*
X138976281Y-118877936D01*
X138870066Y-118823817D01*
X138870065Y-118823817D01*
X138863126Y-118820281D01*
X138855432Y-118819062D01*
X138855431Y-118819062D01*
X138767334Y-118805109D01*
X138767332Y-118805109D01*
X138763488Y-118804500D01*
X138246512Y-118804500D01*
X138242668Y-118805109D01*
X138242666Y-118805109D01*
X138154569Y-118819062D01*
X138154568Y-118819062D01*
X138146874Y-118820281D01*
X138139935Y-118823817D01*
X138139934Y-118823817D01*
X138033719Y-118877936D01*
X138033717Y-118877937D01*
X138026780Y-118881472D01*
X137931472Y-118976780D01*
X137927937Y-118983717D01*
X137927936Y-118983719D01*
X137886295Y-119065445D01*
X137843030Y-119108710D01*
X137798085Y-119119500D01*
X137270399Y-119119500D01*
X137212208Y-119100593D01*
X137176244Y-119051093D01*
X137172618Y-119035987D01*
X137166170Y-118995275D01*
X137166170Y-118995273D01*
X137164951Y-118987580D01*
X137118170Y-118895767D01*
X137108194Y-118876188D01*
X137108193Y-118876186D01*
X137104658Y-118869249D01*
X137010751Y-118775342D01*
X137003814Y-118771807D01*
X137003812Y-118771806D01*
X136899360Y-118718585D01*
X136899359Y-118718585D01*
X136892420Y-118715049D01*
X136884727Y-118713830D01*
X136884725Y-118713830D01*
X136798092Y-118700109D01*
X136798090Y-118700109D01*
X136794246Y-118699500D01*
X136727060Y-118699500D01*
X136668869Y-118680593D01*
X136632905Y-118631093D01*
X136630795Y-118623609D01*
X136624326Y-118596660D01*
X136624325Y-118596656D01*
X136623418Y-118592879D01*
X136571587Y-118467743D01*
X136500818Y-118352255D01*
X136462966Y-118307935D01*
X136457024Y-118299955D01*
X136455076Y-118295898D01*
X136451668Y-118291844D01*
X136437662Y-118277838D01*
X136432389Y-118272133D01*
X136430326Y-118269717D01*
X136425523Y-118263625D01*
X136414147Y-118247967D01*
X136397205Y-118235658D01*
X136385398Y-118225574D01*
X136056931Y-117897107D01*
X136046841Y-117885292D01*
X136039118Y-117874662D01*
X136034539Y-117868359D01*
X136028238Y-117863781D01*
X136024595Y-117860138D01*
X136003134Y-117828017D01*
X136001308Y-117823608D01*
X135993774Y-117785724D01*
X135993774Y-117780597D01*
X135994994Y-117772898D01*
X135991719Y-117752218D01*
X135990500Y-117736733D01*
X135990500Y-115123276D01*
X135991719Y-115107787D01*
X135993775Y-115094806D01*
X135994994Y-115087112D01*
X135993776Y-115079421D01*
X135993776Y-115079417D01*
X135991949Y-115067880D01*
X135991036Y-115060164D01*
X135985829Y-114993994D01*
X135982531Y-114952084D01*
X135950914Y-114820381D01*
X135899082Y-114695245D01*
X135897050Y-114691929D01*
X135897047Y-114691923D01*
X135864829Y-114639348D01*
X135828314Y-114579758D01*
X135790490Y-114535471D01*
X135784531Y-114527468D01*
X135782576Y-114523398D01*
X135779168Y-114519344D01*
X135765118Y-114505294D01*
X135759850Y-114499595D01*
X135757868Y-114497275D01*
X135753066Y-114491185D01*
X135741647Y-114475467D01*
X135724705Y-114463158D01*
X135712898Y-114453074D01*
X135596931Y-114337107D01*
X135586841Y-114325292D01*
X135579118Y-114314662D01*
X135574539Y-114308359D01*
X135568238Y-114303781D01*
X135564595Y-114300138D01*
X135543134Y-114268017D01*
X135541308Y-114263608D01*
X135533774Y-114225724D01*
X135533774Y-114220597D01*
X135534994Y-114212898D01*
X135531719Y-114192218D01*
X135530500Y-114176733D01*
X135530500Y-113653276D01*
X135531719Y-113637787D01*
X135533775Y-113624806D01*
X135534994Y-113617112D01*
X135533776Y-113609421D01*
X135533776Y-113609417D01*
X135531949Y-113597880D01*
X135531036Y-113590164D01*
X135526291Y-113529865D01*
X135522531Y-113482084D01*
X135520711Y-113474500D01*
X135505860Y-113412641D01*
X135490914Y-113350381D01*
X135439082Y-113225245D01*
X135437050Y-113221929D01*
X135437047Y-113221923D01*
X135406023Y-113171296D01*
X135368314Y-113109758D01*
X135330490Y-113065471D01*
X135324531Y-113057468D01*
X135322576Y-113053398D01*
X135319168Y-113049344D01*
X135317666Y-113047842D01*
X135316350Y-113046407D01*
X135290959Y-112990739D01*
X135303138Y-112930778D01*
X135348235Y-112889427D01*
X135389319Y-112880500D01*
X135625022Y-112880500D01*
X135640508Y-112881719D01*
X135660398Y-112884869D01*
X135668095Y-112883650D01*
X135674695Y-112883650D01*
X135712585Y-112891188D01*
X135721654Y-112894945D01*
X135753768Y-112916403D01*
X135758437Y-112921072D01*
X135763019Y-112927379D01*
X135769327Y-112931962D01*
X135779302Y-112939209D01*
X135791116Y-112949298D01*
X136030504Y-113188686D01*
X136058281Y-113243203D01*
X136059500Y-113258690D01*
X136059500Y-113584246D01*
X136060109Y-113588090D01*
X136060109Y-113588092D01*
X136070432Y-113653267D01*
X136075049Y-113682420D01*
X136078585Y-113689359D01*
X136078585Y-113689360D01*
X136118081Y-113766874D01*
X136135342Y-113800751D01*
X136229249Y-113894658D01*
X136236186Y-113898193D01*
X136236188Y-113898194D01*
X136340640Y-113951415D01*
X136347580Y-113954951D01*
X136355273Y-113956170D01*
X136355275Y-113956170D01*
X136441908Y-113969891D01*
X136441910Y-113969891D01*
X136445754Y-113970500D01*
X136850060Y-113970500D01*
X136908251Y-113989407D01*
X136920064Y-113999496D01*
X137491408Y-114570840D01*
X137519185Y-114625357D01*
X137520393Y-114639348D01*
X137551824Y-116719004D01*
X137533798Y-116777474D01*
X137484847Y-116814182D01*
X137452835Y-116819500D01*
X137010252Y-116819500D01*
X136984005Y-116824721D01*
X136961334Y-116829230D01*
X136961332Y-116829231D01*
X136951769Y-116831133D01*
X136885448Y-116875448D01*
X136841133Y-116941769D01*
X136829500Y-117000252D01*
X136829500Y-117439748D01*
X136841133Y-117498231D01*
X136885448Y-117564552D01*
X136951769Y-117608867D01*
X136961332Y-117610769D01*
X136961334Y-117610770D01*
X136984005Y-117615279D01*
X137010252Y-117620500D01*
X141484250Y-117620500D01*
X141523536Y-117632418D01*
X141524654Y-117629718D01*
X141533660Y-117633449D01*
X141541769Y-117638867D01*
X141551332Y-117640769D01*
X141551334Y-117640770D01*
X141570103Y-117644503D01*
X141600252Y-117650500D01*
X142039748Y-117650500D01*
X142069897Y-117644503D01*
X142088666Y-117640770D01*
X142088668Y-117640769D01*
X142098231Y-117638867D01*
X142164552Y-117594552D01*
X142208867Y-117528231D01*
X142210770Y-117518665D01*
X142211110Y-117516957D01*
X142215065Y-117503921D01*
X142218867Y-117498231D01*
X142230500Y-117439748D01*
X142230500Y-117263188D01*
X142249407Y-117204997D01*
X142298907Y-117169033D01*
X142327511Y-117164208D01*
X142484595Y-117161051D01*
X142738513Y-117155950D01*
X142797070Y-117173683D01*
X142834021Y-117222451D01*
X142839500Y-117254929D01*
X142839500Y-117342052D01*
X142837282Y-117362888D01*
X142835049Y-117373261D01*
X142836011Y-117381386D01*
X142838814Y-117405071D01*
X142839161Y-117410963D01*
X142839164Y-117410963D01*
X142839500Y-117415030D01*
X142839500Y-117419115D01*
X142840170Y-117423141D01*
X142840171Y-117423152D01*
X142842496Y-117437119D01*
X142843152Y-117441726D01*
X142848764Y-117489138D01*
X142852118Y-117496122D01*
X142852539Y-117497454D01*
X142853812Y-117505103D01*
X142876505Y-117547160D01*
X142878605Y-117551283D01*
X142896580Y-117588717D01*
X142896582Y-117588721D01*
X142899274Y-117594326D01*
X142902592Y-117598274D01*
X142904100Y-117599782D01*
X142905282Y-117601071D01*
X142906148Y-117602097D01*
X142909222Y-117607794D01*
X142915227Y-117613345D01*
X142915231Y-117613350D01*
X142946018Y-117641809D01*
X142948821Y-117644503D01*
X144001004Y-118696686D01*
X144028781Y-118751203D01*
X144030000Y-118766690D01*
X144030000Y-123354225D01*
X144011093Y-123412416D01*
X143961593Y-123448380D01*
X143930957Y-123453225D01*
X143108491Y-123452861D01*
X142917917Y-123452777D01*
X142859735Y-123433844D01*
X142823793Y-123384328D01*
X142818962Y-123354124D01*
X142810055Y-120815681D01*
X142810000Y-120800000D01*
X132103409Y-120772780D01*
X132045267Y-120753724D01*
X132009429Y-120704133D01*
X132009584Y-120642948D01*
X132045674Y-120593540D01*
X132065775Y-120582316D01*
X132101822Y-120567384D01*
X132132841Y-120554536D01*
X132258282Y-120458282D01*
X132340836Y-120350695D01*
X132391260Y-120316039D01*
X132452425Y-120317640D01*
X132464323Y-120322753D01*
X132529928Y-120356181D01*
X132529934Y-120356183D01*
X132536874Y-120359719D01*
X132544568Y-120360938D01*
X132544569Y-120360938D01*
X132632666Y-120374891D01*
X132632668Y-120374891D01*
X132636512Y-120375500D01*
X133203488Y-120375500D01*
X133207332Y-120374891D01*
X133207334Y-120374891D01*
X133295431Y-120360938D01*
X133295432Y-120360938D01*
X133303126Y-120359719D01*
X133388853Y-120316039D01*
X133416281Y-120302064D01*
X133416283Y-120302063D01*
X133423220Y-120298528D01*
X133518528Y-120203220D01*
X133522063Y-120196282D01*
X133522066Y-120196278D01*
X133553516Y-120134554D01*
X133596780Y-120091290D01*
X133641725Y-120080500D01*
X133769896Y-120080500D01*
X133828087Y-120099407D01*
X133849990Y-120121311D01*
X133851805Y-120123809D01*
X133855342Y-120130751D01*
X133949249Y-120224658D01*
X133956186Y-120228193D01*
X133956188Y-120228194D01*
X134027570Y-120264565D01*
X134067580Y-120284951D01*
X134075273Y-120286170D01*
X134075275Y-120286170D01*
X134161908Y-120299891D01*
X134161910Y-120299891D01*
X134165754Y-120300500D01*
X134669246Y-120300500D01*
X134673090Y-120299891D01*
X134673092Y-120299891D01*
X134759725Y-120286170D01*
X134759727Y-120286170D01*
X134767420Y-120284951D01*
X134807430Y-120264565D01*
X134878812Y-120228194D01*
X134878814Y-120228193D01*
X134885751Y-120224658D01*
X134979658Y-120130751D01*
X134999765Y-120091290D01*
X135036415Y-120019360D01*
X135036415Y-120019359D01*
X135039951Y-120012420D01*
X135055500Y-119914246D01*
X135055500Y-119085754D01*
X135052320Y-119065673D01*
X135041170Y-118995275D01*
X135041170Y-118995273D01*
X135039951Y-118987580D01*
X134993170Y-118895767D01*
X134983194Y-118876188D01*
X134983193Y-118876186D01*
X134979658Y-118869249D01*
X134885751Y-118775342D01*
X134878814Y-118771807D01*
X134878812Y-118771806D01*
X134774360Y-118718585D01*
X134774359Y-118718585D01*
X134767420Y-118715049D01*
X134759727Y-118713830D01*
X134759725Y-118713830D01*
X134673092Y-118700109D01*
X134673090Y-118700109D01*
X134669246Y-118699500D01*
X134165754Y-118699500D01*
X134161910Y-118700109D01*
X134161908Y-118700109D01*
X134075275Y-118713830D01*
X134075273Y-118713830D01*
X134067580Y-118715049D01*
X134060641Y-118718585D01*
X134060640Y-118718585D01*
X133956188Y-118771806D01*
X133956186Y-118771807D01*
X133949249Y-118775342D01*
X133855342Y-118869249D01*
X133851807Y-118876186D01*
X133851806Y-118876188D01*
X133841830Y-118895767D01*
X133795049Y-118987580D01*
X133793830Y-118995273D01*
X133793830Y-118995275D01*
X133782680Y-119065673D01*
X133779500Y-119085754D01*
X133779500Y-119260500D01*
X133760593Y-119318691D01*
X133711093Y-119354655D01*
X133680500Y-119359500D01*
X133636629Y-119359500D01*
X133578438Y-119340593D01*
X133548419Y-119305445D01*
X133522064Y-119253719D01*
X133522063Y-119253717D01*
X133518528Y-119246780D01*
X133423220Y-119151472D01*
X133416283Y-119147937D01*
X133416281Y-119147936D01*
X133310066Y-119093817D01*
X133310065Y-119093817D01*
X133303126Y-119090281D01*
X133295432Y-119089062D01*
X133295431Y-119089062D01*
X133207334Y-119075109D01*
X133207332Y-119075109D01*
X133203488Y-119074500D01*
X132636512Y-119074500D01*
X132632668Y-119075109D01*
X132632666Y-119075109D01*
X132544569Y-119089062D01*
X132544568Y-119089062D01*
X132536874Y-119090281D01*
X132529935Y-119093817D01*
X132529934Y-119093817D01*
X132423719Y-119147936D01*
X132423717Y-119147937D01*
X132416780Y-119151472D01*
X132321472Y-119246780D01*
X132317937Y-119253717D01*
X132317936Y-119253719D01*
X132291581Y-119305445D01*
X132248316Y-119348709D01*
X132203371Y-119359500D01*
X132189019Y-119359500D01*
X132168191Y-119357284D01*
X132157216Y-119354921D01*
X132124556Y-119358787D01*
X132124324Y-119358814D01*
X132117717Y-119359204D01*
X132114137Y-119359500D01*
X132110050Y-119359500D01*
X132098497Y-119361423D01*
X132091497Y-119362588D01*
X132086878Y-119363246D01*
X132046159Y-119368065D01*
X132046157Y-119368065D01*
X132038033Y-119369027D01*
X132031083Y-119372364D01*
X132029217Y-119372954D01*
X132021613Y-119374220D01*
X132014412Y-119378105D01*
X132014413Y-119378105D01*
X131978338Y-119397570D01*
X131974188Y-119399685D01*
X131929844Y-119420978D01*
X131928531Y-119418244D01*
X131881236Y-119430777D01*
X131873770Y-119430080D01*
X131836434Y-119425165D01*
X131830000Y-119424318D01*
X131673238Y-119444956D01*
X131527159Y-119505464D01*
X131401718Y-119601718D01*
X131305464Y-119727159D01*
X131302981Y-119733154D01*
X131249145Y-119863126D01*
X131244956Y-119873238D01*
X131224318Y-120030000D01*
X131244956Y-120186762D01*
X131305464Y-120332841D01*
X131401718Y-120458282D01*
X131527159Y-120554536D01*
X131554955Y-120566050D01*
X131590845Y-120580916D01*
X131637371Y-120620653D01*
X131651654Y-120680148D01*
X131628239Y-120736676D01*
X131576070Y-120768645D01*
X131552709Y-120771380D01*
X131010000Y-120770000D01*
X131010025Y-120778179D01*
X131010025Y-120778180D01*
X131018031Y-123348166D01*
X130999305Y-123406415D01*
X130949917Y-123442533D01*
X130918987Y-123447474D01*
X126601399Y-123445566D01*
X126543217Y-123426633D01*
X126507275Y-123377117D01*
X126502444Y-123346129D01*
X126527269Y-117719063D01*
X126546433Y-117660956D01*
X126596091Y-117625211D01*
X126626268Y-117620500D01*
X134579748Y-117620500D01*
X134605995Y-117615279D01*
X134628666Y-117610770D01*
X134628668Y-117610769D01*
X134638231Y-117608867D01*
X134704552Y-117564552D01*
X134748867Y-117498231D01*
X134760500Y-117439748D01*
X134760500Y-117000252D01*
X134748867Y-116941769D01*
X134704552Y-116875448D01*
X134638231Y-116831133D01*
X134628668Y-116829231D01*
X134628666Y-116829230D01*
X134605995Y-116824721D01*
X134579748Y-116819500D01*
X134430389Y-116819500D01*
X134372198Y-116800593D01*
X134336234Y-116751093D01*
X134331592Y-116726833D01*
X134210439Y-114836843D01*
X134160000Y-114050000D01*
X134079760Y-113970500D01*
X132844972Y-112747101D01*
X132816942Y-112692714D01*
X132826233Y-112632238D01*
X132846304Y-112605151D01*
X133269261Y-112201545D01*
X133336080Y-112137783D01*
X133391232Y-112111289D01*
X133451423Y-112122272D01*
G37*
%TD.AperFunction*%
%TD*%
%TA.AperFunction,Conductor*%
%TO.N,GND*%
G36*
X124104685Y-85771005D02*
G01*
X124172614Y-85791646D01*
X124218601Y-85845736D01*
X124229500Y-85896999D01*
X124229500Y-86273834D01*
X124232481Y-86305369D01*
X124277366Y-86433184D01*
X124282958Y-86440754D01*
X124282959Y-86440757D01*
X124317096Y-86486974D01*
X124357850Y-86542150D01*
X124365421Y-86547742D01*
X124459243Y-86617041D01*
X124459246Y-86617042D01*
X124466816Y-86622634D01*
X124594631Y-86667519D01*
X124602277Y-86668242D01*
X124602278Y-86668242D01*
X124608248Y-86668806D01*
X124626166Y-86670500D01*
X125258834Y-86670500D01*
X125276752Y-86668806D01*
X125282722Y-86668242D01*
X125282723Y-86668242D01*
X125290369Y-86667519D01*
X125418184Y-86622634D01*
X125425754Y-86617042D01*
X125425757Y-86617041D01*
X125519579Y-86547742D01*
X125527150Y-86542150D01*
X125567904Y-86486974D01*
X125602041Y-86440757D01*
X125602042Y-86440754D01*
X125607634Y-86433184D01*
X125647468Y-86319752D01*
X125688911Y-86262106D01*
X125754941Y-86236018D01*
X125766351Y-86235500D01*
X125843500Y-86235500D01*
X125911621Y-86255502D01*
X125958114Y-86309158D01*
X125969500Y-86361500D01*
X125969500Y-86707571D01*
X125972564Y-86717002D01*
X125972565Y-86717006D01*
X125976297Y-86728491D01*
X125980913Y-86747716D01*
X125984354Y-86769442D01*
X125988855Y-86778275D01*
X125988856Y-86778279D01*
X125994341Y-86789044D01*
X126001905Y-86807304D01*
X126008704Y-86828228D01*
X126021639Y-86846031D01*
X126031965Y-86862883D01*
X126041950Y-86882480D01*
X126064503Y-86905033D01*
X126064516Y-86905047D01*
X126339968Y-87180498D01*
X126504368Y-87344898D01*
X126538393Y-87407211D01*
X126533329Y-87478026D01*
X126504447Y-87523010D01*
X126450259Y-87577293D01*
X126445556Y-87587930D01*
X126445555Y-87587932D01*
X126421142Y-87643153D01*
X126404994Y-87679679D01*
X126402000Y-87705360D01*
X126402000Y-87994652D01*
X126405118Y-88020852D01*
X126408956Y-88029492D01*
X126408956Y-88029493D01*
X126437668Y-88094133D01*
X126450561Y-88123159D01*
X126529787Y-88202247D01*
X126540424Y-88206950D01*
X126540426Y-88206951D01*
X126599962Y-88233271D01*
X126632173Y-88247512D01*
X126657854Y-88250506D01*
X127260463Y-88250506D01*
X127280173Y-88252057D01*
X127365000Y-88265492D01*
X127449827Y-88252057D01*
X127469537Y-88250506D01*
X127847146Y-88250506D01*
X127850850Y-88250065D01*
X127850853Y-88250065D01*
X127858246Y-88249185D01*
X127873346Y-88247388D01*
X127901709Y-88234790D01*
X127965018Y-88206669D01*
X127975653Y-88201945D01*
X128054741Y-88122719D01*
X128066437Y-88096265D01*
X128087114Y-88049493D01*
X128100006Y-88020333D01*
X128103000Y-87994652D01*
X128103000Y-87705360D01*
X128099882Y-87679160D01*
X128077195Y-87628083D01*
X128059163Y-87587488D01*
X128054439Y-87576853D01*
X128042626Y-87565060D01*
X127990818Y-87513343D01*
X127975213Y-87497765D01*
X127964576Y-87493062D01*
X127964574Y-87493061D01*
X127881492Y-87456331D01*
X127881493Y-87456331D01*
X127872827Y-87452500D01*
X127847146Y-87449506D01*
X127790722Y-87449506D01*
X127722601Y-87429504D01*
X127693834Y-87402335D01*
X127693050Y-87400796D01*
X127603342Y-87311088D01*
X127034715Y-86742460D01*
X127000690Y-86680150D01*
X127005755Y-86609335D01*
X127048302Y-86552499D01*
X127114822Y-86527688D01*
X127165559Y-86534484D01*
X127216860Y-86552499D01*
X127259631Y-86567519D01*
X127267277Y-86568242D01*
X127267278Y-86568242D01*
X127273248Y-86568806D01*
X127291166Y-86570500D01*
X127923834Y-86570500D01*
X127941752Y-86568806D01*
X127947722Y-86568242D01*
X127947723Y-86568242D01*
X127955369Y-86567519D01*
X128083184Y-86522634D01*
X128090754Y-86517042D01*
X128090757Y-86517041D01*
X128184579Y-86447742D01*
X128192150Y-86442150D01*
X128205334Y-86424301D01*
X128267041Y-86340757D01*
X128267042Y-86340754D01*
X128272634Y-86333184D01*
X128317519Y-86205369D01*
X128320500Y-86173834D01*
X128320500Y-85937833D01*
X128340502Y-85869712D01*
X128394158Y-85823219D01*
X128447685Y-85811839D01*
X132566031Y-85850561D01*
X132578357Y-85851282D01*
X132754520Y-85870282D01*
X132778667Y-85875314D01*
X132941836Y-85926417D01*
X132964542Y-85936059D01*
X133114624Y-86017972D01*
X133135014Y-86031851D01*
X133266259Y-86141430D01*
X133283553Y-86159014D01*
X133384947Y-86284644D01*
X133390937Y-86292066D01*
X133404476Y-86312685D01*
X133483883Y-86464115D01*
X133493143Y-86486974D01*
X133541524Y-86650967D01*
X133546153Y-86675182D01*
X133552280Y-86742462D01*
X133562222Y-86851650D01*
X133562738Y-86863987D01*
X133560449Y-87180498D01*
X133549064Y-88754413D01*
X133528570Y-88822386D01*
X133474580Y-88868489D01*
X133423068Y-88879500D01*
X133406084Y-88879500D01*
X133337963Y-88859498D01*
X133291470Y-88805842D01*
X133287202Y-88795249D01*
X133255755Y-88705702D01*
X133255754Y-88705699D01*
X133252634Y-88696816D01*
X133247042Y-88689246D01*
X133247041Y-88689243D01*
X133177742Y-88595421D01*
X133172150Y-88587850D01*
X133145183Y-88567932D01*
X133070757Y-88512959D01*
X133070754Y-88512958D01*
X133063184Y-88507366D01*
X132935369Y-88462481D01*
X132927723Y-88461758D01*
X132927722Y-88461758D01*
X132921752Y-88461194D01*
X132903834Y-88459500D01*
X132006396Y-88459500D01*
X131982266Y-88456932D01*
X131976698Y-88454977D01*
X131971191Y-88454500D01*
X131969761Y-88454500D01*
X131964981Y-88453471D01*
X131902596Y-88419579D01*
X131868437Y-88357340D01*
X131865500Y-88330293D01*
X131865500Y-88165824D01*
X131867533Y-88146725D01*
X131867760Y-88141917D01*
X131869951Y-88131739D01*
X131866373Y-88101509D01*
X131866063Y-88096254D01*
X131865928Y-88096265D01*
X131865500Y-88091086D01*
X131865500Y-88085885D01*
X131862611Y-88068527D01*
X131861774Y-88062651D01*
X131857460Y-88026201D01*
X131857460Y-88026199D01*
X131856236Y-88015862D01*
X131852577Y-88008242D01*
X131851188Y-87999897D01*
X131828806Y-87958416D01*
X131826113Y-87953130D01*
X131805726Y-87910674D01*
X131802408Y-87906726D01*
X131800475Y-87904793D01*
X131799010Y-87903196D01*
X131798746Y-87902706D01*
X131798766Y-87902687D01*
X131798687Y-87902598D01*
X131795778Y-87897206D01*
X131781632Y-87884129D01*
X131759364Y-87863545D01*
X131755798Y-87860116D01*
X131553789Y-87658107D01*
X131541711Y-87643153D01*
X131538479Y-87639601D01*
X131532831Y-87630854D01*
X131508920Y-87612004D01*
X131504985Y-87608507D01*
X131504897Y-87608611D01*
X131500938Y-87605256D01*
X131497260Y-87601578D01*
X131493035Y-87598559D01*
X131493027Y-87598552D01*
X131482926Y-87591334D01*
X131478179Y-87587770D01*
X131463113Y-87575893D01*
X131441195Y-87558614D01*
X131433219Y-87555813D01*
X131426337Y-87550895D01*
X131415876Y-87547766D01*
X131380791Y-87531014D01*
X131373449Y-87525987D01*
X131365213Y-87517765D01*
X131262827Y-87472500D01*
X131237146Y-87469506D01*
X130936595Y-87469506D01*
X130936544Y-87469504D01*
X130936519Y-87469500D01*
X130208481Y-87469500D01*
X130208456Y-87469504D01*
X130208405Y-87469506D01*
X130047854Y-87469506D01*
X130044150Y-87469947D01*
X130044147Y-87469947D01*
X130036754Y-87470827D01*
X130021654Y-87472624D01*
X130013014Y-87476462D01*
X130013013Y-87476462D01*
X129946552Y-87505983D01*
X129919347Y-87518067D01*
X129911128Y-87526300D01*
X129911127Y-87526301D01*
X129882820Y-87554658D01*
X129840259Y-87597293D01*
X129835556Y-87607930D01*
X129835555Y-87607932D01*
X129819984Y-87643153D01*
X129794994Y-87699679D01*
X129792000Y-87725360D01*
X129792000Y-88014652D01*
X129795118Y-88040852D01*
X129798956Y-88049492D01*
X129798956Y-88049493D01*
X129835488Y-88131739D01*
X129840561Y-88143159D01*
X129848794Y-88151378D01*
X129848795Y-88151379D01*
X129880335Y-88182864D01*
X129919787Y-88222247D01*
X129930427Y-88226951D01*
X129948158Y-88234790D01*
X130002374Y-88280629D01*
X130023201Y-88348502D01*
X130004026Y-88416860D01*
X129948361Y-88465180D01*
X129919347Y-88478067D01*
X129911128Y-88486300D01*
X129911127Y-88486301D01*
X129890099Y-88507366D01*
X129840259Y-88557293D01*
X129835556Y-88567930D01*
X129835555Y-88567932D01*
X129810660Y-88624243D01*
X129794994Y-88659679D01*
X129792000Y-88685360D01*
X129792000Y-88974652D01*
X129795118Y-89000852D01*
X129840561Y-89103159D01*
X129919787Y-89182247D01*
X129928714Y-89186193D01*
X129972851Y-89240241D01*
X129980899Y-89310779D01*
X129949533Y-89374472D01*
X129932056Y-89389643D01*
X129924347Y-89393067D01*
X129845259Y-89472293D01*
X129840556Y-89482930D01*
X129840555Y-89482932D01*
X129814235Y-89542468D01*
X129799994Y-89574679D01*
X129797000Y-89600360D01*
X129797000Y-89889652D01*
X129800118Y-89915852D01*
X129803956Y-89924492D01*
X129803956Y-89924493D01*
X129832773Y-89989370D01*
X129845561Y-90018159D01*
X129853794Y-90026378D01*
X129853795Y-90026379D01*
X129883419Y-90055951D01*
X129924787Y-90097247D01*
X129935424Y-90101950D01*
X129935426Y-90101951D01*
X129973337Y-90118711D01*
X130027173Y-90142512D01*
X130052854Y-90145506D01*
X131242146Y-90145506D01*
X131245850Y-90145065D01*
X131245853Y-90145065D01*
X131253246Y-90144185D01*
X131268346Y-90142388D01*
X131345661Y-90108046D01*
X131402745Y-90097337D01*
X131411828Y-90097765D01*
X131422008Y-90099957D01*
X131452238Y-90096379D01*
X131457493Y-90096069D01*
X131457482Y-90095934D01*
X131462661Y-90095506D01*
X131467862Y-90095506D01*
X131472990Y-90094652D01*
X131472996Y-90094652D01*
X131485220Y-90092617D01*
X131491096Y-90091780D01*
X131527546Y-90087466D01*
X131527548Y-90087466D01*
X131537885Y-90086242D01*
X131545505Y-90082583D01*
X131553850Y-90081194D01*
X131595331Y-90058812D01*
X131600617Y-90056119D01*
X131618110Y-90047719D01*
X131643073Y-90035732D01*
X131647021Y-90032414D01*
X131648954Y-90030481D01*
X131650551Y-90029016D01*
X131651041Y-90028752D01*
X131651060Y-90028772D01*
X131651149Y-90028693D01*
X131656541Y-90025784D01*
X131673421Y-90007524D01*
X131690202Y-89989370D01*
X131693631Y-89985804D01*
X131726899Y-89952536D01*
X131741853Y-89940458D01*
X131745405Y-89937226D01*
X131754152Y-89931578D01*
X131772350Y-89908494D01*
X131830231Y-89867381D01*
X131871300Y-89860500D01*
X132903834Y-89860500D01*
X132921752Y-89858806D01*
X132927722Y-89858242D01*
X132927723Y-89858242D01*
X132935369Y-89857519D01*
X133063184Y-89812634D01*
X133070754Y-89807042D01*
X133070757Y-89807041D01*
X133164579Y-89737742D01*
X133172150Y-89732150D01*
X133177743Y-89724578D01*
X133184406Y-89717915D01*
X133187081Y-89720590D01*
X133229134Y-89688712D01*
X133273878Y-89680500D01*
X133415451Y-89680500D01*
X133483572Y-89700502D01*
X133530065Y-89754158D01*
X133541448Y-89807410D01*
X133537708Y-90324460D01*
X133537296Y-90381414D01*
X133536598Y-90393777D01*
X133521612Y-90535221D01*
X133517874Y-90570496D01*
X133512865Y-90594722D01*
X133461828Y-90758426D01*
X133452183Y-90781204D01*
X133370144Y-90931787D01*
X133356238Y-90952237D01*
X133246353Y-91083891D01*
X133228718Y-91101230D01*
X133095237Y-91208870D01*
X133074549Y-91222433D01*
X132922603Y-91301922D01*
X132899664Y-91311182D01*
X132817395Y-91335315D01*
X132735124Y-91359448D01*
X132710823Y-91364047D01*
X132604125Y-91373534D01*
X132533807Y-91379786D01*
X132521433Y-91380275D01*
X120889762Y-91268124D01*
X120821837Y-91247466D01*
X120801882Y-91231225D01*
X120797405Y-91226748D01*
X120763379Y-91164436D01*
X120760500Y-91137653D01*
X120760500Y-90436500D01*
X120780502Y-90368379D01*
X120834158Y-90321886D01*
X120886500Y-90310500D01*
X121487885Y-90310500D01*
X121556006Y-90330502D01*
X121589235Y-90361639D01*
X121622850Y-90407150D01*
X121630425Y-90412745D01*
X121630426Y-90412746D01*
X121724243Y-90482041D01*
X121724246Y-90482042D01*
X121731816Y-90487634D01*
X121859631Y-90532519D01*
X121867277Y-90533242D01*
X121867278Y-90533242D01*
X121873248Y-90533806D01*
X121891166Y-90535500D01*
X122748834Y-90535500D01*
X122766752Y-90533806D01*
X122772722Y-90533242D01*
X122772723Y-90533242D01*
X122780369Y-90532519D01*
X122908184Y-90487634D01*
X122915754Y-90482042D01*
X122915757Y-90482041D01*
X123009579Y-90412742D01*
X123017150Y-90407150D01*
X123045787Y-90368379D01*
X123092041Y-90305757D01*
X123092042Y-90305754D01*
X123097634Y-90298184D01*
X123142519Y-90170369D01*
X123145500Y-90138834D01*
X124294500Y-90138834D01*
X124297481Y-90170369D01*
X124342366Y-90298184D01*
X124347958Y-90305754D01*
X124347959Y-90305757D01*
X124394213Y-90368379D01*
X124422850Y-90407150D01*
X124430421Y-90412742D01*
X124524243Y-90482041D01*
X124524246Y-90482042D01*
X124531816Y-90487634D01*
X124659631Y-90532519D01*
X124667277Y-90533242D01*
X124667278Y-90533242D01*
X124673248Y-90533806D01*
X124691166Y-90535500D01*
X125548834Y-90535500D01*
X125566752Y-90533806D01*
X125572722Y-90533242D01*
X125572723Y-90533242D01*
X125580369Y-90532519D01*
X125708184Y-90487634D01*
X125715754Y-90482042D01*
X125715757Y-90482041D01*
X125809579Y-90412742D01*
X125817150Y-90407150D01*
X125845787Y-90368379D01*
X125892041Y-90305757D01*
X125892042Y-90305754D01*
X125897634Y-90298184D01*
X125909374Y-90264753D01*
X125950816Y-90207107D01*
X126016846Y-90181018D01*
X126028257Y-90180500D01*
X127391519Y-90180500D01*
X127413258Y-90177057D01*
X127432968Y-90175506D01*
X127852146Y-90175506D01*
X127855850Y-90175065D01*
X127855853Y-90175065D01*
X127863246Y-90174185D01*
X127878346Y-90172388D01*
X127900108Y-90162722D01*
X127970018Y-90131669D01*
X127980653Y-90126945D01*
X128005604Y-90101951D01*
X128050069Y-90057408D01*
X128059741Y-90047719D01*
X128065041Y-90035732D01*
X128101175Y-89953998D01*
X128105006Y-89945333D01*
X128108000Y-89919652D01*
X128108000Y-89630360D01*
X128104882Y-89604160D01*
X128059439Y-89501853D01*
X128029828Y-89472293D01*
X128001999Y-89444513D01*
X127980213Y-89422765D01*
X127969576Y-89418062D01*
X127969574Y-89418061D01*
X127910038Y-89391741D01*
X127877827Y-89377500D01*
X127852146Y-89374506D01*
X127396595Y-89374506D01*
X127396544Y-89374504D01*
X127396519Y-89374500D01*
X127083083Y-89374500D01*
X127014962Y-89354498D01*
X126993988Y-89337595D01*
X126070909Y-88414516D01*
X126070905Y-88414513D01*
X126048342Y-88391950D01*
X126028746Y-88381965D01*
X126011888Y-88371635D01*
X125997441Y-88361139D01*
X125954086Y-88304918D01*
X125945500Y-88259202D01*
X125945500Y-87881166D01*
X125942519Y-87849631D01*
X125897634Y-87721816D01*
X125892042Y-87714246D01*
X125892041Y-87714243D01*
X125822742Y-87620421D01*
X125817150Y-87612850D01*
X125785693Y-87589615D01*
X125715757Y-87537959D01*
X125715754Y-87537958D01*
X125708184Y-87532366D01*
X125580369Y-87487481D01*
X125572723Y-87486758D01*
X125572722Y-87486758D01*
X125566752Y-87486194D01*
X125548834Y-87484500D01*
X124691166Y-87484500D01*
X124673248Y-87486194D01*
X124667278Y-87486758D01*
X124667277Y-87486758D01*
X124659631Y-87487481D01*
X124531816Y-87532366D01*
X124524246Y-87537958D01*
X124524243Y-87537959D01*
X124454307Y-87589615D01*
X124422850Y-87612850D01*
X124417258Y-87620421D01*
X124347959Y-87714243D01*
X124347958Y-87714246D01*
X124342366Y-87721816D01*
X124297481Y-87849631D01*
X124294500Y-87881166D01*
X124294500Y-90138834D01*
X123145500Y-90138834D01*
X123145500Y-87881166D01*
X123142519Y-87849631D01*
X123097634Y-87721816D01*
X123092042Y-87714246D01*
X123092041Y-87714243D01*
X123022742Y-87620421D01*
X123017150Y-87612850D01*
X122985693Y-87589615D01*
X122915757Y-87537959D01*
X122915754Y-87537958D01*
X122908184Y-87532366D01*
X122780369Y-87487481D01*
X122772723Y-87486758D01*
X122772722Y-87486758D01*
X122766752Y-87486194D01*
X122748834Y-87484500D01*
X121891166Y-87484500D01*
X121873248Y-87486194D01*
X121867278Y-87486758D01*
X121867277Y-87486758D01*
X121859631Y-87487481D01*
X121731816Y-87532366D01*
X121724246Y-87537958D01*
X121724243Y-87537959D01*
X121654307Y-87589615D01*
X121622850Y-87612850D01*
X121617258Y-87620421D01*
X121547959Y-87714243D01*
X121547958Y-87714246D01*
X121542366Y-87721816D01*
X121497481Y-87849631D01*
X121494500Y-87881166D01*
X121494500Y-88783500D01*
X121474498Y-88851621D01*
X121420842Y-88898114D01*
X121368500Y-88909500D01*
X120936139Y-88909500D01*
X120868018Y-88889498D01*
X120821525Y-88835842D01*
X120810692Y-88791148D01*
X120810500Y-88791166D01*
X120810375Y-88789839D01*
X120810374Y-88789836D01*
X120809776Y-88783500D01*
X120808242Y-88767278D01*
X120808242Y-88767277D01*
X120807519Y-88759631D01*
X120762634Y-88631816D01*
X120757042Y-88624246D01*
X120757041Y-88624243D01*
X120687742Y-88530421D01*
X120682150Y-88522850D01*
X120621519Y-88478067D01*
X120580758Y-88447960D01*
X120580757Y-88447959D01*
X120573184Y-88442366D01*
X120573337Y-88442159D01*
X120526699Y-88396706D01*
X120510500Y-88334903D01*
X120510500Y-87628083D01*
X120530502Y-87559962D01*
X120547405Y-87538988D01*
X121878987Y-86207405D01*
X121941299Y-86173380D01*
X121968082Y-86170500D01*
X122280081Y-86170500D01*
X122348202Y-86190502D01*
X122394695Y-86244158D01*
X122405522Y-86284643D01*
X122407481Y-86305369D01*
X122452366Y-86433184D01*
X122457958Y-86440754D01*
X122457959Y-86440757D01*
X122492096Y-86486974D01*
X122532850Y-86542150D01*
X122540421Y-86547742D01*
X122634243Y-86617041D01*
X122634246Y-86617042D01*
X122641816Y-86622634D01*
X122769631Y-86667519D01*
X122777277Y-86668242D01*
X122777278Y-86668242D01*
X122783248Y-86668806D01*
X122801166Y-86670500D01*
X123433834Y-86670500D01*
X123451752Y-86668806D01*
X123457722Y-86668242D01*
X123457723Y-86668242D01*
X123465369Y-86667519D01*
X123593184Y-86622634D01*
X123600754Y-86617042D01*
X123600757Y-86617041D01*
X123694579Y-86547742D01*
X123702150Y-86542150D01*
X123742904Y-86486974D01*
X123777041Y-86440757D01*
X123777042Y-86440754D01*
X123782634Y-86433184D01*
X123827519Y-86305369D01*
X123830500Y-86273834D01*
X123830500Y-85895617D01*
X123850502Y-85827496D01*
X123904158Y-85781003D01*
X123957685Y-85769623D01*
X124104685Y-85771005D01*
G37*
%TD.AperFunction*%
%TA.AperFunction,Conductor*%
G36*
X120909645Y-85740964D02*
G01*
X120977574Y-85761605D01*
X121023561Y-85815696D01*
X121033003Y-85886061D01*
X121002904Y-85950362D01*
X120997560Y-85956048D01*
X119804516Y-87149091D01*
X119804513Y-87149095D01*
X119781950Y-87171658D01*
X119777446Y-87180498D01*
X119771965Y-87191255D01*
X119761639Y-87208107D01*
X119748704Y-87225910D01*
X119741907Y-87246830D01*
X119734341Y-87265094D01*
X119728856Y-87275859D01*
X119728855Y-87275863D01*
X119724354Y-87284696D01*
X119722803Y-87294487D01*
X119722803Y-87294488D01*
X119720913Y-87306422D01*
X119716297Y-87325647D01*
X119712565Y-87337132D01*
X119712564Y-87337136D01*
X119709500Y-87346567D01*
X119709500Y-88334903D01*
X119689498Y-88403024D01*
X119646766Y-88442298D01*
X119646816Y-88442366D01*
X119639243Y-88447959D01*
X119639242Y-88447960D01*
X119598481Y-88478067D01*
X119537850Y-88522850D01*
X119532258Y-88530421D01*
X119462959Y-88624243D01*
X119462958Y-88624246D01*
X119457366Y-88631816D01*
X119412481Y-88759631D01*
X119409500Y-88791166D01*
X119409500Y-89336241D01*
X119400893Y-89382010D01*
X119376524Y-89444513D01*
X119375532Y-89452046D01*
X119375532Y-89452047D01*
X119372867Y-89472293D01*
X119359500Y-89573826D01*
X119359500Y-90751967D01*
X119339498Y-90820088D01*
X119285842Y-90866581D01*
X119215568Y-90876685D01*
X119150988Y-90847191D01*
X119124713Y-90815538D01*
X119051755Y-90690687D01*
X119041803Y-90669271D01*
X118987034Y-90515001D01*
X118981254Y-90492105D01*
X118955325Y-90324460D01*
X118954068Y-90312707D01*
X118744213Y-86796050D01*
X118744105Y-86783143D01*
X118749035Y-86668242D01*
X118752044Y-86598117D01*
X118755779Y-86572609D01*
X118799621Y-86399364D01*
X118808470Y-86375149D01*
X118886650Y-86214469D01*
X118900242Y-86192562D01*
X119009498Y-86051148D01*
X119027266Y-86032465D01*
X119163019Y-85916251D01*
X119184216Y-85901577D01*
X119241090Y-85870282D01*
X119340778Y-85815428D01*
X119364511Y-85805379D01*
X119535331Y-85752900D01*
X119560621Y-85747889D01*
X119745028Y-85730674D01*
X119757925Y-85730135D01*
X120909645Y-85740964D01*
G37*
%TD.AperFunction*%
%TD*%
M02*
