M48
; DRILL file {KiCad (6.0.9)} date Fri Dec 23 18:09:12 2022
; FORMAT={-:-/ absolute / inch / decimal}
; #@! TF.CreationDate,2022-12-23T18:09:12+01:00
; #@! TF.GenerationSoftware,Kicad,Pcbnew,(6.0.9)
; #@! TF.FileFunction,Plated,1,2,PTH
FMAT,2
INCH
; #@! TA.AperFunction,Plated,PTH,ViaDrill
T1C0.0157
; #@! TA.AperFunction,Plated,PTH,ComponentDrill
T2C0.0197
; #@! TA.AperFunction,Plated,PTH,ComponentDrill
T3C0.0236
; #@! TA.AperFunction,Plated,PTH,ComponentDrill
T4C0.0374
; #@! TA.AperFunction,Plated,PTH,ComponentDrill
T5C0.0394
; #@! TA.AperFunction,Plated,PTH,ComponentDrill
T6C0.0398
; #@! TA.AperFunction,Plated,PTH,ComponentDrill
T7C0.0598
; #@! TA.AperFunction,Plated,PTH,ComponentDrill
T8C0.0984
%
G90
G05
T1
X4.5402Y-4.2484
X4.5484Y-4.3402
X4.5969Y-3.8539
X4.6177Y-3.9953
X4.624Y-4.5957
X4.6315Y-3.5811
X4.6461Y-3.4606
X4.6709Y-3.8421
X4.676Y-4.1043
X4.6957Y-3.4173
X4.7075Y-4.4406
X4.7166Y-4.7071
X4.7307Y-4.578
X4.7398Y-3.6146
X4.7579Y-4.648
X4.7799Y-4.3508
X4.789Y-4.7785
X4.7898Y-4.6811
X4.7925Y-4.4268
X4.8213Y-4.613
X4.8276Y-4.3374
X4.8343Y-4.4602
X4.861Y-4.4051
X4.8756Y-4.3307
X4.876Y-3.4283
X4.8906Y-4.3949
X4.8941Y-4.6654
X4.9091Y-4.7634
X4.939Y-4.7161
X4.9476Y-4.2906
X4.9488Y-4.3228
X4.9547Y-4.0338
X4.9561Y-4.0955
X4.9799Y-4.0665
X4.9949Y-4.3669
X5.0024Y-4.1815
X5.0256Y-4.2453
X5.0299Y-4.6106
X5.0327Y-4.2933
X5.0441Y-4.3643
X5.0681Y-3.4287
X5.0907Y-4.3841
X5.1Y-4.2193
X5.1146Y-4.4236
X5.1535Y-4.1642
X5.1551Y-4.2685
X5.1902Y-4.7256
X5.2008Y-4.3118
X5.2051Y-4.2126
X5.2059Y-4.411
X5.2118Y-4.1083
X5.2528Y-3.8756
X5.2583Y-4.2598
X5.2618Y-4.1575
X5.2638Y-3.4354
X5.2642Y-4.5291
X5.2713Y-3.9173
X5.3012Y-4.613
X5.3035Y-3.5543
X5.3157Y-4.2055
X5.3209Y-4.3799
X5.3285Y-4.037
X5.3535Y-3.3933
X5.3535Y-4.0024
X5.3576Y-4.3832
X5.3626Y-3.7461
X5.3682Y-4.0898
X5.3693Y-4.3516
X5.3734Y-4.4104
X5.4001Y-4.3361
X5.4004Y-4.0647
X5.4102Y-3.7563
X5.4114Y-4.1618
X5.4138Y-4.2441
X5.4185Y-3.5354
X5.4205Y-4.1295
X5.4213Y-4.0929
X5.4291Y-4.6134
X5.4315Y-4.3201
X5.4323Y-4.4201
X5.4411Y-4.1821
X5.4488Y-3.7547
X5.4518Y-4.2422
X5.4598Y-3.5441
X5.4634Y-3.3929
X5.478Y-4.1961
X5.4874Y-4.2736
X5.4909Y-4.2382
X5.5079Y-4.5752
X5.5146Y-4.1705
X5.5193Y-4.0083
X5.5382Y-3.5587
X5.548Y-4.0055
X5.5815Y-3.6323
X5.5831Y-3.5728
X5.5843Y-4.6138
X5.5882Y-4.4201
X5.6209Y-3.7394
X5.6209Y-3.7752
X5.6362Y-4.5677
X5.6724Y-4.2386
X5.6894Y-4.0689
X5.6917Y-4.1161
X5.6961Y-4.1717
X5.7115Y-4.0351
X5.7327Y-4.1437
X5.7339Y-4.0913
X5.7457Y-3.5421
X5.7886Y-4.485
X5.8067Y-4.0984
X5.8126Y-4.3185
X5.8358Y-4.3472
X5.863Y-4.0228
X5.8661Y-4.3768
X6.0435Y-4.0226
X6.1224Y-4.2752
X6.1232Y-3.9083
X6.1264Y-3.9512
X6.1555Y-4.1909
X6.1602Y-4.5331
X6.1756Y-4.3811
T2
X4.4797Y-3.1606
X4.4868Y-4.7579
X4.5013Y-3.1084
X4.5013Y-3.2128
X4.5084Y-4.7057
X4.5084Y-4.8101
X4.5535Y-3.0868
X4.5535Y-3.2344
X4.5606Y-4.6841
X4.5606Y-4.8317
X4.6057Y-3.1084
X4.6057Y-3.2128
X4.6128Y-4.7057
X4.6128Y-4.8101
X4.6274Y-3.1606
X4.6344Y-4.7579
X6.0677Y-3.16
X6.0707Y-4.7516
X6.0893Y-3.1078
X6.0893Y-3.2122
X6.0923Y-4.6994
X6.0923Y-4.8038
X6.1415Y-3.0862
X6.1415Y-3.2338
X6.1445Y-4.6778
X6.1445Y-4.8254
X6.1937Y-3.1078
X6.1937Y-3.2122
X6.1967Y-4.6994
X6.1967Y-4.8038
X6.2153Y-3.16
X6.2183Y-4.7516
T3
X5.361Y-3.0972
X5.4122Y-3.2941
T4
X5.7134Y-4.5953
X5.728Y-4.7921
X5.8118Y-4.5953
X5.8264Y-4.7921
X5.9102Y-4.5953
X5.9248Y-4.7921
X6.0087Y-4.5953
T5
X4.5383Y-3.4406
X4.5383Y-4.0469
X5.565Y-3.1976
X5.6958Y-3.6453
X5.6958Y-3.8421
X5.8994Y-3.433
X5.9021Y-3.7775
X5.9587Y-3.1976
X6.1776Y-3.4359
X6.1796Y-3.7806
T6
X5.1632Y-3.0957
X5.2105Y-3.2965
T7
X4.7701Y-3.172
X4.9701Y-3.172
T8
X4.5535Y-3.1606
X4.5606Y-4.7579
X6.1415Y-3.16
X6.1445Y-4.7516
T2
G00X4.4669Y-4.1677
M15
G01X4.4945Y-4.1677
M16
G05
G00X4.4669Y-4.452
M15
G01X4.4945Y-4.452
M16
G05
G00X4.6035Y-4.4516
M15
G01X4.6311Y-4.4516
M16
G05
G00X4.6039Y-4.1685
M15
G01X4.6315Y-4.1685
M16
G05
T0
M30
