%TF.GenerationSoftware,KiCad,Pcbnew,(6.0.9)*%
%TF.CreationDate,2022-12-23T18:09:19+01:00*%
%TF.ProjectId,Home Automation Coffee Machine PRO,486f6d65-2041-4757-946f-6d6174696f6e,5.3*%
%TF.SameCoordinates,Original*%
%TF.FileFunction,Profile,NP*%
%FSLAX46Y46*%
G04 Gerber Fmt 4.6, Leading zero omitted, Abs format (unit mm)*
G04 Created by KiCad (PCBNEW (6.0.9)) date 2022-12-23 18:09:19*
%MOMM*%
%LPD*%
G01*
G04 APERTURE LIST*
%TA.AperFunction,Profile*%
%ADD10C,0.100000*%
%TD*%
%TA.AperFunction,Profile*%
%ADD11C,0.050000*%
%TD*%
G04 APERTURE END LIST*
D10*
X141220000Y-84270004D02*
G75*
G03*
X140810001Y-84700487I-200J-410296D01*
G01*
X140799514Y-87560488D02*
X140810001Y-84700487D01*
X139812572Y-88583242D02*
G75*
G03*
X140243099Y-88993241I410528J42D01*
G01*
D11*
X155783360Y-123659028D02*
G75*
G03*
X159093359Y-120267997I40J3310928D01*
G01*
X159090899Y-80620068D02*
G75*
G03*
X155699933Y-77310069I-3310899J68D01*
G01*
D10*
X146100004Y-83700487D02*
G75*
G03*
X145669514Y-83290488I-410404J87D01*
G01*
X141220000Y-84270000D02*
X144660001Y-84280487D01*
X145090001Y-87550486D02*
X145090488Y-84690486D01*
X145680002Y-89000974D02*
X144680002Y-89000973D01*
X144680002Y-87980979D02*
G75*
G03*
X145090001Y-87550486I-202J410679D01*
G01*
X146090001Y-88570487D02*
X146100001Y-83700487D01*
X141230001Y-88990487D02*
X140243099Y-88993241D01*
X139807246Y-83693585D02*
X139812612Y-88583242D01*
D11*
X115972682Y-77282529D02*
X155699933Y-77310069D01*
X112704510Y-120331424D02*
G75*
G03*
X116095431Y-123641423I3310890J-76D01*
G01*
D10*
X145669514Y-83290488D02*
X140217245Y-83263098D01*
X141230001Y-88990513D02*
G75*
G03*
X141230001Y-87970487I-1J510013D01*
G01*
D11*
X115972682Y-77282516D02*
G75*
G03*
X112662683Y-80673495I18J-3310984D01*
G01*
D10*
X140799525Y-87560488D02*
G75*
G03*
X141230001Y-87970487I410475J-12D01*
G01*
X145090500Y-84690486D02*
G75*
G03*
X144660001Y-84280487I-410500J-14D01*
G01*
X144680002Y-87981027D02*
G75*
G03*
X144680002Y-89000973I98J-509973D01*
G01*
D11*
X159090899Y-80620068D02*
X159093359Y-120267997D01*
D10*
X140217245Y-83263064D02*
G75*
G03*
X139807246Y-83693585I155J-410636D01*
G01*
D11*
X155783360Y-123658963D02*
X116095431Y-123641423D01*
X112704465Y-120331424D02*
X112662683Y-80673495D01*
D10*
X145680002Y-89000879D02*
G75*
G03*
X146090001Y-88570487I-102J410579D01*
G01*
M02*
