%TF.GenerationSoftware,KiCad,Pcbnew,(6.0.9)*%
%TF.CreationDate,2022-12-23T18:09:11+01:00*%
%TF.ProjectId,Home Automation Coffee Machine PRO,486f6d65-2041-4757-946f-6d6174696f6e,5.3*%
%TF.SameCoordinates,Original*%
%TF.FileFunction,Drillmap*%
%TF.FilePolarity,Positive*%
%FSLAX45Y45*%
G04 Gerber Fmt 4.5, Leading zero omitted, Abs format (unit mm)*
G04 Created by KiCad (PCBNEW (6.0.9)) date 2022-12-23 18:09:11*
%MOMM*%
%LPD*%
G01*
G04 APERTURE LIST*
%ADD10C,0.100000*%
%ADD11C,0.050000*%
%ADD12C,0.200000*%
G04 APERTURE END LIST*
D10*
X14122000Y-8427000D02*
G75*
G03*
X14081000Y-8470049I-20J-41030D01*
G01*
X14079951Y-8756049D02*
X14081000Y-8470049D01*
X13981257Y-8858324D02*
G75*
G03*
X14024310Y-8899324I41053J4D01*
G01*
D11*
X15578336Y-12365903D02*
G75*
G03*
X15909336Y-12026800I4J331093D01*
G01*
X15909090Y-8062007D02*
G75*
G03*
X15569993Y-7731007I-331090J7D01*
G01*
D10*
X14610000Y-8370049D02*
G75*
G03*
X14566951Y-8329049I-41040J9D01*
G01*
X14122000Y-8427000D02*
X14466000Y-8428049D01*
X14509000Y-8755049D02*
X14509049Y-8469049D01*
X14568000Y-8900097D02*
X14468000Y-8900097D01*
X14468000Y-8798098D02*
G75*
G03*
X14509000Y-8755049I-20J41068D01*
G01*
X14609000Y-8857049D02*
X14610000Y-8370049D01*
X14123000Y-8899049D02*
X14024310Y-8899324D01*
X13980725Y-8369358D02*
X13981261Y-8858324D01*
D11*
X11597268Y-7728253D02*
X15569993Y-7731007D01*
X11270451Y-12033142D02*
G75*
G03*
X11609543Y-12364142I331089J-8D01*
G01*
D10*
X14566951Y-8329049D02*
X14021724Y-8326310D01*
X14123000Y-8899051D02*
G75*
G03*
X14123000Y-8797049I0J51001D01*
G01*
D11*
X11597268Y-7728252D02*
G75*
G03*
X11266268Y-8067349I2J-331098D01*
G01*
D10*
X14079952Y-8756049D02*
G75*
G03*
X14123000Y-8797049I41048J-1D01*
G01*
X14509050Y-8469049D02*
G75*
G03*
X14466000Y-8428049I-41050J-1D01*
G01*
X14468000Y-8798103D02*
G75*
G03*
X14468000Y-8900097I10J-50997D01*
G01*
D11*
X15909090Y-8062007D02*
X15909336Y-12026800D01*
D10*
X14021724Y-8326306D02*
G75*
G03*
X13980725Y-8369358I16J-41064D01*
G01*
D11*
X15578336Y-12365896D02*
X11609543Y-12364142D01*
X11270446Y-12033142D02*
X11266268Y-8067349D01*
D10*
X14568000Y-8900088D02*
G75*
G03*
X14609000Y-8857049I-10J41058D01*
G01*
D12*
X11521291Y-12678872D02*
X11521291Y-12478872D01*
X11568910Y-12478872D01*
X11597481Y-12488396D01*
X11616529Y-12507444D01*
X11626052Y-12526491D01*
X11635576Y-12564587D01*
X11635576Y-12593158D01*
X11626052Y-12631253D01*
X11616529Y-12650301D01*
X11597481Y-12669349D01*
X11568910Y-12678872D01*
X11521291Y-12678872D01*
X11721291Y-12678872D02*
X11721291Y-12545539D01*
X11721291Y-12583634D02*
X11730814Y-12564587D01*
X11740338Y-12555063D01*
X11759386Y-12545539D01*
X11778433Y-12545539D01*
X11845100Y-12678872D02*
X11845100Y-12545539D01*
X11845100Y-12478872D02*
X11835576Y-12488396D01*
X11845100Y-12497920D01*
X11854624Y-12488396D01*
X11845100Y-12478872D01*
X11845100Y-12497920D01*
X11968910Y-12678872D02*
X11949862Y-12669349D01*
X11940338Y-12650301D01*
X11940338Y-12478872D01*
X12073672Y-12678872D02*
X12054624Y-12669349D01*
X12045100Y-12650301D01*
X12045100Y-12478872D01*
X12302243Y-12678872D02*
X12302243Y-12478872D01*
X12368910Y-12621730D01*
X12435576Y-12478872D01*
X12435576Y-12678872D01*
X12616529Y-12678872D02*
X12616529Y-12574110D01*
X12607005Y-12555063D01*
X12587957Y-12545539D01*
X12549862Y-12545539D01*
X12530814Y-12555063D01*
X12616529Y-12669349D02*
X12597481Y-12678872D01*
X12549862Y-12678872D01*
X12530814Y-12669349D01*
X12521291Y-12650301D01*
X12521291Y-12631253D01*
X12530814Y-12612206D01*
X12549862Y-12602682D01*
X12597481Y-12602682D01*
X12616529Y-12593158D01*
X12711767Y-12545539D02*
X12711767Y-12745539D01*
X12711767Y-12555063D02*
X12730814Y-12545539D01*
X12768910Y-12545539D01*
X12787957Y-12555063D01*
X12797481Y-12564587D01*
X12807005Y-12583634D01*
X12807005Y-12640777D01*
X12797481Y-12659825D01*
X12787957Y-12669349D01*
X12768910Y-12678872D01*
X12730814Y-12678872D01*
X12711767Y-12669349D01*
X12892719Y-12659825D02*
X12902243Y-12669349D01*
X12892719Y-12678872D01*
X12883195Y-12669349D01*
X12892719Y-12659825D01*
X12892719Y-12678872D01*
X12892719Y-12555063D02*
X12902243Y-12564587D01*
X12892719Y-12574110D01*
X12883195Y-12564587D01*
X12892719Y-12555063D01*
X12892719Y-12574110D01*
M02*
