%TF.GenerationSoftware,KiCad,Pcbnew,(6.0.9)*%
%TF.CreationDate,2022-12-23T18:09:19+01:00*%
%TF.ProjectId,Home Automation Coffee Machine PRO,486f6d65-2041-4757-946f-6d6174696f6e,5.3*%
%TF.SameCoordinates,Original*%
%TF.FileFunction,Legend,Top*%
%TF.FilePolarity,Positive*%
%FSLAX46Y46*%
G04 Gerber Fmt 4.6, Leading zero omitted, Abs format (unit mm)*
G04 Created by KiCad (PCBNEW (6.0.9)) date 2022-12-23 18:09:19*
%MOMM*%
%LPD*%
G01*
G04 APERTURE LIST*
%ADD10C,0.200000*%
%ADD11C,0.120000*%
%ADD12C,0.150000*%
%ADD13C,0.280000*%
%ADD14C,0.250000*%
%ADD15C,0.010000*%
%ADD16C,0.127000*%
G04 APERTURE END LIST*
D10*
X157647619Y-98093333D02*
X157171428Y-98093333D01*
X157742857Y-97807619D02*
X157409523Y-98807619D01*
X157076190Y-97807619D01*
X156171428Y-97902857D02*
X156219047Y-97855238D01*
X156361904Y-97807619D01*
X156457142Y-97807619D01*
X156600000Y-97855238D01*
X156695238Y-97950476D01*
X156742857Y-98045714D01*
X156790476Y-98236190D01*
X156790476Y-98379047D01*
X156742857Y-98569523D01*
X156695238Y-98664761D01*
X156600000Y-98760000D01*
X156457142Y-98807619D01*
X156361904Y-98807619D01*
X156219047Y-98760000D01*
X156171428Y-98712380D01*
X154838095Y-98379047D02*
X154933333Y-98426666D01*
X154980952Y-98474285D01*
X155028571Y-98569523D01*
X155028571Y-98617142D01*
X154980952Y-98712380D01*
X154933333Y-98760000D01*
X154838095Y-98807619D01*
X154647619Y-98807619D01*
X154552380Y-98760000D01*
X154504761Y-98712380D01*
X154457142Y-98617142D01*
X154457142Y-98569523D01*
X154504761Y-98474285D01*
X154552380Y-98426666D01*
X154647619Y-98379047D01*
X154838095Y-98379047D01*
X154933333Y-98331428D01*
X154980952Y-98283809D01*
X155028571Y-98188571D01*
X155028571Y-97998095D01*
X154980952Y-97902857D01*
X154933333Y-97855238D01*
X154838095Y-97807619D01*
X154647619Y-97807619D01*
X154552380Y-97855238D01*
X154504761Y-97902857D01*
X154457142Y-97998095D01*
X154457142Y-98188571D01*
X154504761Y-98283809D01*
X154552380Y-98331428D01*
X154647619Y-98379047D01*
X153552380Y-98807619D02*
X154028571Y-98807619D01*
X154076190Y-98331428D01*
X154028571Y-98379047D01*
X153933333Y-98426666D01*
X153695238Y-98426666D01*
X153600000Y-98379047D01*
X153552380Y-98331428D01*
X153504761Y-98236190D01*
X153504761Y-97998095D01*
X153552380Y-97902857D01*
X153600000Y-97855238D01*
X153695238Y-97807619D01*
X153933333Y-97807619D01*
X154028571Y-97855238D01*
X154076190Y-97902857D01*
X153076190Y-98188571D02*
X152314285Y-98188571D01*
X151885714Y-98712380D02*
X151838095Y-98760000D01*
X151742857Y-98807619D01*
X151504761Y-98807619D01*
X151409523Y-98760000D01*
X151361904Y-98712380D01*
X151314285Y-98617142D01*
X151314285Y-98521904D01*
X151361904Y-98379047D01*
X151933333Y-97807619D01*
X151314285Y-97807619D01*
X150695238Y-98807619D02*
X150600000Y-98807619D01*
X150504761Y-98760000D01*
X150457142Y-98712380D01*
X150409523Y-98617142D01*
X150361904Y-98426666D01*
X150361904Y-98188571D01*
X150409523Y-97998095D01*
X150457142Y-97902857D01*
X150504761Y-97855238D01*
X150600000Y-97807619D01*
X150695238Y-97807619D01*
X150790476Y-97855238D01*
X150838095Y-97902857D01*
X150885714Y-97998095D01*
X150933333Y-98188571D01*
X150933333Y-98426666D01*
X150885714Y-98617142D01*
X150838095Y-98712380D01*
X150790476Y-98760000D01*
X150695238Y-98807619D01*
X149742857Y-98807619D02*
X149647619Y-98807619D01*
X149552380Y-98760000D01*
X149504761Y-98712380D01*
X149457142Y-98617142D01*
X149409523Y-98426666D01*
X149409523Y-98188571D01*
X149457142Y-97998095D01*
X149504761Y-97902857D01*
X149552380Y-97855238D01*
X149647619Y-97807619D01*
X149742857Y-97807619D01*
X149838095Y-97855238D01*
X149885714Y-97902857D01*
X149933333Y-97998095D01*
X149980952Y-98188571D01*
X149980952Y-98426666D01*
X149933333Y-98617142D01*
X149885714Y-98712380D01*
X149838095Y-98760000D01*
X149742857Y-98807619D01*
X149123809Y-98807619D02*
X148790476Y-97807619D01*
X148457142Y-98807619D01*
X139507619Y-85563333D02*
X139031428Y-85563333D01*
X139602857Y-85277619D02*
X139269523Y-86277619D01*
X138936190Y-85277619D01*
X138031428Y-85372857D02*
X138079047Y-85325238D01*
X138221904Y-85277619D01*
X138317142Y-85277619D01*
X138460000Y-85325238D01*
X138555238Y-85420476D01*
X138602857Y-85515714D01*
X138650476Y-85706190D01*
X138650476Y-85849047D01*
X138602857Y-86039523D01*
X138555238Y-86134761D01*
X138460000Y-86230000D01*
X138317142Y-86277619D01*
X138221904Y-86277619D01*
X138079047Y-86230000D01*
X138031428Y-86182380D01*
X136698095Y-85849047D02*
X136793333Y-85896666D01*
X136840952Y-85944285D01*
X136888571Y-86039523D01*
X136888571Y-86087142D01*
X136840952Y-86182380D01*
X136793333Y-86230000D01*
X136698095Y-86277619D01*
X136507619Y-86277619D01*
X136412380Y-86230000D01*
X136364761Y-86182380D01*
X136317142Y-86087142D01*
X136317142Y-86039523D01*
X136364761Y-85944285D01*
X136412380Y-85896666D01*
X136507619Y-85849047D01*
X136698095Y-85849047D01*
X136793333Y-85801428D01*
X136840952Y-85753809D01*
X136888571Y-85658571D01*
X136888571Y-85468095D01*
X136840952Y-85372857D01*
X136793333Y-85325238D01*
X136698095Y-85277619D01*
X136507619Y-85277619D01*
X136412380Y-85325238D01*
X136364761Y-85372857D01*
X136317142Y-85468095D01*
X136317142Y-85658571D01*
X136364761Y-85753809D01*
X136412380Y-85801428D01*
X136507619Y-85849047D01*
X135412380Y-86277619D02*
X135888571Y-86277619D01*
X135936190Y-85801428D01*
X135888571Y-85849047D01*
X135793333Y-85896666D01*
X135555238Y-85896666D01*
X135460000Y-85849047D01*
X135412380Y-85801428D01*
X135364761Y-85706190D01*
X135364761Y-85468095D01*
X135412380Y-85372857D01*
X135460000Y-85325238D01*
X135555238Y-85277619D01*
X135793333Y-85277619D01*
X135888571Y-85325238D01*
X135936190Y-85372857D01*
X134936190Y-85658571D02*
X134174285Y-85658571D01*
X133745714Y-86182380D02*
X133698095Y-86230000D01*
X133602857Y-86277619D01*
X133364761Y-86277619D01*
X133269523Y-86230000D01*
X133221904Y-86182380D01*
X133174285Y-86087142D01*
X133174285Y-85991904D01*
X133221904Y-85849047D01*
X133793333Y-85277619D01*
X133174285Y-85277619D01*
X132555238Y-86277619D02*
X132460000Y-86277619D01*
X132364761Y-86230000D01*
X132317142Y-86182380D01*
X132269523Y-86087142D01*
X132221904Y-85896666D01*
X132221904Y-85658571D01*
X132269523Y-85468095D01*
X132317142Y-85372857D01*
X132364761Y-85325238D01*
X132460000Y-85277619D01*
X132555238Y-85277619D01*
X132650476Y-85325238D01*
X132698095Y-85372857D01*
X132745714Y-85468095D01*
X132793333Y-85658571D01*
X132793333Y-85896666D01*
X132745714Y-86087142D01*
X132698095Y-86182380D01*
X132650476Y-86230000D01*
X132555238Y-86277619D01*
X131602857Y-86277619D02*
X131507619Y-86277619D01*
X131412380Y-86230000D01*
X131364761Y-86182380D01*
X131317142Y-86087142D01*
X131269523Y-85896666D01*
X131269523Y-85658571D01*
X131317142Y-85468095D01*
X131364761Y-85372857D01*
X131412380Y-85325238D01*
X131507619Y-85277619D01*
X131602857Y-85277619D01*
X131698095Y-85325238D01*
X131745714Y-85372857D01*
X131793333Y-85468095D01*
X131840952Y-85658571D01*
X131840952Y-85896666D01*
X131793333Y-86087142D01*
X131745714Y-86182380D01*
X131698095Y-86230000D01*
X131602857Y-86277619D01*
X130983809Y-86277619D02*
X130650476Y-85277619D01*
X130317142Y-86277619D01*
D11*
X148170000Y-97380000D02*
X151450000Y-97380000D01*
X151450000Y-97380000D02*
X151450000Y-94810000D01*
X151450000Y-94810000D02*
X148170000Y-94810000D01*
X148170000Y-94810000D02*
X148170000Y-97380000D01*
G36*
X148170000Y-97380000D02*
G01*
X151450000Y-97380000D01*
X151450000Y-94810000D01*
X148170000Y-94810000D01*
X148170000Y-97380000D01*
G37*
X155300000Y-97510000D02*
X158580000Y-97510000D01*
X158580000Y-97510000D02*
X158580000Y-94940000D01*
X158580000Y-94940000D02*
X155300000Y-94940000D01*
X155300000Y-94940000D02*
X155300000Y-97510000D01*
G36*
X155300000Y-97510000D02*
G01*
X158580000Y-97510000D01*
X158580000Y-94940000D01*
X155300000Y-94940000D01*
X155300000Y-97510000D01*
G37*
X148440000Y-88770000D02*
X158540000Y-88770000D01*
X158540000Y-88770000D02*
X158540000Y-86040000D01*
X158540000Y-86040000D02*
X148440000Y-86040000D01*
X148440000Y-86040000D02*
X148440000Y-88770000D01*
G36*
X148440000Y-88770000D02*
G01*
X158540000Y-88770000D01*
X158540000Y-86040000D01*
X148440000Y-86040000D01*
X148440000Y-88770000D01*
G37*
X118740000Y-84830000D02*
X139390000Y-84830000D01*
X139390000Y-84830000D02*
X139390000Y-77500000D01*
X139390000Y-77500000D02*
X118740000Y-77500000D01*
X118740000Y-77500000D02*
X118740000Y-84830000D01*
G36*
X118740000Y-84830000D02*
G01*
X139390000Y-84830000D01*
X139390000Y-77500000D01*
X118740000Y-77500000D01*
X118740000Y-84830000D01*
G37*
X142330000Y-90800000D02*
X146870000Y-90800000D01*
X146870000Y-90800000D02*
X146870000Y-100040000D01*
X146870000Y-100040000D02*
X142330000Y-100040000D01*
X142330000Y-100040000D02*
X142330000Y-90800000D01*
G36*
X142330000Y-90800000D02*
G01*
X146870000Y-90800000D01*
X146870000Y-100040000D01*
X142330000Y-100040000D01*
X142330000Y-90800000D01*
G37*
D12*
X119921904Y-122002380D02*
X120493333Y-122002380D01*
X120207619Y-123002380D02*
X120207619Y-122002380D01*
X121017142Y-122002380D02*
X121207619Y-122002380D01*
X121302857Y-122050000D01*
X121398095Y-122145238D01*
X121445714Y-122335714D01*
X121445714Y-122669047D01*
X121398095Y-122859523D01*
X121302857Y-122954761D01*
X121207619Y-123002380D01*
X121017142Y-123002380D01*
X120921904Y-122954761D01*
X120826666Y-122859523D01*
X120779047Y-122669047D01*
X120779047Y-122335714D01*
X120826666Y-122145238D01*
X120921904Y-122050000D01*
X121017142Y-122002380D01*
X122207619Y-122478571D02*
X121874285Y-122478571D01*
X121874285Y-123002380D02*
X121874285Y-122002380D01*
X122350476Y-122002380D01*
X148680000Y-120452380D02*
X148680000Y-119452380D01*
X148918095Y-119452380D01*
X149060952Y-119500000D01*
X149156190Y-119595238D01*
X149203809Y-119690476D01*
X149251428Y-119880952D01*
X149251428Y-120023809D01*
X149203809Y-120214285D01*
X149156190Y-120309523D01*
X149060952Y-120404761D01*
X148918095Y-120452380D01*
X148680000Y-120452380D01*
X149680000Y-120452380D02*
X149680000Y-119785714D01*
X149680000Y-119452380D02*
X149632380Y-119500000D01*
X149680000Y-119547619D01*
X149727619Y-119500000D01*
X149680000Y-119452380D01*
X149680000Y-119547619D01*
X153100000Y-120888095D02*
X153147619Y-120792857D01*
X153147619Y-120650000D01*
X153100000Y-120507142D01*
X153004761Y-120411904D01*
X152909523Y-120364285D01*
X152719047Y-120316666D01*
X152576190Y-120316666D01*
X152385714Y-120364285D01*
X152290476Y-120411904D01*
X152195238Y-120507142D01*
X152147619Y-120650000D01*
X152147619Y-120745238D01*
X152195238Y-120888095D01*
X152242857Y-120935714D01*
X152576190Y-120935714D01*
X152576190Y-120745238D01*
X152147619Y-121364285D02*
X153147619Y-121364285D01*
X152147619Y-121935714D01*
X153147619Y-121935714D01*
X152147619Y-122411904D02*
X153147619Y-122411904D01*
X153147619Y-122650000D01*
X153100000Y-122792857D01*
X153004761Y-122888095D01*
X152909523Y-122935714D01*
X152719047Y-122983333D01*
X152576190Y-122983333D01*
X152385714Y-122935714D01*
X152290476Y-122888095D01*
X152195238Y-122792857D01*
X152147619Y-122650000D01*
X152147619Y-122411904D01*
X143142380Y-123388095D02*
X143142380Y-122769047D01*
X143523333Y-123102380D01*
X143523333Y-122959523D01*
X143570952Y-122864285D01*
X143618571Y-122816666D01*
X143713809Y-122769047D01*
X143951904Y-122769047D01*
X144047142Y-122816666D01*
X144094761Y-122864285D01*
X144142380Y-122959523D01*
X144142380Y-123245238D01*
X144094761Y-123340476D01*
X144047142Y-123388095D01*
X143142380Y-122483333D02*
X144142380Y-122150000D01*
X143142380Y-121816666D01*
X143142380Y-121578571D02*
X143142380Y-120959523D01*
X143523333Y-121292857D01*
X143523333Y-121150000D01*
X143570952Y-121054761D01*
X143618571Y-121007142D01*
X143713809Y-120959523D01*
X143951904Y-120959523D01*
X144047142Y-121007142D01*
X144094761Y-121054761D01*
X144142380Y-121150000D01*
X144142380Y-121435714D01*
X144094761Y-121530952D01*
X144047142Y-121578571D01*
X149023333Y-119172380D02*
X148690000Y-118696190D01*
X148451904Y-119172380D02*
X148451904Y-118172380D01*
X148832857Y-118172380D01*
X148928095Y-118220000D01*
X148975714Y-118267619D01*
X149023333Y-118362857D01*
X149023333Y-118505714D01*
X148975714Y-118600952D01*
X148928095Y-118648571D01*
X148832857Y-118696190D01*
X148451904Y-118696190D01*
X149356666Y-118172380D02*
X150023333Y-119172380D01*
X150023333Y-118172380D02*
X149356666Y-119172380D01*
X150798095Y-118162380D02*
X151369523Y-118162380D01*
X151083809Y-119162380D02*
X151083809Y-118162380D01*
X151607619Y-118162380D02*
X152274285Y-119162380D01*
X152274285Y-118162380D02*
X151607619Y-119162380D01*
X143742380Y-119786666D02*
X143742380Y-120262857D01*
X144218571Y-120310476D01*
X144170952Y-120262857D01*
X144123333Y-120167619D01*
X144123333Y-119929523D01*
X144170952Y-119834285D01*
X144218571Y-119786666D01*
X144313809Y-119739047D01*
X144551904Y-119739047D01*
X144647142Y-119786666D01*
X144694761Y-119834285D01*
X144742380Y-119929523D01*
X144742380Y-120167619D01*
X144694761Y-120262857D01*
X144647142Y-120310476D01*
X143742380Y-119453333D02*
X144742380Y-119120000D01*
X143742380Y-118786666D01*
X143742380Y-118262857D02*
X143742380Y-118167619D01*
X143790000Y-118072380D01*
X143837619Y-118024761D01*
X143932857Y-117977142D01*
X144123333Y-117929523D01*
X144361428Y-117929523D01*
X144551904Y-117977142D01*
X144647142Y-118024761D01*
X144694761Y-118072380D01*
X144742380Y-118167619D01*
X144742380Y-118262857D01*
X144694761Y-118358095D01*
X144647142Y-118405714D01*
X144551904Y-118453333D01*
X144361428Y-118500952D01*
X144123333Y-118500952D01*
X143932857Y-118453333D01*
X143837619Y-118405714D01*
X143790000Y-118358095D01*
X143742380Y-118262857D01*
X154720000Y-116268095D02*
X154767619Y-116172857D01*
X154767619Y-116030000D01*
X154720000Y-115887142D01*
X154624761Y-115791904D01*
X154529523Y-115744285D01*
X154339047Y-115696666D01*
X154196190Y-115696666D01*
X154005714Y-115744285D01*
X153910476Y-115791904D01*
X153815238Y-115887142D01*
X153767619Y-116030000D01*
X153767619Y-116125238D01*
X153815238Y-116268095D01*
X153862857Y-116315714D01*
X154196190Y-116315714D01*
X154196190Y-116125238D01*
X153767619Y-116744285D02*
X154767619Y-116744285D01*
X153767619Y-117315714D01*
X154767619Y-117315714D01*
X153767619Y-117791904D02*
X154767619Y-117791904D01*
X154767619Y-118030000D01*
X154720000Y-118172857D01*
X154624761Y-118268095D01*
X154529523Y-118315714D01*
X154339047Y-118363333D01*
X154196190Y-118363333D01*
X154005714Y-118315714D01*
X153910476Y-118268095D01*
X153815238Y-118172857D01*
X153767619Y-118030000D01*
X153767619Y-117791904D01*
D13*
X144691050Y-87510000D02*
G75*
G03*
X144691050Y-87510000I-191050J0D01*
G01*
X133071050Y-112460000D02*
G75*
G03*
X133071050Y-112460000I-191050J0D01*
G01*
X122751050Y-109460000D02*
G75*
G03*
X122751050Y-109460000I-191050J0D01*
G01*
X126001050Y-114790000D02*
G75*
G03*
X126001050Y-114790000I-191050J0D01*
G01*
X113281050Y-107620000D02*
G75*
G03*
X113281050Y-107620000I-191050J0D01*
G01*
X122571050Y-104441049D02*
G75*
G03*
X122571050Y-104441049I-191050J0D01*
G01*
X127181050Y-87049995D02*
G75*
G03*
X127181050Y-87049995I-191050J0D01*
G01*
X140951050Y-95320000D02*
G75*
G03*
X140951050Y-95320000I-191050J0D01*
G01*
D10*
X139926190Y-91314285D02*
X139926190Y-90647619D01*
X140164285Y-91695238D02*
X140402380Y-90980952D01*
X139783333Y-90980952D01*
X138973809Y-91647619D02*
X139164285Y-91647619D01*
X139259523Y-91600000D01*
X139307142Y-91552380D01*
X139402380Y-91409523D01*
X139450000Y-91219047D01*
X139450000Y-90838095D01*
X139402380Y-90742857D01*
X139354761Y-90695238D01*
X139259523Y-90647619D01*
X139069047Y-90647619D01*
X138973809Y-90695238D01*
X138926190Y-90742857D01*
X138878571Y-90838095D01*
X138878571Y-91076190D01*
X138926190Y-91171428D01*
X138973809Y-91219047D01*
X139069047Y-91266666D01*
X139259523Y-91266666D01*
X139354761Y-91219047D01*
X139402380Y-91171428D01*
X139450000Y-91076190D01*
X138545238Y-90647619D02*
X138021428Y-91314285D01*
X138545238Y-91314285D02*
X138021428Y-90647619D01*
X137211904Y-91314285D02*
X137211904Y-90647619D01*
X137450000Y-91695238D02*
X137688095Y-90980952D01*
X137069047Y-90980952D01*
X136259523Y-91647619D02*
X136450000Y-91647619D01*
X136545238Y-91600000D01*
X136592857Y-91552380D01*
X136688095Y-91409523D01*
X136735714Y-91219047D01*
X136735714Y-90838095D01*
X136688095Y-90742857D01*
X136640476Y-90695238D01*
X136545238Y-90647619D01*
X136354761Y-90647619D01*
X136259523Y-90695238D01*
X136211904Y-90742857D01*
X136164285Y-90838095D01*
X136164285Y-91076190D01*
X136211904Y-91171428D01*
X136259523Y-91219047D01*
X136354761Y-91266666D01*
X136545238Y-91266666D01*
X136640476Y-91219047D01*
X136688095Y-91171428D01*
X136735714Y-91076190D01*
X135735714Y-90647619D02*
X135735714Y-91314285D01*
X135735714Y-91219047D02*
X135688095Y-91266666D01*
X135592857Y-91314285D01*
X135450000Y-91314285D01*
X135354761Y-91266666D01*
X135307142Y-91171428D01*
X135307142Y-90647619D01*
X135307142Y-91171428D02*
X135259523Y-91266666D01*
X135164285Y-91314285D01*
X135021428Y-91314285D01*
X134926190Y-91266666D01*
X134878571Y-91171428D01*
X134878571Y-90647619D01*
X134402380Y-90647619D02*
X134402380Y-91314285D01*
X134402380Y-91219047D02*
X134354761Y-91266666D01*
X134259523Y-91314285D01*
X134116666Y-91314285D01*
X134021428Y-91266666D01*
X133973809Y-91171428D01*
X133973809Y-90647619D01*
X133973809Y-91171428D02*
X133926190Y-91266666D01*
X133830952Y-91314285D01*
X133688095Y-91314285D01*
X133592857Y-91266666D01*
X133545238Y-91171428D01*
X133545238Y-90647619D01*
X131086190Y-90627619D02*
X131086190Y-91294285D01*
X131086190Y-91103809D02*
X131038571Y-91199047D01*
X130990952Y-91246666D01*
X130895714Y-91294285D01*
X130800476Y-91294285D01*
X130086190Y-90675238D02*
X130181428Y-90627619D01*
X130371904Y-90627619D01*
X130467142Y-90675238D01*
X130514761Y-90770476D01*
X130514761Y-91151428D01*
X130467142Y-91246666D01*
X130371904Y-91294285D01*
X130181428Y-91294285D01*
X130086190Y-91246666D01*
X130038571Y-91151428D01*
X130038571Y-91056190D01*
X130514761Y-90960952D01*
X129705238Y-91294285D02*
X129467142Y-90627619D01*
X129229047Y-91294285D01*
X128848095Y-90722857D02*
X128800476Y-90675238D01*
X128848095Y-90627619D01*
X128895714Y-90675238D01*
X128848095Y-90722857D01*
X128848095Y-90627619D01*
X127419523Y-91627619D02*
X127324285Y-91627619D01*
X127229047Y-91580000D01*
X127181428Y-91532380D01*
X127133809Y-91437142D01*
X127086190Y-91246666D01*
X127086190Y-91008571D01*
X127133809Y-90818095D01*
X127181428Y-90722857D01*
X127229047Y-90675238D01*
X127324285Y-90627619D01*
X127419523Y-90627619D01*
X127514761Y-90675238D01*
X127562380Y-90722857D01*
X127610000Y-90818095D01*
X127657619Y-91008571D01*
X127657619Y-91246666D01*
X127610000Y-91437142D01*
X127562380Y-91532380D01*
X127514761Y-91580000D01*
X127419523Y-91627619D01*
X126133809Y-90627619D02*
X126705238Y-90627619D01*
X126419523Y-90627619D02*
X126419523Y-91627619D01*
X126514761Y-91484761D01*
X126610000Y-91389523D01*
X126705238Y-91341904D01*
X125705238Y-91008571D02*
X124943333Y-91008571D01*
X124514761Y-91532380D02*
X124467142Y-91580000D01*
X124371904Y-91627619D01*
X124133809Y-91627619D01*
X124038571Y-91580000D01*
X123990952Y-91532380D01*
X123943333Y-91437142D01*
X123943333Y-91341904D01*
X123990952Y-91199047D01*
X124562380Y-90627619D01*
X123943333Y-90627619D01*
X123324285Y-91627619D02*
X123229047Y-91627619D01*
X123133809Y-91580000D01*
X123086190Y-91532380D01*
X123038571Y-91437142D01*
X122990952Y-91246666D01*
X122990952Y-91008571D01*
X123038571Y-90818095D01*
X123086190Y-90722857D01*
X123133809Y-90675238D01*
X123229047Y-90627619D01*
X123324285Y-90627619D01*
X123419523Y-90675238D01*
X123467142Y-90722857D01*
X123514761Y-90818095D01*
X123562380Y-91008571D01*
X123562380Y-91246666D01*
X123514761Y-91437142D01*
X123467142Y-91532380D01*
X123419523Y-91580000D01*
X123324285Y-91627619D01*
X122610000Y-91532380D02*
X122562380Y-91580000D01*
X122467142Y-91627619D01*
X122229047Y-91627619D01*
X122133809Y-91580000D01*
X122086190Y-91532380D01*
X122038571Y-91437142D01*
X122038571Y-91341904D01*
X122086190Y-91199047D01*
X122657619Y-90627619D01*
X122038571Y-90627619D01*
X121705238Y-91627619D02*
X121086190Y-91627619D01*
X121419523Y-91246666D01*
X121276666Y-91246666D01*
X121181428Y-91199047D01*
X121133809Y-91151428D01*
X121086190Y-91056190D01*
X121086190Y-90818095D01*
X121133809Y-90722857D01*
X121181428Y-90675238D01*
X121276666Y-90627619D01*
X121562380Y-90627619D01*
X121657619Y-90675238D01*
X121705238Y-90722857D01*
D12*
X121188095Y-95467619D02*
X120569047Y-95467619D01*
X120902380Y-95086666D01*
X120759523Y-95086666D01*
X120664285Y-95039047D01*
X120616666Y-94991428D01*
X120569047Y-94896190D01*
X120569047Y-94658095D01*
X120616666Y-94562857D01*
X120664285Y-94515238D01*
X120759523Y-94467619D01*
X121045238Y-94467619D01*
X121140476Y-94515238D01*
X121188095Y-94562857D01*
X120283333Y-95467619D02*
X119950000Y-94467619D01*
X119616666Y-95467619D01*
X119378571Y-95467619D02*
X118759523Y-95467619D01*
X119092857Y-95086666D01*
X118950000Y-95086666D01*
X118854761Y-95039047D01*
X118807142Y-94991428D01*
X118759523Y-94896190D01*
X118759523Y-94658095D01*
X118807142Y-94562857D01*
X118854761Y-94515238D01*
X118950000Y-94467619D01*
X119235714Y-94467619D01*
X119330952Y-94515238D01*
X119378571Y-94562857D01*
D14*
X139324285Y-122180238D02*
X139181428Y-122132619D01*
X138943333Y-122132619D01*
X138848095Y-122180238D01*
X138800476Y-122227857D01*
X138752857Y-122323095D01*
X138752857Y-122418333D01*
X138800476Y-122513571D01*
X138848095Y-122561190D01*
X138943333Y-122608809D01*
X139133809Y-122656428D01*
X139229047Y-122704047D01*
X139276666Y-122751666D01*
X139324285Y-122846904D01*
X139324285Y-122942142D01*
X139276666Y-123037380D01*
X139229047Y-123085000D01*
X139133809Y-123132619D01*
X138895714Y-123132619D01*
X138752857Y-123085000D01*
X138324285Y-122132619D02*
X138324285Y-123132619D01*
X137990952Y-122418333D01*
X137657619Y-123132619D01*
X137657619Y-122132619D01*
X137229047Y-122418333D02*
X136752857Y-122418333D01*
X137324285Y-122132619D02*
X136990952Y-123132619D01*
X136657619Y-122132619D01*
X135752857Y-122132619D02*
X136086190Y-122608809D01*
X136324285Y-122132619D02*
X136324285Y-123132619D01*
X135943333Y-123132619D01*
X135848095Y-123085000D01*
X135800476Y-123037380D01*
X135752857Y-122942142D01*
X135752857Y-122799285D01*
X135800476Y-122704047D01*
X135848095Y-122656428D01*
X135943333Y-122608809D01*
X136324285Y-122608809D01*
X135467142Y-123132619D02*
X134895714Y-123132619D01*
X135181428Y-122132619D02*
X135181428Y-123132619D01*
X133229047Y-122227857D02*
X133276666Y-122180238D01*
X133419523Y-122132619D01*
X133514761Y-122132619D01*
X133657619Y-122180238D01*
X133752857Y-122275476D01*
X133800476Y-122370714D01*
X133848095Y-122561190D01*
X133848095Y-122704047D01*
X133800476Y-122894523D01*
X133752857Y-122989761D01*
X133657619Y-123085000D01*
X133514761Y-123132619D01*
X133419523Y-123132619D01*
X133276666Y-123085000D01*
X133229047Y-123037380D01*
X132610000Y-123132619D02*
X132419523Y-123132619D01*
X132324285Y-123085000D01*
X132229047Y-122989761D01*
X132181428Y-122799285D01*
X132181428Y-122465952D01*
X132229047Y-122275476D01*
X132324285Y-122180238D01*
X132419523Y-122132619D01*
X132610000Y-122132619D01*
X132705238Y-122180238D01*
X132800476Y-122275476D01*
X132848095Y-122465952D01*
X132848095Y-122799285D01*
X132800476Y-122989761D01*
X132705238Y-123085000D01*
X132610000Y-123132619D01*
X131419523Y-122656428D02*
X131752857Y-122656428D01*
X131752857Y-122132619D02*
X131752857Y-123132619D01*
X131276666Y-123132619D01*
X130562380Y-122656428D02*
X130895714Y-122656428D01*
X130895714Y-122132619D02*
X130895714Y-123132619D01*
X130419523Y-123132619D01*
X130038571Y-122656428D02*
X129705238Y-122656428D01*
X129562380Y-122132619D02*
X130038571Y-122132619D01*
X130038571Y-123132619D01*
X129562380Y-123132619D01*
X129133809Y-122656428D02*
X128800476Y-122656428D01*
X128657619Y-122132619D02*
X129133809Y-122132619D01*
X129133809Y-123132619D01*
X128657619Y-123132619D01*
X138514761Y-120522619D02*
X138514761Y-121522619D01*
X138181428Y-120808333D01*
X137848095Y-121522619D01*
X137848095Y-120522619D01*
X137419523Y-120808333D02*
X136943333Y-120808333D01*
X137514761Y-120522619D02*
X137181428Y-121522619D01*
X136848095Y-120522619D01*
X135943333Y-120617857D02*
X135990952Y-120570238D01*
X136133809Y-120522619D01*
X136229047Y-120522619D01*
X136371904Y-120570238D01*
X136467142Y-120665476D01*
X136514761Y-120760714D01*
X136562380Y-120951190D01*
X136562380Y-121094047D01*
X136514761Y-121284523D01*
X136467142Y-121379761D01*
X136371904Y-121475000D01*
X136229047Y-121522619D01*
X136133809Y-121522619D01*
X135990952Y-121475000D01*
X135943333Y-121427380D01*
X135514761Y-120522619D02*
X135514761Y-121522619D01*
X135514761Y-121046428D02*
X134943333Y-121046428D01*
X134943333Y-120522619D02*
X134943333Y-121522619D01*
X134467142Y-120522619D02*
X134467142Y-121522619D01*
X133990952Y-120522619D02*
X133990952Y-121522619D01*
X133419523Y-120522619D01*
X133419523Y-121522619D01*
X132943333Y-121046428D02*
X132610000Y-121046428D01*
X132467142Y-120522619D02*
X132943333Y-120522619D01*
X132943333Y-121522619D01*
X132467142Y-121522619D01*
X131276666Y-120522619D02*
X131276666Y-121522619D01*
X130895714Y-121522619D01*
X130800476Y-121475000D01*
X130752857Y-121427380D01*
X130705238Y-121332142D01*
X130705238Y-121189285D01*
X130752857Y-121094047D01*
X130800476Y-121046428D01*
X130895714Y-120998809D01*
X131276666Y-120998809D01*
X129705238Y-120522619D02*
X130038571Y-120998809D01*
X130276666Y-120522619D02*
X130276666Y-121522619D01*
X129895714Y-121522619D01*
X129800476Y-121475000D01*
X129752857Y-121427380D01*
X129705238Y-121332142D01*
X129705238Y-121189285D01*
X129752857Y-121094047D01*
X129800476Y-121046428D01*
X129895714Y-120998809D01*
X130276666Y-120998809D01*
X129086190Y-121522619D02*
X128895714Y-121522619D01*
X128800476Y-121475000D01*
X128705238Y-121379761D01*
X128657619Y-121189285D01*
X128657619Y-120855952D01*
X128705238Y-120665476D01*
X128800476Y-120570238D01*
X128895714Y-120522619D01*
X129086190Y-120522619D01*
X129181428Y-120570238D01*
X129276666Y-120665476D01*
X129324285Y-120855952D01*
X129324285Y-121189285D01*
X129276666Y-121379761D01*
X129181428Y-121475000D01*
X129086190Y-121522619D01*
D12*
X120366666Y-99057619D02*
X120842857Y-99057619D01*
X120890476Y-98581428D01*
X120842857Y-98629047D01*
X120747619Y-98676666D01*
X120509523Y-98676666D01*
X120414285Y-98629047D01*
X120366666Y-98581428D01*
X120319047Y-98486190D01*
X120319047Y-98248095D01*
X120366666Y-98152857D01*
X120414285Y-98105238D01*
X120509523Y-98057619D01*
X120747619Y-98057619D01*
X120842857Y-98105238D01*
X120890476Y-98152857D01*
X120033333Y-99057619D02*
X119700000Y-98057619D01*
X119366666Y-99057619D01*
X118842857Y-99057619D02*
X118747619Y-99057619D01*
X118652380Y-99010000D01*
X118604761Y-98962380D01*
X118557142Y-98867142D01*
X118509523Y-98676666D01*
X118509523Y-98438571D01*
X118557142Y-98248095D01*
X118604761Y-98152857D01*
X118652380Y-98105238D01*
X118747619Y-98057619D01*
X118842857Y-98057619D01*
X118938095Y-98105238D01*
X118985714Y-98152857D01*
X119033333Y-98248095D01*
X119080952Y-98438571D01*
X119080952Y-98676666D01*
X119033333Y-98867142D01*
X118985714Y-98962380D01*
X118938095Y-99010000D01*
X118842857Y-99057619D01*
X116341904Y-85770000D02*
X116437142Y-85817619D01*
X116580000Y-85817619D01*
X116722857Y-85770000D01*
X116818095Y-85674761D01*
X116865714Y-85579523D01*
X116913333Y-85389047D01*
X116913333Y-85246190D01*
X116865714Y-85055714D01*
X116818095Y-84960476D01*
X116722857Y-84865238D01*
X116580000Y-84817619D01*
X116484761Y-84817619D01*
X116341904Y-84865238D01*
X116294285Y-84912857D01*
X116294285Y-85246190D01*
X116484761Y-85246190D01*
X115865714Y-84817619D02*
X115865714Y-85817619D01*
X115294285Y-84817619D01*
X115294285Y-85817619D01*
X114818095Y-84817619D02*
X114818095Y-85817619D01*
X114580000Y-85817619D01*
X114437142Y-85770000D01*
X114341904Y-85674761D01*
X114294285Y-85579523D01*
X114246666Y-85389047D01*
X114246666Y-85246190D01*
X114294285Y-85055714D01*
X114341904Y-84960476D01*
X114437142Y-84865238D01*
X114580000Y-84817619D01*
X114818095Y-84817619D01*
D10*
X143362380Y-100714285D02*
X142262380Y-101447619D01*
X143362380Y-101447619D02*
X142262380Y-100714285D01*
X142995714Y-101709523D02*
X142995714Y-102128571D01*
X143362380Y-101866666D02*
X142419523Y-101866666D01*
X142314761Y-101919047D01*
X142262380Y-102023809D01*
X142262380Y-102128571D01*
X142314761Y-102914285D02*
X142262380Y-102809523D01*
X142262380Y-102600000D01*
X142314761Y-102495238D01*
X142419523Y-102442857D01*
X142838571Y-102442857D01*
X142943333Y-102495238D01*
X142995714Y-102600000D01*
X142995714Y-102809523D01*
X142943333Y-102914285D01*
X142838571Y-102966666D01*
X142733809Y-102966666D01*
X142629047Y-102442857D01*
X142995714Y-103438095D02*
X142262380Y-103438095D01*
X142890952Y-103438095D02*
X142943333Y-103490476D01*
X142995714Y-103595238D01*
X142995714Y-103752380D01*
X142943333Y-103857142D01*
X142838571Y-103909523D01*
X142262380Y-103909523D01*
X142314761Y-104380952D02*
X142262380Y-104485714D01*
X142262380Y-104695238D01*
X142314761Y-104800000D01*
X142419523Y-104852380D01*
X142471904Y-104852380D01*
X142576666Y-104800000D01*
X142629047Y-104695238D01*
X142629047Y-104538095D01*
X142681428Y-104433333D01*
X142786190Y-104380952D01*
X142838571Y-104380952D01*
X142943333Y-104433333D01*
X142995714Y-104538095D01*
X142995714Y-104695238D01*
X142943333Y-104800000D01*
X142262380Y-105795238D02*
X142838571Y-105795238D01*
X142943333Y-105742857D01*
X142995714Y-105638095D01*
X142995714Y-105428571D01*
X142943333Y-105323809D01*
X142314761Y-105795238D02*
X142262380Y-105690476D01*
X142262380Y-105428571D01*
X142314761Y-105323809D01*
X142419523Y-105271428D01*
X142524285Y-105271428D01*
X142629047Y-105323809D01*
X142681428Y-105428571D01*
X142681428Y-105690476D01*
X142733809Y-105795238D01*
X142262380Y-107680952D02*
X142262380Y-107157142D01*
X143362380Y-107157142D01*
X143362380Y-107942857D02*
X142262380Y-108676190D01*
X143362380Y-108676190D02*
X142262380Y-107942857D01*
X143362380Y-108990476D02*
X143362380Y-109723809D01*
X142262380Y-109252380D01*
X142262380Y-110980952D02*
X143362380Y-110980952D01*
X143362380Y-111242857D01*
X143310000Y-111400000D01*
X143205238Y-111504761D01*
X143100476Y-111557142D01*
X142890952Y-111609523D01*
X142733809Y-111609523D01*
X142524285Y-111557142D01*
X142419523Y-111504761D01*
X142314761Y-111400000D01*
X142262380Y-111242857D01*
X142262380Y-110980952D01*
X142995714Y-112552380D02*
X142262380Y-112552380D01*
X142995714Y-112080952D02*
X142419523Y-112080952D01*
X142314761Y-112133333D01*
X142262380Y-112238095D01*
X142262380Y-112395238D01*
X142314761Y-112500000D01*
X142367142Y-112552380D01*
X142262380Y-113547619D02*
X142838571Y-113547619D01*
X142943333Y-113495238D01*
X142995714Y-113390476D01*
X142995714Y-113180952D01*
X142943333Y-113076190D01*
X142314761Y-113547619D02*
X142262380Y-113442857D01*
X142262380Y-113180952D01*
X142314761Y-113076190D01*
X142419523Y-113023809D01*
X142524285Y-113023809D01*
X142629047Y-113076190D01*
X142681428Y-113180952D01*
X142681428Y-113442857D01*
X142733809Y-113547619D01*
X142262380Y-114228571D02*
X142314761Y-114123809D01*
X142419523Y-114071428D01*
X143362380Y-114071428D01*
X142367142Y-116114285D02*
X142314761Y-116061904D01*
X142262380Y-115904761D01*
X142262380Y-115800000D01*
X142314761Y-115642857D01*
X142419523Y-115538095D01*
X142524285Y-115485714D01*
X142733809Y-115433333D01*
X142890952Y-115433333D01*
X143100476Y-115485714D01*
X143205238Y-115538095D01*
X143310000Y-115642857D01*
X143362380Y-115800000D01*
X143362380Y-115904761D01*
X143310000Y-116061904D01*
X143257619Y-116114285D01*
X142262380Y-116742857D02*
X142314761Y-116638095D01*
X142367142Y-116585714D01*
X142471904Y-116533333D01*
X142786190Y-116533333D01*
X142890952Y-116585714D01*
X142943333Y-116638095D01*
X142995714Y-116742857D01*
X142995714Y-116900000D01*
X142943333Y-117004761D01*
X142890952Y-117057142D01*
X142786190Y-117109523D01*
X142471904Y-117109523D01*
X142367142Y-117057142D01*
X142314761Y-117004761D01*
X142262380Y-116900000D01*
X142262380Y-116742857D01*
X142262380Y-117580952D02*
X142995714Y-117580952D01*
X142786190Y-117580952D02*
X142890952Y-117633333D01*
X142943333Y-117685714D01*
X142995714Y-117790476D01*
X142995714Y-117895238D01*
X142314761Y-118680952D02*
X142262380Y-118576190D01*
X142262380Y-118366666D01*
X142314761Y-118261904D01*
X142419523Y-118209523D01*
X142838571Y-118209523D01*
X142943333Y-118261904D01*
X142995714Y-118366666D01*
X142995714Y-118576190D01*
X142943333Y-118680952D01*
X142838571Y-118733333D01*
X142733809Y-118733333D01*
X142629047Y-118209523D01*
D12*
%TO.C,*%
%TO.C,REF\u002A\u002A*%
G36*
X125847255Y-95275680D02*
G01*
X125876320Y-95298573D01*
X125886812Y-95308873D01*
X125932743Y-95354804D01*
X125932743Y-95841398D01*
X125895774Y-95858242D01*
X125863941Y-95870718D01*
X125845317Y-95875086D01*
X125840542Y-95861282D01*
X125836079Y-95822714D01*
X125832225Y-95763644D01*
X125829278Y-95688337D01*
X125827857Y-95624714D01*
X125823886Y-95374343D01*
X125789241Y-95369444D01*
X125757732Y-95372869D01*
X125742292Y-95383959D01*
X125737977Y-95404692D01*
X125734292Y-95448855D01*
X125731531Y-95510854D01*
X125729988Y-95585091D01*
X125729765Y-95623294D01*
X125729543Y-95843217D01*
X125683834Y-95859151D01*
X125651482Y-95869985D01*
X125633885Y-95875038D01*
X125633377Y-95875086D01*
X125631612Y-95861352D01*
X125629671Y-95823270D01*
X125627718Y-95765518D01*
X125625916Y-95692773D01*
X125624657Y-95624714D01*
X125620686Y-95374343D01*
X125533600Y-95374343D01*
X125529604Y-95602760D01*
X125525608Y-95831178D01*
X125483153Y-95853132D01*
X125451808Y-95868207D01*
X125433256Y-95875049D01*
X125432721Y-95875086D01*
X125430167Y-95861337D01*
X125427952Y-95823150D01*
X125426216Y-95765114D01*
X125425101Y-95691820D01*
X125424743Y-95614945D01*
X125424743Y-95354804D01*
X125470674Y-95308873D01*
X125502325Y-95280571D01*
X125530110Y-95269107D01*
X125568085Y-95269832D01*
X125583160Y-95271679D01*
X125630274Y-95277052D01*
X125669244Y-95280131D01*
X125678743Y-95280415D01*
X125710767Y-95278555D01*
X125756568Y-95273886D01*
X125774326Y-95271679D01*
X125817943Y-95268265D01*
X125847255Y-95275680D01*
G37*
D15*
X125847255Y-95275680D02*
X125876320Y-95298573D01*
X125886812Y-95308873D01*
X125932743Y-95354804D01*
X125932743Y-95841398D01*
X125895774Y-95858242D01*
X125863941Y-95870718D01*
X125845317Y-95875086D01*
X125840542Y-95861282D01*
X125836079Y-95822714D01*
X125832225Y-95763644D01*
X125829278Y-95688337D01*
X125827857Y-95624714D01*
X125823886Y-95374343D01*
X125789241Y-95369444D01*
X125757732Y-95372869D01*
X125742292Y-95383959D01*
X125737977Y-95404692D01*
X125734292Y-95448855D01*
X125731531Y-95510854D01*
X125729988Y-95585091D01*
X125729765Y-95623294D01*
X125729543Y-95843217D01*
X125683834Y-95859151D01*
X125651482Y-95869985D01*
X125633885Y-95875038D01*
X125633377Y-95875086D01*
X125631612Y-95861352D01*
X125629671Y-95823270D01*
X125627718Y-95765518D01*
X125625916Y-95692773D01*
X125624657Y-95624714D01*
X125620686Y-95374343D01*
X125533600Y-95374343D01*
X125529604Y-95602760D01*
X125525608Y-95831178D01*
X125483153Y-95853132D01*
X125451808Y-95868207D01*
X125433256Y-95875049D01*
X125432721Y-95875086D01*
X125430167Y-95861337D01*
X125427952Y-95823150D01*
X125426216Y-95765114D01*
X125425101Y-95691820D01*
X125424743Y-95614945D01*
X125424743Y-95354804D01*
X125470674Y-95308873D01*
X125502325Y-95280571D01*
X125530110Y-95269107D01*
X125568085Y-95269832D01*
X125583160Y-95271679D01*
X125630274Y-95277052D01*
X125669244Y-95280131D01*
X125678743Y-95280415D01*
X125710767Y-95278555D01*
X125756568Y-95273886D01*
X125774326Y-95271679D01*
X125817943Y-95268265D01*
X125847255Y-95275680D01*
G36*
X130472904Y-95711841D02*
G01*
X130467932Y-95748051D01*
X130459287Y-95774701D01*
X130445995Y-95798278D01*
X130443057Y-95802662D01*
X130393687Y-95861751D01*
X130339891Y-95896053D01*
X130274398Y-95909669D01*
X130252158Y-95910335D01*
X130168885Y-95898038D01*
X130100855Y-95862267D01*
X130050649Y-95804699D01*
X130032815Y-95767688D01*
X130018937Y-95712118D01*
X130011833Y-95641904D01*
X130011768Y-95634487D01*
X130158248Y-95634487D01*
X130170312Y-95705701D01*
X130195430Y-95751806D01*
X130233440Y-95772365D01*
X130247008Y-95773486D01*
X130282636Y-95767848D01*
X130307006Y-95748314D01*
X130321907Y-95710958D01*
X130329125Y-95651850D01*
X130330571Y-95589808D01*
X130329727Y-95523570D01*
X130326404Y-95479614D01*
X130319417Y-95451221D01*
X130307584Y-95431675D01*
X130301543Y-95425143D01*
X130266814Y-95400320D01*
X130233097Y-95401452D01*
X130199005Y-95422984D01*
X130178671Y-95445971D01*
X130166629Y-95479522D01*
X130159866Y-95532431D01*
X130159402Y-95538601D01*
X130158248Y-95634487D01*
X130011768Y-95634487D01*
X130011160Y-95565273D01*
X130016573Y-95490448D01*
X130027730Y-95425658D01*
X130044286Y-95379127D01*
X130049374Y-95371113D01*
X130109645Y-95311293D01*
X130181231Y-95275465D01*
X130258908Y-95264980D01*
X130337452Y-95281190D01*
X130359311Y-95290908D01*
X130401878Y-95320857D01*
X130439237Y-95360567D01*
X130442768Y-95365603D01*
X130457119Y-95389876D01*
X130466606Y-95415822D01*
X130472210Y-95449978D01*
X130474914Y-95498881D01*
X130475701Y-95569065D01*
X130475714Y-95584800D01*
X130475678Y-95589808D01*
X130475174Y-95659587D01*
X130472904Y-95711841D01*
G37*
X130472904Y-95711841D02*
X130467932Y-95748051D01*
X130459287Y-95774701D01*
X130445995Y-95798278D01*
X130443057Y-95802662D01*
X130393687Y-95861751D01*
X130339891Y-95896053D01*
X130274398Y-95909669D01*
X130252158Y-95910335D01*
X130168885Y-95898038D01*
X130100855Y-95862267D01*
X130050649Y-95804699D01*
X130032815Y-95767688D01*
X130018937Y-95712118D01*
X130011833Y-95641904D01*
X130011768Y-95634487D01*
X130158248Y-95634487D01*
X130170312Y-95705701D01*
X130195430Y-95751806D01*
X130233440Y-95772365D01*
X130247008Y-95773486D01*
X130282636Y-95767848D01*
X130307006Y-95748314D01*
X130321907Y-95710958D01*
X130329125Y-95651850D01*
X130330571Y-95589808D01*
X130329727Y-95523570D01*
X130326404Y-95479614D01*
X130319417Y-95451221D01*
X130307584Y-95431675D01*
X130301543Y-95425143D01*
X130266814Y-95400320D01*
X130233097Y-95401452D01*
X130199005Y-95422984D01*
X130178671Y-95445971D01*
X130166629Y-95479522D01*
X130159866Y-95532431D01*
X130159402Y-95538601D01*
X130158248Y-95634487D01*
X130011768Y-95634487D01*
X130011160Y-95565273D01*
X130016573Y-95490448D01*
X130027730Y-95425658D01*
X130044286Y-95379127D01*
X130049374Y-95371113D01*
X130109645Y-95311293D01*
X130181231Y-95275465D01*
X130258908Y-95264980D01*
X130337452Y-95281190D01*
X130359311Y-95290908D01*
X130401878Y-95320857D01*
X130439237Y-95360567D01*
X130442768Y-95365603D01*
X130457119Y-95389876D01*
X130466606Y-95415822D01*
X130472210Y-95449978D01*
X130474914Y-95498881D01*
X130475701Y-95569065D01*
X130475714Y-95584800D01*
X130475678Y-95589808D01*
X130475174Y-95659587D01*
X130472904Y-95711841D01*
G36*
X124341804Y-95724616D02*
G01*
X124328116Y-95773305D01*
X124305904Y-95809151D01*
X124273426Y-95837487D01*
X124259267Y-95846645D01*
X124194947Y-95870493D01*
X124124527Y-95871994D01*
X124056405Y-95853034D01*
X123998979Y-95815503D01*
X123971281Y-95781904D01*
X123949338Y-95720936D01*
X123949079Y-95713780D01*
X124046010Y-95713780D01*
X124063609Y-95739519D01*
X124078144Y-95750891D01*
X124130590Y-95773636D01*
X124179678Y-95769878D01*
X124220773Y-95742116D01*
X124249242Y-95692848D01*
X124258369Y-95653743D01*
X124261993Y-95613753D01*
X124260977Y-95588874D01*
X124258444Y-95584800D01*
X124241726Y-95590335D01*
X124205751Y-95604983D01*
X124157669Y-95625810D01*
X124147614Y-95630286D01*
X124086848Y-95661186D01*
X124053368Y-95688343D01*
X124046010Y-95713780D01*
X123949079Y-95713780D01*
X123947595Y-95672692D01*
X123951543Y-95608184D01*
X124100314Y-95543066D01*
X124172651Y-95509798D01*
X124219916Y-95483036D01*
X124244493Y-95459856D01*
X124248763Y-95437333D01*
X124235111Y-95412545D01*
X124220057Y-95396114D01*
X124176254Y-95369765D01*
X124128611Y-95367919D01*
X124084855Y-95388454D01*
X124052711Y-95429248D01*
X124046962Y-95443653D01*
X124019424Y-95488644D01*
X123987742Y-95507818D01*
X123944286Y-95524221D01*
X123944286Y-95462034D01*
X123948128Y-95419717D01*
X123963177Y-95384031D01*
X123994720Y-95343057D01*
X123999408Y-95337733D01*
X124034494Y-95301280D01*
X124064653Y-95281717D01*
X124102385Y-95272717D01*
X124133665Y-95269770D01*
X124189615Y-95269035D01*
X124229445Y-95278340D01*
X124254292Y-95292154D01*
X124293344Y-95322533D01*
X124320375Y-95355387D01*
X124337483Y-95396706D01*
X124346762Y-95452479D01*
X124350307Y-95528695D01*
X124350590Y-95567378D01*
X124349628Y-95613753D01*
X124348715Y-95657751D01*
X124341804Y-95724616D01*
G37*
X124341804Y-95724616D02*
X124328116Y-95773305D01*
X124305904Y-95809151D01*
X124273426Y-95837487D01*
X124259267Y-95846645D01*
X124194947Y-95870493D01*
X124124527Y-95871994D01*
X124056405Y-95853034D01*
X123998979Y-95815503D01*
X123971281Y-95781904D01*
X123949338Y-95720936D01*
X123949079Y-95713780D01*
X124046010Y-95713780D01*
X124063609Y-95739519D01*
X124078144Y-95750891D01*
X124130590Y-95773636D01*
X124179678Y-95769878D01*
X124220773Y-95742116D01*
X124249242Y-95692848D01*
X124258369Y-95653743D01*
X124261993Y-95613753D01*
X124260977Y-95588874D01*
X124258444Y-95584800D01*
X124241726Y-95590335D01*
X124205751Y-95604983D01*
X124157669Y-95625810D01*
X124147614Y-95630286D01*
X124086848Y-95661186D01*
X124053368Y-95688343D01*
X124046010Y-95713780D01*
X123949079Y-95713780D01*
X123947595Y-95672692D01*
X123951543Y-95608184D01*
X124100314Y-95543066D01*
X124172651Y-95509798D01*
X124219916Y-95483036D01*
X124244493Y-95459856D01*
X124248763Y-95437333D01*
X124235111Y-95412545D01*
X124220057Y-95396114D01*
X124176254Y-95369765D01*
X124128611Y-95367919D01*
X124084855Y-95388454D01*
X124052711Y-95429248D01*
X124046962Y-95443653D01*
X124019424Y-95488644D01*
X123987742Y-95507818D01*
X123944286Y-95524221D01*
X123944286Y-95462034D01*
X123948128Y-95419717D01*
X123963177Y-95384031D01*
X123994720Y-95343057D01*
X123999408Y-95337733D01*
X124034494Y-95301280D01*
X124064653Y-95281717D01*
X124102385Y-95272717D01*
X124133665Y-95269770D01*
X124189615Y-95269035D01*
X124229445Y-95278340D01*
X124254292Y-95292154D01*
X124293344Y-95322533D01*
X124320375Y-95355387D01*
X124337483Y-95396706D01*
X124346762Y-95452479D01*
X124350307Y-95528695D01*
X124350590Y-95567378D01*
X124349628Y-95613753D01*
X124348715Y-95657751D01*
X124341804Y-95724616D01*
G36*
X128803859Y-95508611D02*
G01*
X128802029Y-95601481D01*
X128799888Y-95670111D01*
X128796819Y-95719289D01*
X128792206Y-95753802D01*
X128785432Y-95778438D01*
X128775881Y-95797984D01*
X128764366Y-95815230D01*
X128708810Y-95870320D01*
X128641020Y-95902178D01*
X128567287Y-95909809D01*
X128493907Y-95892220D01*
X128447328Y-95865277D01*
X128414943Y-95838534D01*
X128391258Y-95810516D01*
X128374941Y-95776252D01*
X128364661Y-95730773D01*
X128359086Y-95669108D01*
X128356884Y-95586289D01*
X128356629Y-95526754D01*
X128356629Y-95307609D01*
X128418314Y-95279956D01*
X128480000Y-95252303D01*
X128487257Y-95492330D01*
X128490256Y-95581972D01*
X128493402Y-95647038D01*
X128497299Y-95691974D01*
X128502553Y-95721230D01*
X128509769Y-95739252D01*
X128519550Y-95750489D01*
X128522688Y-95752921D01*
X128570239Y-95771917D01*
X128618303Y-95764400D01*
X128646914Y-95744457D01*
X128658553Y-95730325D01*
X128666609Y-95711780D01*
X128671729Y-95683666D01*
X128674559Y-95640827D01*
X128675744Y-95578105D01*
X128675943Y-95512739D01*
X128675982Y-95430732D01*
X128677386Y-95372684D01*
X128682086Y-95333535D01*
X128692013Y-95308220D01*
X128709097Y-95291677D01*
X128735268Y-95278844D01*
X128770225Y-95265509D01*
X128808404Y-95250993D01*
X128803859Y-95508611D01*
G37*
X128803859Y-95508611D02*
X128802029Y-95601481D01*
X128799888Y-95670111D01*
X128796819Y-95719289D01*
X128792206Y-95753802D01*
X128785432Y-95778438D01*
X128775881Y-95797984D01*
X128764366Y-95815230D01*
X128708810Y-95870320D01*
X128641020Y-95902178D01*
X128567287Y-95909809D01*
X128493907Y-95892220D01*
X128447328Y-95865277D01*
X128414943Y-95838534D01*
X128391258Y-95810516D01*
X128374941Y-95776252D01*
X128364661Y-95730773D01*
X128359086Y-95669108D01*
X128356884Y-95586289D01*
X128356629Y-95526754D01*
X128356629Y-95307609D01*
X128418314Y-95279956D01*
X128480000Y-95252303D01*
X128487257Y-95492330D01*
X128490256Y-95581972D01*
X128493402Y-95647038D01*
X128497299Y-95691974D01*
X128502553Y-95721230D01*
X128509769Y-95739252D01*
X128519550Y-95750489D01*
X128522688Y-95752921D01*
X128570239Y-95771917D01*
X128618303Y-95764400D01*
X128646914Y-95744457D01*
X128658553Y-95730325D01*
X128666609Y-95711780D01*
X128671729Y-95683666D01*
X128674559Y-95640827D01*
X128675744Y-95578105D01*
X128675943Y-95512739D01*
X128675982Y-95430732D01*
X128677386Y-95372684D01*
X128682086Y-95333535D01*
X128692013Y-95308220D01*
X128709097Y-95291677D01*
X128735268Y-95278844D01*
X128770225Y-95265509D01*
X128808404Y-95250993D01*
X128803859Y-95508611D01*
G36*
X124839814Y-95279191D02*
G01*
X124841711Y-95317075D01*
X124843153Y-95374285D01*
X124844002Y-95445973D01*
X124844171Y-95498435D01*
X124843308Y-95599953D01*
X124839930Y-95676968D01*
X124832858Y-95733977D01*
X124820912Y-95775474D01*
X124802910Y-95805957D01*
X124777673Y-95829920D01*
X124752753Y-95846645D01*
X124692829Y-95868903D01*
X124623089Y-95873924D01*
X124557400Y-95861248D01*
X124540052Y-95853666D01*
X124498644Y-95820872D01*
X124463235Y-95773453D01*
X124441336Y-95722849D01*
X124437771Y-95697902D01*
X124449721Y-95663073D01*
X124475933Y-95644643D01*
X124504036Y-95633484D01*
X124516905Y-95631428D01*
X124523171Y-95646351D01*
X124535544Y-95678825D01*
X124540972Y-95693498D01*
X124571410Y-95744256D01*
X124615480Y-95769573D01*
X124671990Y-95768794D01*
X124676175Y-95767797D01*
X124706345Y-95753493D01*
X124728524Y-95725607D01*
X124743673Y-95680713D01*
X124752750Y-95615385D01*
X124756714Y-95526196D01*
X124757086Y-95478739D01*
X124757270Y-95403929D01*
X124758478Y-95352931D01*
X124761691Y-95320529D01*
X124767891Y-95301505D01*
X124778060Y-95290644D01*
X124793181Y-95282728D01*
X124794054Y-95282330D01*
X124823172Y-95270019D01*
X124837597Y-95265486D01*
X124839814Y-95279191D01*
G37*
X124839814Y-95279191D02*
X124841711Y-95317075D01*
X124843153Y-95374285D01*
X124844002Y-95445973D01*
X124844171Y-95498435D01*
X124843308Y-95599953D01*
X124839930Y-95676968D01*
X124832858Y-95733977D01*
X124820912Y-95775474D01*
X124802910Y-95805957D01*
X124777673Y-95829920D01*
X124752753Y-95846645D01*
X124692829Y-95868903D01*
X124623089Y-95873924D01*
X124557400Y-95861248D01*
X124540052Y-95853666D01*
X124498644Y-95820872D01*
X124463235Y-95773453D01*
X124441336Y-95722849D01*
X124437771Y-95697902D01*
X124449721Y-95663073D01*
X124475933Y-95644643D01*
X124504036Y-95633484D01*
X124516905Y-95631428D01*
X124523171Y-95646351D01*
X124535544Y-95678825D01*
X124540972Y-95693498D01*
X124571410Y-95744256D01*
X124615480Y-95769573D01*
X124671990Y-95768794D01*
X124676175Y-95767797D01*
X124706345Y-95753493D01*
X124728524Y-95725607D01*
X124743673Y-95680713D01*
X124752750Y-95615385D01*
X124756714Y-95526196D01*
X124757086Y-95478739D01*
X124757270Y-95403929D01*
X124758478Y-95352931D01*
X124761691Y-95320529D01*
X124767891Y-95301505D01*
X124778060Y-95290644D01*
X124793181Y-95282728D01*
X124794054Y-95282330D01*
X124823172Y-95270019D01*
X124837597Y-95265486D01*
X124839814Y-95279191D01*
G36*
X126425274Y-95729914D02*
G01*
X126402865Y-95781400D01*
X126367876Y-95821557D01*
X126340625Y-95842139D01*
X126291093Y-95864375D01*
X126233684Y-95874696D01*
X126180318Y-95871933D01*
X126150457Y-95860788D01*
X126138739Y-95857617D01*
X126130963Y-95869443D01*
X126125535Y-95901134D01*
X126121429Y-95949407D01*
X126116933Y-96003171D01*
X126110687Y-96035518D01*
X126099324Y-96054015D01*
X126079472Y-96066230D01*
X126067000Y-96071638D01*
X126019829Y-96091399D01*
X126019883Y-95754642D01*
X126020067Y-95646163D01*
X126020734Y-95568252D01*
X126121429Y-95568252D01*
X126122173Y-95634619D01*
X126125252Y-95678894D01*
X126131939Y-95707991D01*
X126143504Y-95728827D01*
X126152987Y-95739893D01*
X126197040Y-95767802D01*
X126247776Y-95771157D01*
X126296204Y-95749841D01*
X126305550Y-95741927D01*
X126321460Y-95724353D01*
X126331390Y-95703413D01*
X126336722Y-95672218D01*
X126338837Y-95623878D01*
X126339143Y-95574353D01*
X126338524Y-95509450D01*
X126335686Y-95466486D01*
X126329160Y-95438378D01*
X126317477Y-95418047D01*
X126303517Y-95402712D01*
X126256635Y-95373110D01*
X126206299Y-95370581D01*
X126158724Y-95395295D01*
X126155021Y-95398644D01*
X126139217Y-95416065D01*
X126129307Y-95436791D01*
X126123942Y-95467638D01*
X126121772Y-95515423D01*
X126121429Y-95568252D01*
X126020734Y-95568252D01*
X126020781Y-95562713D01*
X126022325Y-95500296D01*
X126024999Y-95454915D01*
X126029106Y-95422571D01*
X126034945Y-95399267D01*
X126042818Y-95381005D01*
X126048779Y-95370582D01*
X126098145Y-95314055D01*
X126160736Y-95278623D01*
X126229987Y-95265910D01*
X126299332Y-95277537D01*
X126340625Y-95298432D01*
X126383975Y-95334578D01*
X126413519Y-95378724D01*
X126431345Y-95436538D01*
X126439537Y-95513687D01*
X126440698Y-95570286D01*
X126440542Y-95574353D01*
X126437190Y-95661432D01*
X126425274Y-95729914D01*
G37*
X126425274Y-95729914D02*
X126402865Y-95781400D01*
X126367876Y-95821557D01*
X126340625Y-95842139D01*
X126291093Y-95864375D01*
X126233684Y-95874696D01*
X126180318Y-95871933D01*
X126150457Y-95860788D01*
X126138739Y-95857617D01*
X126130963Y-95869443D01*
X126125535Y-95901134D01*
X126121429Y-95949407D01*
X126116933Y-96003171D01*
X126110687Y-96035518D01*
X126099324Y-96054015D01*
X126079472Y-96066230D01*
X126067000Y-96071638D01*
X126019829Y-96091399D01*
X126019883Y-95754642D01*
X126020067Y-95646163D01*
X126020734Y-95568252D01*
X126121429Y-95568252D01*
X126122173Y-95634619D01*
X126125252Y-95678894D01*
X126131939Y-95707991D01*
X126143504Y-95728827D01*
X126152987Y-95739893D01*
X126197040Y-95767802D01*
X126247776Y-95771157D01*
X126296204Y-95749841D01*
X126305550Y-95741927D01*
X126321460Y-95724353D01*
X126331390Y-95703413D01*
X126336722Y-95672218D01*
X126338837Y-95623878D01*
X126339143Y-95574353D01*
X126338524Y-95509450D01*
X126335686Y-95466486D01*
X126329160Y-95438378D01*
X126317477Y-95418047D01*
X126303517Y-95402712D01*
X126256635Y-95373110D01*
X126206299Y-95370581D01*
X126158724Y-95395295D01*
X126155021Y-95398644D01*
X126139217Y-95416065D01*
X126129307Y-95436791D01*
X126123942Y-95467638D01*
X126121772Y-95515423D01*
X126121429Y-95568252D01*
X126020734Y-95568252D01*
X126020781Y-95562713D01*
X126022325Y-95500296D01*
X126024999Y-95454915D01*
X126029106Y-95422571D01*
X126034945Y-95399267D01*
X126042818Y-95381005D01*
X126048779Y-95370582D01*
X126098145Y-95314055D01*
X126160736Y-95278623D01*
X126229987Y-95265910D01*
X126299332Y-95277537D01*
X126340625Y-95298432D01*
X126383975Y-95334578D01*
X126413519Y-95378724D01*
X126431345Y-95436538D01*
X126439537Y-95513687D01*
X126440698Y-95570286D01*
X126440542Y-95574353D01*
X126437190Y-95661432D01*
X126425274Y-95729914D01*
G36*
X127931963Y-95279377D02*
G01*
X127933172Y-95318561D01*
X127934199Y-95379300D01*
X127934998Y-95457859D01*
X127935519Y-95550502D01*
X127935714Y-95653491D01*
X127935714Y-96050658D01*
X127888543Y-96070556D01*
X127841371Y-96090453D01*
X127834114Y-95968711D01*
X127829861Y-95909387D01*
X127824975Y-95874428D01*
X127818205Y-95859180D01*
X127808298Y-95858985D01*
X127805086Y-95860805D01*
X127762356Y-95873985D01*
X127706773Y-95873215D01*
X127650263Y-95859667D01*
X127614918Y-95842139D01*
X127578679Y-95814139D01*
X127552187Y-95782451D01*
X127534001Y-95742187D01*
X127522678Y-95688457D01*
X127516778Y-95616374D01*
X127514857Y-95521049D01*
X127514823Y-95502763D01*
X127514800Y-95297354D01*
X127560509Y-95281420D01*
X127592973Y-95270580D01*
X127610785Y-95265532D01*
X127611309Y-95265486D01*
X127613063Y-95279172D01*
X127614556Y-95316924D01*
X127615674Y-95373776D01*
X127616303Y-95444766D01*
X127616400Y-95487927D01*
X127616602Y-95573027D01*
X127617642Y-95634019D01*
X127620169Y-95675823D01*
X127624836Y-95703358D01*
X127632293Y-95721544D01*
X127643189Y-95735302D01*
X127649993Y-95741927D01*
X127696728Y-95768625D01*
X127747728Y-95770625D01*
X127793999Y-95748045D01*
X127802556Y-95739893D01*
X127815107Y-95724564D01*
X127823812Y-95706382D01*
X127829369Y-95680091D01*
X127832474Y-95640438D01*
X127833824Y-95582168D01*
X127834114Y-95501827D01*
X127834114Y-95297354D01*
X127879823Y-95281420D01*
X127912287Y-95270580D01*
X127930099Y-95265532D01*
X127930623Y-95265486D01*
X127931963Y-95279377D01*
G37*
X127931963Y-95279377D02*
X127933172Y-95318561D01*
X127934199Y-95379300D01*
X127934998Y-95457859D01*
X127935519Y-95550502D01*
X127935714Y-95653491D01*
X127935714Y-96050658D01*
X127888543Y-96070556D01*
X127841371Y-96090453D01*
X127834114Y-95968711D01*
X127829861Y-95909387D01*
X127824975Y-95874428D01*
X127818205Y-95859180D01*
X127808298Y-95858985D01*
X127805086Y-95860805D01*
X127762356Y-95873985D01*
X127706773Y-95873215D01*
X127650263Y-95859667D01*
X127614918Y-95842139D01*
X127578679Y-95814139D01*
X127552187Y-95782451D01*
X127534001Y-95742187D01*
X127522678Y-95688457D01*
X127516778Y-95616374D01*
X127514857Y-95521049D01*
X127514823Y-95502763D01*
X127514800Y-95297354D01*
X127560509Y-95281420D01*
X127592973Y-95270580D01*
X127610785Y-95265532D01*
X127611309Y-95265486D01*
X127613063Y-95279172D01*
X127614556Y-95316924D01*
X127615674Y-95373776D01*
X127616303Y-95444766D01*
X127616400Y-95487927D01*
X127616602Y-95573027D01*
X127617642Y-95634019D01*
X127620169Y-95675823D01*
X127624836Y-95703358D01*
X127632293Y-95721544D01*
X127643189Y-95735302D01*
X127649993Y-95741927D01*
X127696728Y-95768625D01*
X127747728Y-95770625D01*
X127793999Y-95748045D01*
X127802556Y-95739893D01*
X127815107Y-95724564D01*
X127823812Y-95706382D01*
X127829369Y-95680091D01*
X127832474Y-95640438D01*
X127833824Y-95582168D01*
X127834114Y-95501827D01*
X127834114Y-95297354D01*
X127879823Y-95281420D01*
X127912287Y-95270580D01*
X127930099Y-95265532D01*
X127930623Y-95265486D01*
X127931963Y-95279377D01*
G36*
X127103761Y-95278978D02*
G01*
X127106413Y-95315374D01*
X127108044Y-95368548D01*
X127108400Y-95411607D01*
X127108408Y-95481359D01*
X127111597Y-95525163D01*
X127122712Y-95546056D01*
X127146499Y-95547075D01*
X127187704Y-95531259D01*
X127249914Y-95502185D01*
X127295659Y-95478037D01*
X127319187Y-95457087D01*
X127326104Y-95434253D01*
X127326114Y-95433123D01*
X127314701Y-95393788D01*
X127280908Y-95372538D01*
X127229191Y-95369461D01*
X127191939Y-95369994D01*
X127172297Y-95359265D01*
X127160048Y-95333495D01*
X127152998Y-95300663D01*
X127163158Y-95282034D01*
X127166983Y-95279368D01*
X127202999Y-95268660D01*
X127253434Y-95267144D01*
X127305374Y-95274241D01*
X127342178Y-95287212D01*
X127393062Y-95330415D01*
X127421986Y-95390554D01*
X127427714Y-95437538D01*
X127423343Y-95479918D01*
X127407525Y-95514512D01*
X127376203Y-95545237D01*
X127325322Y-95576010D01*
X127250824Y-95610748D01*
X127246286Y-95612712D01*
X127179179Y-95643713D01*
X127137768Y-95669138D01*
X127120019Y-95691986D01*
X127123893Y-95715255D01*
X127147357Y-95741944D01*
X127154373Y-95748086D01*
X127201370Y-95771900D01*
X127250067Y-95770897D01*
X127292478Y-95747549D01*
X127320616Y-95704325D01*
X127323231Y-95695840D01*
X127348692Y-95654692D01*
X127380999Y-95634872D01*
X127427714Y-95615230D01*
X127427714Y-95666050D01*
X127413504Y-95739918D01*
X127371325Y-95807673D01*
X127349376Y-95830339D01*
X127299483Y-95859431D01*
X127236033Y-95872600D01*
X127170256Y-95869032D01*
X127113384Y-95847913D01*
X127112733Y-95847507D01*
X127077560Y-95821620D01*
X127051593Y-95791367D01*
X127033330Y-95751942D01*
X127021268Y-95698538D01*
X127013904Y-95626349D01*
X127009736Y-95530568D01*
X127009371Y-95516922D01*
X127004124Y-95311158D01*
X127048284Y-95288322D01*
X127080237Y-95272890D01*
X127099530Y-95265577D01*
X127100422Y-95265486D01*
X127103761Y-95278978D01*
G37*
X127103761Y-95278978D02*
X127106413Y-95315374D01*
X127108044Y-95368548D01*
X127108400Y-95411607D01*
X127108408Y-95481359D01*
X127111597Y-95525163D01*
X127122712Y-95546056D01*
X127146499Y-95547075D01*
X127187704Y-95531259D01*
X127249914Y-95502185D01*
X127295659Y-95478037D01*
X127319187Y-95457087D01*
X127326104Y-95434253D01*
X127326114Y-95433123D01*
X127314701Y-95393788D01*
X127280908Y-95372538D01*
X127229191Y-95369461D01*
X127191939Y-95369994D01*
X127172297Y-95359265D01*
X127160048Y-95333495D01*
X127152998Y-95300663D01*
X127163158Y-95282034D01*
X127166983Y-95279368D01*
X127202999Y-95268660D01*
X127253434Y-95267144D01*
X127305374Y-95274241D01*
X127342178Y-95287212D01*
X127393062Y-95330415D01*
X127421986Y-95390554D01*
X127427714Y-95437538D01*
X127423343Y-95479918D01*
X127407525Y-95514512D01*
X127376203Y-95545237D01*
X127325322Y-95576010D01*
X127250824Y-95610748D01*
X127246286Y-95612712D01*
X127179179Y-95643713D01*
X127137768Y-95669138D01*
X127120019Y-95691986D01*
X127123893Y-95715255D01*
X127147357Y-95741944D01*
X127154373Y-95748086D01*
X127201370Y-95771900D01*
X127250067Y-95770897D01*
X127292478Y-95747549D01*
X127320616Y-95704325D01*
X127323231Y-95695840D01*
X127348692Y-95654692D01*
X127380999Y-95634872D01*
X127427714Y-95615230D01*
X127427714Y-95666050D01*
X127413504Y-95739918D01*
X127371325Y-95807673D01*
X127349376Y-95830339D01*
X127299483Y-95859431D01*
X127236033Y-95872600D01*
X127170256Y-95869032D01*
X127113384Y-95847913D01*
X127112733Y-95847507D01*
X127077560Y-95821620D01*
X127051593Y-95791367D01*
X127033330Y-95751942D01*
X127021268Y-95698538D01*
X127013904Y-95626349D01*
X127009736Y-95530568D01*
X127009371Y-95516922D01*
X127004124Y-95311158D01*
X127048284Y-95288322D01*
X127080237Y-95272890D01*
X127099530Y-95265577D01*
X127100422Y-95265486D01*
X127103761Y-95278978D01*
G36*
X128619192Y-96465543D02*
G01*
X128652820Y-96493174D01*
X128699990Y-96535505D01*
X128757342Y-96589495D01*
X128821516Y-96652101D01*
X128842503Y-96673017D01*
X129059501Y-96890377D01*
X128894332Y-97132780D01*
X128844136Y-97207219D01*
X128800081Y-97274028D01*
X128764638Y-97329335D01*
X128740281Y-97369271D01*
X128729478Y-97389964D01*
X128729162Y-97391437D01*
X128734857Y-97410942D01*
X128750174Y-97450178D01*
X128772463Y-97502570D01*
X128788107Y-97537645D01*
X128817359Y-97604799D01*
X128844906Y-97672642D01*
X128866263Y-97729966D01*
X128872065Y-97747428D01*
X128888548Y-97794062D01*
X128904660Y-97830095D01*
X128913510Y-97843713D01*
X128933040Y-97852048D01*
X128975666Y-97863863D01*
X129035855Y-97877819D01*
X129108078Y-97892578D01*
X129140400Y-97898645D01*
X129222478Y-97913727D01*
X129301205Y-97928331D01*
X129368891Y-97941020D01*
X129417840Y-97950358D01*
X129427057Y-97952161D01*
X129503257Y-97967201D01*
X129503257Y-98284508D01*
X129503086Y-98388846D01*
X129502384Y-98467787D01*
X129500866Y-98524962D01*
X129498251Y-98564001D01*
X129494254Y-98588535D01*
X129488591Y-98602195D01*
X129480980Y-98608611D01*
X129477857Y-98609801D01*
X129459022Y-98614020D01*
X129417412Y-98622438D01*
X129358370Y-98634039D01*
X129287243Y-98647805D01*
X129209375Y-98662720D01*
X129130113Y-98677768D01*
X129054802Y-98691931D01*
X128988787Y-98704194D01*
X128937413Y-98713539D01*
X128906025Y-98718950D01*
X128899041Y-98719886D01*
X128892715Y-98732404D01*
X128878710Y-98765754D01*
X128859645Y-98813623D01*
X128852366Y-98832371D01*
X128823004Y-98904805D01*
X128788429Y-98984830D01*
X128757463Y-99052272D01*
X128734677Y-99103841D01*
X128719518Y-99146215D01*
X128714458Y-99172166D01*
X128715264Y-99175644D01*
X128725959Y-99192064D01*
X128750380Y-99228583D01*
X128785905Y-99281313D01*
X128829913Y-99346365D01*
X128879783Y-99419849D01*
X128889644Y-99434355D01*
X128947508Y-99520296D01*
X128990044Y-99585739D01*
X129018946Y-99633696D01*
X129035910Y-99667180D01*
X129042633Y-99689205D01*
X129040810Y-99702783D01*
X129040764Y-99702869D01*
X129026414Y-99720703D01*
X128994677Y-99755183D01*
X128948990Y-99802732D01*
X128892796Y-99859778D01*
X128829532Y-99922745D01*
X128822398Y-99929773D01*
X128742670Y-100006980D01*
X128681143Y-100063670D01*
X128636579Y-100100890D01*
X128607743Y-100119685D01*
X128595042Y-100122111D01*
X128576506Y-100111529D01*
X128538039Y-100087084D01*
X128483614Y-100051388D01*
X128417202Y-100007053D01*
X128342775Y-99956689D01*
X128325399Y-99944840D01*
X128078703Y-99776374D01*
X127967294Y-99826938D01*
X127899543Y-99856405D01*
X127826817Y-99886041D01*
X127764297Y-99909670D01*
X127761543Y-99910642D01*
X127712640Y-99928543D01*
X127674943Y-99943680D01*
X127656575Y-99952790D01*
X127656544Y-99952816D01*
X127650715Y-99969283D01*
X127640808Y-100009781D01*
X127627805Y-100069758D01*
X127612691Y-100144660D01*
X127596448Y-100229936D01*
X127595119Y-100237125D01*
X127578825Y-100324986D01*
X127563867Y-100404740D01*
X127551209Y-100471319D01*
X127541814Y-100519653D01*
X127536646Y-100544675D01*
X127536556Y-100545057D01*
X127533411Y-100555701D01*
X127527296Y-100563738D01*
X127514547Y-100569533D01*
X127491500Y-100573453D01*
X127454491Y-100575865D01*
X127399856Y-100577135D01*
X127323933Y-100577629D01*
X127223056Y-100577714D01*
X127210000Y-100577714D01*
X127106090Y-100577652D01*
X127027546Y-100577222D01*
X126970702Y-100576058D01*
X126931895Y-100573793D01*
X126907462Y-100570060D01*
X126893738Y-100564494D01*
X126887060Y-100556727D01*
X126883764Y-100546395D01*
X126883444Y-100545057D01*
X126878438Y-100520921D01*
X126869171Y-100473299D01*
X126856608Y-100407259D01*
X126841713Y-100327872D01*
X126825449Y-100240204D01*
X126824881Y-100237125D01*
X126808590Y-100151211D01*
X126793348Y-100075304D01*
X126780139Y-100013955D01*
X126769946Y-99971718D01*
X126763752Y-99953145D01*
X126763457Y-99952816D01*
X126745212Y-99943747D01*
X126707595Y-99928633D01*
X126658729Y-99910738D01*
X126658457Y-99910642D01*
X126596907Y-99887507D01*
X126524343Y-99858035D01*
X126455943Y-99828403D01*
X126452706Y-99826938D01*
X126341298Y-99776374D01*
X126094601Y-99944840D01*
X126018923Y-99996197D01*
X125950369Y-100042111D01*
X125892912Y-100079970D01*
X125850524Y-100107163D01*
X125827175Y-100121079D01*
X125824958Y-100122111D01*
X125807990Y-100117516D01*
X125776299Y-100095345D01*
X125728648Y-100054553D01*
X125663802Y-99994095D01*
X125597603Y-99929773D01*
X125533786Y-99866388D01*
X125476671Y-99808549D01*
X125429695Y-99759825D01*
X125396297Y-99723790D01*
X125379915Y-99704016D01*
X125379306Y-99702998D01*
X125377495Y-99689428D01*
X125384317Y-99667267D01*
X125401460Y-99633522D01*
X125430607Y-99585200D01*
X125473445Y-99519308D01*
X125530552Y-99434483D01*
X125581234Y-99359823D01*
X125626539Y-99292860D01*
X125663850Y-99237484D01*
X125690548Y-99197580D01*
X125704015Y-99177038D01*
X125704863Y-99175644D01*
X125703219Y-99155962D01*
X125690755Y-99117707D01*
X125669952Y-99068111D01*
X125662538Y-99052272D01*
X125630186Y-98981710D01*
X125595672Y-98901647D01*
X125567635Y-98832371D01*
X125547432Y-98780955D01*
X125531385Y-98741881D01*
X125522112Y-98721459D01*
X125520959Y-98719886D01*
X125503904Y-98717279D01*
X125463702Y-98710137D01*
X125405698Y-98699477D01*
X125335237Y-98686315D01*
X125257665Y-98671667D01*
X125178328Y-98656551D01*
X125102569Y-98641982D01*
X125035736Y-98628978D01*
X124983172Y-98618555D01*
X124950224Y-98611730D01*
X124942143Y-98609801D01*
X124933795Y-98605038D01*
X124927494Y-98594282D01*
X124922955Y-98573902D01*
X124919896Y-98540266D01*
X124918033Y-98489745D01*
X124917082Y-98418708D01*
X124916760Y-98323524D01*
X124916743Y-98284508D01*
X124916743Y-97967201D01*
X124992943Y-97952161D01*
X125035337Y-97944005D01*
X125098600Y-97932101D01*
X125175038Y-97917884D01*
X125256957Y-97902790D01*
X125279600Y-97898645D01*
X125355194Y-97883947D01*
X125421047Y-97869495D01*
X125471634Y-97856625D01*
X125501426Y-97846678D01*
X125506388Y-97843713D01*
X125518574Y-97822717D01*
X125536047Y-97782033D01*
X125555423Y-97729678D01*
X125559266Y-97718400D01*
X125584661Y-97648477D01*
X125616183Y-97569582D01*
X125647031Y-97498734D01*
X125647183Y-97498405D01*
X125698553Y-97387267D01*
X125529601Y-97138747D01*
X125360648Y-96890228D01*
X125577571Y-96672942D01*
X125643181Y-96608274D01*
X125703021Y-96551267D01*
X125753733Y-96504967D01*
X125791954Y-96472416D01*
X125814325Y-96456657D01*
X125817534Y-96455657D01*
X125836374Y-96463531D01*
X125874820Y-96485422D01*
X125928670Y-96518733D01*
X125993724Y-96560869D01*
X126064060Y-96608057D01*
X126135445Y-96656190D01*
X126199092Y-96698072D01*
X126250959Y-96731129D01*
X126287005Y-96752782D01*
X126303133Y-96760457D01*
X126322811Y-96753963D01*
X126360125Y-96736850D01*
X126407379Y-96712674D01*
X126412388Y-96709987D01*
X126476023Y-96678073D01*
X126519659Y-96662421D01*
X126546798Y-96662255D01*
X126560943Y-96676796D01*
X126561025Y-96677000D01*
X126568095Y-96694221D01*
X126584958Y-96735101D01*
X126610305Y-96796475D01*
X126642829Y-96875181D01*
X126681222Y-96968053D01*
X126724178Y-97071928D01*
X126765778Y-97172498D01*
X126811496Y-97283484D01*
X126853474Y-97386297D01*
X126890452Y-97477785D01*
X126921173Y-97554799D01*
X126944378Y-97614185D01*
X126958810Y-97652791D01*
X126963257Y-97667200D01*
X126952104Y-97683728D01*
X126922931Y-97710070D01*
X126884029Y-97739113D01*
X126773243Y-97830961D01*
X126686649Y-97936241D01*
X126625284Y-98052734D01*
X126590185Y-98178224D01*
X126582392Y-98310493D01*
X126588057Y-98371543D01*
X126618922Y-98498205D01*
X126672080Y-98610059D01*
X126744233Y-98705999D01*
X126832083Y-98784924D01*
X126932335Y-98845730D01*
X127041690Y-98887313D01*
X127156853Y-98908572D01*
X127274525Y-98908401D01*
X127391410Y-98885699D01*
X127504211Y-98839362D01*
X127609631Y-98768287D01*
X127653632Y-98728089D01*
X127738021Y-98624871D01*
X127796778Y-98512075D01*
X127830296Y-98392990D01*
X127838965Y-98270905D01*
X127823177Y-98149107D01*
X127783322Y-98030884D01*
X127719793Y-97919525D01*
X127632979Y-97818316D01*
X127535971Y-97739113D01*
X127495563Y-97708838D01*
X127467018Y-97682781D01*
X127456743Y-97667175D01*
X127462123Y-97650157D01*
X127477425Y-97609500D01*
X127501388Y-97548358D01*
X127532756Y-97469881D01*
X127570268Y-97377220D01*
X127612667Y-97273528D01*
X127654337Y-97172474D01*
X127700310Y-97061393D01*
X127742893Y-96958459D01*
X127780779Y-96866835D01*
X127812660Y-96789684D01*
X127837229Y-96730169D01*
X127853180Y-96691456D01*
X127859090Y-96677000D01*
X127873052Y-96662315D01*
X127900060Y-96662358D01*
X127943587Y-96677901D01*
X128007110Y-96709716D01*
X128007612Y-96709987D01*
X128055440Y-96734677D01*
X128094103Y-96752662D01*
X128115905Y-96760386D01*
X128116867Y-96760457D01*
X128133279Y-96752622D01*
X128169513Y-96730835D01*
X128221526Y-96697672D01*
X128285275Y-96655709D01*
X128355940Y-96608057D01*
X128427884Y-96559809D01*
X128492726Y-96517849D01*
X128546265Y-96484773D01*
X128584303Y-96463179D01*
X128602467Y-96455657D01*
X128619192Y-96465543D01*
G37*
X128619192Y-96465543D02*
X128652820Y-96493174D01*
X128699990Y-96535505D01*
X128757342Y-96589495D01*
X128821516Y-96652101D01*
X128842503Y-96673017D01*
X129059501Y-96890377D01*
X128894332Y-97132780D01*
X128844136Y-97207219D01*
X128800081Y-97274028D01*
X128764638Y-97329335D01*
X128740281Y-97369271D01*
X128729478Y-97389964D01*
X128729162Y-97391437D01*
X128734857Y-97410942D01*
X128750174Y-97450178D01*
X128772463Y-97502570D01*
X128788107Y-97537645D01*
X128817359Y-97604799D01*
X128844906Y-97672642D01*
X128866263Y-97729966D01*
X128872065Y-97747428D01*
X128888548Y-97794062D01*
X128904660Y-97830095D01*
X128913510Y-97843713D01*
X128933040Y-97852048D01*
X128975666Y-97863863D01*
X129035855Y-97877819D01*
X129108078Y-97892578D01*
X129140400Y-97898645D01*
X129222478Y-97913727D01*
X129301205Y-97928331D01*
X129368891Y-97941020D01*
X129417840Y-97950358D01*
X129427057Y-97952161D01*
X129503257Y-97967201D01*
X129503257Y-98284508D01*
X129503086Y-98388846D01*
X129502384Y-98467787D01*
X129500866Y-98524962D01*
X129498251Y-98564001D01*
X129494254Y-98588535D01*
X129488591Y-98602195D01*
X129480980Y-98608611D01*
X129477857Y-98609801D01*
X129459022Y-98614020D01*
X129417412Y-98622438D01*
X129358370Y-98634039D01*
X129287243Y-98647805D01*
X129209375Y-98662720D01*
X129130113Y-98677768D01*
X129054802Y-98691931D01*
X128988787Y-98704194D01*
X128937413Y-98713539D01*
X128906025Y-98718950D01*
X128899041Y-98719886D01*
X128892715Y-98732404D01*
X128878710Y-98765754D01*
X128859645Y-98813623D01*
X128852366Y-98832371D01*
X128823004Y-98904805D01*
X128788429Y-98984830D01*
X128757463Y-99052272D01*
X128734677Y-99103841D01*
X128719518Y-99146215D01*
X128714458Y-99172166D01*
X128715264Y-99175644D01*
X128725959Y-99192064D01*
X128750380Y-99228583D01*
X128785905Y-99281313D01*
X128829913Y-99346365D01*
X128879783Y-99419849D01*
X128889644Y-99434355D01*
X128947508Y-99520296D01*
X128990044Y-99585739D01*
X129018946Y-99633696D01*
X129035910Y-99667180D01*
X129042633Y-99689205D01*
X129040810Y-99702783D01*
X129040764Y-99702869D01*
X129026414Y-99720703D01*
X128994677Y-99755183D01*
X128948990Y-99802732D01*
X128892796Y-99859778D01*
X128829532Y-99922745D01*
X128822398Y-99929773D01*
X128742670Y-100006980D01*
X128681143Y-100063670D01*
X128636579Y-100100890D01*
X128607743Y-100119685D01*
X128595042Y-100122111D01*
X128576506Y-100111529D01*
X128538039Y-100087084D01*
X128483614Y-100051388D01*
X128417202Y-100007053D01*
X128342775Y-99956689D01*
X128325399Y-99944840D01*
X128078703Y-99776374D01*
X127967294Y-99826938D01*
X127899543Y-99856405D01*
X127826817Y-99886041D01*
X127764297Y-99909670D01*
X127761543Y-99910642D01*
X127712640Y-99928543D01*
X127674943Y-99943680D01*
X127656575Y-99952790D01*
X127656544Y-99952816D01*
X127650715Y-99969283D01*
X127640808Y-100009781D01*
X127627805Y-100069758D01*
X127612691Y-100144660D01*
X127596448Y-100229936D01*
X127595119Y-100237125D01*
X127578825Y-100324986D01*
X127563867Y-100404740D01*
X127551209Y-100471319D01*
X127541814Y-100519653D01*
X127536646Y-100544675D01*
X127536556Y-100545057D01*
X127533411Y-100555701D01*
X127527296Y-100563738D01*
X127514547Y-100569533D01*
X127491500Y-100573453D01*
X127454491Y-100575865D01*
X127399856Y-100577135D01*
X127323933Y-100577629D01*
X127223056Y-100577714D01*
X127210000Y-100577714D01*
X127106090Y-100577652D01*
X127027546Y-100577222D01*
X126970702Y-100576058D01*
X126931895Y-100573793D01*
X126907462Y-100570060D01*
X126893738Y-100564494D01*
X126887060Y-100556727D01*
X126883764Y-100546395D01*
X126883444Y-100545057D01*
X126878438Y-100520921D01*
X126869171Y-100473299D01*
X126856608Y-100407259D01*
X126841713Y-100327872D01*
X126825449Y-100240204D01*
X126824881Y-100237125D01*
X126808590Y-100151211D01*
X126793348Y-100075304D01*
X126780139Y-100013955D01*
X126769946Y-99971718D01*
X126763752Y-99953145D01*
X126763457Y-99952816D01*
X126745212Y-99943747D01*
X126707595Y-99928633D01*
X126658729Y-99910738D01*
X126658457Y-99910642D01*
X126596907Y-99887507D01*
X126524343Y-99858035D01*
X126455943Y-99828403D01*
X126452706Y-99826938D01*
X126341298Y-99776374D01*
X126094601Y-99944840D01*
X126018923Y-99996197D01*
X125950369Y-100042111D01*
X125892912Y-100079970D01*
X125850524Y-100107163D01*
X125827175Y-100121079D01*
X125824958Y-100122111D01*
X125807990Y-100117516D01*
X125776299Y-100095345D01*
X125728648Y-100054553D01*
X125663802Y-99994095D01*
X125597603Y-99929773D01*
X125533786Y-99866388D01*
X125476671Y-99808549D01*
X125429695Y-99759825D01*
X125396297Y-99723790D01*
X125379915Y-99704016D01*
X125379306Y-99702998D01*
X125377495Y-99689428D01*
X125384317Y-99667267D01*
X125401460Y-99633522D01*
X125430607Y-99585200D01*
X125473445Y-99519308D01*
X125530552Y-99434483D01*
X125581234Y-99359823D01*
X125626539Y-99292860D01*
X125663850Y-99237484D01*
X125690548Y-99197580D01*
X125704015Y-99177038D01*
X125704863Y-99175644D01*
X125703219Y-99155962D01*
X125690755Y-99117707D01*
X125669952Y-99068111D01*
X125662538Y-99052272D01*
X125630186Y-98981710D01*
X125595672Y-98901647D01*
X125567635Y-98832371D01*
X125547432Y-98780955D01*
X125531385Y-98741881D01*
X125522112Y-98721459D01*
X125520959Y-98719886D01*
X125503904Y-98717279D01*
X125463702Y-98710137D01*
X125405698Y-98699477D01*
X125335237Y-98686315D01*
X125257665Y-98671667D01*
X125178328Y-98656551D01*
X125102569Y-98641982D01*
X125035736Y-98628978D01*
X124983172Y-98618555D01*
X124950224Y-98611730D01*
X124942143Y-98609801D01*
X124933795Y-98605038D01*
X124927494Y-98594282D01*
X124922955Y-98573902D01*
X124919896Y-98540266D01*
X124918033Y-98489745D01*
X124917082Y-98418708D01*
X124916760Y-98323524D01*
X124916743Y-98284508D01*
X124916743Y-97967201D01*
X124992943Y-97952161D01*
X125035337Y-97944005D01*
X125098600Y-97932101D01*
X125175038Y-97917884D01*
X125256957Y-97902790D01*
X125279600Y-97898645D01*
X125355194Y-97883947D01*
X125421047Y-97869495D01*
X125471634Y-97856625D01*
X125501426Y-97846678D01*
X125506388Y-97843713D01*
X125518574Y-97822717D01*
X125536047Y-97782033D01*
X125555423Y-97729678D01*
X125559266Y-97718400D01*
X125584661Y-97648477D01*
X125616183Y-97569582D01*
X125647031Y-97498734D01*
X125647183Y-97498405D01*
X125698553Y-97387267D01*
X125529601Y-97138747D01*
X125360648Y-96890228D01*
X125577571Y-96672942D01*
X125643181Y-96608274D01*
X125703021Y-96551267D01*
X125753733Y-96504967D01*
X125791954Y-96472416D01*
X125814325Y-96456657D01*
X125817534Y-96455657D01*
X125836374Y-96463531D01*
X125874820Y-96485422D01*
X125928670Y-96518733D01*
X125993724Y-96560869D01*
X126064060Y-96608057D01*
X126135445Y-96656190D01*
X126199092Y-96698072D01*
X126250959Y-96731129D01*
X126287005Y-96752782D01*
X126303133Y-96760457D01*
X126322811Y-96753963D01*
X126360125Y-96736850D01*
X126407379Y-96712674D01*
X126412388Y-96709987D01*
X126476023Y-96678073D01*
X126519659Y-96662421D01*
X126546798Y-96662255D01*
X126560943Y-96676796D01*
X126561025Y-96677000D01*
X126568095Y-96694221D01*
X126584958Y-96735101D01*
X126610305Y-96796475D01*
X126642829Y-96875181D01*
X126681222Y-96968053D01*
X126724178Y-97071928D01*
X126765778Y-97172498D01*
X126811496Y-97283484D01*
X126853474Y-97386297D01*
X126890452Y-97477785D01*
X126921173Y-97554799D01*
X126944378Y-97614185D01*
X126958810Y-97652791D01*
X126963257Y-97667200D01*
X126952104Y-97683728D01*
X126922931Y-97710070D01*
X126884029Y-97739113D01*
X126773243Y-97830961D01*
X126686649Y-97936241D01*
X126625284Y-98052734D01*
X126590185Y-98178224D01*
X126582392Y-98310493D01*
X126588057Y-98371543D01*
X126618922Y-98498205D01*
X126672080Y-98610059D01*
X126744233Y-98705999D01*
X126832083Y-98784924D01*
X126932335Y-98845730D01*
X127041690Y-98887313D01*
X127156853Y-98908572D01*
X127274525Y-98908401D01*
X127391410Y-98885699D01*
X127504211Y-98839362D01*
X127609631Y-98768287D01*
X127653632Y-98728089D01*
X127738021Y-98624871D01*
X127796778Y-98512075D01*
X127830296Y-98392990D01*
X127838965Y-98270905D01*
X127823177Y-98149107D01*
X127783322Y-98030884D01*
X127719793Y-97919525D01*
X127632979Y-97818316D01*
X127535971Y-97739113D01*
X127495563Y-97708838D01*
X127467018Y-97682781D01*
X127456743Y-97667175D01*
X127462123Y-97650157D01*
X127477425Y-97609500D01*
X127501388Y-97548358D01*
X127532756Y-97469881D01*
X127570268Y-97377220D01*
X127612667Y-97273528D01*
X127654337Y-97172474D01*
X127700310Y-97061393D01*
X127742893Y-96958459D01*
X127780779Y-96866835D01*
X127812660Y-96789684D01*
X127837229Y-96730169D01*
X127853180Y-96691456D01*
X127859090Y-96677000D01*
X127873052Y-96662315D01*
X127900060Y-96662358D01*
X127943587Y-96677901D01*
X128007110Y-96709716D01*
X128007612Y-96709987D01*
X128055440Y-96734677D01*
X128094103Y-96752662D01*
X128115905Y-96760386D01*
X128116867Y-96760457D01*
X128133279Y-96752622D01*
X128169513Y-96730835D01*
X128221526Y-96697672D01*
X128285275Y-96655709D01*
X128355940Y-96608057D01*
X128427884Y-96559809D01*
X128492726Y-96517849D01*
X128546265Y-96484773D01*
X128584303Y-96463179D01*
X128602467Y-96455657D01*
X128619192Y-96465543D01*
G36*
X125014528Y-95278975D02*
G01*
X125016718Y-95315347D01*
X125018058Y-95368458D01*
X125018343Y-95410628D01*
X125019566Y-95471553D01*
X125022864Y-95519885D01*
X125027679Y-95549482D01*
X125031504Y-95555771D01*
X125057217Y-95549348D01*
X125097582Y-95532875D01*
X125144321Y-95510542D01*
X125189155Y-95486543D01*
X125223807Y-95465070D01*
X125239998Y-95450315D01*
X125240062Y-95450155D01*
X125238670Y-95422848D01*
X125226182Y-95396781D01*
X125204257Y-95375608D01*
X125172257Y-95368526D01*
X125144908Y-95369351D01*
X125106174Y-95369958D01*
X125085842Y-95360884D01*
X125073631Y-95336908D01*
X125072091Y-95332387D01*
X125066797Y-95298194D01*
X125080953Y-95277432D01*
X125117852Y-95267538D01*
X125157711Y-95265708D01*
X125229438Y-95279273D01*
X125266568Y-95298645D01*
X125312424Y-95344155D01*
X125336744Y-95400017D01*
X125338927Y-95459043D01*
X125318371Y-95514047D01*
X125287451Y-95548514D01*
X125256580Y-95567811D01*
X125208058Y-95592241D01*
X125151515Y-95617015D01*
X125142090Y-95620801D01*
X125079981Y-95648209D01*
X125044178Y-95672366D01*
X125032663Y-95696381D01*
X125043420Y-95723365D01*
X125061886Y-95744457D01*
X125105531Y-95770428D01*
X125153554Y-95772376D01*
X125197594Y-95752363D01*
X125229291Y-95712449D01*
X125233451Y-95702152D01*
X125257673Y-95664276D01*
X125293035Y-95636158D01*
X125337657Y-95613083D01*
X125337657Y-95678515D01*
X125335031Y-95718494D01*
X125323770Y-95750003D01*
X125298801Y-95783622D01*
X125274831Y-95809516D01*
X125237559Y-95846183D01*
X125208599Y-95865879D01*
X125177495Y-95873780D01*
X125142287Y-95875086D01*
X125065124Y-95863665D01*
X125023333Y-95844656D01*
X124990531Y-95821622D01*
X124966497Y-95795867D01*
X124949903Y-95762642D01*
X124939423Y-95717200D01*
X124933729Y-95654793D01*
X124931493Y-95570673D01*
X124931257Y-95515279D01*
X124931257Y-95299174D01*
X124968226Y-95282330D01*
X124997344Y-95270019D01*
X125011769Y-95265486D01*
X125014528Y-95278975D01*
G37*
X125014528Y-95278975D02*
X125016718Y-95315347D01*
X125018058Y-95368458D01*
X125018343Y-95410628D01*
X125019566Y-95471553D01*
X125022864Y-95519885D01*
X125027679Y-95549482D01*
X125031504Y-95555771D01*
X125057217Y-95549348D01*
X125097582Y-95532875D01*
X125144321Y-95510542D01*
X125189155Y-95486543D01*
X125223807Y-95465070D01*
X125239998Y-95450315D01*
X125240062Y-95450155D01*
X125238670Y-95422848D01*
X125226182Y-95396781D01*
X125204257Y-95375608D01*
X125172257Y-95368526D01*
X125144908Y-95369351D01*
X125106174Y-95369958D01*
X125085842Y-95360884D01*
X125073631Y-95336908D01*
X125072091Y-95332387D01*
X125066797Y-95298194D01*
X125080953Y-95277432D01*
X125117852Y-95267538D01*
X125157711Y-95265708D01*
X125229438Y-95279273D01*
X125266568Y-95298645D01*
X125312424Y-95344155D01*
X125336744Y-95400017D01*
X125338927Y-95459043D01*
X125318371Y-95514047D01*
X125287451Y-95548514D01*
X125256580Y-95567811D01*
X125208058Y-95592241D01*
X125151515Y-95617015D01*
X125142090Y-95620801D01*
X125079981Y-95648209D01*
X125044178Y-95672366D01*
X125032663Y-95696381D01*
X125043420Y-95723365D01*
X125061886Y-95744457D01*
X125105531Y-95770428D01*
X125153554Y-95772376D01*
X125197594Y-95752363D01*
X125229291Y-95712449D01*
X125233451Y-95702152D01*
X125257673Y-95664276D01*
X125293035Y-95636158D01*
X125337657Y-95613083D01*
X125337657Y-95678515D01*
X125335031Y-95718494D01*
X125323770Y-95750003D01*
X125298801Y-95783622D01*
X125274831Y-95809516D01*
X125237559Y-95846183D01*
X125208599Y-95865879D01*
X125177495Y-95873780D01*
X125142287Y-95875086D01*
X125065124Y-95863665D01*
X125023333Y-95844656D01*
X124990531Y-95821622D01*
X124966497Y-95795867D01*
X124949903Y-95762642D01*
X124939423Y-95717200D01*
X124933729Y-95654793D01*
X124931493Y-95570673D01*
X124931257Y-95515279D01*
X124931257Y-95299174D01*
X124968226Y-95282330D01*
X124997344Y-95270019D01*
X125011769Y-95265486D01*
X125014528Y-95278975D01*
G36*
X129338450Y-95783788D02*
G01*
X129304544Y-95832698D01*
X129243347Y-95882122D01*
X129175937Y-95906641D01*
X129107120Y-95908203D01*
X129041697Y-95888761D01*
X128984473Y-95850265D01*
X128940251Y-95794665D01*
X128913833Y-95723914D01*
X128912712Y-95712987D01*
X129056000Y-95712987D01*
X129059647Y-95726549D01*
X129075005Y-95744368D01*
X129114077Y-95770155D01*
X129156154Y-95772050D01*
X129193897Y-95753283D01*
X129219966Y-95717085D01*
X129227486Y-95677252D01*
X129225676Y-95645247D01*
X129215778Y-95635907D01*
X129191102Y-95642895D01*
X129152205Y-95659413D01*
X129108725Y-95680119D01*
X129107644Y-95680667D01*
X129070791Y-95700051D01*
X129056000Y-95712987D01*
X128912712Y-95712987D01*
X128908490Y-95671838D01*
X128909097Y-95650107D01*
X128914178Y-95633469D01*
X128928145Y-95618563D01*
X128955411Y-95602027D01*
X129000388Y-95580502D01*
X129067489Y-95550626D01*
X129067829Y-95550476D01*
X129129593Y-95522187D01*
X129180241Y-95497067D01*
X129214596Y-95477821D01*
X129227482Y-95467152D01*
X129227486Y-95467066D01*
X129216128Y-95443834D01*
X129189569Y-95418226D01*
X129159077Y-95399779D01*
X129143630Y-95396114D01*
X129101485Y-95408788D01*
X129065192Y-95440529D01*
X129047483Y-95475428D01*
X129030448Y-95501155D01*
X128997078Y-95530454D01*
X128957851Y-95555765D01*
X128923244Y-95569529D01*
X128916007Y-95570286D01*
X128907861Y-95557840D01*
X128907370Y-95526028D01*
X128913357Y-95483134D01*
X128924643Y-95437442D01*
X128940050Y-95397239D01*
X128940829Y-95395678D01*
X128987196Y-95330938D01*
X129047289Y-95286903D01*
X129115535Y-95265289D01*
X129186362Y-95267815D01*
X129254196Y-95296196D01*
X129257212Y-95298192D01*
X129310573Y-95346552D01*
X129345660Y-95409648D01*
X129365078Y-95492613D01*
X129367684Y-95515922D01*
X129372299Y-95625945D01*
X129366767Y-95677252D01*
X129362806Y-95713973D01*
X129338450Y-95783788D01*
G37*
X129338450Y-95783788D02*
X129304544Y-95832698D01*
X129243347Y-95882122D01*
X129175937Y-95906641D01*
X129107120Y-95908203D01*
X129041697Y-95888761D01*
X128984473Y-95850265D01*
X128940251Y-95794665D01*
X128913833Y-95723914D01*
X128912712Y-95712987D01*
X129056000Y-95712987D01*
X129059647Y-95726549D01*
X129075005Y-95744368D01*
X129114077Y-95770155D01*
X129156154Y-95772050D01*
X129193897Y-95753283D01*
X129219966Y-95717085D01*
X129227486Y-95677252D01*
X129225676Y-95645247D01*
X129215778Y-95635907D01*
X129191102Y-95642895D01*
X129152205Y-95659413D01*
X129108725Y-95680119D01*
X129107644Y-95680667D01*
X129070791Y-95700051D01*
X129056000Y-95712987D01*
X128912712Y-95712987D01*
X128908490Y-95671838D01*
X128909097Y-95650107D01*
X128914178Y-95633469D01*
X128928145Y-95618563D01*
X128955411Y-95602027D01*
X129000388Y-95580502D01*
X129067489Y-95550626D01*
X129067829Y-95550476D01*
X129129593Y-95522187D01*
X129180241Y-95497067D01*
X129214596Y-95477821D01*
X129227482Y-95467152D01*
X129227486Y-95467066D01*
X129216128Y-95443834D01*
X129189569Y-95418226D01*
X129159077Y-95399779D01*
X129143630Y-95396114D01*
X129101485Y-95408788D01*
X129065192Y-95440529D01*
X129047483Y-95475428D01*
X129030448Y-95501155D01*
X128997078Y-95530454D01*
X128957851Y-95555765D01*
X128923244Y-95569529D01*
X128916007Y-95570286D01*
X128907861Y-95557840D01*
X128907370Y-95526028D01*
X128913357Y-95483134D01*
X128924643Y-95437442D01*
X128940050Y-95397239D01*
X128940829Y-95395678D01*
X128987196Y-95330938D01*
X129047289Y-95286903D01*
X129115535Y-95265289D01*
X129186362Y-95267815D01*
X129254196Y-95296196D01*
X129257212Y-95298192D01*
X129310573Y-95346552D01*
X129345660Y-95409648D01*
X129365078Y-95492613D01*
X129367684Y-95515922D01*
X129372299Y-95625945D01*
X129366767Y-95677252D01*
X129362806Y-95713973D01*
X129338450Y-95783788D01*
G36*
X126928164Y-95279052D02*
G01*
X126931994Y-95320066D01*
X126933400Y-95389001D01*
X126932402Y-95486331D01*
X126932092Y-95501343D01*
X126929899Y-95590141D01*
X126927307Y-95654981D01*
X126923618Y-95700933D01*
X126918136Y-95733065D01*
X126910165Y-95756447D01*
X126899007Y-95776148D01*
X126893170Y-95784590D01*
X126859704Y-95821943D01*
X126822273Y-95850997D01*
X126817691Y-95853533D01*
X126750574Y-95873557D01*
X126680074Y-95870245D01*
X126614142Y-95845916D01*
X126560727Y-95802883D01*
X126539836Y-95772591D01*
X126517061Y-95717006D01*
X126517534Y-95676814D01*
X126541438Y-95649783D01*
X126550283Y-95645187D01*
X126588470Y-95630856D01*
X126607972Y-95634528D01*
X126614578Y-95658593D01*
X126614914Y-95671886D01*
X126627008Y-95720790D01*
X126658529Y-95755001D01*
X126702341Y-95771524D01*
X126751305Y-95767366D01*
X126791106Y-95745773D01*
X126804550Y-95733456D01*
X126814079Y-95718513D01*
X126820515Y-95695925D01*
X126824683Y-95660672D01*
X126827403Y-95607734D01*
X126829498Y-95532093D01*
X126830040Y-95508143D01*
X126832019Y-95426210D01*
X126834269Y-95368545D01*
X126837643Y-95330392D01*
X126842994Y-95306996D01*
X126851176Y-95293602D01*
X126863041Y-95285455D01*
X126870638Y-95281856D01*
X126902898Y-95269548D01*
X126921889Y-95265486D01*
X126928164Y-95279052D01*
G37*
X126928164Y-95279052D02*
X126931994Y-95320066D01*
X126933400Y-95389001D01*
X126932402Y-95486331D01*
X126932092Y-95501343D01*
X126929899Y-95590141D01*
X126927307Y-95654981D01*
X126923618Y-95700933D01*
X126918136Y-95733065D01*
X126910165Y-95756447D01*
X126899007Y-95776148D01*
X126893170Y-95784590D01*
X126859704Y-95821943D01*
X126822273Y-95850997D01*
X126817691Y-95853533D01*
X126750574Y-95873557D01*
X126680074Y-95870245D01*
X126614142Y-95845916D01*
X126560727Y-95802883D01*
X126539836Y-95772591D01*
X126517061Y-95717006D01*
X126517534Y-95676814D01*
X126541438Y-95649783D01*
X126550283Y-95645187D01*
X126588470Y-95630856D01*
X126607972Y-95634528D01*
X126614578Y-95658593D01*
X126614914Y-95671886D01*
X126627008Y-95720790D01*
X126658529Y-95755001D01*
X126702341Y-95771524D01*
X126751305Y-95767366D01*
X126791106Y-95745773D01*
X126804550Y-95733456D01*
X126814079Y-95718513D01*
X126820515Y-95695925D01*
X126824683Y-95660672D01*
X126827403Y-95607734D01*
X126829498Y-95532093D01*
X126830040Y-95508143D01*
X126832019Y-95426210D01*
X126834269Y-95368545D01*
X126837643Y-95330392D01*
X126842994Y-95306996D01*
X126851176Y-95293602D01*
X126863041Y-95285455D01*
X126870638Y-95281856D01*
X126902898Y-95269548D01*
X126921889Y-95265486D01*
X126928164Y-95279052D01*
G36*
X129916323Y-95669667D02*
G01*
X129913550Y-95717042D01*
X129909612Y-95750710D01*
X129904151Y-95774502D01*
X129896808Y-95792247D01*
X129887223Y-95807776D01*
X129883113Y-95813619D01*
X129828595Y-95868815D01*
X129759664Y-95900110D01*
X129679928Y-95908835D01*
X129610256Y-95900082D01*
X129554799Y-95872432D01*
X129505852Y-95821520D01*
X129492371Y-95802662D01*
X129477686Y-95777985D01*
X129468158Y-95751184D01*
X129462707Y-95715413D01*
X129460253Y-95663831D01*
X129459714Y-95595733D01*
X129460083Y-95581570D01*
X129604857Y-95581570D01*
X129608188Y-95664099D01*
X129619031Y-95721309D01*
X129638660Y-95756234D01*
X129668350Y-95771906D01*
X129685509Y-95773486D01*
X129726234Y-95766074D01*
X129754168Y-95741670D01*
X129770983Y-95697020D01*
X129778350Y-95628870D01*
X129779029Y-95591397D01*
X129778245Y-95529501D01*
X129774760Y-95489003D01*
X129766876Y-95462292D01*
X129752895Y-95441756D01*
X129743403Y-95431740D01*
X129704596Y-95402433D01*
X129670237Y-95400048D01*
X129634784Y-95424250D01*
X129633886Y-95425143D01*
X129619461Y-95443847D01*
X129610687Y-95469268D01*
X129606261Y-95508416D01*
X129604882Y-95568303D01*
X129604857Y-95581570D01*
X129460083Y-95581570D01*
X129462148Y-95502412D01*
X129470606Y-95432343D01*
X129486826Y-95380069D01*
X129512546Y-95340131D01*
X129549503Y-95307071D01*
X129552218Y-95305114D01*
X129588640Y-95285092D01*
X129632498Y-95275185D01*
X129688276Y-95272743D01*
X129778952Y-95272743D01*
X129778990Y-95184717D01*
X129779834Y-95135692D01*
X129784976Y-95106935D01*
X129798413Y-95089689D01*
X129824142Y-95075192D01*
X129830321Y-95072231D01*
X129859236Y-95058352D01*
X129881624Y-95049586D01*
X129898271Y-95048829D01*
X129909964Y-95058977D01*
X129917490Y-95082927D01*
X129921634Y-95123574D01*
X129923185Y-95183814D01*
X129922929Y-95266545D01*
X129921651Y-95374661D01*
X129921252Y-95407000D01*
X129919815Y-95518476D01*
X129918528Y-95591397D01*
X129918292Y-95604755D01*
X129916323Y-95669667D01*
G37*
X129916323Y-95669667D02*
X129913550Y-95717042D01*
X129909612Y-95750710D01*
X129904151Y-95774502D01*
X129896808Y-95792247D01*
X129887223Y-95807776D01*
X129883113Y-95813619D01*
X129828595Y-95868815D01*
X129759664Y-95900110D01*
X129679928Y-95908835D01*
X129610256Y-95900082D01*
X129554799Y-95872432D01*
X129505852Y-95821520D01*
X129492371Y-95802662D01*
X129477686Y-95777985D01*
X129468158Y-95751184D01*
X129462707Y-95715413D01*
X129460253Y-95663831D01*
X129459714Y-95595733D01*
X129460083Y-95581570D01*
X129604857Y-95581570D01*
X129608188Y-95664099D01*
X129619031Y-95721309D01*
X129638660Y-95756234D01*
X129668350Y-95771906D01*
X129685509Y-95773486D01*
X129726234Y-95766074D01*
X129754168Y-95741670D01*
X129770983Y-95697020D01*
X129778350Y-95628870D01*
X129779029Y-95591397D01*
X129778245Y-95529501D01*
X129774760Y-95489003D01*
X129766876Y-95462292D01*
X129752895Y-95441756D01*
X129743403Y-95431740D01*
X129704596Y-95402433D01*
X129670237Y-95400048D01*
X129634784Y-95424250D01*
X129633886Y-95425143D01*
X129619461Y-95443847D01*
X129610687Y-95469268D01*
X129606261Y-95508416D01*
X129604882Y-95568303D01*
X129604857Y-95581570D01*
X129460083Y-95581570D01*
X129462148Y-95502412D01*
X129470606Y-95432343D01*
X129486826Y-95380069D01*
X129512546Y-95340131D01*
X129549503Y-95307071D01*
X129552218Y-95305114D01*
X129588640Y-95285092D01*
X129632498Y-95275185D01*
X129688276Y-95272743D01*
X129778952Y-95272743D01*
X129778990Y-95184717D01*
X129779834Y-95135692D01*
X129784976Y-95106935D01*
X129798413Y-95089689D01*
X129824142Y-95075192D01*
X129830321Y-95072231D01*
X129859236Y-95058352D01*
X129881624Y-95049586D01*
X129898271Y-95048829D01*
X129909964Y-95058977D01*
X129917490Y-95082927D01*
X129921634Y-95123574D01*
X129923185Y-95183814D01*
X129922929Y-95266545D01*
X129921651Y-95374661D01*
X129921252Y-95407000D01*
X129919815Y-95518476D01*
X129918528Y-95591397D01*
X129918292Y-95604755D01*
X129916323Y-95669667D01*
D11*
%TO.C,WLR2*%
X156887258Y-101957500D02*
X156412742Y-101957500D01*
X156887258Y-103002500D02*
X156412742Y-103002500D01*
%TO.C,WLR1*%
X157352742Y-101352500D02*
X157827258Y-101352500D01*
X157352742Y-100307500D02*
X157827258Y-100307500D01*
%TO.C,MXR2*%
X154812500Y-100897258D02*
X154812500Y-100422742D01*
X153767500Y-100897258D02*
X153767500Y-100422742D01*
%TO.C,MXR1*%
X157372742Y-99792500D02*
X157847258Y-99792500D01*
X157372742Y-98747500D02*
X157847258Y-98747500D01*
%TO.C,WLD1*%
X153152500Y-105885000D02*
X157212500Y-105885000D01*
X153152500Y-103615000D02*
X153152500Y-105885000D01*
X157212500Y-103615000D02*
X153152500Y-103615000D01*
%TO.C,AC2*%
X131640000Y-88471252D02*
X131640000Y-87948748D01*
X133110000Y-88471252D02*
X133110000Y-87948748D01*
%TO.C,HLD6*%
X114590000Y-93735000D02*
X118650000Y-93735000D01*
X118650000Y-91465000D02*
X114590000Y-91465000D01*
X118650000Y-93735000D02*
X118650000Y-91465000D01*
%TO.C,EC37*%
X132410000Y-119090580D02*
X132410000Y-118809420D01*
X133430000Y-119090580D02*
X133430000Y-118809420D01*
%TO.C,DS1*%
X146222936Y-118535000D02*
X146677064Y-118535000D01*
X146222936Y-120005000D02*
X146677064Y-120005000D01*
%TO.C,IMR2*%
X134527500Y-87632742D02*
X134527500Y-88107258D01*
X135572500Y-87632742D02*
X135572500Y-88107258D01*
%TO.C,Coffee1*%
X152425000Y-112150000D02*
X154975000Y-112150000D01*
X152425000Y-113550000D02*
X152425000Y-112150000D01*
X154975000Y-113550000D02*
X152425000Y-113550000D01*
X154975000Y-112150000D02*
X154975000Y-113550000D01*
%TO.C,SHC1*%
X138290000Y-87999420D02*
X138290000Y-88280580D01*
X139310000Y-87999420D02*
X139310000Y-88280580D01*
D16*
%TO.C,IMU1*%
X124760000Y-110455000D02*
X125410000Y-110455000D01*
X122960000Y-110455000D02*
X122310000Y-110455000D01*
X122310000Y-113055000D02*
X122960000Y-113055000D01*
X125410000Y-113055000D02*
X124760000Y-113055000D01*
X125410000Y-110455000D02*
X125410000Y-110605000D01*
X122310000Y-112905000D02*
X122310000Y-113055000D01*
X122310000Y-110455000D02*
X122310000Y-110605000D01*
X125410000Y-112905000D02*
X125410000Y-113055000D01*
D10*
X122010000Y-111005000D02*
G75*
G03*
X122010000Y-111005000I-100000J0D01*
G01*
D11*
%TO.C,QR2*%
X153545000Y-110372936D02*
X153545000Y-110827064D01*
X152075000Y-110372936D02*
X152075000Y-110827064D01*
%TO.C,ER2*%
X123202742Y-119157500D02*
X123677258Y-119157500D01*
X123202742Y-120202500D02*
X123677258Y-120202500D01*
%TO.C,HLD1*%
X116485000Y-99130000D02*
X116485000Y-97210000D01*
X116485000Y-97210000D02*
X113800000Y-97210000D01*
X113800000Y-99130000D02*
X116485000Y-99130000D01*
%TO.C,EC18*%
X139951252Y-105405000D02*
X139428748Y-105405000D01*
X139951252Y-103935000D02*
X139428748Y-103935000D01*
%TO.C,Q1*%
X146090000Y-112270000D02*
X146740000Y-112270000D01*
X146090000Y-112270000D02*
X145440000Y-112270000D01*
X146090000Y-115390000D02*
X145440000Y-115390000D01*
X146090000Y-115390000D02*
X147765000Y-115390000D01*
%TO.C,EC15*%
X133361252Y-116655000D02*
X132838748Y-116655000D01*
X133361252Y-115185000D02*
X132838748Y-115185000D01*
%TO.C,EC17*%
X139931252Y-102025000D02*
X139408748Y-102025000D01*
X139931252Y-103495000D02*
X139408748Y-103495000D01*
%TO.C,ER1*%
X140027258Y-109057500D02*
X139552742Y-109057500D01*
X140027258Y-110102500D02*
X139552742Y-110102500D01*
%TO.C,HLC3*%
X115058748Y-90895000D02*
X115581252Y-90895000D01*
X115058748Y-89425000D02*
X115581252Y-89425000D01*
%TO.C,ECY1*%
X129330000Y-115570000D02*
X129330000Y-111570000D01*
X126030000Y-115570000D02*
X129330000Y-115570000D01*
%TO.C,SH1*%
X144020036Y-87460510D02*
X142280036Y-87460510D01*
X143580036Y-84640510D02*
X142280036Y-84640510D01*
D12*
%TO.C,CH340K1*%
X114760000Y-112170000D02*
X118900000Y-112170000D01*
X113830000Y-107030000D02*
X118900000Y-107030000D01*
D11*
%TO.C,L2*%
X138159622Y-113730000D02*
X137360378Y-113730000D01*
X138159622Y-112610000D02*
X137360378Y-112610000D01*
%TO.C,AU1*%
X130447500Y-87315006D02*
X127447500Y-87315006D01*
X127447500Y-87315006D02*
X127447500Y-90315006D01*
X127447500Y-90315006D02*
X130447500Y-90315006D01*
X130447500Y-90315006D02*
X130447500Y-87315006D01*
D10*
X127297506Y-87045001D02*
G75*
G03*
X127297506Y-87045001I-200006J0D01*
G01*
D11*
%TO.C,KQ2*%
X119960000Y-116090000D02*
X119960000Y-116740000D01*
X116840000Y-116090000D02*
X116840000Y-115440000D01*
X119960000Y-116090000D02*
X119960000Y-114415000D01*
X116840000Y-116090000D02*
X116840000Y-116740000D01*
%TO.C,Grinder1*%
X151220000Y-111960000D02*
X149820000Y-111960000D01*
X149820000Y-109410000D02*
X151220000Y-109410000D01*
X149820000Y-111960000D02*
X149820000Y-109410000D01*
X151220000Y-109410000D02*
X151220000Y-111960000D01*
%TO.C,HLR1*%
X115282936Y-101055000D02*
X115737064Y-101055000D01*
X115282936Y-99585000D02*
X115737064Y-99585000D01*
%TO.C,h20*%
X146890000Y-109245000D02*
X146890000Y-111795000D01*
X146890000Y-111795000D02*
X145490000Y-111795000D01*
X145490000Y-109245000D02*
X146890000Y-109245000D01*
X145490000Y-111795000D02*
X145490000Y-109245000D01*
%TO.C,AUC1*%
X139419420Y-101330000D02*
X139700580Y-101330000D01*
X139419420Y-100310000D02*
X139700580Y-100310000D01*
D12*
%TO.C,MAX66751*%
X149320000Y-94630000D02*
X149320000Y-94330000D01*
X154820000Y-94425000D02*
X156570000Y-94425000D01*
X154820000Y-89120000D02*
X149320000Y-89120000D01*
X149320000Y-89120000D02*
X149320000Y-89420000D01*
X154820000Y-89120000D02*
X154820000Y-89420000D01*
X154820000Y-94630000D02*
X149320000Y-94630000D01*
X154820000Y-94630000D02*
X154820000Y-94425000D01*
D11*
%TO.C,EC14*%
X133381252Y-113325000D02*
X132858748Y-113325000D01*
X133381252Y-114795000D02*
X132858748Y-114795000D01*
%TO.C,EC13*%
X125360000Y-115029420D02*
X125360000Y-115310580D01*
X124340000Y-115029420D02*
X124340000Y-115310580D01*
%TO.C,EC26*%
X137660000Y-101660580D02*
X137660000Y-101379420D01*
X136640000Y-101660580D02*
X136640000Y-101379420D01*
%TO.C,IMUC1*%
X122460000Y-115310580D02*
X122460000Y-115029420D01*
X123480000Y-115310580D02*
X123480000Y-115029420D01*
%TO.C,EC51*%
X124070580Y-109600000D02*
X123789420Y-109600000D01*
X124070580Y-108580000D02*
X123789420Y-108580000D01*
%TO.C,G\u002A\u002A\u002A*%
G36*
X143689376Y-82552122D02*
G01*
X143719734Y-82572244D01*
X143726223Y-82618334D01*
X143720787Y-82662259D01*
X143694295Y-82682812D01*
X143631466Y-82688688D01*
X143602242Y-82688889D01*
X143510450Y-82679793D01*
X143465188Y-82653847D01*
X143463336Y-82649995D01*
X143466695Y-82597220D01*
X143518397Y-82561721D01*
X143611847Y-82547830D01*
X143618978Y-82547778D01*
X143689376Y-82552122D01*
G37*
G36*
X142444617Y-82477442D02*
G01*
X142455791Y-82498389D01*
X142441185Y-82552201D01*
X142429087Y-82575210D01*
X142405786Y-82598998D01*
X142387079Y-82572445D01*
X142382834Y-82561098D01*
X142361291Y-82505776D01*
X142351428Y-82484278D01*
X142365222Y-82467479D01*
X142398113Y-82463112D01*
X142444617Y-82477442D01*
G37*
G36*
X145266839Y-82477442D02*
G01*
X145278013Y-82498389D01*
X145263407Y-82552201D01*
X145251309Y-82575210D01*
X145228008Y-82598998D01*
X145209301Y-82572445D01*
X145205056Y-82561098D01*
X145183513Y-82505776D01*
X145173650Y-82484278D01*
X145187445Y-82467479D01*
X145220335Y-82463112D01*
X145266839Y-82477442D01*
G37*
G36*
X142140255Y-78999589D02*
G01*
X142195447Y-79009548D01*
X142217263Y-79026356D01*
X142220476Y-79062670D01*
X142222960Y-79148318D01*
X142224667Y-79276195D01*
X142225544Y-79439194D01*
X142225543Y-79630211D01*
X142224612Y-79842137D01*
X142223801Y-79951593D01*
X142216334Y-80840334D01*
X141595445Y-80840334D01*
X141595445Y-79005889D01*
X141899351Y-78997874D01*
X142044101Y-78995926D01*
X142140255Y-78999589D01*
G37*
G36*
X145908145Y-82581301D02*
G01*
X145810824Y-82736034D01*
X145676219Y-82877453D01*
X145523214Y-82986674D01*
X145481301Y-83008145D01*
X145349000Y-83069889D01*
X141031000Y-83069889D01*
X140866693Y-82986636D01*
X140686284Y-82868652D01*
X140606482Y-82780612D01*
X140904090Y-82780612D01*
X140927991Y-82797107D01*
X140967894Y-82801778D01*
X141028642Y-82778270D01*
X141091597Y-82704535D01*
X141101556Y-82688889D01*
X141145524Y-82622403D01*
X141177896Y-82581839D01*
X141186223Y-82576000D01*
X141208471Y-82597802D01*
X141248020Y-82653132D01*
X141270889Y-82688889D01*
X141324807Y-82762692D01*
X141376275Y-82795932D01*
X141421909Y-82801778D01*
X141503159Y-82801778D01*
X141453046Y-82724167D01*
X141403015Y-82647692D01*
X141345407Y-82560951D01*
X141336911Y-82548282D01*
X141288423Y-82437948D01*
X141505260Y-82437948D01*
X141505487Y-82557662D01*
X141538735Y-82667361D01*
X141604165Y-82751367D01*
X141636215Y-82772719D01*
X141692017Y-82787893D01*
X141783154Y-82798408D01*
X141875812Y-82801778D01*
X142061112Y-82801778D01*
X142061112Y-82496038D01*
X142059471Y-82369889D01*
X142055030Y-82265375D01*
X142048511Y-82194931D01*
X142046043Y-82185617D01*
X142100854Y-82185617D01*
X142112169Y-82232397D01*
X142140937Y-82310293D01*
X142188744Y-82427240D01*
X142217458Y-82496038D01*
X142230693Y-82527750D01*
X142284475Y-82651191D01*
X142325660Y-82730554D01*
X142360236Y-82775057D01*
X142394189Y-82793920D01*
X142404841Y-82795919D01*
X142431127Y-82793073D01*
X142457436Y-82773662D01*
X142477192Y-82745334D01*
X142738445Y-82745334D01*
X142742689Y-82772151D01*
X142762584Y-82788815D01*
X142808871Y-82797713D01*
X142892296Y-82801232D01*
X142992445Y-82801778D01*
X143246445Y-82801778D01*
X143246445Y-82496038D01*
X143244804Y-82369889D01*
X143240364Y-82265375D01*
X143233844Y-82194931D01*
X143229052Y-82176847D01*
X143279606Y-82176847D01*
X143296080Y-82221279D01*
X143344569Y-82299900D01*
X143358052Y-82320326D01*
X143405032Y-82393621D01*
X143422912Y-82435610D01*
X143414329Y-82461667D01*
X143386153Y-82484204D01*
X143377926Y-82496038D01*
X143340510Y-82549861D01*
X143331112Y-82617918D01*
X143340244Y-82699768D01*
X143373418Y-82753932D01*
X143439296Y-82785507D01*
X143546540Y-82799589D01*
X143643572Y-82801778D01*
X143867334Y-82801778D01*
X144458152Y-82801778D01*
X144601112Y-82801778D01*
X144601112Y-82475260D01*
X144600732Y-82335678D01*
X144598350Y-82243232D01*
X144596063Y-82223223D01*
X144728112Y-82223223D01*
X144751170Y-82273693D01*
X144791612Y-82288686D01*
X144838639Y-82285156D01*
X144854383Y-82245770D01*
X144855112Y-82223223D01*
X144849042Y-82185617D01*
X144923077Y-82185617D01*
X144932172Y-82223223D01*
X144934391Y-82232397D01*
X144963160Y-82310293D01*
X145010966Y-82427240D01*
X145031008Y-82475260D01*
X145052915Y-82527750D01*
X145106697Y-82651191D01*
X145147882Y-82730554D01*
X145182458Y-82775057D01*
X145216411Y-82793920D01*
X145227064Y-82795919D01*
X145253350Y-82793073D01*
X145279658Y-82773662D01*
X145308942Y-82731674D01*
X145344155Y-82661096D01*
X145388250Y-82555914D01*
X145444182Y-82410116D01*
X145514903Y-82217689D01*
X145525696Y-82187945D01*
X145513329Y-82160001D01*
X145470578Y-82152667D01*
X145417138Y-82167320D01*
X145379471Y-82220159D01*
X145366954Y-82251445D01*
X145337248Y-82316572D01*
X145297344Y-82344326D01*
X145224532Y-82350221D01*
X145222362Y-82350223D01*
X145148994Y-82344879D01*
X145109690Y-82318558D01*
X145082343Y-82255824D01*
X145080889Y-82251445D01*
X145048912Y-82182300D01*
X145005624Y-82155078D01*
X144978021Y-82152667D01*
X144946475Y-82153684D01*
X144927633Y-82162024D01*
X144923077Y-82185617D01*
X144849042Y-82185617D01*
X144846408Y-82169299D01*
X144810923Y-82155871D01*
X144791612Y-82157760D01*
X144738517Y-82185797D01*
X144728112Y-82223223D01*
X144596063Y-82223223D01*
X144592106Y-82188612D01*
X144580136Y-82162509D01*
X144560580Y-82155615D01*
X144537612Y-82157760D01*
X144510031Y-82164493D01*
X144491506Y-82182021D01*
X144479850Y-82220324D01*
X144479557Y-82223223D01*
X144472880Y-82289384D01*
X144468410Y-82399182D01*
X144466132Y-82484278D01*
X144465836Y-82496038D01*
X144458152Y-82801778D01*
X143867334Y-82801778D01*
X143867334Y-82496038D01*
X143865693Y-82369889D01*
X143861253Y-82265375D01*
X143857352Y-82223223D01*
X144220112Y-82223223D01*
X144243170Y-82273693D01*
X144283612Y-82288686D01*
X144330639Y-82285156D01*
X144346383Y-82245770D01*
X144347112Y-82223223D01*
X144338408Y-82169299D01*
X144302923Y-82155871D01*
X144283612Y-82157760D01*
X144230517Y-82185797D01*
X144220112Y-82223223D01*
X143857352Y-82223223D01*
X143854733Y-82194931D01*
X143848519Y-82171482D01*
X143807018Y-82155319D01*
X143777963Y-82152667D01*
X143746839Y-82161612D01*
X143731237Y-82197324D01*
X143726341Y-82273117D01*
X143726223Y-82295741D01*
X143724049Y-82379842D01*
X143713360Y-82420814D01*
X143687905Y-82431924D01*
X143663077Y-82429797D01*
X143609717Y-82401725D01*
X143542700Y-82338164D01*
X143500852Y-82286723D01*
X143421348Y-82195014D01*
X143355858Y-82154952D01*
X143338220Y-82152667D01*
X143294026Y-82157134D01*
X143279606Y-82176847D01*
X143229052Y-82176847D01*
X143227630Y-82171482D01*
X143192494Y-82162834D01*
X143115440Y-82156282D01*
X143010987Y-82152903D01*
X142973630Y-82152667D01*
X142858359Y-82153758D01*
X142788378Y-82158812D01*
X142752547Y-82170502D01*
X142741899Y-82187945D01*
X142739727Y-82191504D01*
X142738445Y-82209112D01*
X142744162Y-82239658D01*
X142769629Y-82256689D01*
X142827318Y-82264041D01*
X142921889Y-82265556D01*
X143105334Y-82265556D01*
X143105334Y-82434889D01*
X142936000Y-82434889D01*
X142841424Y-82436949D01*
X142790320Y-82445996D01*
X142769780Y-82466334D01*
X142766667Y-82491334D01*
X142772846Y-82522859D01*
X142799987Y-82539894D01*
X142861000Y-82546741D01*
X142936000Y-82547778D01*
X143029847Y-82549272D01*
X143080515Y-82557436D01*
X143101258Y-82577791D01*
X143105330Y-82615861D01*
X143105334Y-82618334D01*
X143102117Y-82656261D01*
X143083966Y-82677387D01*
X143038127Y-82686614D01*
X142951850Y-82688849D01*
X142921889Y-82688889D01*
X142822612Y-82690649D01*
X142767263Y-82698485D01*
X142743369Y-82716235D01*
X142738445Y-82745334D01*
X142477192Y-82745334D01*
X142486719Y-82731674D01*
X142521932Y-82661096D01*
X142566028Y-82555914D01*
X142621960Y-82410116D01*
X142692681Y-82217689D01*
X142703474Y-82187945D01*
X142691107Y-82160001D01*
X142648356Y-82152667D01*
X142594916Y-82167320D01*
X142557249Y-82220159D01*
X142544732Y-82251445D01*
X142515026Y-82316572D01*
X142475122Y-82344326D01*
X142402310Y-82350221D01*
X142400140Y-82350223D01*
X142326772Y-82344879D01*
X142287468Y-82318558D01*
X142260120Y-82255824D01*
X142258667Y-82251445D01*
X142226690Y-82182300D01*
X142183402Y-82155078D01*
X142155799Y-82152667D01*
X142124253Y-82153684D01*
X142105410Y-82162024D01*
X142100854Y-82185617D01*
X142046043Y-82185617D01*
X142042297Y-82171482D01*
X142005888Y-82161311D01*
X141931194Y-82154479D01*
X141859298Y-82152667D01*
X141756685Y-82157084D01*
X141687005Y-82175141D01*
X141627113Y-82214049D01*
X141607227Y-82231194D01*
X141538894Y-82323899D01*
X141505260Y-82437948D01*
X141288423Y-82437948D01*
X141281802Y-82422881D01*
X141270889Y-82320153D01*
X141266734Y-82225659D01*
X141249810Y-82174749D01*
X141213431Y-82154893D01*
X141181519Y-82152667D01*
X141149562Y-82162216D01*
X141134037Y-82199893D01*
X141129708Y-82279242D01*
X141129688Y-82286723D01*
X141122900Y-82372981D01*
X141097528Y-82452331D01*
X141045868Y-82545495D01*
X141016889Y-82590112D01*
X140961559Y-82675965D01*
X140921324Y-82743591D01*
X140904221Y-82779419D01*
X140904090Y-82780612D01*
X140606482Y-82780612D01*
X140548481Y-82716623D01*
X140469538Y-82577434D01*
X140458525Y-82552700D01*
X140448965Y-82526750D01*
X140440754Y-82495633D01*
X140433789Y-82455400D01*
X140427969Y-82402099D01*
X140423190Y-82331780D01*
X140419350Y-82240491D01*
X140416346Y-82124282D01*
X140414076Y-81979203D01*
X140413984Y-81969223D01*
X140579445Y-81969223D01*
X145800556Y-81969223D01*
X145807820Y-80135661D01*
X145809157Y-79760818D01*
X145809931Y-79438164D01*
X145810062Y-79163443D01*
X145809475Y-78932402D01*
X145808092Y-78740785D01*
X145805835Y-78584339D01*
X145802628Y-78458808D01*
X145798392Y-78359939D01*
X145793051Y-78283478D01*
X145786527Y-78225169D01*
X145778744Y-78180758D01*
X145771790Y-78153175D01*
X145692723Y-77977235D01*
X145569807Y-77834660D01*
X145407875Y-77730246D01*
X145306850Y-77691703D01*
X145262199Y-77686718D01*
X145166654Y-77682316D01*
X145025764Y-77678491D01*
X144845076Y-77675235D01*
X144630138Y-77672543D01*
X144386497Y-77670407D01*
X144119702Y-77668822D01*
X143835300Y-77667779D01*
X143538840Y-77667272D01*
X143235868Y-77667296D01*
X142931934Y-77667842D01*
X142632584Y-77668904D01*
X142343366Y-77670476D01*
X142069828Y-77672551D01*
X141817519Y-77675122D01*
X141591986Y-77678182D01*
X141398776Y-77681726D01*
X141243437Y-77685745D01*
X141131518Y-77690233D01*
X141068567Y-77695184D01*
X141059766Y-77696838D01*
X140894912Y-77767292D01*
X140754671Y-77875380D01*
X140653368Y-78009759D01*
X140645736Y-78024603D01*
X140579445Y-78159223D01*
X140579445Y-81969223D01*
X140413984Y-81969223D01*
X140412437Y-81801303D01*
X140411326Y-81586631D01*
X140410640Y-81331236D01*
X140410278Y-81031167D01*
X140410136Y-80682474D01*
X140410112Y-80290000D01*
X140410112Y-78131000D01*
X140488854Y-77970653D01*
X140607795Y-77788738D01*
X140766969Y-77646237D01*
X140902567Y-77569538D01*
X140927646Y-77558418D01*
X140954146Y-77548765D01*
X140986062Y-77540460D01*
X141027388Y-77533387D01*
X141082121Y-77527428D01*
X141154255Y-77522466D01*
X141247787Y-77518384D01*
X141366712Y-77515064D01*
X141515024Y-77512389D01*
X141696720Y-77510242D01*
X141915795Y-77508506D01*
X142176244Y-77507062D01*
X142482063Y-77505794D01*
X142837247Y-77504585D01*
X143147667Y-77503618D01*
X143545636Y-77502464D01*
X143891182Y-77501668D01*
X144188327Y-77501308D01*
X144441091Y-77501462D01*
X144653496Y-77502210D01*
X144829563Y-77503631D01*
X144973312Y-77505803D01*
X145088766Y-77508805D01*
X145179944Y-77512717D01*
X145250869Y-77517617D01*
X145305562Y-77523584D01*
X145348042Y-77530696D01*
X145382333Y-77539034D01*
X145410552Y-77548010D01*
X145602058Y-77643730D01*
X145762618Y-77784016D01*
X145884277Y-77961884D01*
X145886175Y-77965611D01*
X145969889Y-78131000D01*
X145969889Y-82449000D01*
X145908145Y-82581301D01*
G37*
G36*
X144615066Y-80068762D02*
G01*
X144557243Y-80256447D01*
X144507006Y-80419483D01*
X144468182Y-80545453D01*
X144457754Y-80579278D01*
X144372910Y-80854445D01*
X144049566Y-80854445D01*
X143922042Y-80853712D01*
X143818223Y-80851721D01*
X143749271Y-80848781D01*
X143726223Y-80845457D01*
X143718093Y-80817374D01*
X143695013Y-80741759D01*
X143658940Y-80624929D01*
X143611837Y-80473204D01*
X143555664Y-80292901D01*
X143492380Y-80090339D01*
X143444212Y-79936490D01*
X143407946Y-79819211D01*
X144008445Y-79819211D01*
X144016497Y-79860825D01*
X144036507Y-79928374D01*
X144062256Y-80004073D01*
X144087524Y-80070137D01*
X144106092Y-80108783D01*
X144110927Y-80112259D01*
X144125466Y-80079135D01*
X144147605Y-80009352D01*
X144162897Y-79954253D01*
X144200892Y-79810223D01*
X144104668Y-79810223D01*
X144040352Y-79812540D01*
X144009033Y-79818218D01*
X144008445Y-79819211D01*
X143407946Y-79819211D01*
X143377695Y-79721383D01*
X143318150Y-79523316D01*
X143267379Y-79348724D01*
X143227183Y-79204040D01*
X143199364Y-79095698D01*
X143185725Y-79030132D01*
X143185606Y-79013106D01*
X143222042Y-79004105D01*
X143301863Y-78998342D01*
X143412067Y-78996449D01*
X143501532Y-78997796D01*
X143794053Y-79005889D01*
X143836536Y-79169214D01*
X143879020Y-79332539D01*
X144102639Y-79324436D01*
X144326258Y-79316334D01*
X144372892Y-79161112D01*
X144419526Y-79005889D01*
X144663217Y-78997769D01*
X144774559Y-78996511D01*
X144862574Y-79000124D01*
X144913474Y-79007852D01*
X144920325Y-79011880D01*
X144916140Y-79044028D01*
X144897142Y-79122240D01*
X144865487Y-79238748D01*
X144823326Y-79385780D01*
X144772815Y-79555568D01*
X144738170Y-79669112D01*
X144694706Y-79810223D01*
X144676650Y-79868844D01*
X144615066Y-80068762D01*
G37*
G36*
X141920000Y-82688889D02*
G01*
X141823239Y-82688889D01*
X141724597Y-82671092D01*
X141664421Y-82614980D01*
X141639111Y-82516469D01*
X141637778Y-82478663D01*
X141648971Y-82379315D01*
X141689764Y-82318501D01*
X141770984Y-82284011D01*
X141818704Y-82274609D01*
X141920000Y-82258171D01*
X141920000Y-82688889D01*
G37*
%TO.C,EC40*%
X138230580Y-111910000D02*
X137949420Y-111910000D01*
X138230580Y-110890000D02*
X137949420Y-110890000D01*
%TO.C,CHC2*%
X120820000Y-105630580D02*
X120820000Y-105349420D01*
X119800000Y-105630580D02*
X119800000Y-105349420D01*
%TO.C,AL1*%
X123117936Y-87650000D02*
X124322064Y-87650000D01*
X123117936Y-90370000D02*
X124322064Y-90370000D01*
%TO.C,EC20*%
X138879420Y-114570000D02*
X139160580Y-114570000D01*
X138879420Y-115590000D02*
X139160580Y-115590000D01*
%TO.C,ECY2*%
X126030000Y-108150000D02*
X126030000Y-104850000D01*
X126030000Y-104850000D02*
X122030000Y-104850000D01*
%TO.C,TP2*%
X120770000Y-93560000D02*
G75*
G03*
X120770000Y-93560000I-700000J0D01*
G01*
%TO.C,KQ1*%
X113220000Y-116090000D02*
X113220000Y-116740000D01*
X116340000Y-116090000D02*
X116340000Y-116740000D01*
X116340000Y-116090000D02*
X116340000Y-114415000D01*
X113220000Y-116090000D02*
X113220000Y-115440000D01*
%TO.C,EC16*%
X126240000Y-108130580D02*
X126240000Y-107849420D01*
X127260000Y-108130580D02*
X127260000Y-107849420D01*
%TO.C,MXC1*%
X157265000Y-91371252D02*
X157265000Y-90848748D01*
X158735000Y-91371252D02*
X158735000Y-90848748D01*
%TO.C,MXS1*%
X154130000Y-95125000D02*
X154130000Y-97675000D01*
X152730000Y-95125000D02*
X154130000Y-95125000D01*
X154130000Y-97675000D02*
X152730000Y-97675000D01*
X152730000Y-97675000D02*
X152730000Y-95125000D01*
%TO.C,EC24*%
X134620000Y-94089420D02*
X134620000Y-94370580D01*
X135640000Y-94089420D02*
X135640000Y-94370580D01*
%TO.C,Q3*%
X149800000Y-115350000D02*
X149150000Y-115350000D01*
X149800000Y-115350000D02*
X151475000Y-115350000D01*
X149800000Y-112230000D02*
X149150000Y-112230000D01*
X149800000Y-112230000D02*
X150450000Y-112230000D01*
%TO.C,EC12*%
X131030000Y-114759420D02*
X131030000Y-115040580D01*
X130010000Y-114759420D02*
X130010000Y-115040580D01*
%TO.C,EL4*%
X135080378Y-118940000D02*
X135879622Y-118940000D01*
X135080378Y-120060000D02*
X135879622Y-120060000D01*
%TO.C,HLL2*%
X115557936Y-94100000D02*
X116762064Y-94100000D01*
X115557936Y-96820000D02*
X116762064Y-96820000D01*
%TO.C,CHC1*%
X117160000Y-103570580D02*
X117160000Y-103289420D01*
X118180000Y-103570580D02*
X118180000Y-103289420D01*
%TO.C,ESP32S3*%
X127514689Y-107179949D02*
X127974308Y-106720330D01*
X132160381Y-111825641D02*
X132620000Y-112285260D01*
X137265692Y-106720330D02*
X137725311Y-107179949D01*
X137725311Y-107179949D02*
X137265692Y-107639568D01*
X133079619Y-102534257D02*
X132620000Y-102074638D01*
X127974308Y-107639568D02*
X127514689Y-107179949D01*
X132620000Y-102074638D02*
X132160381Y-102534257D01*
D16*
%TO.C,U2*%
X141350000Y-94235000D02*
X141350000Y-98225000D01*
X136310000Y-94235000D02*
X136310000Y-98225000D01*
D10*
X141425000Y-91780000D02*
G75*
G03*
X141425000Y-91780000I-100000J0D01*
G01*
D11*
%TO.C,TP1*%
X120720000Y-96940000D02*
G75*
G03*
X120720000Y-96940000I-700000J0D01*
G01*
%TO.C,QR3*%
X153927064Y-113895000D02*
X153472936Y-113895000D01*
X153927064Y-115365000D02*
X153472936Y-115365000D01*
%TO.C,EC19*%
X139860000Y-112349420D02*
X139860000Y-112630580D01*
X140880000Y-112349420D02*
X140880000Y-112630580D01*
%TO.C,TP3*%
X118330000Y-86570000D02*
G75*
G03*
X118330000Y-86570000I-700000J0D01*
G01*
%TO.C,IMR1*%
X137422500Y-87612742D02*
X137422500Y-88087258D01*
X136377500Y-87612742D02*
X136377500Y-88087258D01*
%TO.C,EC38*%
X139139420Y-119990000D02*
X139420580Y-119990000D01*
X139139420Y-118970000D02*
X139420580Y-118970000D01*
%TO.C,AR2*%
X128292936Y-86405000D02*
X128747064Y-86405000D01*
X128292936Y-84935000D02*
X128747064Y-84935000D01*
%TO.C,G\u002A\u002A\u002A*%
G36*
X147708908Y-78564319D02*
G01*
X147775099Y-78566136D01*
X147837676Y-78569626D01*
X147845560Y-78570224D01*
X147933041Y-78580085D01*
X148030938Y-78596123D01*
X148130903Y-78616714D01*
X148224590Y-78640234D01*
X148262120Y-78651231D01*
X148305521Y-78664601D01*
X148348511Y-78677763D01*
X148378960Y-78687014D01*
X148414466Y-78699068D01*
X148460446Y-78716530D01*
X148511172Y-78737017D01*
X148560917Y-78758147D01*
X148603956Y-78777539D01*
X148634560Y-78792809D01*
X148638040Y-78794780D01*
X148663227Y-78808523D01*
X148698656Y-78826720D01*
X148732513Y-78843414D01*
X148764467Y-78860263D01*
X148803352Y-78882834D01*
X148844166Y-78907971D01*
X148881908Y-78932516D01*
X148911575Y-78953309D01*
X148927600Y-78966583D01*
X148942505Y-78979767D01*
X148965470Y-78997702D01*
X148990652Y-79016126D01*
X149012207Y-79030775D01*
X149024292Y-79037385D01*
X149024730Y-79037440D01*
X149037519Y-79043785D01*
X149048668Y-79053149D01*
X149076441Y-79079490D01*
X149107890Y-79108148D01*
X149139190Y-79135791D01*
X149166516Y-79159086D01*
X149186043Y-79174702D01*
X149193652Y-79179449D01*
X149202419Y-79187087D01*
X149220467Y-79207488D01*
X149244832Y-79237198D01*
X149263060Y-79260390D01*
X149290147Y-79294743D01*
X149312987Y-79322486D01*
X149328551Y-79340008D01*
X149333344Y-79344210D01*
X149342280Y-79353075D01*
X149359967Y-79374176D01*
X149383305Y-79403463D01*
X149409193Y-79436887D01*
X149434528Y-79470398D01*
X149456210Y-79499949D01*
X149471138Y-79521489D01*
X149476240Y-79530786D01*
X149481579Y-79542076D01*
X149494833Y-79562807D01*
X149499126Y-79568978D01*
X149513819Y-79590114D01*
X149526969Y-79610277D01*
X149540522Y-79632908D01*
X149556420Y-79661446D01*
X149576607Y-79699330D01*
X149603026Y-79750003D01*
X149620727Y-79784200D01*
X149640158Y-79822510D01*
X149656689Y-79857248D01*
X149672377Y-79893283D01*
X149689279Y-79935486D01*
X149709453Y-79988728D01*
X149725869Y-80033120D01*
X149754814Y-80113288D01*
X149777198Y-80179277D01*
X149794293Y-80235663D01*
X149807366Y-80287018D01*
X149817687Y-80337917D01*
X149826526Y-80392932D01*
X149827384Y-80398880D01*
X149834849Y-80449743D01*
X149842424Y-80499096D01*
X149848986Y-80539717D01*
X149851873Y-80556360D01*
X149854902Y-80583085D01*
X149857579Y-80625721D01*
X149859722Y-80679860D01*
X149861151Y-80741094D01*
X149861668Y-80795120D01*
X149859560Y-80909450D01*
X149852847Y-81020419D01*
X149841968Y-81124006D01*
X149827360Y-81216190D01*
X149809464Y-81292951D01*
X149806115Y-81304213D01*
X149778083Y-81393641D01*
X149753601Y-81469045D01*
X149733112Y-81529141D01*
X149717057Y-81572647D01*
X149705877Y-81598282D01*
X149703361Y-81602561D01*
X149692426Y-81624005D01*
X149689600Y-81636581D01*
X149685395Y-81651486D01*
X149674134Y-81679641D01*
X149657853Y-81716122D01*
X149648960Y-81734920D01*
X149631084Y-81773033D01*
X149617216Y-81804510D01*
X149609364Y-81824703D01*
X149608320Y-81829070D01*
X149602630Y-81843492D01*
X149589681Y-81863090D01*
X149574741Y-81885428D01*
X149555663Y-81917761D01*
X149541813Y-81943200D01*
X149521698Y-81977984D01*
X149494139Y-82020910D01*
X149464230Y-82064131D01*
X149456081Y-82075280D01*
X149428913Y-82112329D01*
X149404577Y-82146242D01*
X149386951Y-82171590D01*
X149382514Y-82178323D01*
X149368534Y-82195992D01*
X149342691Y-82224753D01*
X149307852Y-82261700D01*
X149266887Y-82303928D01*
X149222663Y-82348535D01*
X149178050Y-82392614D01*
X149135916Y-82433262D01*
X149099130Y-82467575D01*
X149080000Y-82484623D01*
X149043201Y-82516476D01*
X149018251Y-82537782D01*
X149001692Y-82551357D01*
X148990063Y-82560014D01*
X148979906Y-82566569D01*
X148977473Y-82568040D01*
X148962035Y-82577828D01*
X148934264Y-82595891D01*
X148898740Y-82619241D01*
X148875500Y-82634617D01*
X148802353Y-82681354D01*
X148725005Y-82727643D01*
X148647470Y-82771307D01*
X148573764Y-82810168D01*
X148507902Y-82842048D01*
X148453899Y-82864769D01*
X148445779Y-82867706D01*
X148380617Y-82890692D01*
X148328979Y-82909310D01*
X148287520Y-82924721D01*
X148255084Y-82934390D01*
X148215656Y-82942782D01*
X148201160Y-82945046D01*
X148161550Y-82952199D01*
X148122811Y-82961928D01*
X148111477Y-82965551D01*
X148074067Y-82975624D01*
X148023205Y-82984928D01*
X147961782Y-82993323D01*
X147892689Y-83000669D01*
X147818817Y-83006826D01*
X147743058Y-83011654D01*
X147668302Y-83015012D01*
X147597441Y-83016762D01*
X147533366Y-83016763D01*
X147478967Y-83014874D01*
X147437137Y-83010957D01*
X147410766Y-83004871D01*
X147403379Y-82999840D01*
X147400762Y-82985737D01*
X147398561Y-82954451D01*
X147396780Y-82909111D01*
X147395420Y-82852845D01*
X147394486Y-82788781D01*
X147393982Y-82720049D01*
X147393909Y-82649775D01*
X147394273Y-82581089D01*
X147395075Y-82517119D01*
X147396320Y-82460992D01*
X147398011Y-82415839D01*
X147400151Y-82384786D01*
X147402706Y-82371021D01*
X147414617Y-82362640D01*
X147438196Y-82361297D01*
X147460970Y-82363770D01*
X147547471Y-82373815D01*
X147624146Y-82377559D01*
X147700474Y-82375048D01*
X147785930Y-82366332D01*
X147792779Y-82365454D01*
X147846855Y-82357792D01*
X147897317Y-82349465D01*
X147938801Y-82341433D01*
X147965939Y-82334660D01*
X147967480Y-82334150D01*
X147999674Y-82324046D01*
X148041325Y-82312188D01*
X148074160Y-82303520D01*
X148109349Y-82293946D01*
X148136909Y-82285205D01*
X148150360Y-82279460D01*
X148164208Y-82272217D01*
X148191397Y-82259884D01*
X148226417Y-82244948D01*
X148231640Y-82242787D01*
X148291840Y-82216138D01*
X148353657Y-82185537D01*
X148414032Y-82152836D01*
X148469906Y-82119889D01*
X148518217Y-82088548D01*
X148555908Y-82060665D01*
X148579917Y-82038094D01*
X148586455Y-82027943D01*
X148599008Y-82015497D01*
X148604763Y-82014320D01*
X148616659Y-82007453D01*
X148639369Y-81988890D01*
X148669735Y-81961691D01*
X148704598Y-81928912D01*
X148740800Y-81893614D01*
X148775184Y-81858853D01*
X148804590Y-81827690D01*
X148825861Y-81803181D01*
X148833471Y-81792838D01*
X148849765Y-81770871D01*
X148863857Y-81757276D01*
X148875582Y-81744457D01*
X148876800Y-81739702D01*
X148882541Y-81727301D01*
X148897552Y-81704096D01*
X148917397Y-81676707D01*
X148938201Y-81647646D01*
X148952857Y-81624080D01*
X148958037Y-81611705D01*
X148965124Y-81595992D01*
X148972385Y-81588377D01*
X148986637Y-81571412D01*
X149002010Y-81546162D01*
X149003145Y-81543953D01*
X149016955Y-81517478D01*
X149028253Y-81497171D01*
X149028861Y-81496160D01*
X149042551Y-81470517D01*
X149058092Y-81436926D01*
X149072899Y-81401612D01*
X149084389Y-81370798D01*
X149089978Y-81350709D01*
X149090160Y-81348497D01*
X149094897Y-81327610D01*
X149105031Y-81304688D01*
X149115597Y-81279969D01*
X149127289Y-81244421D01*
X149134793Y-81216760D01*
X149140302Y-81196467D01*
X149145223Y-81179106D01*
X149148145Y-81164453D01*
X149147658Y-81152281D01*
X149142351Y-81142362D01*
X149130813Y-81134472D01*
X149111635Y-81128384D01*
X149083406Y-81123870D01*
X149044715Y-81120706D01*
X148994153Y-81118665D01*
X148930308Y-81117520D01*
X148851770Y-81117044D01*
X148757129Y-81117013D01*
X148644975Y-81117199D01*
X148515473Y-81117374D01*
X148405504Y-81117310D01*
X148301165Y-81116974D01*
X148204302Y-81116390D01*
X148116762Y-81115584D01*
X148040389Y-81114578D01*
X147977031Y-81113397D01*
X147928533Y-81112065D01*
X147896741Y-81110607D01*
X147883660Y-81109114D01*
X147860800Y-81100423D01*
X147860800Y-80480160D01*
X147888740Y-80480004D01*
X147903793Y-80479981D01*
X147937277Y-80479969D01*
X147987304Y-80479968D01*
X148051985Y-80479978D01*
X148129432Y-80479997D01*
X148217755Y-80480026D01*
X148315067Y-80480065D01*
X148419478Y-80480111D01*
X148512701Y-80480158D01*
X148642326Y-80480290D01*
X148753083Y-80480401D01*
X148846422Y-80480279D01*
X148923795Y-80479714D01*
X148986652Y-80478494D01*
X149036445Y-80476409D01*
X149074625Y-80473246D01*
X149102641Y-80468795D01*
X149121946Y-80462845D01*
X149133990Y-80455184D01*
X149140224Y-80445602D01*
X149142099Y-80433888D01*
X149141066Y-80419829D01*
X149138576Y-80403216D01*
X149136672Y-80389359D01*
X149125302Y-80329905D01*
X149105041Y-80261163D01*
X149078239Y-80190768D01*
X149069189Y-80170280D01*
X149056342Y-80141582D01*
X149046736Y-80119010D01*
X149044930Y-80114400D01*
X149036827Y-80097626D01*
X149021891Y-80070423D01*
X149009073Y-80048360D01*
X148988899Y-80014072D01*
X148970233Y-79981766D01*
X148961935Y-79967080D01*
X148949345Y-79947493D01*
X148927503Y-79916403D01*
X148899720Y-79878281D01*
X148869308Y-79837594D01*
X148839577Y-79798812D01*
X148813840Y-79766404D01*
X148807888Y-79759185D01*
X148773060Y-79719731D01*
X148732418Y-79677348D01*
X148688800Y-79634595D01*
X148645041Y-79594029D01*
X148603978Y-79558211D01*
X148568448Y-79529698D01*
X148541287Y-79511049D01*
X148525884Y-79504800D01*
X148515043Y-79498938D01*
X148494011Y-79483881D01*
X148477190Y-79470756D01*
X148440015Y-79444147D01*
X148390931Y-79413464D01*
X148336492Y-79382396D01*
X148283252Y-79354630D01*
X148237765Y-79333854D01*
X148225549Y-79329152D01*
X148192465Y-79317307D01*
X148149832Y-79302076D01*
X148109720Y-79287769D01*
X148073301Y-79276666D01*
X148022769Y-79263801D01*
X147964085Y-79250572D01*
X147903208Y-79238380D01*
X147886200Y-79235275D01*
X147820229Y-79224068D01*
X147766622Y-79216677D01*
X147717902Y-79212550D01*
X147666587Y-79211132D01*
X147605200Y-79211870D01*
X147579228Y-79212556D01*
X147524960Y-79213559D01*
X147477862Y-79213381D01*
X147441681Y-79212120D01*
X147420161Y-79209870D01*
X147416051Y-79208387D01*
X147413972Y-79196410D01*
X147412266Y-79166709D01*
X147410981Y-79121874D01*
X147410164Y-79064499D01*
X147409865Y-78997176D01*
X147410130Y-78922496D01*
X147410334Y-78898264D01*
X147411380Y-78807941D01*
X147412672Y-78735990D01*
X147414313Y-78680461D01*
X147416406Y-78639408D01*
X147419055Y-78610882D01*
X147422365Y-78592934D01*
X147426439Y-78583618D01*
X147427153Y-78582813D01*
X147443295Y-78576745D01*
X147476319Y-78571734D01*
X147522808Y-78567884D01*
X147579346Y-78565295D01*
X147642518Y-78564073D01*
X147708908Y-78564319D01*
G37*
G36*
X151258346Y-85145026D02*
G01*
X151296826Y-85146291D01*
X151321012Y-85148358D01*
X151327709Y-85150382D01*
X151329450Y-85163377D01*
X151330720Y-85192282D01*
X151331388Y-85232692D01*
X151331366Y-85275680D01*
X151330440Y-85392520D01*
X151150818Y-85392520D01*
X151077537Y-85392024D01*
X151021697Y-85389888D01*
X150980430Y-85385143D01*
X150950867Y-85376819D01*
X150930140Y-85363948D01*
X150915381Y-85345559D01*
X150903722Y-85320683D01*
X150898800Y-85307333D01*
X150890138Y-85278907D01*
X150890054Y-85258769D01*
X150899213Y-85236488D01*
X150903880Y-85227796D01*
X150919780Y-85201005D01*
X150936182Y-85181004D01*
X150956289Y-85166729D01*
X150983307Y-85157116D01*
X151020440Y-85151099D01*
X151070893Y-85147614D01*
X151137871Y-85145598D01*
X151152239Y-85145302D01*
X151209006Y-85144663D01*
X151258346Y-85145026D01*
G37*
G36*
X154425429Y-85194595D02*
G01*
X154383193Y-85278526D01*
X154335848Y-85360473D01*
X154285453Y-85436110D01*
X154272653Y-85453480D01*
X154240795Y-85494958D01*
X154210854Y-85532492D01*
X154186220Y-85561919D01*
X154170438Y-85578937D01*
X154146278Y-85599832D01*
X154114606Y-85625134D01*
X154079542Y-85651817D01*
X154045206Y-85676855D01*
X154015719Y-85697221D01*
X153995200Y-85709888D01*
X153988543Y-85712560D01*
X153974504Y-85720125D01*
X153970005Y-85725809D01*
X153956028Y-85738728D01*
X153931890Y-85753716D01*
X153926320Y-85756570D01*
X153899002Y-85770526D01*
X153877843Y-85782182D01*
X153875520Y-85783590D01*
X153830478Y-85807353D01*
X153771756Y-85832164D01*
X153705734Y-85855821D01*
X153638791Y-85876123D01*
X153577306Y-85890869D01*
X153551757Y-85895305D01*
X153512486Y-85901937D01*
X153479415Y-85909207D01*
X153459270Y-85915620D01*
X153458445Y-85916036D01*
X153446359Y-85917062D01*
X153414189Y-85918036D01*
X153362172Y-85918958D01*
X153290543Y-85919825D01*
X153199539Y-85920638D01*
X153089396Y-85921396D01*
X152960351Y-85922098D01*
X152812639Y-85922744D01*
X152646497Y-85923332D01*
X152462161Y-85923862D01*
X152259868Y-85924333D01*
X152039853Y-85924745D01*
X151802352Y-85925096D01*
X151547602Y-85925386D01*
X151275840Y-85925614D01*
X150987301Y-85925780D01*
X150682221Y-85925882D01*
X150360837Y-85925920D01*
X150330693Y-85925920D01*
X150027730Y-85925910D01*
X149744447Y-85925877D01*
X149480205Y-85925818D01*
X149234364Y-85925731D01*
X149006285Y-85925613D01*
X148795327Y-85925460D01*
X148600852Y-85925270D01*
X148422219Y-85925040D01*
X148258789Y-85924766D01*
X148109922Y-85924447D01*
X147974979Y-85924079D01*
X147853319Y-85923660D01*
X147744304Y-85923185D01*
X147647294Y-85922653D01*
X147561649Y-85922061D01*
X147486730Y-85921406D01*
X147421896Y-85920684D01*
X147366508Y-85919893D01*
X147319927Y-85919030D01*
X147281513Y-85918092D01*
X147250626Y-85917076D01*
X147226626Y-85915979D01*
X147208875Y-85914799D01*
X147196732Y-85913532D01*
X147189557Y-85912176D01*
X147188045Y-85911656D01*
X147160630Y-85902520D01*
X147121876Y-85892701D01*
X147083560Y-85884958D01*
X146998935Y-85863438D01*
X146905079Y-85826695D01*
X146801201Y-85774358D01*
X146686511Y-85706053D01*
X146641600Y-85676940D01*
X146615150Y-85659136D01*
X146596310Y-85645868D01*
X146590800Y-85641518D01*
X146580747Y-85632410D01*
X146560601Y-85614806D01*
X146545844Y-85602074D01*
X146509774Y-85567156D01*
X146471540Y-85524512D01*
X147082360Y-85524512D01*
X147082459Y-85525395D01*
X147091278Y-85533190D01*
X147112552Y-85537774D01*
X147149545Y-85539695D01*
X147168591Y-85539840D01*
X147249180Y-85539840D01*
X147379466Y-85341172D01*
X147422263Y-85276405D01*
X147455546Y-85227315D01*
X147480527Y-85192321D01*
X147498423Y-85169844D01*
X147510446Y-85158304D01*
X147517812Y-85156121D01*
X147520176Y-85158115D01*
X147528590Y-85171059D01*
X147546172Y-85198349D01*
X147571140Y-85237213D01*
X147601716Y-85284878D01*
X147636117Y-85338573D01*
X147647440Y-85356260D01*
X147764280Y-85538794D01*
X147848419Y-85539317D01*
X147891913Y-85538803D01*
X147918988Y-85536168D01*
X147933494Y-85530762D01*
X147938603Y-85524088D01*
X147934772Y-85510728D01*
X147919584Y-85481663D01*
X147893527Y-85437701D01*
X147857093Y-85379645D01*
X147810769Y-85308303D01*
X147770644Y-85247777D01*
X147653579Y-85072480D01*
X147993233Y-85072480D01*
X148000497Y-85173849D01*
X148021643Y-85266681D01*
X148055707Y-85348806D01*
X148101721Y-85418054D01*
X148158720Y-85472254D01*
X148176663Y-85484530D01*
X148206369Y-85501682D01*
X148236561Y-85514952D01*
X148267925Y-85524088D01*
X148270256Y-85524767D01*
X148310470Y-85531552D01*
X148360221Y-85535732D01*
X148422525Y-85537731D01*
X148500398Y-85537976D01*
X148552426Y-85537500D01*
X148780280Y-85534760D01*
X148782930Y-85077560D01*
X148783365Y-84982778D01*
X148783554Y-84894044D01*
X148783507Y-84813468D01*
X148783237Y-84743158D01*
X148782753Y-84685222D01*
X148782069Y-84641768D01*
X148781194Y-84614904D01*
X148780675Y-84609650D01*
X148890846Y-84609650D01*
X148893452Y-84621728D01*
X148903095Y-84650708D01*
X148919054Y-84694711D01*
X148940611Y-84751859D01*
X148967048Y-84820272D01*
X148996060Y-84894044D01*
X148997644Y-84898071D01*
X149031681Y-84983376D01*
X149068440Y-85074309D01*
X149071505Y-85081840D01*
X149257800Y-85539341D01*
X149339509Y-85539591D01*
X149421217Y-85539840D01*
X149597029Y-85082363D01*
X149632026Y-84990696D01*
X149664470Y-84904546D01*
X149693675Y-84825816D01*
X149718957Y-84756410D01*
X149739631Y-84698232D01*
X149741146Y-84693793D01*
X149843876Y-84693793D01*
X149846773Y-84719560D01*
X149850673Y-84729617D01*
X149863443Y-84732500D01*
X149894257Y-84735107D01*
X149940839Y-84737346D01*
X150000911Y-84739125D01*
X150072198Y-84740352D01*
X150128084Y-84740836D01*
X150395720Y-84742280D01*
X150401390Y-85011520D01*
X149902960Y-85011520D01*
X149902960Y-85082640D01*
X149903421Y-85119885D01*
X149905747Y-85141253D01*
X149911354Y-85151184D01*
X149921659Y-85154117D01*
X149925820Y-85154295D01*
X149942430Y-85154541D01*
X149976050Y-85154928D01*
X150023372Y-85155422D01*
X150081087Y-85155990D01*
X150145888Y-85156597D01*
X150172200Y-85156835D01*
X150395720Y-85158840D01*
X150401442Y-85397262D01*
X149867400Y-85402680D01*
X149867400Y-85534760D01*
X150558280Y-85534760D01*
X150560930Y-85077560D01*
X150561371Y-84982808D01*
X150561576Y-84894129D01*
X150561554Y-84813628D01*
X150561317Y-84743410D01*
X150560874Y-84685578D01*
X150560236Y-84642237D01*
X150559412Y-84615491D01*
X150558898Y-84610066D01*
X150658526Y-84610066D01*
X150661673Y-84624334D01*
X150674833Y-84651848D01*
X150695986Y-84689481D01*
X150723111Y-84734106D01*
X150754186Y-84782596D01*
X150787192Y-84831824D01*
X150820108Y-84878663D01*
X150831638Y-84894129D01*
X150850913Y-84919985D01*
X150877585Y-84952665D01*
X150885728Y-84961649D01*
X150939300Y-85018458D01*
X150897368Y-85031021D01*
X150853594Y-85052178D01*
X150809611Y-85086768D01*
X150771496Y-85128903D01*
X150745327Y-85172693D01*
X150741867Y-85181700D01*
X150727099Y-85254085D01*
X150730941Y-85325952D01*
X150752619Y-85393598D01*
X150791356Y-85453321D01*
X150800968Y-85463870D01*
X150822326Y-85484559D01*
X150843972Y-85501140D01*
X150868383Y-85514060D01*
X150898036Y-85523769D01*
X150935406Y-85530716D01*
X150982970Y-85535347D01*
X151043206Y-85538113D01*
X151118589Y-85539460D01*
X151211596Y-85539839D01*
X151220525Y-85539841D01*
X151487920Y-85539840D01*
X151487920Y-85074174D01*
X151487768Y-84978777D01*
X151487332Y-84889647D01*
X151486644Y-84808835D01*
X151485735Y-84738392D01*
X151484635Y-84680367D01*
X151483890Y-84654581D01*
X152045299Y-84654581D01*
X152047130Y-84687366D01*
X152051351Y-84715640D01*
X152057462Y-84731433D01*
X152069986Y-84734113D01*
X152100341Y-84736390D01*
X152146042Y-84738183D01*
X152204603Y-84739414D01*
X152273537Y-84740003D01*
X152325923Y-84739994D01*
X152415194Y-84740027D01*
X152485152Y-84740851D01*
X152536788Y-84742505D01*
X152571096Y-84745028D01*
X152589067Y-84748459D01*
X152592217Y-84750494D01*
X152595578Y-84765470D01*
X152598511Y-84795486D01*
X152600852Y-84835262D01*
X152602440Y-84879519D01*
X152603111Y-84922980D01*
X152602703Y-84960363D01*
X152601053Y-84986392D01*
X152599710Y-84993502D01*
X152596402Y-84999075D01*
X152588849Y-85003405D01*
X152574645Y-85006686D01*
X152551384Y-85009114D01*
X152516662Y-85010883D01*
X152468073Y-85012189D01*
X152403211Y-85013227D01*
X152348353Y-85013881D01*
X152102600Y-85016600D01*
X152099873Y-85074174D01*
X152099554Y-85080919D01*
X152098675Y-85116752D01*
X152101025Y-85137187D01*
X152107671Y-85147028D01*
X152114916Y-85150052D01*
X152130052Y-85151517D01*
X152162366Y-85152978D01*
X152208714Y-85154351D01*
X152265953Y-85155551D01*
X152330941Y-85156492D01*
X152366882Y-85156853D01*
X152600440Y-85158840D01*
X152600440Y-85392520D01*
X152072120Y-85402680D01*
X152072120Y-85534760D01*
X152406751Y-85537442D01*
X152487324Y-85537858D01*
X152561388Y-85537800D01*
X152626500Y-85537305D01*
X152680215Y-85536409D01*
X152720090Y-85535147D01*
X152743681Y-85533557D01*
X152749129Y-85532362D01*
X152750878Y-85520802D01*
X152752494Y-85491421D01*
X152753963Y-85446716D01*
X152755273Y-85389186D01*
X152756412Y-85321327D01*
X152757367Y-85245638D01*
X152758126Y-85164617D01*
X152758676Y-85080761D01*
X152759006Y-84996569D01*
X152759103Y-84914539D01*
X152759057Y-84890464D01*
X152893331Y-84890464D01*
X152898066Y-84912421D01*
X152898739Y-84913288D01*
X152900782Y-84914539D01*
X152916105Y-84923924D01*
X152946085Y-84934164D01*
X152981021Y-84942248D01*
X153013254Y-84946417D01*
X153035125Y-84944909D01*
X153035596Y-84944736D01*
X153050290Y-84930947D01*
X153052784Y-84921533D01*
X153056997Y-84902266D01*
X153067271Y-84874199D01*
X153071650Y-84864200D01*
X153108281Y-84806852D01*
X153157305Y-84763663D01*
X153215613Y-84735656D01*
X153280096Y-84723852D01*
X153347646Y-84729273D01*
X153413166Y-84751959D01*
X153465550Y-84784996D01*
X153504145Y-84827772D01*
X153532362Y-84884457D01*
X153540022Y-84907069D01*
X153559332Y-84994547D01*
X153564815Y-85083559D01*
X153556794Y-85169365D01*
X153535590Y-85247224D01*
X153513847Y-85293136D01*
X153473292Y-85343595D01*
X153419442Y-85381425D01*
X153355985Y-85405159D01*
X153286607Y-85413328D01*
X153227297Y-85407263D01*
X153188042Y-85396465D01*
X153157947Y-85379712D01*
X153127025Y-85351430D01*
X153126736Y-85351131D01*
X153100745Y-85319302D01*
X153079825Y-85285096D01*
X153071788Y-85265880D01*
X153059357Y-85237087D01*
X153045176Y-85225155D01*
X153043332Y-85225001D01*
X153018642Y-85228127D01*
X152986307Y-85235840D01*
X152953017Y-85246060D01*
X152925464Y-85256705D01*
X152910338Y-85265695D01*
X152909673Y-85266568D01*
X152907171Y-85287985D01*
X152916314Y-85320040D01*
X152934774Y-85358620D01*
X152960219Y-85399612D01*
X152990319Y-85438904D01*
X153022745Y-85472383D01*
X153029652Y-85478307D01*
X153089524Y-85515893D01*
X153161827Y-85542256D01*
X153241374Y-85556292D01*
X153322975Y-85556897D01*
X153369553Y-85550592D01*
X153462405Y-85523169D01*
X153543091Y-85479631D01*
X153610873Y-85420665D01*
X153665014Y-85346958D01*
X153704776Y-85259197D01*
X153713867Y-85229960D01*
X153721748Y-85187087D01*
X153726282Y-85130926D01*
X153727463Y-85068236D01*
X153725287Y-85005773D01*
X153719749Y-84950293D01*
X153714080Y-84920080D01*
X153685694Y-84835996D01*
X153644624Y-84759486D01*
X153593348Y-84693864D01*
X153534345Y-84642442D01*
X153485681Y-84614818D01*
X153405403Y-84589119D01*
X153316665Y-84577822D01*
X153225978Y-84581589D01*
X153199529Y-84585725D01*
X153113308Y-84611632D01*
X153034575Y-84656302D01*
X153024693Y-84663617D01*
X152993927Y-84692629D01*
X152964004Y-84730524D01*
X152936953Y-84773278D01*
X152914804Y-84816869D01*
X152899587Y-84857272D01*
X152893331Y-84890464D01*
X152759057Y-84890464D01*
X152758955Y-84837168D01*
X152758548Y-84766954D01*
X152757871Y-84706395D01*
X152756912Y-84657990D01*
X152755657Y-84624235D01*
X152754095Y-84607630D01*
X152753716Y-84606537D01*
X152741809Y-84603192D01*
X152712473Y-84600373D01*
X152668593Y-84598080D01*
X152613052Y-84596310D01*
X152548734Y-84595059D01*
X152478524Y-84594326D01*
X152405307Y-84594109D01*
X152331965Y-84594404D01*
X152261384Y-84595210D01*
X152196447Y-84596524D01*
X152140039Y-84598344D01*
X152095044Y-84600667D01*
X152064346Y-84603492D01*
X152050829Y-84606814D01*
X152050563Y-84607122D01*
X152046297Y-84625197D01*
X152045299Y-84654581D01*
X151483890Y-84654581D01*
X151483377Y-84636813D01*
X151481990Y-84609779D01*
X151480731Y-84601318D01*
X151467575Y-84598052D01*
X151440239Y-84596559D01*
X151407071Y-84597084D01*
X151340600Y-84600040D01*
X151335520Y-84790932D01*
X151333387Y-84860400D01*
X151331031Y-84912115D01*
X151328191Y-84948645D01*
X151324610Y-84972555D01*
X151320027Y-84986414D01*
X151315200Y-84992176D01*
X151294235Y-84998094D01*
X151259764Y-84999724D01*
X151218022Y-84997609D01*
X151175239Y-84992292D01*
X151137649Y-84984318D01*
X151111824Y-84974432D01*
X151090332Y-84958381D01*
X151065193Y-84932610D01*
X151035106Y-84895428D01*
X150998770Y-84845148D01*
X150954886Y-84780078D01*
X150915276Y-84719056D01*
X150835687Y-84594960D01*
X150750005Y-84594960D01*
X150705475Y-84595807D01*
X150677634Y-84598740D01*
X150662905Y-84604351D01*
X150658526Y-84610066D01*
X150558898Y-84610066D01*
X150558658Y-84607529D01*
X150553148Y-84603991D01*
X150538517Y-84601207D01*
X150513089Y-84599127D01*
X150475192Y-84597706D01*
X150423150Y-84596894D01*
X150355289Y-84596646D01*
X150269936Y-84596912D01*
X150200409Y-84597369D01*
X149847080Y-84600040D01*
X149846561Y-84610092D01*
X149843989Y-84659941D01*
X149843876Y-84693793D01*
X149741146Y-84693793D01*
X149755010Y-84653184D01*
X149764411Y-84623170D01*
X149767148Y-84610092D01*
X149767100Y-84609923D01*
X149758390Y-84601678D01*
X149737728Y-84596945D01*
X149701551Y-84595066D01*
X149686079Y-84594960D01*
X149610800Y-84594960D01*
X149511800Y-84869678D01*
X149159354Y-84864200D01*
X149055938Y-84594960D01*
X148976210Y-84594960D01*
X148932833Y-84595988D01*
X148906282Y-84599460D01*
X148893147Y-84605965D01*
X148890846Y-84609650D01*
X148780675Y-84609650D01*
X148780399Y-84606855D01*
X148775056Y-84602498D01*
X148761397Y-84599303D01*
X148737265Y-84597184D01*
X148700503Y-84596055D01*
X148648954Y-84595830D01*
X148580462Y-84596425D01*
X148533910Y-84597084D01*
X148456552Y-84598406D01*
X148396453Y-84599863D01*
X148350556Y-84601731D01*
X148315799Y-84604286D01*
X148289124Y-84607803D01*
X148267472Y-84612559D01*
X148247782Y-84618831D01*
X148233787Y-84624167D01*
X148166307Y-84661617D01*
X148108418Y-84715576D01*
X148061150Y-84784124D01*
X148025533Y-84865342D01*
X148002597Y-84957311D01*
X147993372Y-85058111D01*
X147993233Y-85072480D01*
X147653579Y-85072480D01*
X147596640Y-84987217D01*
X147596640Y-84797862D01*
X147596272Y-84737752D01*
X147595249Y-84684731D01*
X147593690Y-84642111D01*
X147591718Y-84613203D01*
X147589464Y-84601331D01*
X147576416Y-84598161D01*
X147548904Y-84596619D01*
X147512745Y-84597018D01*
X147510724Y-84597098D01*
X147439160Y-84600040D01*
X147434080Y-84800618D01*
X147429000Y-85001195D01*
X147252958Y-85256072D01*
X147205836Y-85325016D01*
X147164680Y-85386664D01*
X147130621Y-85439227D01*
X147104793Y-85480915D01*
X147088329Y-85509940D01*
X147082360Y-85524512D01*
X146471540Y-85524512D01*
X146468124Y-85520702D01*
X146424994Y-85467922D01*
X146384482Y-85414028D01*
X146350687Y-85364231D01*
X146328970Y-85326351D01*
X146311021Y-85293156D01*
X146291606Y-85261628D01*
X146290714Y-85260311D01*
X146266071Y-85216995D01*
X146240733Y-85160432D01*
X146217216Y-85097439D01*
X146198030Y-85034835D01*
X146185689Y-84979438D01*
X146184620Y-84972435D01*
X146178137Y-84936015D01*
X146170352Y-84905322D01*
X146165001Y-84891320D01*
X146163986Y-84879400D01*
X146163017Y-84848145D01*
X146162092Y-84798500D01*
X146161214Y-84731407D01*
X146160381Y-84647810D01*
X146159594Y-84548653D01*
X146158853Y-84434879D01*
X146158158Y-84307432D01*
X146157510Y-84167255D01*
X146156908Y-84015293D01*
X146156352Y-83852487D01*
X146155843Y-83679783D01*
X146155381Y-83498123D01*
X146154966Y-83308452D01*
X146154598Y-83111712D01*
X146154278Y-82908847D01*
X146154004Y-82700801D01*
X146153779Y-82488518D01*
X146153601Y-82272940D01*
X146153471Y-82055011D01*
X146153389Y-81835676D01*
X146153355Y-81615877D01*
X146153368Y-81415117D01*
X146407180Y-81415117D01*
X146407233Y-81622780D01*
X146407342Y-81829523D01*
X146407506Y-82034347D01*
X146407725Y-82236250D01*
X146407998Y-82434234D01*
X146408327Y-82627297D01*
X146408709Y-82814441D01*
X146409146Y-82994664D01*
X146409638Y-83166967D01*
X146410183Y-83330350D01*
X146410781Y-83483813D01*
X146411434Y-83626356D01*
X146412139Y-83756978D01*
X146412898Y-83874680D01*
X146413710Y-83978461D01*
X146414575Y-84067323D01*
X146415492Y-84140263D01*
X146416462Y-84196284D01*
X146417485Y-84234383D01*
X146418559Y-84253563D01*
X146419003Y-84255712D01*
X146422280Y-84256942D01*
X146430384Y-84258101D01*
X146443879Y-84259191D01*
X146463330Y-84260212D01*
X146489300Y-84261169D01*
X146522354Y-84262061D01*
X146563055Y-84262893D01*
X146611969Y-84263664D01*
X146669658Y-84264379D01*
X146736688Y-84265037D01*
X146813623Y-84265642D01*
X146901026Y-84266196D01*
X146999461Y-84266700D01*
X147109494Y-84267157D01*
X147231687Y-84267568D01*
X147366606Y-84267936D01*
X147514814Y-84268262D01*
X147676876Y-84268549D01*
X147853355Y-84268798D01*
X148044816Y-84269012D01*
X148251823Y-84269193D01*
X148474940Y-84269342D01*
X148714731Y-84269462D01*
X148971760Y-84269554D01*
X149246593Y-84269621D01*
X149539791Y-84269664D01*
X149851921Y-84269687D01*
X150183546Y-84269690D01*
X150343625Y-84269685D01*
X150624533Y-84269653D01*
X150900294Y-84269580D01*
X151170210Y-84269468D01*
X151433586Y-84269318D01*
X151689725Y-84269132D01*
X151937931Y-84268911D01*
X152177508Y-84268657D01*
X152407760Y-84268370D01*
X152627990Y-84268054D01*
X152837503Y-84267708D01*
X153035602Y-84267335D01*
X153221592Y-84266936D01*
X153394775Y-84266513D01*
X153554456Y-84266066D01*
X153699939Y-84265598D01*
X153830527Y-84265110D01*
X153945525Y-84264603D01*
X154044236Y-84264079D01*
X154125964Y-84263540D01*
X154190013Y-84262986D01*
X154235686Y-84262419D01*
X154262288Y-84261842D01*
X154269365Y-84261376D01*
X154270706Y-84257091D01*
X154271955Y-84245586D01*
X154273116Y-84226247D01*
X154274190Y-84198456D01*
X154275181Y-84161598D01*
X154276092Y-84115058D01*
X154276925Y-84058219D01*
X154277684Y-83990466D01*
X154278370Y-83911183D01*
X154278987Y-83819753D01*
X154279537Y-83715561D01*
X154280024Y-83597992D01*
X154280450Y-83466429D01*
X154280817Y-83320257D01*
X154281130Y-83158859D01*
X154281389Y-82981620D01*
X154281599Y-82787924D01*
X154281762Y-82577155D01*
X154281881Y-82348697D01*
X154281958Y-82101935D01*
X154281996Y-81836252D01*
X154281999Y-81551034D01*
X154281994Y-81469827D01*
X154281979Y-81186573D01*
X154281972Y-80922899D01*
X154281961Y-80678065D01*
X154281932Y-80451330D01*
X154281875Y-80241955D01*
X154281778Y-80049199D01*
X154281626Y-79872323D01*
X154281410Y-79710586D01*
X154281116Y-79563248D01*
X154280732Y-79429569D01*
X154280246Y-79308809D01*
X154279646Y-79200228D01*
X154278920Y-79103085D01*
X154278056Y-79016641D01*
X154277040Y-78940156D01*
X154275862Y-78872889D01*
X154274509Y-78814100D01*
X154272969Y-78763049D01*
X154271229Y-78718997D01*
X154269277Y-78681202D01*
X154267102Y-78648925D01*
X154264691Y-78621426D01*
X154262032Y-78597964D01*
X154259112Y-78577800D01*
X154255920Y-78560193D01*
X154252443Y-78544404D01*
X154248670Y-78529691D01*
X154244587Y-78515316D01*
X154240183Y-78500538D01*
X154235445Y-78484616D01*
X154232690Y-78475093D01*
X154221298Y-78438896D01*
X154210250Y-78410024D01*
X154201879Y-78394544D01*
X154201665Y-78394321D01*
X154191413Y-78374508D01*
X154190481Y-78367238D01*
X154184891Y-78346149D01*
X154169767Y-78313100D01*
X154147581Y-78272528D01*
X154120801Y-78228869D01*
X154091897Y-78186560D01*
X154083800Y-78175614D01*
X154067351Y-78156473D01*
X154040623Y-78128062D01*
X154008190Y-78094982D01*
X153974623Y-78061834D01*
X153944493Y-78033218D01*
X153925556Y-78016360D01*
X153859378Y-77967228D01*
X153783290Y-77921255D01*
X153704354Y-77882212D01*
X153629638Y-77853871D01*
X153611360Y-77848611D01*
X153581772Y-77839983D01*
X153560277Y-77832292D01*
X153555480Y-77829911D01*
X153550479Y-77827143D01*
X153543843Y-77824556D01*
X153534901Y-77822142D01*
X153522980Y-77819897D01*
X153507408Y-77817812D01*
X153487513Y-77815882D01*
X153462622Y-77814100D01*
X153432063Y-77812460D01*
X153395163Y-77810956D01*
X153351251Y-77809582D01*
X153299654Y-77808330D01*
X153239700Y-77807195D01*
X153170716Y-77806170D01*
X153092031Y-77805248D01*
X153002971Y-77804425D01*
X152902864Y-77803692D01*
X152791038Y-77803044D01*
X152666822Y-77802474D01*
X152529541Y-77801976D01*
X152378525Y-77801544D01*
X152213101Y-77801171D01*
X152032596Y-77800851D01*
X151836338Y-77800577D01*
X151623655Y-77800343D01*
X151393874Y-77800143D01*
X151146324Y-77799970D01*
X150880331Y-77799819D01*
X150595224Y-77799681D01*
X150355080Y-77799579D01*
X150053858Y-77799466D01*
X149772298Y-77799384D01*
X149509745Y-77799336D01*
X149265540Y-77799325D01*
X149039027Y-77799354D01*
X148829550Y-77799425D01*
X148636451Y-77799540D01*
X148459073Y-77799704D01*
X148296759Y-77799918D01*
X148148852Y-77800186D01*
X148014695Y-77800509D01*
X147893632Y-77800892D01*
X147785005Y-77801336D01*
X147688157Y-77801844D01*
X147602432Y-77802420D01*
X147527172Y-77803065D01*
X147461720Y-77803783D01*
X147405419Y-77804577D01*
X147357613Y-77805448D01*
X147317645Y-77806401D01*
X147284857Y-77807437D01*
X147258592Y-77808560D01*
X147238194Y-77809772D01*
X147223006Y-77811076D01*
X147212370Y-77812475D01*
X147210560Y-77812798D01*
X147085127Y-77843998D01*
X146970433Y-77887432D01*
X146885440Y-77932203D01*
X146854882Y-77950213D01*
X146828347Y-77964768D01*
X146818724Y-77969497D01*
X146799210Y-77982382D01*
X146769686Y-78006817D01*
X146733789Y-78039297D01*
X146695157Y-78076319D01*
X146657427Y-78114377D01*
X146624237Y-78149968D01*
X146599226Y-78179586D01*
X146595442Y-78184598D01*
X146554047Y-78249400D01*
X146513447Y-78328132D01*
X146476282Y-78414483D01*
X146445191Y-78502148D01*
X146422812Y-78584818D01*
X146418003Y-78608736D01*
X146416913Y-78624789D01*
X146415882Y-78659923D01*
X146414909Y-78713137D01*
X146413994Y-78783433D01*
X146413139Y-78869809D01*
X146412341Y-78971266D01*
X146411601Y-79086803D01*
X146410919Y-79215421D01*
X146410295Y-79356120D01*
X146409728Y-79507900D01*
X146409218Y-79669759D01*
X146408766Y-79840700D01*
X146408370Y-80019721D01*
X146408031Y-80205822D01*
X146407749Y-80398004D01*
X146407523Y-80595266D01*
X146407353Y-80796608D01*
X146407240Y-81001031D01*
X146407182Y-81207534D01*
X146407180Y-81415117D01*
X146153368Y-81415117D01*
X146153369Y-81396558D01*
X146153432Y-81178663D01*
X146153543Y-80963135D01*
X146153703Y-80750917D01*
X146153912Y-80542954D01*
X146154170Y-80340189D01*
X146154477Y-80143565D01*
X146154833Y-79954025D01*
X146155239Y-79772515D01*
X146155694Y-79599976D01*
X146156199Y-79437353D01*
X146156754Y-79285589D01*
X146157359Y-79145627D01*
X146158014Y-79018412D01*
X146158719Y-78904887D01*
X146159475Y-78805995D01*
X146160281Y-78722679D01*
X146161138Y-78655884D01*
X146162046Y-78606553D01*
X146163005Y-78575630D01*
X146164015Y-78564057D01*
X146164043Y-78564022D01*
X146171149Y-78549126D01*
X146179187Y-78520904D01*
X146184919Y-78493410D01*
X146204955Y-78411798D01*
X146236149Y-78323164D01*
X146275451Y-78235012D01*
X146319814Y-78154849D01*
X146327116Y-78143360D01*
X146345366Y-78114521D01*
X146359465Y-78090952D01*
X146364079Y-78082400D01*
X146384117Y-78049283D01*
X146415847Y-78006969D01*
X146455635Y-77959602D01*
X146499843Y-77911325D01*
X146544835Y-77866278D01*
X146586709Y-77828823D01*
X146610970Y-77810410D01*
X146643699Y-77787708D01*
X146680515Y-77763490D01*
X146717037Y-77740526D01*
X146748881Y-77721591D01*
X146771666Y-77709454D01*
X146780104Y-77706480D01*
X146792754Y-77701703D01*
X146794000Y-77698345D01*
X146803197Y-77687579D01*
X146828522Y-77672538D01*
X146866577Y-77654573D01*
X146913962Y-77635031D01*
X146967280Y-77615262D01*
X147023131Y-77596613D01*
X147078117Y-77580433D01*
X147114040Y-77571352D01*
X147205480Y-77550138D01*
X150339840Y-77547311D01*
X150626546Y-77547082D01*
X150902903Y-77546921D01*
X151168366Y-77546828D01*
X151422389Y-77546799D01*
X151664427Y-77546836D01*
X151893934Y-77546936D01*
X152110364Y-77547099D01*
X152313170Y-77547322D01*
X152501809Y-77547606D01*
X152675732Y-77547949D01*
X152834396Y-77548351D01*
X152977253Y-77548808D01*
X153103758Y-77549322D01*
X153213366Y-77549890D01*
X153305530Y-77550512D01*
X153379705Y-77551186D01*
X153435345Y-77551912D01*
X153471904Y-77552687D01*
X153488836Y-77553512D01*
X153489972Y-77553743D01*
X153506321Y-77559666D01*
X153537449Y-77568056D01*
X153578171Y-77577583D01*
X153604984Y-77583276D01*
X153701016Y-77609959D01*
X153802911Y-77650783D01*
X153906137Y-77703041D01*
X154006163Y-77764027D01*
X154098457Y-77831033D01*
X154178488Y-77901354D01*
X154228675Y-77955781D01*
X154263084Y-77999499D01*
X154298108Y-78047194D01*
X154330038Y-78093538D01*
X154355164Y-78133204D01*
X154366407Y-78153520D01*
X154380464Y-78180814D01*
X154392185Y-78201970D01*
X154393615Y-78204320D01*
X154402896Y-78222049D01*
X154416232Y-78250769D01*
X154424788Y-78270360D01*
X154439903Y-78305151D01*
X154454090Y-78336698D01*
X154459750Y-78348767D01*
X154468294Y-78372049D01*
X154478572Y-78408066D01*
X154488545Y-78449584D01*
X154489806Y-78455447D01*
X154500071Y-78500981D01*
X154511194Y-78545736D01*
X154520845Y-78580356D01*
X154521231Y-78581604D01*
X154522716Y-78596448D01*
X154524132Y-78630605D01*
X154525478Y-78683119D01*
X154526755Y-78753039D01*
X154527962Y-78839411D01*
X154529100Y-78941280D01*
X154530167Y-79057693D01*
X154531165Y-79187697D01*
X154532094Y-79330338D01*
X154532951Y-79484663D01*
X154533739Y-79649717D01*
X154534457Y-79824548D01*
X154535104Y-80008201D01*
X154535680Y-80199724D01*
X154536185Y-80398162D01*
X154536621Y-80602562D01*
X154536985Y-80811970D01*
X154537279Y-81025433D01*
X154537501Y-81241998D01*
X154537652Y-81460709D01*
X154537685Y-81551034D01*
X154537733Y-81680615D01*
X154537741Y-81900762D01*
X154537679Y-82120195D01*
X154537544Y-82337961D01*
X154537338Y-82553107D01*
X154537061Y-82764679D01*
X154536711Y-82971723D01*
X154536290Y-83173286D01*
X154535797Y-83368415D01*
X154535231Y-83556155D01*
X154534593Y-83735554D01*
X154533883Y-83905657D01*
X154533099Y-84065510D01*
X154532244Y-84214162D01*
X154531315Y-84350657D01*
X154530314Y-84474042D01*
X154529240Y-84583363D01*
X154528093Y-84677668D01*
X154526872Y-84756002D01*
X154525579Y-84817412D01*
X154524212Y-84860944D01*
X154522772Y-84885645D01*
X154521931Y-84890900D01*
X154511711Y-84922821D01*
X154502963Y-84961504D01*
X154500878Y-84974159D01*
X154486331Y-85038086D01*
X154475934Y-85068236D01*
X154460495Y-85113007D01*
X154425429Y-85194595D01*
G37*
G36*
X148595432Y-84739323D02*
G01*
X148613359Y-84741715D01*
X148615180Y-84742727D01*
X148617037Y-84754492D01*
X148618730Y-84784092D01*
X148620202Y-84829041D01*
X148621398Y-84886853D01*
X148622259Y-84955043D01*
X148622729Y-85031126D01*
X148622800Y-85075575D01*
X148622800Y-85400402D01*
X148478020Y-85395459D01*
X148405196Y-85391734D01*
X148349165Y-85385443D01*
X148306451Y-85375474D01*
X148273580Y-85360713D01*
X148247078Y-85340047D01*
X148225020Y-85314450D01*
X148190700Y-85253313D01*
X148168318Y-85179287D01*
X148158612Y-85096435D01*
X148162318Y-85008823D01*
X148165485Y-84986288D01*
X148184727Y-84906111D01*
X148213801Y-84841657D01*
X148252110Y-84793838D01*
X148299056Y-84763561D01*
X148315880Y-84757704D01*
X148340925Y-84752887D01*
X148378409Y-84748426D01*
X148423847Y-84744546D01*
X148472754Y-84741471D01*
X148520645Y-84739426D01*
X148563032Y-84738635D01*
X148595432Y-84739323D01*
G37*
G36*
X151495144Y-78574202D02*
G01*
X151559027Y-78575682D01*
X151619285Y-78577992D01*
X151672503Y-78581118D01*
X151715261Y-78585044D01*
X151721600Y-78585837D01*
X151788752Y-78595720D01*
X151857438Y-78607634D01*
X151924138Y-78620790D01*
X151985332Y-78634397D01*
X152037497Y-78647666D01*
X152077114Y-78659806D01*
X152100661Y-78670026D01*
X152102600Y-78671353D01*
X152119252Y-78679058D01*
X152143240Y-78686146D01*
X152171866Y-78694882D01*
X152214442Y-78710447D01*
X152266545Y-78730994D01*
X152323750Y-78754675D01*
X152381636Y-78779644D01*
X152435776Y-78804052D01*
X152481749Y-78826052D01*
X152497491Y-78834094D01*
X152631904Y-78912924D01*
X152766990Y-79007967D01*
X152898318Y-79115770D01*
X153021454Y-79232878D01*
X153056453Y-79269651D01*
X153082314Y-79297447D01*
X153112969Y-79330336D01*
X153128760Y-79347254D01*
X153162105Y-79385842D01*
X153200385Y-79434634D01*
X153239500Y-79487953D01*
X153275350Y-79540126D01*
X153303834Y-79585477D01*
X153313731Y-79603243D01*
X153335229Y-79642625D01*
X153358213Y-79681878D01*
X153380012Y-79716754D01*
X153397955Y-79743009D01*
X153409372Y-79756396D01*
X153410517Y-79757107D01*
X153417965Y-79768797D01*
X153418321Y-79772541D01*
X153422583Y-79786323D01*
X153434061Y-79813705D01*
X153450788Y-79850161D01*
X153463178Y-79875834D01*
X153506801Y-79975178D01*
X153546935Y-80087213D01*
X153580891Y-80204328D01*
X153585094Y-80221080D01*
X153595384Y-80262716D01*
X153605147Y-80301817D01*
X153611850Y-80328285D01*
X153624096Y-80388142D01*
X153634655Y-80464039D01*
X153643160Y-80551738D01*
X153649239Y-80647004D01*
X153652523Y-80745597D01*
X153653005Y-80800200D01*
X153650927Y-80926835D01*
X153644346Y-81039770D01*
X153632535Y-81145272D01*
X153614771Y-81249607D01*
X153590327Y-81359042D01*
X153586553Y-81374240D01*
X153558030Y-81472333D01*
X153520123Y-81579456D01*
X153475386Y-81689642D01*
X153426373Y-81796923D01*
X153375640Y-81895330D01*
X153331663Y-81969751D01*
X153313514Y-81998846D01*
X153300786Y-82020634D01*
X153296401Y-82029918D01*
X153290779Y-82040392D01*
X153275906Y-82062896D01*
X153254764Y-82093236D01*
X153230338Y-82127221D01*
X153205613Y-82160657D01*
X153183573Y-82189352D01*
X153177612Y-82196802D01*
X153146500Y-82232620D01*
X153104670Y-82277162D01*
X153055163Y-82327523D01*
X153001020Y-82380802D01*
X152945282Y-82434093D01*
X152890992Y-82484494D01*
X152841189Y-82529101D01*
X152798915Y-82565010D01*
X152767212Y-82589318D01*
X152764689Y-82591033D01*
X152729724Y-82614082D01*
X152701465Y-82632099D01*
X152683877Y-82642587D01*
X152680191Y-82644240D01*
X152669797Y-82649833D01*
X152649751Y-82663816D01*
X152641984Y-82669640D01*
X152619477Y-82685563D01*
X152603812Y-82694403D01*
X152601344Y-82695040D01*
X152589312Y-82700685D01*
X152568326Y-82714753D01*
X152561232Y-82720038D01*
X152539139Y-82734301D01*
X152502971Y-82754847D01*
X152457093Y-82779427D01*
X152405873Y-82805790D01*
X152353676Y-82831690D01*
X152304868Y-82854876D01*
X152265160Y-82872534D01*
X152216002Y-82891694D01*
X152159642Y-82911194D01*
X152102210Y-82929142D01*
X152049836Y-82943647D01*
X152008648Y-82952819D01*
X152001000Y-82954031D01*
X151969364Y-82959864D01*
X151945719Y-82966792D01*
X151939059Y-82970262D01*
X151924779Y-82975037D01*
X151895054Y-82980675D01*
X151854690Y-82986364D01*
X151822219Y-82989988D01*
X151773719Y-82995603D01*
X151729021Y-83002132D01*
X151694425Y-83008590D01*
X151680960Y-83012078D01*
X151657681Y-83016228D01*
X151617356Y-83019702D01*
X151563254Y-83022321D01*
X151498642Y-83023908D01*
X151456792Y-83024289D01*
X151388709Y-83024315D01*
X151337840Y-83023664D01*
X151301087Y-83022086D01*
X151275349Y-83019337D01*
X151257526Y-83015169D01*
X151244517Y-83009335D01*
X151240892Y-83007094D01*
X151213600Y-82989212D01*
X151213600Y-82691668D01*
X151213798Y-82601147D01*
X151214448Y-82528989D01*
X151215633Y-82473238D01*
X151217438Y-82431942D01*
X151219947Y-82403146D01*
X151223245Y-82384896D01*
X151227228Y-82375488D01*
X151236051Y-82365944D01*
X151247944Y-82361819D01*
X151268185Y-82362759D01*
X151302050Y-82368408D01*
X151310103Y-82369917D01*
X151346113Y-82376264D01*
X151378763Y-82380575D01*
X151411194Y-82382685D01*
X151446546Y-82382428D01*
X151487961Y-82379638D01*
X151538581Y-82374149D01*
X151601546Y-82365795D01*
X151679997Y-82354411D01*
X151721600Y-82348193D01*
X151779316Y-82336073D01*
X151850760Y-82315534D01*
X151931885Y-82288004D01*
X152018641Y-82254908D01*
X152106983Y-82217674D01*
X152158480Y-82194215D01*
X152177476Y-82183665D01*
X152208670Y-82164650D01*
X152247456Y-82140131D01*
X152289229Y-82113068D01*
X152329381Y-82086418D01*
X152363306Y-82063142D01*
X152370878Y-82057764D01*
X152389330Y-82042577D01*
X152418910Y-82016034D01*
X152456434Y-81981204D01*
X152498717Y-81941154D01*
X152542573Y-81898953D01*
X152584818Y-81857668D01*
X152622267Y-81820367D01*
X152651735Y-81790119D01*
X152670037Y-81769992D01*
X152671560Y-81768114D01*
X152682649Y-81752699D01*
X152700801Y-81726190D01*
X152722018Y-81694533D01*
X152742298Y-81663677D01*
X152752685Y-81647499D01*
X152793494Y-81577049D01*
X152834113Y-81496360D01*
X152871180Y-81412808D01*
X152901332Y-81333769D01*
X152914447Y-81292492D01*
X152924763Y-81260101D01*
X152935015Y-81233290D01*
X152938250Y-81226452D01*
X152944561Y-81208724D01*
X152953510Y-81176045D01*
X152963808Y-81133402D01*
X152972283Y-81094840D01*
X152980587Y-81052881D01*
X152986654Y-81014702D01*
X152990788Y-80975889D01*
X152993296Y-80932031D01*
X152994484Y-80878714D01*
X152994658Y-80811524D01*
X152994483Y-80774800D01*
X152993765Y-80700715D01*
X152992455Y-80643289D01*
X152990257Y-80598868D01*
X152986880Y-80563793D01*
X152982029Y-80534407D01*
X152975411Y-80507054D01*
X152972076Y-80495433D01*
X152961585Y-80457434D01*
X152954027Y-80424940D01*
X152950967Y-80404724D01*
X152950960Y-80404189D01*
X152947386Y-80383686D01*
X152938209Y-80352710D01*
X152930257Y-80330656D01*
X152914388Y-80289118D01*
X152896860Y-80242335D01*
X152888149Y-80218699D01*
X152847520Y-80119759D01*
X152799518Y-80023240D01*
X152747229Y-79934755D01*
X152693737Y-79859917D01*
X152685076Y-79849349D01*
X152668351Y-79827503D01*
X152661400Y-79817303D01*
X152642442Y-79791685D01*
X152614026Y-79758322D01*
X152578993Y-79720043D01*
X152540186Y-79679676D01*
X152500446Y-79640049D01*
X152462615Y-79603991D01*
X152429536Y-79574329D01*
X152404049Y-79553892D01*
X152388997Y-79545507D01*
X152388219Y-79545440D01*
X152377561Y-79539599D01*
X152355594Y-79524198D01*
X152326836Y-79502422D01*
X152323391Y-79499727D01*
X152293817Y-79477386D01*
X152270130Y-79461099D01*
X152257029Y-79454076D01*
X152256463Y-79454007D01*
X152243856Y-79448228D01*
X152222030Y-79433624D01*
X152210743Y-79425121D01*
X152151285Y-79386290D01*
X152073212Y-79348183D01*
X151975834Y-79310483D01*
X151922738Y-79292665D01*
X151745985Y-79246022D01*
X151567938Y-79219303D01*
X151389748Y-79212665D01*
X151343310Y-79214259D01*
X151292599Y-79216616D01*
X151258621Y-79217430D01*
X151237813Y-79216215D01*
X151226617Y-79212485D01*
X151221472Y-79205758D01*
X151219206Y-79197366D01*
X151217536Y-79179197D01*
X151216396Y-79144879D01*
X151215746Y-79097496D01*
X151215548Y-79040131D01*
X151215761Y-78975870D01*
X151216345Y-78907795D01*
X151217261Y-78838992D01*
X151218468Y-78772544D01*
X151219928Y-78711535D01*
X151221599Y-78659049D01*
X151223443Y-78618171D01*
X151225420Y-78591985D01*
X151227123Y-78583627D01*
X151240982Y-78579801D01*
X151271723Y-78576897D01*
X151315927Y-78574901D01*
X151370177Y-78573796D01*
X151431055Y-78573568D01*
X151495144Y-78574202D01*
G37*
G36*
X149385082Y-85011815D02*
G01*
X149422557Y-85012616D01*
X149447495Y-85013798D01*
X149455920Y-85015147D01*
X149452623Y-85025428D01*
X149443511Y-85051505D01*
X149429753Y-85090093D01*
X149412517Y-85137906D01*
X149400040Y-85172268D01*
X149381045Y-85225170D01*
X149364776Y-85271861D01*
X149352430Y-85308793D01*
X149345206Y-85332416D01*
X149343824Y-85338821D01*
X149340470Y-85333864D01*
X149331524Y-85313396D01*
X149318350Y-85280999D01*
X149302312Y-85240255D01*
X149284777Y-85194743D01*
X149267108Y-85148047D01*
X149250671Y-85103747D01*
X149236829Y-85065425D01*
X149226948Y-85036662D01*
X149222393Y-85021039D01*
X149222240Y-85019762D01*
X149231731Y-85016517D01*
X149257528Y-85013874D01*
X149295623Y-85012115D01*
X149339080Y-85011520D01*
X149385082Y-85011815D01*
G37*
%TO.C,Q2*%
X155690000Y-111930000D02*
X155040000Y-111930000D01*
X155690000Y-108810000D02*
X154015000Y-108810000D01*
X155690000Y-111930000D02*
X156340000Y-111930000D01*
X155690000Y-108810000D02*
X156340000Y-108810000D01*
%TO.C,ER5*%
X123862742Y-121737500D02*
X124337258Y-121737500D01*
X123862742Y-122782500D02*
X124337258Y-122782500D01*
%TO.C,G\u002A\u002A\u002A*%
G36*
X158527346Y-113538017D02*
G01*
X158602102Y-113609370D01*
X158741015Y-113777520D01*
X158842319Y-113960246D01*
X158904925Y-114153793D01*
X158927740Y-114354406D01*
X158909677Y-114558331D01*
X158895797Y-114620882D01*
X158821711Y-114833816D01*
X158715079Y-115020128D01*
X158577505Y-115178214D01*
X158410593Y-115306470D01*
X158215948Y-115403293D01*
X158065552Y-115451127D01*
X157864108Y-115481110D01*
X157659442Y-115469411D01*
X157450646Y-115415921D01*
X157321136Y-115362852D01*
X157231357Y-115308507D01*
X157138303Y-115233787D01*
X157589269Y-115233787D01*
X157590266Y-115251150D01*
X157596315Y-115260309D01*
X157625321Y-115271103D01*
X157683917Y-115281511D01*
X157759177Y-115289258D01*
X157950335Y-115282577D01*
X158132290Y-115236693D01*
X158300182Y-115154509D01*
X158449151Y-115038931D01*
X158574335Y-114892866D01*
X158655242Y-114753613D01*
X158712997Y-114585689D01*
X158735559Y-114405077D01*
X158723372Y-114221943D01*
X158676878Y-114046451D01*
X158619127Y-113924878D01*
X158578368Y-113865347D01*
X158523617Y-113798377D01*
X158462917Y-113732288D01*
X158404313Y-113675404D01*
X158355849Y-113636046D01*
X158326818Y-113622466D01*
X158306436Y-113640373D01*
X158276440Y-113687366D01*
X158243251Y-113753352D01*
X158242616Y-113754758D01*
X158206479Y-113834875D01*
X158172425Y-113910258D01*
X158151143Y-113957270D01*
X158133416Y-114001090D01*
X158134601Y-114030310D01*
X158159797Y-114060109D01*
X158195948Y-114090678D01*
X158259543Y-114160897D01*
X158297309Y-114236318D01*
X158317748Y-114290268D01*
X158345340Y-114315474D01*
X158394774Y-114324851D01*
X158398366Y-114325160D01*
X158449791Y-114333733D01*
X158471126Y-114353957D01*
X158474719Y-114384466D01*
X158468645Y-114420473D01*
X158442320Y-114437501D01*
X158397569Y-114443820D01*
X158347964Y-114451714D01*
X158320811Y-114472844D01*
X158303057Y-114519699D01*
X158298007Y-114539070D01*
X158276376Y-114605585D01*
X158250498Y-114660422D01*
X158244008Y-114670216D01*
X158222857Y-114694741D01*
X158203274Y-114696734D01*
X158173122Y-114673280D01*
X158145755Y-114646619D01*
X158105343Y-114604169D01*
X158091361Y-114574692D01*
X158099711Y-114541834D01*
X158112863Y-114515379D01*
X158136757Y-114452185D01*
X158146636Y-114392476D01*
X158133074Y-114333689D01*
X158099643Y-114284027D01*
X158057229Y-114258399D01*
X158048064Y-114257466D01*
X158025100Y-114277092D01*
X157989115Y-114334613D01*
X157941156Y-114427999D01*
X157882268Y-114555218D01*
X157816147Y-114707950D01*
X157778983Y-114794015D01*
X157734442Y-114894304D01*
X157698855Y-114972533D01*
X157649893Y-115079326D01*
X157616818Y-115154230D01*
X157597364Y-115203599D01*
X157589269Y-115233787D01*
X157138303Y-115233787D01*
X157130653Y-115227644D01*
X157029288Y-115130392D01*
X156937530Y-115026882D01*
X156865644Y-114927243D01*
X156846998Y-114895007D01*
X156767641Y-114706239D01*
X156723238Y-114508006D01*
X156714855Y-114309103D01*
X156715202Y-114306798D01*
X156907549Y-114306798D01*
X156910828Y-114435958D01*
X156927615Y-114566169D01*
X156953915Y-114670919D01*
X157019646Y-114819541D01*
X157107433Y-114950851D01*
X157123205Y-114969395D01*
X157167278Y-115014137D01*
X157223627Y-115064640D01*
X157281989Y-115112547D01*
X157332102Y-115149503D01*
X157363703Y-115167151D01*
X157366676Y-115167633D01*
X157383959Y-115149606D01*
X157412422Y-115101539D01*
X157446926Y-115032455D01*
X157460097Y-115003591D01*
X157496333Y-114923404D01*
X157528210Y-114854962D01*
X157550217Y-114810037D01*
X157554022Y-114802989D01*
X157561171Y-114773510D01*
X157537759Y-114748478D01*
X157512609Y-114734219D01*
X157442627Y-114681028D01*
X157380024Y-114604800D01*
X157339000Y-114523608D01*
X157334415Y-114507447D01*
X157317832Y-114468177D01*
X157283503Y-114449721D01*
X157241677Y-114443947D01*
X157189033Y-114435681D01*
X157166640Y-114416741D01*
X157162386Y-114384466D01*
X157168306Y-114348733D01*
X157194121Y-114331679D01*
X157241034Y-114325023D01*
X157293829Y-114316567D01*
X157319562Y-114293902D01*
X157333237Y-114243335D01*
X157333778Y-114240357D01*
X157363503Y-114134255D01*
X157413222Y-114051442D01*
X157422856Y-114039990D01*
X157445333Y-114019043D01*
X157467189Y-114020027D01*
X157500617Y-114046372D01*
X157523656Y-114068359D01*
X157591678Y-114134288D01*
X157541329Y-114222335D01*
X157501683Y-114308590D01*
X157493146Y-114381748D01*
X157514185Y-114455668D01*
X157515265Y-114458061D01*
X157552580Y-114504382D01*
X157603196Y-114527265D01*
X157652213Y-114521805D01*
X157669661Y-114508919D01*
X157689999Y-114477231D01*
X157721282Y-114417059D01*
X157758148Y-114338986D01*
X157775581Y-114299800D01*
X157816556Y-114206307D01*
X157856876Y-114115053D01*
X157889568Y-114041799D01*
X157897326Y-114024633D01*
X157932672Y-113945875D01*
X157968084Y-113865562D01*
X157977134Y-113844716D01*
X158009222Y-113771560D01*
X158046287Y-113688675D01*
X158058989Y-113660669D01*
X158085182Y-113597202D01*
X158101547Y-113545961D01*
X158104303Y-113528781D01*
X158088341Y-113500020D01*
X158038737Y-113480109D01*
X157952911Y-113468491D01*
X157828285Y-113464606D01*
X157807969Y-113464646D01*
X157633562Y-113478231D01*
X157481752Y-113519721D01*
X157343569Y-113593140D01*
X157210043Y-113702513D01*
X157155949Y-113757207D01*
X157042106Y-113904065D01*
X156958776Y-114067178D01*
X156919175Y-114197698D01*
X156907549Y-114306798D01*
X156715202Y-114306798D01*
X156743557Y-114118324D01*
X156750046Y-114094652D01*
X156815961Y-113917847D01*
X156907944Y-113761823D01*
X157033614Y-113613881D01*
X157046017Y-113601347D01*
X157185639Y-113478355D01*
X157329972Y-113387943D01*
X157493642Y-113321536D01*
X157553804Y-113303589D01*
X157737856Y-113268515D01*
X157828285Y-113269234D01*
X157914521Y-113269919D01*
X158079084Y-113302421D01*
X158249846Y-113360559D01*
X158326818Y-113400849D01*
X158394238Y-113436140D01*
X158527346Y-113538017D01*
G37*
G36*
X157975014Y-116478345D02*
G01*
X157977303Y-116491483D01*
X157990960Y-116524344D01*
X158036765Y-116550735D01*
X158065833Y-116560789D01*
X158182828Y-116611999D01*
X158272089Y-116687705D01*
X158329999Y-116769687D01*
X158361950Y-116832262D01*
X158379142Y-116893005D01*
X158385591Y-116969632D01*
X158386050Y-117017012D01*
X158370114Y-117173888D01*
X158322205Y-117304122D01*
X158240550Y-117410733D01*
X158123381Y-117496743D01*
X158096254Y-117511367D01*
X158031996Y-117540615D01*
X157970193Y-117557813D01*
X157895246Y-117566041D01*
X157807969Y-117568294D01*
X157714179Y-117567325D01*
X157647479Y-117560710D01*
X157592698Y-117545281D01*
X157534665Y-117517868D01*
X157514694Y-117507021D01*
X157440541Y-117459142D01*
X157372393Y-117403670D01*
X157340659Y-117370863D01*
X157267233Y-117251272D01*
X157225998Y-117115785D01*
X157218352Y-116975216D01*
X157245694Y-116840379D01*
X157265821Y-116792336D01*
X157329368Y-116693755D01*
X157410030Y-116614646D01*
X157498493Y-116562354D01*
X157580428Y-116544216D01*
X157613747Y-116546175D01*
X157631074Y-116560059D01*
X157637630Y-116596216D01*
X157638636Y-116659599D01*
X157637061Y-116726972D01*
X157627931Y-116765341D01*
X157604639Y-116788025D01*
X157565959Y-116806098D01*
X157492359Y-116858556D01*
X157444264Y-116939307D01*
X157426970Y-117039448D01*
X157426969Y-117039832D01*
X157435018Y-117095925D01*
X157464417Y-117147860D01*
X157508329Y-117196326D01*
X157578557Y-117254263D01*
X157655384Y-117288443D01*
X157752178Y-117303567D01*
X157818553Y-117305466D01*
X157935674Y-117298218D01*
X158023664Y-117274284D01*
X158093544Y-117230378D01*
X158105059Y-117220094D01*
X158142634Y-117179141D01*
X158161383Y-117136462D01*
X158167500Y-117074852D01*
X158167803Y-117045828D01*
X158160935Y-116957002D01*
X158137978Y-116894585D01*
X158124917Y-116875655D01*
X158074586Y-116827294D01*
X158024628Y-116804430D01*
X157985298Y-116810762D01*
X157975231Y-116821659D01*
X157957683Y-116830561D01*
X157926584Y-116814240D01*
X157876066Y-116769248D01*
X157861196Y-116754594D01*
X157765115Y-116658805D01*
X157871209Y-116554306D01*
X157927277Y-116501344D01*
X157960205Y-116477015D01*
X157975014Y-116478345D01*
G37*
G36*
X158010703Y-111444866D02*
G01*
X158094740Y-111452447D01*
X158138769Y-111464871D01*
X158142403Y-111467700D01*
X158154258Y-111500590D01*
X158162569Y-111564696D01*
X158167337Y-111649047D01*
X158168562Y-111742674D01*
X158166243Y-111834607D01*
X158160380Y-111913875D01*
X158150974Y-111969510D01*
X158142403Y-111988399D01*
X158106004Y-112001703D01*
X158029272Y-112010198D01*
X157913953Y-112013710D01*
X157888403Y-112013800D01*
X157787152Y-112013163D01*
X157720947Y-112010446D01*
X157682511Y-112004434D01*
X157664564Y-111993915D01*
X157659830Y-111977676D01*
X157659803Y-111975700D01*
X157654566Y-111940244D01*
X157634770Y-111915476D01*
X157594292Y-111899585D01*
X157527006Y-111890758D01*
X157426787Y-111887183D01*
X157359236Y-111886800D01*
X157109469Y-111886800D01*
X157109469Y-111569300D01*
X157359236Y-111569300D01*
X157479110Y-111567750D01*
X157562848Y-111561895D01*
X157616577Y-111549923D01*
X157646421Y-111530022D01*
X157658505Y-111500379D01*
X157659803Y-111480400D01*
X157663620Y-111463524D01*
X157679925Y-111452490D01*
X157715996Y-111446084D01*
X157779110Y-111443093D01*
X157876545Y-111442304D01*
X157888403Y-111442300D01*
X158010703Y-111444866D01*
G37*
G36*
X157977591Y-108473644D02*
G01*
X158048184Y-108521327D01*
X158117556Y-108608160D01*
X158152069Y-108710141D01*
X158151231Y-108817701D01*
X158114552Y-108921272D01*
X158071780Y-108981337D01*
X158036427Y-109018381D01*
X158015232Y-109026187D01*
X157994693Y-109007563D01*
X157987838Y-108998796D01*
X157958821Y-108937435D01*
X157968012Y-108883037D01*
X157987886Y-108859966D01*
X158013769Y-108814383D01*
X158017173Y-108751750D01*
X157997763Y-108691101D01*
X157991058Y-108680808D01*
X157949319Y-108651621D01*
X157873159Y-108634820D01*
X157848183Y-108632348D01*
X157773178Y-108629922D01*
X157722184Y-108640314D01*
X157677879Y-108667197D01*
X157675678Y-108668922D01*
X157629055Y-108728484D01*
X157618465Y-108797509D01*
X157644835Y-108863854D01*
X157659491Y-108880821D01*
X157687781Y-108918976D01*
X157684655Y-108958304D01*
X157677260Y-108976071D01*
X157655122Y-109014980D01*
X157639199Y-109029300D01*
X157610476Y-109012604D01*
X157571542Y-108970685D01*
X157531882Y-108915789D01*
X157500977Y-108860166D01*
X157493350Y-108840933D01*
X157477983Y-108793486D01*
X157473007Y-108761417D01*
X157478491Y-108725788D01*
X157494000Y-108669466D01*
X157540069Y-108574229D01*
X157613864Y-108498785D01*
X157704944Y-108452744D01*
X157737132Y-108445623D01*
X157867795Y-108441837D01*
X157977591Y-108473644D01*
G37*
G36*
X158056432Y-110650526D02*
G01*
X158079084Y-110656587D01*
X158249846Y-110714725D01*
X158394238Y-110790307D01*
X158527346Y-110892184D01*
X158602102Y-110963537D01*
X158741015Y-111131687D01*
X158842319Y-111314413D01*
X158904925Y-111507960D01*
X158927740Y-111708573D01*
X158909677Y-111912498D01*
X158895797Y-111975048D01*
X158821711Y-112187982D01*
X158715079Y-112374294D01*
X158577505Y-112532381D01*
X158410593Y-112660637D01*
X158215948Y-112757460D01*
X158065552Y-112805294D01*
X157864108Y-112835277D01*
X157659442Y-112823577D01*
X157450646Y-112770088D01*
X157321136Y-112717019D01*
X157231357Y-112662674D01*
X157130653Y-112581810D01*
X157029288Y-112484559D01*
X156937530Y-112381049D01*
X156865644Y-112281410D01*
X156846998Y-112249174D01*
X156767641Y-112060406D01*
X156723238Y-111862173D01*
X156714855Y-111663270D01*
X156719733Y-111630845D01*
X156906745Y-111630845D01*
X156906837Y-111736371D01*
X156915037Y-111848361D01*
X156930165Y-111950466D01*
X156950327Y-112024560D01*
X157043066Y-112208387D01*
X157162363Y-112363255D01*
X157304563Y-112486741D01*
X157466011Y-112576424D01*
X157643052Y-112629881D01*
X157832031Y-112644691D01*
X157882053Y-112641963D01*
X158080261Y-112605939D01*
X158259464Y-112533233D01*
X158416336Y-112426387D01*
X158547553Y-112287942D01*
X158649790Y-112120441D01*
X158689795Y-112024383D01*
X158715910Y-111916054D01*
X158728320Y-111785763D01*
X158727083Y-111649462D01*
X158712258Y-111523103D01*
X158687602Y-111431716D01*
X158594456Y-111245775D01*
X158471129Y-111089513D01*
X158317859Y-110963169D01*
X158134887Y-110866982D01*
X158114886Y-110859001D01*
X158032758Y-110834640D01*
X157935468Y-110821773D01*
X157818553Y-110818490D01*
X157642936Y-110830876D01*
X157491716Y-110869649D01*
X157355285Y-110939053D01*
X157224037Y-111043337D01*
X157155949Y-111111374D01*
X157059701Y-111232726D01*
X156980147Y-111370338D01*
X156926073Y-111508219D01*
X156915940Y-111548133D01*
X156906745Y-111630845D01*
X156719733Y-111630845D01*
X156743557Y-111472491D01*
X156750046Y-111448819D01*
X156815961Y-111272014D01*
X156907944Y-111115990D01*
X157033614Y-110968048D01*
X157046017Y-110955514D01*
X157189209Y-110829998D01*
X157337624Y-110738340D01*
X157504556Y-110672840D01*
X157562012Y-110656677D01*
X157734367Y-110624078D01*
X157818553Y-110622995D01*
X157893735Y-110622028D01*
X158056432Y-110650526D01*
G37*
G36*
X158085912Y-115951361D02*
G01*
X158228187Y-115998013D01*
X158342325Y-116049404D01*
X158436159Y-116110878D01*
X158538332Y-116196747D01*
X158638490Y-116296433D01*
X158726280Y-116399360D01*
X158791346Y-116494948D01*
X158806133Y-116523220D01*
X158885742Y-116733368D01*
X158923474Y-116938968D01*
X158919435Y-117140903D01*
X158895709Y-117265795D01*
X158821030Y-117479514D01*
X158714135Y-117666097D01*
X158576401Y-117824165D01*
X158409208Y-117952340D01*
X158213934Y-118049242D01*
X158064632Y-118096872D01*
X157869241Y-118125771D01*
X157668946Y-118116216D01*
X157471811Y-118070052D01*
X157285902Y-117989122D01*
X157128407Y-117882846D01*
X156979997Y-117736016D01*
X156862165Y-117567042D01*
X156776923Y-117382002D01*
X156726284Y-117186972D01*
X156712261Y-116988030D01*
X156719424Y-116930748D01*
X156906105Y-116930748D01*
X156907348Y-117044528D01*
X156918344Y-117163517D01*
X156937733Y-117270092D01*
X156953193Y-117321728D01*
X157039941Y-117499190D01*
X157154006Y-117648345D01*
X157290492Y-117767979D01*
X157444502Y-117856874D01*
X157611139Y-117913815D01*
X157785507Y-117937588D01*
X157962710Y-117926975D01*
X158137850Y-117880762D01*
X158306032Y-117797733D01*
X158445527Y-117692221D01*
X158567155Y-117555299D01*
X158655619Y-117398427D01*
X158710798Y-117227967D01*
X158732567Y-117050281D01*
X158720804Y-116871730D01*
X158675388Y-116698675D01*
X158596194Y-116537478D01*
X158483101Y-116394500D01*
X158470782Y-116382283D01*
X158326151Y-116260579D01*
X158179017Y-116177148D01*
X158020716Y-116128380D01*
X157842585Y-116110664D01*
X157818553Y-116110453D01*
X157643669Y-116122312D01*
X157492840Y-116160687D01*
X157356568Y-116229772D01*
X157225353Y-116333761D01*
X157155949Y-116403041D01*
X157059785Y-116524270D01*
X156980286Y-116661723D01*
X156926225Y-116799433D01*
X156915978Y-116839800D01*
X156906105Y-116930748D01*
X156719424Y-116930748D01*
X156736867Y-116791253D01*
X156750046Y-116740485D01*
X156781985Y-116646922D01*
X156822787Y-116548942D01*
X156848189Y-116497117D01*
X156911559Y-116401370D01*
X157000152Y-116296808D01*
X157102322Y-116195090D01*
X157206426Y-116107873D01*
X157294829Y-116049964D01*
X157421965Y-115993225D01*
X157565113Y-115947620D01*
X157706887Y-115917845D01*
X157818553Y-115908466D01*
X157943615Y-115919964D01*
X158085912Y-115951361D01*
G37*
G36*
X157899616Y-109088409D02*
G01*
X157993584Y-109119661D01*
X158068564Y-109181152D01*
X158121788Y-109264019D01*
X158150486Y-109359397D01*
X158151889Y-109458423D01*
X158123228Y-109552233D01*
X158067723Y-109626503D01*
X158031606Y-109657869D01*
X158010567Y-109661220D01*
X157989215Y-109637933D01*
X157986180Y-109633796D01*
X157958484Y-109571333D01*
X157968840Y-109516721D01*
X157987886Y-109494966D01*
X158015071Y-109447994D01*
X158015281Y-109386899D01*
X157989746Y-109329129D01*
X157975081Y-109313038D01*
X157916652Y-109283612D01*
X157836971Y-109271320D01*
X157753496Y-109276165D01*
X157683687Y-109298145D01*
X157662025Y-109313038D01*
X157626176Y-109370264D01*
X157618784Y-109439729D01*
X157640146Y-109503803D01*
X157658423Y-109525468D01*
X157686207Y-109561333D01*
X157681255Y-109601585D01*
X157676192Y-109613415D01*
X157644014Y-109654806D01*
X157605802Y-109656974D01*
X157564700Y-109622022D01*
X157523848Y-109552053D01*
X157501610Y-109496546D01*
X157480929Y-109436792D01*
X157473014Y-109398431D01*
X157477807Y-109362509D01*
X157495248Y-109310077D01*
X157500974Y-109293883D01*
X157556000Y-109194102D01*
X157638719Y-109125514D01*
X157747103Y-109089163D01*
X157879129Y-109086093D01*
X157899616Y-109088409D01*
G37*
G36*
X158178455Y-108019248D02*
G01*
X158364025Y-108109386D01*
X158536780Y-108236122D01*
X158602102Y-108297554D01*
X158742363Y-108466619D01*
X158843594Y-108650068D01*
X158905251Y-108844657D01*
X158926792Y-109047140D01*
X158907676Y-109254274D01*
X158847358Y-109462814D01*
X158811010Y-109547089D01*
X158722874Y-109694300D01*
X158605478Y-109833456D01*
X158469756Y-109953481D01*
X158326643Y-110043299D01*
X158315969Y-110048483D01*
X158106087Y-110127061D01*
X157896704Y-110164353D01*
X157690952Y-110160866D01*
X157491962Y-110117107D01*
X157302866Y-110033580D01*
X157126795Y-109910793D01*
X157054398Y-109844598D01*
X156928051Y-109700506D01*
X156833433Y-109545765D01*
X156763848Y-109368454D01*
X156741105Y-109286882D01*
X156713586Y-109119245D01*
X156717256Y-108989191D01*
X156907982Y-108989191D01*
X156910499Y-109113384D01*
X156925343Y-109237760D01*
X156951128Y-109342635D01*
X156951422Y-109343476D01*
X157033996Y-109523357D01*
X157145729Y-109679911D01*
X157281757Y-109807027D01*
X157363991Y-109861503D01*
X157532486Y-109935094D01*
X157712806Y-109971604D01*
X157897964Y-109971875D01*
X158080970Y-109936749D01*
X158254837Y-109867068D01*
X158412576Y-109763674D01*
X158451000Y-109730538D01*
X158518573Y-109655247D01*
X158588344Y-109555181D01*
X158650285Y-109446095D01*
X158690983Y-109353421D01*
X158715038Y-109252363D01*
X158726985Y-109126955D01*
X158726838Y-108993407D01*
X158714609Y-108867930D01*
X158690513Y-108767293D01*
X158604982Y-108590992D01*
X158484589Y-108437536D01*
X158331457Y-108309168D01*
X158172378Y-108219238D01*
X158101476Y-108188199D01*
X158041935Y-108168746D01*
X157979505Y-108158224D01*
X157899934Y-108153978D01*
X157818553Y-108153314D01*
X157716369Y-108154536D01*
X157642184Y-108159990D01*
X157581694Y-108172363D01*
X157520594Y-108194340D01*
X157462854Y-108220087D01*
X157306490Y-108313273D01*
X157166876Y-108436733D01*
X157050632Y-108582372D01*
X156964382Y-108742092D01*
X156919175Y-108884864D01*
X156907982Y-108989191D01*
X156717256Y-108989191D01*
X156718306Y-108951999D01*
X156749273Y-108793783D01*
X156821313Y-108599253D01*
X156929125Y-108421925D01*
X157068116Y-108266241D01*
X157233695Y-108136641D01*
X157421269Y-108037563D01*
X157588775Y-107982085D01*
X157786438Y-107954230D01*
X157818553Y-107956313D01*
X157984462Y-107967073D01*
X158178455Y-108019248D01*
G37*
G36*
X158460616Y-111609067D02*
G01*
X158503280Y-111655142D01*
X158523748Y-111714698D01*
X158514573Y-111780711D01*
X158488601Y-111824482D01*
X158432585Y-111865590D01*
X158367600Y-111873792D01*
X158304971Y-111853335D01*
X158256026Y-111808463D01*
X158232092Y-111743421D01*
X158231303Y-111728050D01*
X158246955Y-111659348D01*
X158273909Y-111621969D01*
X158338485Y-111585457D01*
X158403203Y-111583498D01*
X158460616Y-111609067D01*
G37*
%TO.C,AR1*%
X123802936Y-85035000D02*
X124257064Y-85035000D01*
X123802936Y-86505000D02*
X124257064Y-86505000D01*
%TO.C,AC1*%
X119421252Y-88585000D02*
X118898748Y-88585000D01*
X119421252Y-90055000D02*
X118898748Y-90055000D01*
%TO.C,EC25*%
X134425000Y-97801252D02*
X134425000Y-97278748D01*
X135895000Y-97801252D02*
X135895000Y-97278748D01*
%TO.C,BZ1*%
X152560000Y-105960000D02*
X152560000Y-101960000D01*
X143820000Y-101210000D02*
X143820000Y-105960000D01*
X143820000Y-101210000D02*
X145440000Y-99590000D01*
X150190000Y-99590000D02*
X145440000Y-99590000D01*
X146190000Y-108330000D02*
X150190000Y-108330000D01*
%TO.C,QR1*%
X143675000Y-110712936D02*
X143675000Y-111167064D01*
X145145000Y-110712936D02*
X145145000Y-111167064D01*
%TO.C,EC50*%
X124100580Y-103400000D02*
X123819420Y-103400000D01*
X124100580Y-104420000D02*
X123819420Y-104420000D01*
%TD*%
M02*
